<?xml version="1.0" standalone="no"?>
<!DOCTYPE svg PUBLIC "-//W3C//DTD SVG 20010904//EN"
 "http://www.w3.org/TR/2001/REC-SVG-20010904/DTD/svg10.dtd">
<svg version="1.0" xmlns="http://www.w3.org/2000/svg"
 width="512.000000pt" height="512.000000pt" viewBox="0 0 512.000000 512.000000"
 preserveAspectRatio="xMidYMid meet">

<g transform="translate(0.000000,512.000000) scale(0.100000,-0.100000)"
fill="#000000" stroke="none">
<path d="M253 4495 c-102 -31 -176 -96 -222 -195 l-26 -55 -3 -357 c-3 -344
-2 -358 18 -397 23 -46 80 -81 130 -81 50 0 107 35 130 80 19 37 20 58 20 364
0 282 2 327 16 340 13 14 58 16 340 16 306 0 327 1 364 20 45 23 80 80 80 130
0 50 -35 107 -80 130 -37 19 -57 20 -382 19 -254 0 -354 -4 -385 -14z"/>
<path d="M4098 4490 c-43 -23 -78 -82 -78 -130 0 -50 35 -107 80 -130 37 -19
58 -20 364 -20 282 0 327 -2 340 -16 14 -13 16 -58 16 -340 0 -306 1 -327 20
-364 23 -45 80 -80 130 -80 50 0 107 35 130 81 20 39 21 53 18 397 l-3 357
-26 56 c-37 79 -90 133 -167 171 l-67 33 -360 2 c-343 3 -362 2 -397 -17z"/>
<path d="M678 3879 c-23 -12 -46 -35 -58 -59 -20 -39 -20 -57 -20 -1260 0
-1204 0 -1221 20 -1260 23 -45 80 -80 130 -80 50 0 107 35 130 80 20 39 20 56
20 1260 0 1204 0 1221 -20 1260 -37 73 -127 99 -202 59z"/>
<path d="M1278 3879 c-23 -12 -46 -35 -58 -59 -20 -38 -20 -57 -20 -860 0
-803 0 -822 20 -860 23 -45 80 -80 130 -80 50 0 107 35 130 80 20 38 20 57 20
860 0 803 0 822 -20 860 -37 73 -127 99 -202 59z"/>
<path d="M1878 3879 c-23 -12 -46 -35 -58 -59 -20 -39 -20 -57 -20 -1260 0
-1204 0 -1221 20 -1260 23 -45 80 -80 130 -80 50 0 107 35 130 80 20 39 20 56
20 1260 0 1204 0 1221 -20 1260 -37 73 -127 99 -202 59z"/>
<path d="M2478 3879 c-23 -12 -46 -35 -58 -59 -20 -38 -20 -57 -20 -860 0
-803 0 -822 20 -860 23 -45 80 -80 130 -80 50 0 107 35 130 80 20 38 20 57 20
860 0 803 0 822 -20 860 -37 73 -127 99 -202 59z"/>
<path d="M3078 3879 c-23 -12 -46 -35 -58 -59 -20 -38 -20 -57 -20 -860 0
-803 0 -822 20 -860 23 -45 80 -80 130 -80 50 0 107 35 130 80 20 38 20 57 20
860 0 803 0 822 -20 860 -37 73 -127 99 -202 59z"/>
<path d="M3678 3879 c-23 -12 -46 -35 -58 -59 -20 -38 -20 -57 -20 -860 0
-803 0 -822 20 -860 23 -45 80 -80 130 -80 50 0 107 35 130 80 20 38 20 57 20
860 0 803 0 822 -20 860 -37 73 -127 99 -202 59z"/>
<path d="M4278 3879 c-23 -12 -46 -35 -58 -59 -20 -39 -20 -57 -20 -1260 0
-1204 0 -1221 20 -1260 23 -45 80 -80 130 -80 50 0 107 35 130 80 20 39 20 56
20 1260 0 1204 0 1221 -20 1260 -37 73 -127 99 -202 59z"/>
<path d="M78 1689 c-24 -12 -46 -35 -58 -60 -20 -39 -21 -53 -18 -397 l3 -357
33 -67 c38 -77 92 -130 171 -167 l56 -26 357 -3 c344 -3 358 -2 397 18 46 23
81 80 81 130 0 50 -35 107 -80 130 -37 19 -58 20 -364 20 -282 0 -327 2 -340
16 -14 13 -16 58 -16 340 0 306 -1 327 -20 364 -37 73 -127 99 -202 59z"/>
<path d="M4898 1689 c-23 -12 -46 -35 -58 -59 -19 -37 -20 -58 -20 -364 0
-282 -2 -327 -16 -340 -13 -14 -58 -16 -340 -16 -306 0 -327 -1 -364 -20 -45
-23 -80 -80 -80 -130 0 -50 35 -107 81 -130 39 -20 53 -21 397 -18 l357 3 56
26 c79 37 133 90 171 167 l33 67 3 357 c3 344 2 358 -18 397 -37 74 -127 100
-202 60z"/>
<path d="M1278 1669 c-62 -32 -78 -77 -78 -214 0 -139 16 -182 80 -215 50 -25
90 -25 140 0 64 33 80 76 80 215 0 139 -16 182 -80 215 -49 25 -94 25 -142 -1z"/>
<path d="M2478 1669 c-62 -32 -78 -77 -78 -214 0 -139 16 -182 80 -215 50 -25
90 -25 140 0 64 33 80 76 80 215 0 139 -16 182 -80 215 -49 25 -94 25 -142 -1z"/>
<path d="M3078 1669 c-62 -32 -78 -77 -78 -214 0 -139 16 -182 80 -215 50 -25
90 -25 140 0 64 33 80 76 80 215 0 139 -16 182 -80 215 -49 25 -94 25 -142 -1z"/>
<path d="M3678 1669 c-62 -32 -78 -77 -78 -214 0 -139 16 -182 80 -215 50 -25
90 -25 140 0 64 33 80 76 80 215 0 139 -16 182 -80 215 -49 25 -94 25 -142 -1z"/>
</g>
</svg>
