<svg width="683" height="683" viewBox="0 0 683 683" fill="none" xmlns="http://www.w3.org/2000/svg">
<g clip-path="url(#clip0_2_2)">
<path d="M33.8869 83.8113L33.8787 83.8138C20.4185 87.9046 10.6618 96.4715 4.58679 109.546L4.58537 109.549L1.16573 116.783L0.766653 164.273L0.766651 164.273C0.566582 187.214 0.500276 199.13 0.816137 205.962C0.974002 209.377 1.22648 211.495 1.59717 213.073C1.96488 214.638 2.45236 215.688 3.11158 216.974L3.1116 216.974L3.11388 216.978C4.59831 219.947 7.19331 222.583 10.2469 224.477C13.3009 226.372 16.7775 227.502 20 227.502C23.2227 227.502 26.6998 226.372 29.7547 224.493C32.8095 222.614 35.4044 220.011 36.8881 217.108L36.8886 217.107C37.5105 215.896 37.9753 214.836 38.3316 213.296C38.6907 211.744 38.943 209.69 39.1174 206.492C39.4665 200.092 39.5 189.21 39.5 168.802C39.5 150.007 39.5665 139.093 39.8672 132.662C40.0174 129.45 40.2269 127.329 40.5228 125.895C40.8161 124.473 41.2078 123.653 41.7796 123.115C42.3175 122.543 43.1375 122.152 44.5594 121.858C45.9938 121.562 48.1143 121.353 51.3267 121.203C57.7577 120.902 68.6712 120.835 87.4667 120.835C107.874 120.835 118.757 120.802 125.156 120.453C128.354 120.278 130.408 120.026 131.96 119.667C133.5 119.311 134.56 118.846 135.772 118.224L135.772 118.224C138.675 116.74 141.279 114.145 143.157 111.09C145.036 108.035 146.167 104.558 146.167 101.335C146.167 98.1127 145.036 94.6356 143.157 91.5807C141.279 88.5259 138.675 85.931 135.772 84.4473L135.772 84.4469C134.56 83.8247 133.51 83.3606 131.944 83.0064C130.365 82.6493 128.249 82.401 124.909 82.2348C118.225 81.9023 106.742 81.902 85.0682 81.9687H85.0667C68.1341 81.9687 56.342 82.1021 48.2686 82.4017C40.1678 82.7024 35.8751 83.1699 33.8869 83.8113Z" fill="#252E3D" stroke="#252E3D"/>
<mask id="path-2-inside-1_2_2" fill="white">
<path fill-rule="evenodd" clip-rule="evenodd" d="M82.6667 173.335C84.2667 170.135 87.3333 167.069 90.4 165.469C100.4 160.135 112.4 163.602 117.333 173.335C119.313 177.195 119.823 179.439 119.954 246.002H80.0458C80.1774 179.511 80.6877 177.194 82.6667 173.335ZM80.0443 436.002C80.1737 503.217 80.6806 505.462 82.6667 509.335C85.7333 515.335 93.3333 520.002 100 520.002C106.667 520.002 114.267 515.335 117.333 509.335C119.319 505.462 119.826 503.217 119.956 436.002H80.0443Z"/>
</mask>
<path fill-rule="evenodd" clip-rule="evenodd" d="M82.6667 173.335C84.2667 170.135 87.3333 167.069 90.4 165.469C100.4 160.135 112.4 163.602 117.333 173.335C119.313 177.195 119.823 179.439 119.954 246.002H80.0458C80.1774 179.511 80.6877 177.194 82.6667 173.335ZM80.0443 436.002C80.1737 503.217 80.6806 505.462 82.6667 509.335C85.7333 515.335 93.3333 520.002 100 520.002C106.667 520.002 114.267 515.335 117.333 509.335C119.319 505.462 119.826 503.217 119.956 436.002H80.0443Z" fill="#252E3D"/>
<path d="M90.4 165.469L90.8626 166.355L90.8706 166.351L90.4 165.469ZM82.6667 173.335L83.5565 173.792L83.5611 173.782L82.6667 173.335ZM117.333 173.335L116.441 173.787L116.444 173.792L117.333 173.335ZM119.954 246.002V247.002H120.956L120.954 246L119.954 246.002ZM80.0458 246.002L79.0458 246L79.0438 247.002H80.0458V246.002ZM80.0443 436.002V435.002H79.0424L79.0443 436.004L80.0443 436.002ZM82.6667 509.335L83.5571 508.88L83.5565 508.879L82.6667 509.335ZM117.333 509.335L116.444 508.879L116.443 508.88L117.333 509.335ZM119.956 436.002L120.956 436.004L120.958 435.002H119.956V436.002ZM89.9374 164.582C86.6873 166.278 83.4679 169.497 81.7723 172.888L83.5611 173.782C85.0654 170.774 87.9794 167.859 90.8626 166.355L89.9374 164.582ZM118.225 172.883C113.019 162.612 100.386 159.01 89.9294 164.586L90.8706 166.351C100.415 161.261 111.781 164.592 116.441 173.787L118.225 172.883ZM120.954 246C120.889 212.726 120.728 195.501 120.336 186.113C120.14 181.425 119.885 178.643 119.543 176.777C119.193 174.862 118.749 173.904 118.223 172.879L116.444 173.792C116.908 174.696 117.27 175.466 117.576 177.137C117.891 178.858 118.142 181.522 118.338 186.197C118.728 195.536 118.889 212.715 118.954 246.004L120.954 246ZM80.0458 247.002H119.954V245.002H80.0458V247.002ZM81.7769 172.879C81.2506 173.905 80.8074 174.868 80.457 176.788C80.1156 178.659 79.8603 181.447 79.6643 186.14C79.2719 195.537 79.1116 212.762 79.0458 246L81.0458 246.004C81.1116 212.751 81.2722 195.572 81.6626 186.223C81.858 181.544 82.1096 178.873 82.4246 177.147C82.7306 175.469 83.0933 174.695 83.5565 173.792L81.7769 172.879ZM79.0443 436.004C79.109 469.604 79.2679 486.992 79.6601 496.463C79.8559 501.193 80.1114 503.996 80.4534 505.874C80.8045 507.802 81.2492 508.763 81.7769 509.792L83.5565 508.879C83.0911 507.971 82.7277 507.199 82.4211 505.516C82.1055 503.783 81.8537 501.098 81.6584 496.38C81.2682 486.957 81.109 469.614 81.0443 436L79.0443 436.004ZM81.7762 509.79C83.4088 512.985 86.219 515.778 89.4595 517.77C92.6996 519.763 96.4454 521.002 100 521.002V519.002C96.888 519.002 93.5004 517.908 90.5072 516.067C87.5144 514.226 84.9912 511.686 83.5571 508.88L81.7762 509.79ZM100 521.002C103.555 521.002 107.3 519.763 110.541 517.77C113.781 515.778 116.591 512.985 118.224 509.79L116.443 508.88C115.009 511.686 112.486 514.226 109.493 516.067C106.5 517.908 103.112 519.002 100 519.002V521.002ZM118.223 509.792C118.751 508.763 119.196 507.802 119.547 505.874C119.889 503.996 120.144 501.193 120.34 496.463C120.732 486.992 120.891 469.604 120.956 436.004L118.956 436C118.891 469.614 118.732 486.957 118.342 496.38C118.146 501.098 117.895 503.783 117.579 505.516C117.272 507.199 116.909 507.971 116.444 508.879L118.223 509.792ZM119.956 435.002H80.0443V437.002H119.956V435.002Z" fill="#252E3D" mask="url(#path-2-inside-1_2_2)"/>
<mask id="path-4-inside-2_2_2" fill="white">
<path fill-rule="evenodd" clip-rule="evenodd" d="M162.667 173.335C164.267 170.135 167.333 167.069 170.4 165.469C180.4 160.135 192.4 163.602 197.333 173.335C199.594 177.631 199.938 180.105 199.991 246.002H160.009C160.062 180.105 160.406 177.631 162.667 173.335Z"/>
</mask>
<path fill-rule="evenodd" clip-rule="evenodd" d="M162.667 173.335C164.267 170.135 167.333 167.069 170.4 165.469C180.4 160.135 192.4 163.602 197.333 173.335C199.594 177.631 199.938 180.105 199.991 246.002H160.009C160.062 180.105 160.406 177.631 162.667 173.335Z" fill="#252E3D"/>
<path d="M170.4 165.469L170.863 166.355L170.871 166.351L170.4 165.469ZM162.667 173.335L163.552 173.801L163.556 173.792L163.561 173.782L162.667 173.335ZM197.333 173.335L196.441 173.787L196.445 173.794L196.448 173.801L197.333 173.335ZM199.991 246.002V247.002H200.991L200.991 246.001L199.991 246.002ZM160.009 246.002L159.009 246.001L159.009 247.002H160.009V246.002ZM169.937 164.582C166.687 166.278 163.468 169.497 161.772 172.888L163.561 173.782C165.065 170.774 167.979 167.859 170.863 166.355L169.937 164.582ZM198.225 172.883C193.019 162.612 180.386 159.01 169.929 164.586L170.871 166.351C180.414 161.261 191.781 164.592 196.441 173.787L198.225 172.883ZM200.991 246.001C200.964 213.062 200.865 195.945 200.489 186.528C200.301 181.825 200.043 178.992 199.678 177.05C199.303 175.061 198.816 174.005 198.218 172.869L196.448 173.801C196.981 174.813 197.384 175.678 197.712 177.42C198.049 179.209 198.304 181.919 198.491 186.608C198.865 195.976 198.964 213.045 198.991 246.003L200.991 246.001ZM160.009 247.002H199.991V245.002H160.009V247.002ZM161.782 172.869C161.184 174.005 160.697 175.061 160.322 177.05C159.957 178.992 159.699 181.825 159.511 186.528C159.135 195.945 159.036 213.062 159.009 246.001L161.009 246.003C161.036 213.045 161.135 195.976 161.509 186.608C161.696 181.919 161.951 179.209 162.288 177.42C162.616 175.678 163.019 174.813 163.552 173.801L161.782 172.869Z" fill="#252E3D" mask="url(#path-4-inside-2_2_2)"/>
<mask id="path-6-inside-3_2_2" fill="white">
<path fill-rule="evenodd" clip-rule="evenodd" d="M242.667 173.335C244.267 170.135 247.333 167.069 250.4 165.469C260.4 160.135 272.4 163.602 277.333 173.335C279.313 177.195 279.823 179.439 279.954 246.002H240.046C240.177 179.511 240.688 177.194 242.667 173.335ZM240.044 436.002C240.174 503.217 240.681 505.462 242.667 509.335C245.733 515.335 253.333 520.002 260 520.002C266.667 520.002 274.267 515.335 277.333 509.335C279.319 505.462 279.826 503.217 279.956 436.002H240.044Z"/>
</mask>
<path fill-rule="evenodd" clip-rule="evenodd" d="M242.667 173.335C244.267 170.135 247.333 167.069 250.4 165.469C260.4 160.135 272.4 163.602 277.333 173.335C279.313 177.195 279.823 179.439 279.954 246.002H240.046C240.177 179.511 240.688 177.194 242.667 173.335ZM240.044 436.002C240.174 503.217 240.681 505.462 242.667 509.335C245.733 515.335 253.333 520.002 260 520.002C266.667 520.002 274.267 515.335 277.333 509.335C279.319 505.462 279.826 503.217 279.956 436.002H240.044Z" fill="#252E3D"/>
<path d="M250.4 165.469L250.863 166.355L250.871 166.351L250.4 165.469ZM242.667 173.335L243.557 173.792L243.561 173.782L242.667 173.335ZM277.333 173.335L276.441 173.787L276.444 173.792L277.333 173.335ZM279.954 246.002V247.002H280.956L280.954 246L279.954 246.002ZM240.046 246.002L239.046 246L239.044 247.002H240.046V246.002ZM240.044 436.002V435.002H239.042L239.044 436.004L240.044 436.002ZM242.667 509.335L243.557 508.88L243.556 508.879L242.667 509.335ZM277.333 509.335L276.444 508.879L276.443 508.88L277.333 509.335ZM279.956 436.002L280.956 436.004L280.958 435.002H279.956V436.002ZM249.937 164.582C246.687 166.278 243.468 169.497 241.772 172.888L243.561 173.782C245.065 170.774 247.979 167.859 250.863 166.355L249.937 164.582ZM278.225 172.883C273.019 162.612 260.386 159.01 249.929 164.586L250.871 166.351C260.414 161.261 271.781 164.592 276.441 173.787L278.225 172.883ZM280.954 246C280.889 212.726 280.728 195.501 280.336 186.113C280.14 181.425 279.885 178.643 279.543 176.777C279.193 174.862 278.749 173.904 278.223 172.879L276.444 173.792C276.908 174.696 277.27 175.466 277.576 177.137C277.891 178.858 278.142 181.522 278.338 186.197C278.728 195.536 278.889 212.715 278.954 246.004L280.954 246ZM240.046 247.002H279.954V245.002H240.046V247.002ZM241.777 172.879C241.251 173.905 240.807 174.868 240.457 176.788C240.116 178.659 239.86 181.447 239.664 186.14C239.272 195.537 239.112 212.762 239.046 246L241.046 246.004C241.112 212.751 241.272 195.572 241.663 186.223C241.858 181.544 242.11 178.873 242.425 177.147C242.731 175.469 243.093 174.695 243.556 173.792L241.777 172.879ZM239.044 436.004C239.109 469.604 239.268 486.992 239.66 496.463C239.856 501.193 240.111 503.996 240.453 505.874C240.804 507.802 241.249 508.763 241.777 509.792L243.556 508.879C243.091 507.971 242.728 507.199 242.421 505.516C242.105 503.783 241.854 501.098 241.658 496.38C241.268 486.957 241.109 469.614 241.044 436L239.044 436.004ZM241.776 509.79C243.409 512.985 246.219 515.778 249.459 517.77C252.7 519.763 256.445 521.002 260 521.002V519.002C256.888 519.002 253.5 517.908 250.507 516.067C247.514 514.226 244.991 511.686 243.557 508.88L241.776 509.79ZM260 521.002C263.555 521.002 267.3 519.763 270.541 517.77C273.781 515.778 276.591 512.985 278.224 509.79L276.443 508.88C275.009 511.686 272.486 514.226 269.493 516.067C266.5 517.908 263.112 519.002 260 519.002V521.002ZM278.223 509.792C278.751 508.763 279.196 507.802 279.547 505.874C279.889 503.996 280.144 501.193 280.34 496.463C280.732 486.992 280.891 469.604 280.956 436.004L278.956 436C278.891 469.614 278.732 486.957 278.342 496.38C278.146 501.098 277.895 503.783 277.579 505.516C277.272 507.199 276.909 507.971 276.444 508.879L278.223 509.792ZM279.956 435.002H240.044V437.002H279.956V435.002Z" fill="#252E3D" mask="url(#path-6-inside-3_2_2)"/>
<mask id="path-8-inside-4_2_2" fill="white">
<path fill-rule="evenodd" clip-rule="evenodd" d="M322.667 173.335C324.267 170.135 327.333 167.069 330.4 165.469C340.4 160.135 352.4 163.602 357.333 173.335C359.594 177.631 359.938 180.105 359.991 246.002H320.009C320.062 180.105 320.406 177.631 322.667 173.335Z"/>
</mask>
<path fill-rule="evenodd" clip-rule="evenodd" d="M322.667 173.335C324.267 170.135 327.333 167.069 330.4 165.469C340.4 160.135 352.4 163.602 357.333 173.335C359.594 177.631 359.938 180.105 359.991 246.002H320.009C320.062 180.105 320.406 177.631 322.667 173.335Z" fill="#252E3D"/>
<path d="M330.4 165.469L330.863 166.355L330.871 166.351L330.4 165.469ZM322.667 173.335L323.552 173.801L323.556 173.792L323.561 173.782L322.667 173.335ZM357.333 173.335L356.441 173.787L356.445 173.794L356.448 173.801L357.333 173.335ZM359.991 246.002V247.002H360.991L360.991 246.001L359.991 246.002ZM320.009 246.002L319.009 246.001L319.009 247.002H320.009V246.002ZM329.937 164.582C326.687 166.278 323.468 169.497 321.772 172.888L323.561 173.782C325.065 170.774 327.979 167.859 330.863 166.355L329.937 164.582ZM358.225 172.883C353.019 162.612 340.386 159.01 329.929 164.586L330.871 166.351C340.414 161.261 351.781 164.592 356.441 173.787L358.225 172.883ZM360.991 246.001C360.964 213.062 360.865 195.945 360.489 186.528C360.301 181.825 360.043 178.992 359.678 177.05C359.303 175.061 358.816 174.005 358.218 172.869L356.448 173.801C356.981 174.813 357.384 175.678 357.712 177.42C358.049 179.209 358.304 181.919 358.491 186.608C358.865 195.976 358.964 213.045 358.991 246.003L360.991 246.001ZM320.009 247.002H359.991V245.002H320.009V247.002ZM321.782 172.869C321.184 174.005 320.697 175.061 320.322 177.05C319.957 178.992 319.699 181.825 319.511 186.528C319.135 195.945 319.036 213.062 319.009 246.001L321.009 246.003C321.036 213.045 321.135 195.976 321.509 186.608C321.696 181.919 321.951 179.209 322.288 177.42C322.616 175.678 323.019 174.813 323.552 173.801L321.782 172.869Z" fill="#252E3D" mask="url(#path-8-inside-4_2_2)"/>
<mask id="path-10-inside-5_2_2" fill="white">
<path fill-rule="evenodd" clip-rule="evenodd" d="M402.667 173.335C404.267 170.135 407.333 167.069 410.4 165.469C420.4 160.135 432.4 163.602 437.333 173.335C439.594 177.631 439.938 180.105 439.991 246.002H400.009C400.062 180.105 400.406 177.631 402.667 173.335Z"/>
</mask>
<path fill-rule="evenodd" clip-rule="evenodd" d="M402.667 173.335C404.267 170.135 407.333 167.069 410.4 165.469C420.4 160.135 432.4 163.602 437.333 173.335C439.594 177.631 439.938 180.105 439.991 246.002H400.009C400.062 180.105 400.406 177.631 402.667 173.335Z" fill="#252E3D"/>
<path d="M410.4 165.469L410.863 166.355L410.871 166.351L410.4 165.469ZM402.667 173.335L403.552 173.801L403.556 173.792L403.561 173.782L402.667 173.335ZM437.333 173.335L436.441 173.787L436.445 173.794L436.448 173.801L437.333 173.335ZM439.991 246.002V247.002H440.991L440.991 246.001L439.991 246.002ZM400.009 246.002L399.009 246.001L399.009 247.002H400.009V246.002ZM409.937 164.582C406.687 166.278 403.468 169.497 401.772 172.888L403.561 173.782C405.065 170.774 407.979 167.859 410.863 166.355L409.937 164.582ZM438.225 172.883C433.019 162.612 420.386 159.01 409.929 164.586L410.871 166.351C420.414 161.261 431.781 164.592 436.441 173.787L438.225 172.883ZM440.991 246.001C440.964 213.062 440.865 195.945 440.489 186.528C440.301 181.825 440.043 178.992 439.678 177.05C439.303 175.061 438.816 174.005 438.218 172.869L436.448 173.801C436.981 174.813 437.384 175.678 437.712 177.42C438.049 179.209 438.304 181.919 438.491 186.608C438.865 195.976 438.964 213.045 438.991 246.003L440.991 246.001ZM400.009 247.002H439.991V245.002H400.009V247.002ZM401.782 172.869C401.184 174.005 400.697 175.061 400.322 177.05C399.957 178.992 399.699 181.825 399.511 186.528C399.135 195.945 399.036 213.062 399.009 246.001L401.009 246.003C401.036 213.045 401.135 195.976 401.509 186.608C401.696 181.919 401.951 179.209 402.288 177.42C402.616 175.678 403.019 174.813 403.552 173.801L401.782 172.869Z" fill="#252E3D" mask="url(#path-10-inside-5_2_2)"/>
<mask id="path-12-inside-6_2_2" fill="white">
<path fill-rule="evenodd" clip-rule="evenodd" d="M482.667 173.335C484.267 170.135 487.333 167.069 490.4 165.469C500.4 160.135 512.4 163.602 517.333 173.335C519.594 177.631 519.938 180.105 519.991 246.002H480.009C480.062 180.105 480.406 177.631 482.667 173.335Z"/>
</mask>
<path fill-rule="evenodd" clip-rule="evenodd" d="M482.667 173.335C484.267 170.135 487.333 167.069 490.4 165.469C500.4 160.135 512.4 163.602 517.333 173.335C519.594 177.631 519.938 180.105 519.991 246.002H480.009C480.062 180.105 480.406 177.631 482.667 173.335Z" fill="#252E3D"/>
<path d="M490.4 165.469L490.863 166.355L490.871 166.351L490.4 165.469ZM482.667 173.335L483.552 173.801L483.556 173.792L483.561 173.782L482.667 173.335ZM517.333 173.335L516.441 173.787L516.445 173.794L516.448 173.801L517.333 173.335ZM519.991 246.002V247.002H520.991L520.991 246.001L519.991 246.002ZM480.009 246.002L479.009 246.001L479.009 247.002H480.009V246.002ZM489.937 164.582C486.687 166.278 483.468 169.497 481.772 172.888L483.561 173.782C485.065 170.774 487.979 167.859 490.863 166.355L489.937 164.582ZM518.225 172.883C513.019 162.612 500.386 159.01 489.929 164.586L490.871 166.351C500.414 161.261 511.781 164.592 516.441 173.787L518.225 172.883ZM520.991 246.001C520.964 213.062 520.865 195.945 520.489 186.528C520.301 181.825 520.043 178.992 519.678 177.05C519.303 175.061 518.816 174.005 518.218 172.869L516.448 173.801C516.981 174.813 517.384 175.678 517.712 177.42C518.049 179.209 518.304 181.919 518.491 186.608C518.865 195.976 518.964 213.045 518.991 246.003L520.991 246.001ZM480.009 247.002H519.991V245.002H480.009V247.002ZM481.782 172.869C481.184 174.005 480.697 175.061 480.322 177.05C479.957 178.992 479.699 181.825 479.511 186.528C479.135 195.945 479.036 213.062 479.009 246.001L481.009 246.003C481.036 213.045 481.135 195.976 481.509 186.608C481.696 181.919 481.951 179.209 482.288 177.42C482.616 175.678 483.019 174.813 483.552 173.801L481.782 172.869Z" fill="#252E3D" mask="url(#path-12-inside-6_2_2)"/>
<mask id="path-14-inside-7_2_2" fill="white">
<path fill-rule="evenodd" clip-rule="evenodd" d="M562.667 173.335C564.267 170.135 567.333 167.069 570.4 165.469C580.4 160.135 592.4 163.602 597.333 173.335C599.313 177.195 599.823 179.439 599.954 246.002H560.046C560.177 179.511 560.688 177.194 562.667 173.335ZM560.044 436.002C560.174 503.217 560.681 505.462 562.667 509.335C565.733 515.335 573.333 520.002 580 520.002C586.667 520.002 594.267 515.335 597.333 509.335C599.319 505.462 599.826 503.217 599.956 436.002H560.044Z"/>
</mask>
<path fill-rule="evenodd" clip-rule="evenodd" d="M562.667 173.335C564.267 170.135 567.333 167.069 570.4 165.469C580.4 160.135 592.4 163.602 597.333 173.335C599.313 177.195 599.823 179.439 599.954 246.002H560.046C560.177 179.511 560.688 177.194 562.667 173.335ZM560.044 436.002C560.174 503.217 560.681 505.462 562.667 509.335C565.733 515.335 573.333 520.002 580 520.002C586.667 520.002 594.267 515.335 597.333 509.335C599.319 505.462 599.826 503.217 599.956 436.002H560.044Z" fill="#252E3D"/>
<path d="M570.4 165.469L570.863 166.355L570.871 166.351L570.4 165.469ZM562.667 173.335L563.556 173.792L563.561 173.782L562.667 173.335ZM597.333 173.335L596.441 173.787L596.443 173.792L597.333 173.335ZM599.954 246.002V247.002H600.956L600.954 246L599.954 246.002ZM560.046 246.002L559.046 246L559.044 247.002H560.046V246.002ZM560.044 436.002V435.002H559.042L559.044 436.004L560.044 436.002ZM562.667 509.335L563.557 508.88L563.556 508.879L562.667 509.335ZM597.333 509.335L596.443 508.879L596.443 508.88L597.333 509.335ZM599.956 436.002L600.956 436.004L600.958 435.002H599.956V436.002ZM569.937 164.582C566.687 166.278 563.468 169.497 561.772 172.888L563.561 173.782C565.065 170.774 567.979 167.859 570.863 166.355L569.937 164.582ZM598.225 172.883C593.019 162.612 580.385 159.01 569.929 164.586L570.871 166.351C580.414 161.261 591.781 164.592 596.441 173.787L598.225 172.883ZM600.954 246C600.889 212.726 600.728 195.501 600.336 186.113C600.14 181.425 599.885 178.643 599.543 176.777C599.193 174.862 598.749 173.904 598.223 172.879L596.443 173.792C596.907 174.696 597.27 175.466 597.576 177.137C597.891 178.858 598.142 181.522 598.338 186.197C598.728 195.536 598.889 212.715 598.954 246.004L600.954 246ZM560.046 247.002H599.954V245.002H560.046V247.002ZM561.777 172.879C561.251 173.905 560.807 174.868 560.457 176.788C560.116 178.659 559.86 181.447 559.664 186.14C559.272 195.537 559.111 212.762 559.046 246L561.046 246.004C561.112 212.751 561.272 195.572 561.663 186.223C561.858 181.544 562.11 178.873 562.425 177.147C562.731 175.469 563.093 174.695 563.556 173.792L561.777 172.879ZM559.044 436.004C559.109 469.604 559.268 486.992 559.66 496.463C559.856 501.193 560.111 503.996 560.453 505.874C560.804 507.802 561.249 508.763 561.777 509.792L563.556 508.879C563.091 507.971 562.728 507.199 562.421 505.516C562.105 503.783 561.854 501.098 561.658 496.38C561.268 486.957 561.109 469.614 561.044 436L559.044 436.004ZM561.776 509.79C563.409 512.985 566.219 515.778 569.459 517.77C572.7 519.763 576.445 521.002 580 521.002V519.002C576.888 519.002 573.5 517.908 570.507 516.067C567.514 514.226 564.991 511.686 563.557 508.88L561.776 509.79ZM580 521.002C583.555 521.002 587.3 519.763 590.54 517.77C593.781 515.778 596.591 512.985 598.224 509.79L596.443 508.88C595.009 511.686 592.486 514.226 589.493 516.067C586.5 517.908 583.112 519.002 580 519.002V521.002ZM598.223 509.792C598.751 508.763 599.195 507.802 599.547 505.874C599.889 503.996 600.144 501.193 600.34 496.463C600.732 486.992 600.891 469.604 600.956 436.004L598.956 436C598.891 469.614 598.732 486.957 598.342 496.38C598.146 501.098 597.895 503.783 597.579 505.516C597.272 507.199 596.909 507.971 596.443 508.879L598.223 509.792ZM599.956 435.002H560.044V437.002H599.956V435.002Z" fill="#252E3D" mask="url(#path-14-inside-7_2_2)"/>
<path d="M10.6353 457.91L10.6354 457.91L10.6236 457.916C7.52926 459.463 4.67262 462.445 3.11743 465.685L3.11759 465.685L3.11158 465.697C2.45236 466.982 1.96488 468.032 1.59717 469.598C1.22648 471.176 0.974002 473.294 0.816137 476.708C0.500276 483.541 0.566582 495.456 0.766651 518.398L0.766653 518.398L1.16569 565.884L5.51504 574.714C10.5311 584.878 17.6472 591.863 28.078 596.749C28.0782 596.749 28.0785 596.749 28.0787 596.749L35.4457 600.17L82.9375 600.569L82.9377 600.569C105.879 600.769 117.794 600.835 124.627 600.519C128.042 600.361 130.16 600.109 131.738 599.738C133.303 599.371 134.353 598.883 135.639 598.224L135.643 598.222C138.612 596.737 141.248 594.142 143.142 591.089C145.036 588.035 146.167 584.558 146.167 581.335C146.167 578.113 145.036 574.636 143.157 571.581C141.279 568.526 138.675 565.931 135.772 564.447L135.772 564.447C134.56 563.825 133.5 563.36 131.96 563.004C130.408 562.645 128.354 562.392 125.156 562.218C118.757 561.869 107.874 561.835 87.4667 561.835C68.6712 561.835 57.7577 561.769 51.3267 561.468C48.1143 561.318 45.9938 561.108 44.5594 560.813C43.1375 560.519 42.3176 560.128 41.7796 559.556C41.2078 559.018 40.8161 558.198 40.5228 556.776C40.2269 555.342 40.0174 553.221 39.8672 550.009C39.5665 543.578 39.5 532.664 39.5 513.869C39.5 493.461 39.4665 482.579 39.1174 476.179C38.943 472.981 38.6907 470.927 38.3316 469.375C37.9753 467.835 37.5105 466.775 36.8885 465.564L36.8874 465.561C32.0903 456.097 20.4072 452.698 10.6353 457.91Z" fill="#252E3D" stroke="#252E3D"/>
<path d="M648.78 598.426L648.788 598.424C662.248 594.333 672.005 585.766 678.08 572.691L678.081 572.688L681.501 565.455L681.9 517.965L681.9 517.964C682.1 495.023 682.166 483.108 681.851 476.275C681.693 472.86 681.44 470.742 681.07 469.164C680.702 467.599 680.214 466.549 679.555 465.264L679.555 465.264L679.553 465.259C678.068 462.29 675.473 459.655 672.42 457.76C669.366 455.866 665.889 454.736 662.667 454.736C659.444 454.736 655.967 455.866 652.912 457.745C649.857 459.623 647.262 462.227 645.779 465.13L645.778 465.131C645.156 466.342 644.691 467.402 644.335 468.942C643.976 470.494 643.724 472.548 643.549 475.746C643.2 482.145 643.167 493.028 643.167 513.436C643.167 532.231 643.1 543.145 642.799 549.576C642.649 552.788 642.44 554.908 642.144 556.343C641.851 557.765 641.459 558.585 640.887 559.123C640.349 559.694 639.529 560.086 638.107 560.379C636.673 560.675 634.552 560.885 631.34 561.035C624.909 561.336 613.996 561.402 595.2 561.402C574.792 561.402 563.91 561.436 557.511 561.785C554.313 561.959 552.259 562.211 550.706 562.571C549.166 562.927 548.106 563.392 546.895 564.014L546.894 564.014C543.991 565.498 541.388 568.093 539.509 571.147C537.631 574.202 536.5 577.679 536.5 580.902C536.5 584.125 537.631 587.602 539.509 590.657C541.388 593.712 543.991 596.307 546.894 597.79L546.895 597.791C548.107 598.413 549.157 598.877 550.723 599.231C552.302 599.588 554.418 599.837 557.758 600.003C564.441 600.335 575.924 600.336 597.598 600.269H597.6C614.533 600.269 626.325 600.135 634.398 599.836C642.499 599.535 646.792 599.068 648.78 598.426Z" fill="#252E3D" stroke="#252E3D"/>
<path d="M672.031 224.328L672.031 224.327L672.043 224.322C675.137 222.774 677.994 219.792 679.549 216.552L679.549 216.552L679.555 216.541C680.214 215.255 680.702 214.205 681.07 212.64C681.44 211.062 681.693 208.944 681.851 205.529C682.166 198.696 682.1 186.781 681.9 163.84L681.9 163.84L681.501 116.354L677.152 107.523C672.136 97.3594 665.02 90.3741 654.589 85.4886C654.588 85.4885 654.588 85.4884 654.588 85.4883L647.221 82.0679L599.729 81.6688L599.729 81.6688C576.788 81.4687 564.872 81.4024 558.04 81.7183C554.625 81.8761 552.507 82.1286 550.929 82.4993C549.364 82.867 548.314 83.3545 547.028 84.0137L547.024 84.016C544.055 85.5004 541.419 88.0954 539.525 91.149C537.63 94.203 536.5 97.6796 536.5 100.902C536.5 104.125 537.631 107.602 539.509 110.657C541.388 113.712 543.991 116.307 546.894 117.79L546.895 117.791C548.106 118.413 549.166 118.877 550.706 119.234C552.259 119.593 554.313 119.845 557.511 120.02C563.91 120.369 574.792 120.402 595.2 120.402C613.996 120.402 624.909 120.469 631.34 120.769C634.552 120.92 636.673 121.129 638.107 121.425C639.529 121.718 640.349 122.11 640.887 122.682C641.459 123.22 641.851 124.04 642.144 125.462C642.44 126.896 642.649 129.016 642.799 132.229C643.1 138.66 643.167 149.573 643.167 168.369C643.167 188.776 643.2 199.659 643.549 206.058C643.724 209.256 643.976 211.31 644.335 212.862C644.691 214.403 645.156 215.462 645.778 216.674L645.779 216.676C650.576 226.14 662.259 229.539 672.031 224.328Z" fill="#252E3D" stroke="#252E3D"/>
<path d="M170.638 460.575L170.638 460.575L170.629 460.58C166.585 462.667 164.086 465.146 162.57 469.323C161.036 473.548 160.5 479.535 160.5 488.669C160.5 497.937 161.037 503.921 162.602 508.128C164.148 512.282 166.709 514.732 170.893 516.89C174.177 518.531 177.099 519.335 180 519.335C182.901 519.335 185.823 518.531 189.107 516.89C193.291 514.732 195.852 512.282 197.398 508.128C198.963 503.921 199.5 497.937 199.5 488.669C199.5 479.401 198.963 473.416 197.398 469.21C195.852 465.055 193.29 462.605 189.105 460.447C185.895 458.809 182.841 458.003 179.819 458.019C176.798 458.035 173.779 458.874 170.638 460.575Z" fill="#252E3D" stroke="#252E3D"/>
<path d="M330.638 460.575L330.638 460.575L330.629 460.58C326.585 462.667 324.086 465.146 322.57 469.323C321.036 473.548 320.5 479.535 320.5 488.669C320.5 497.937 321.037 503.921 322.602 508.128C324.148 512.282 326.709 514.732 330.893 516.89C334.177 518.531 337.099 519.335 340 519.335C342.901 519.335 345.823 518.531 349.107 516.89C353.291 514.732 355.852 512.282 357.398 508.128C358.963 503.921 359.5 497.937 359.5 488.669C359.5 479.401 358.963 473.416 357.398 469.21C355.852 465.055 353.29 462.605 349.105 460.447C345.895 458.809 342.841 458.003 339.819 458.019C336.798 458.035 333.779 458.874 330.638 460.575Z" fill="#252E3D" stroke="#252E3D"/>
<path d="M410.638 460.575L410.638 460.575L410.629 460.58C406.585 462.667 404.086 465.146 402.57 469.323C401.036 473.548 400.5 479.535 400.5 488.669C400.5 497.937 401.037 503.921 402.602 508.128C404.148 512.282 406.709 514.732 410.893 516.89C414.177 518.531 417.099 519.335 420 519.335C422.901 519.335 425.823 518.531 429.107 516.89C433.291 514.732 435.852 512.282 437.398 508.128C438.963 503.921 439.5 497.937 439.5 488.669C439.5 479.401 438.963 473.416 437.398 469.21C435.852 465.055 433.29 462.605 429.105 460.447C425.895 458.809 422.841 458.003 419.819 458.019C416.798 458.035 413.779 458.874 410.638 460.575Z" fill="#252E3D" stroke="#252E3D"/>
<path d="M490.638 460.575L490.638 460.575L490.629 460.58C486.585 462.667 484.086 465.146 482.57 469.323C481.036 473.548 480.5 479.535 480.5 488.669C480.5 497.937 481.037 503.921 482.602 508.128C484.148 512.282 486.709 514.732 490.893 516.89C494.177 518.531 497.099 519.335 500 519.335C502.901 519.335 505.823 518.531 509.107 516.89C513.291 514.732 515.852 512.282 517.398 508.128C518.963 503.921 519.5 497.937 519.5 488.669C519.5 479.401 518.963 473.416 517.398 469.21C515.852 465.055 513.29 462.605 509.105 460.447C505.895 458.809 502.841 458.003 499.819 458.019C496.798 458.035 493.779 458.874 490.638 460.575Z" fill="#252E3D" stroke="#252E3D"/>
<path d="M43.64 417.1C32.44 417.1 23.97 413.95 18.23 407.65C12.49 401.21 9.62 392.04 9.62 380.14V371.74H31.46V381.82C31.46 391.34 35.45 396.1 43.43 396.1C47.35 396.1 50.29 394.98 52.25 392.74C54.35 390.36 55.4 386.58 55.4 381.4C55.4 375.24 54 369.85 51.2 365.23C48.4 360.47 43.22 354.8 35.66 348.22C26.14 339.82 19.49 332.26 15.71 325.54C11.93 318.68 10.04 310.98 10.04 302.44C10.04 290.82 12.98 281.86 18.86 275.56C24.74 269.12 33.28 265.9 44.48 265.9C55.54 265.9 63.87 269.12 69.47 275.56C75.21 281.86 78.08 290.96 78.08 302.86V308.95H56.24V301.39C56.24 296.35 55.26 292.71 53.3 290.47C51.34 288.09 48.47 286.9 44.69 286.9C36.99 286.9 33.14 291.59 33.14 300.97C33.14 306.29 34.54 311.26 37.34 315.88C40.28 320.5 45.53 326.1 53.09 332.68C62.75 341.08 69.4 348.71 73.04 355.57C76.68 362.43 78.5 370.48 78.5 379.72C78.5 391.76 75.49 401 69.47 407.44C63.59 413.88 54.98 417.1 43.64 417.1ZM124.295 417.1C113.235 417.1 104.765 413.95 98.8848 407.65C93.1448 401.35 90.2748 392.46 90.2748 380.98V302.02C90.2748 290.54 93.1448 281.65 98.8848 275.35C104.765 269.05 113.235 265.9 124.295 265.9C135.355 265.9 143.755 269.05 149.495 275.35C155.375 281.65 158.315 290.54 158.315 302.02V317.56H136.475V300.55C136.475 291.45 132.625 286.9 124.925 286.9C117.225 286.9 113.375 291.45 113.375 300.55V382.66C113.375 391.62 117.225 396.1 124.925 396.1C132.625 396.1 136.475 391.62 136.475 382.66V360.19H158.315V380.98C158.315 392.46 155.375 401.35 149.495 407.65C143.755 413.95 135.355 417.1 124.295 417.1ZM189.985 268H221.275L245.215 415H222.115L217.915 385.81V386.23H191.665L187.465 415H166.045L189.985 268ZM215.185 366.28L204.895 293.62H204.475L194.395 366.28H215.185ZM256.423 268H285.403L307.873 355.99H308.293V268H328.873V415H305.143L277.423 307.69H277.003V415H256.423V268ZM346.042 268H379.012L393.712 373.21H394.132L408.832 268H441.802V415H419.962V303.7H419.542L402.742 415H383.422L366.622 303.7H366.202V415H346.042V268ZM476.89 268H508.18L532.12 415H509.02L504.82 385.81V386.23H478.57L474.37 415H452.95L476.89 268ZM502.09 366.28L491.8 293.62H491.38L481.3 366.28H502.09ZM551.748 289H527.598V268H598.998V289H574.848V415H551.748V289ZM610.182 268H673.182V289H633.282V327.85H664.992V348.85H633.282V394H673.182V415H610.182V268Z" fill="#252E3D"/>
</g>
<defs>
<clipPath id="clip0_2_2">
<rect width="682.667" height="682.667" fill="white"/>
</clipPath>
</defs>
</svg>
