<?xml version="1.0" standalone="no"?>
<!DOCTYPE svg PUBLIC "-//W3C//DTD SVG 20010904//EN"
 "http://www.w3.org/TR/2001/REC-SVG-20010904/DTD/svg10.dtd">
<svg version="1.0" xmlns="http://www.w3.org/2000/svg"
 width="512.000000pt" height="512.000000pt" viewBox="0 0 512.000000 512.000000"
 preserveAspectRatio="xMidYMid meet">

<g transform="translate(0.000000,512.000000) scale(0.100000,-0.100000)"
fill="#252E3D" stroke="none">
<path d="M510 4245 c-180 -40 -357 -178 -439 -345 -75 -153 -72 -94 -69 -1368
l3 -1137 23 -70 c66 -197 210 -346 410 -424 l67 -26 409 -3 409 -3 129 81 c71
45 135 80 142 77 7 -3 59 -38 117 -79 l104 -73 1374 -3 c1533 -3 1424 -7 1579
69 145 71 268 217 324 384 l23 70 3 1137 c3 1274 6 1215 -69 1368 -83 169
-260 307 -444 345 -59 12 -273 15 -1412 15 -791 0 -1352 -4 -1366 -9 -13 -5
-69 -41 -124 -80 -56 -39 -106 -71 -112 -71 -7 0 -62 35 -124 78 l-112 77
-390 2 c-304 1 -404 -1 -455 -12z m837 -347 l92 -63 0 -1270 0 -1270 -100 -63
-100 -62 -329 0 c-309 0 -333 1 -385 21 -73 27 -156 104 -192 177 l-28 57 0
1135 0 1135 26 55 c33 70 79 123 136 157 84 49 105 52 458 52 l329 1 93 -62z
m3264 31 c79 -37 133 -90 171 -167 l33 -67 0 -1135 0 -1135 -28 -57 c-36 -73
-119 -150 -192 -177 -55 -21 -65 -21 -1366 -21 l-1311 0 -89 62 -89 61 2 1271
3 1270 90 63 89 63 1316 -2 1315 -3 56 -26z"/>
<path d="M2648 3450 c-225 -39 -383 -254 -351 -477 14 -96 54 -175 122 -244
97 -96 235 -143 361 -121 144 26 258 111 322 239 32 65 33 73 33 183 0 129
-13 171 -83 262 -88 116 -260 183 -404 158z m119 -305 c12 -3 34 -20 48 -36
19 -24 25 -42 25 -81 0 -43 -4 -54 -33 -83 -64 -64 -157 -52 -199 26 -37 67 1
157 77 178 30 9 40 8 82 -4z"/>
<path d="M3855 3351 c-16 -10 -337 -327 -712 -702 -597 -599 -682 -689 -688
-721 -18 -98 47 -178 145 -178 23 0 51 5 63 11 12 6 331 320 710 698 727 726
718 716 701 788 -24 103 -137 156 -219 104z"/>
<path d="M3636 2429 c-97 -23 -197 -93 -255 -180 -144 -215 -60 -510 176 -622
64 -30 75 -32 178 -32 99 0 116 3 169 28 119 55 199 146 236 266 85 273 -124
554 -410 550 -30 -1 -72 -5 -94 -10z m155 -304 c115 -60 73 -235 -56 -235 -69
0 -125 54 -125 122 0 45 19 78 59 105 40 27 80 29 122 8z"/>
</g>
</svg>
