<?xml version="1.0" standalone="no"?>
<!DOCTYPE svg PUBLIC "-//W3C//DTD SVG 20010904//EN"
 "http://www.w3.org/TR/2001/REC-SVG-20010904/DTD/svg10.dtd">
<svg version="1.0" xmlns="http://www.w3.org/2000/svg"
 width="512.000000pt" height="512.000000pt" viewBox="0 0 512.000000 512.000000"
 preserveAspectRatio="xMidYMid meet">

<g transform="translate(0.000000,512.000000) scale(0.100000,-0.100000)"
fill="#252E3D" stroke="none">
<path d="M78 4189 c-23 -12 -46 -35 -58 -59 -19 -38 -20 -58 -20 -520 0 -462
1 -482 20 -520 23 -46 81 -80 134 -80 111 0 228 -50 311 -134 71 -71 110 -147
127 -247 23 -131 -23 -277 -118 -379 -74 -79 -214 -140 -320 -140 -53 0 -111
-34 -134 -80 -19 -38 -20 -58 -20 -520 0 -462 1 -482 20 -520 13 -26 34 -47
60 -60 39 -20 53 -20 2480 -20 2427 0 2441 0 2480 20 26 13 47 34 60 60 20 39
20 56 20 1570 0 1514 0 1531 -20 1570 -13 26 -34 47 -60 60 -39 20 -53 20
-2482 20 -2413 -1 -2443 -1 -2480 -21z m1134 -378 c3 -107 13 -132 72 -175 40
-30 120 -29 165 3 47 34 61 75 61 181 l0 90 1655 0 1655 0 0 -1350 0 -1350
-1660 0 -1660 0 0 90 c0 112 -20 159 -80 190 -50 25 -90 25 -140 0 -60 -31
-80 -78 -80 -190 l0 -90 -450 0 -450 0 0 308 0 308 52 14 c196 50 374 200 471
395 56 115 71 183 71 325 0 129 -10 186 -56 295 -55 132 -183 276 -313 353
-67 39 -177 82 -210 82 -13 0 -15 38 -15 310 l0 310 454 0 454 0 4 -99z"/>
<path d="M2765 3596 c-84 -21 -147 -57 -211 -121 -177 -176 -177 -453 1 -630
258 -259 695 -118 757 244 24 141 -22 281 -127 387 -112 113 -269 158 -420
120z m175 -306 c45 -23 80 -80 80 -130 0 -76 -74 -150 -151 -150 -46 0 -108
39 -130 82 -37 72 -14 151 57 194 48 29 92 30 144 4z"/>
<path d="M4001 3592 c-28 -14 -139 -174 -654 -947 -678 -1017 -651 -969 -608
-1053 24 -46 80 -82 130 -82 84 0 59 -32 711 946 334 500 615 924 624 942 64
123 -76 257 -203 194z"/>
<path d="M1278 3289 c-68 -35 -78 -71 -78 -279 0 -161 2 -185 20 -220 23 -45
80 -80 130 -80 50 0 107 35 130 80 18 35 20 59 20 220 0 161 -2 185 -20 220
-37 73 -127 99 -202 59z"/>
<path d="M1278 2389 c-68 -35 -78 -71 -78 -279 0 -161 2 -185 20 -220 23 -45
80 -80 130 -80 50 0 107 35 130 80 18 35 20 59 20 220 0 161 -2 185 -20 220
-37 73 -127 99 -202 59z"/>
<path d="M3965 2396 c-84 -21 -147 -57 -211 -121 -177 -176 -177 -453 1 -630
258 -259 695 -118 757 244 24 141 -22 281 -127 387 -112 113 -269 158 -420
120z m175 -306 c45 -23 80 -80 80 -130 0 -76 -74 -150 -151 -150 -46 0 -108
39 -130 82 -37 72 -14 151 57 194 48 29 92 30 144 4z"/>
</g>
</svg>
