<?xml version="1.0" standalone="no"?>
<!DOCTYPE svg PUBLIC "-//W3C//DTD SVG 20010904//EN"
 "http://www.w3.org/TR/2001/REC-SVG-20010904/DTD/svg10.dtd">
<svg version="1.0" xmlns="http://www.w3.org/2000/svg"
 width="512.000000pt" height="512.000000pt" viewBox="0 0 512.000000 512.000000"
 preserveAspectRatio="xMidYMid meet">

<g transform="translate(0.000000,512.000000) scale(0.100000,-0.100000)"
fill="#252E3D" stroke="none">
<path d="M2451 5104 c-81 -22 -176 -76 -271 -154 -47 -39 -123 -101 -168 -139
-46 -38 -100 -78 -120 -88 -40 -19 -89 -21 -467 -12 -168 4 -184 3 -248 -19
-131 -46 -234 -150 -287 -290 -12 -31 -35 -111 -51 -177 -43 -179 -69 -265
-90 -306 -26 -52 -84 -98 -236 -190 -231 -139 -310 -211 -367 -329 -26 -55
-31 -79 -34 -160 -5 -118 8 -173 93 -380 74 -183 95 -249 95 -304 0 -46 -31
-139 -108 -326 -66 -160 -85 -236 -84 -335 0 -100 26 -173 90 -258 57 -73 144
-141 316 -244 149 -90 209 -139 238 -196 11 -23 42 -127 68 -232 26 -104 57
-215 69 -246 56 -147 160 -250 295 -291 82 -25 186 -28 461 -14 232 12 235 11
435 -163 134 -117 259 -201 335 -226 42 -14 87 -20 150 -20 150 1 243 49 467
241 79 68 163 133 188 146 49 25 62 26 480 17 173 -3 189 -2 245 19 125 47
213 129 269 252 26 58 57 163 100 343 50 208 71 234 288 365 236 142 315 213
372 332 26 55 31 79 34 160 5 120 -8 173 -99 394 -38 92 -74 195 -81 227 -16
77 -4 134 58 282 114 276 140 382 124 497 -24 170 -123 279 -409 451 -144 87
-204 136 -233 192 -11 23 -42 127 -68 232 -57 228 -79 287 -134 368 -74 108
-170 165 -319 188 -55 9 -116 9 -257 -1 -215 -15 -310 -11 -362 14 -20 10 -79
53 -130 97 -158 135 -266 216 -322 244 -112 55 -219 68 -325 39z m166 -296
c49 -21 113 -69 231 -170 271 -234 346 -257 748 -228 307 22 335 3 399 -270
48 -203 66 -263 105 -346 63 -130 131 -190 425 -369 83 -51 159 -115 177 -149
28 -52 8 -131 -101 -398 -116 -285 -109 -386 55 -778 58 -139 69 -219 36 -272
-26 -42 -87 -88 -237 -178 -305 -183 -358 -255 -444 -602 -56 -223 -75 -273
-119 -310 -44 -37 -111 -43 -316 -28 -384 29 -460 5 -732 -230 -141 -122 -234
-180 -287 -180 -49 0 -136 55 -277 176 -194 166 -262 208 -378 233 -68 14
-219 14 -404 -1 -275 -22 -310 4 -373 272 -98 420 -141 481 -474 681 -145 86
-226 156 -240 204 -13 46 3 119 50 233 123 295 146 382 135 511 -7 81 -49 214
-132 411 -58 139 -69 219 -36 272 26 42 87 88 236 177 164 100 183 113 254
184 92 90 131 176 191 417 58 232 72 270 117 309 46 41 98 47 289 33 435 -33
472 -20 826 282 133 113 207 144 276 114z"/>
<path d="M2363 4299 c-426 -50 -836 -264 -1114 -583 -578 -661 -584 -1624 -16
-2295 226 -266 554 -470 894 -556 689 -173 1403 79 1831 646 263 348 390 807
342 1234 -70 605 -424 1112 -966 1383 -293 147 -646 209 -971 171z m489 -319
c568 -120 1006 -559 1130 -1133 29 -135 31 -416 5 -550 -39 -195 -118 -384
-233 -559 -62 -94 -278 -310 -372 -372 -172 -113 -344 -187 -535 -228 -146
-31 -427 -31 -570 0 -312 68 -550 202 -767 428 -193 203 -320 448 -377 731
-27 133 -24 414 5 550 41 190 111 357 221 523 69 105 278 317 378 383 202 134
414 215 638 246 109 15 364 5 477 -19z"/>
<path d="M2020 3484 c-172 -63 -284 -251 -266 -446 32 -347 398 -508 629 -276
141 141 168 373 64 550 -34 59 -117 135 -175 160 -63 29 -190 35 -252 12z
m179 -199 c73 -37 117 -130 109 -230 -15 -177 -174 -264 -285 -155 -135 132
-64 400 105 400 24 0 56 -7 71 -15z"/>
<path d="M2826 3408 c-35 -32 -669 -1536 -670 -1592 0 -31 5 -43 33 -68 29
-26 39 -30 74 -25 22 3 48 14 58 24 10 10 165 369 344 797 318 757 327 780
316 817 -20 67 -103 92 -155 47z"/>
<path d="M2899 2456 c-132 -35 -244 -159 -278 -307 -25 -109 -5 -245 52 -341
34 -58 117 -134 175 -161 38 -18 65 -22 142 -22 116 0 167 22 251 105 92 91
137 220 125 352 -24 258 -244 434 -467 374z m157 -206 c115 -56 148 -243 64
-359 -70 -96 -190 -96 -263 1 -84 112 -51 298 63 356 55 27 82 28 136 2z"/>
</g>
</svg>
