<?xml version="1.0" standalone="no"?>
<!DOCTYPE svg PUBLIC "-//W3C//DTD SVG 20010904//EN"
 "http://www.w3.org/TR/2001/REC-SVG-20010904/DTD/svg10.dtd">
<svg version="1.0" xmlns="http://www.w3.org/2000/svg"
 width="512.000000pt" height="512.000000pt" viewBox="0 0 512.000000 512.000000"
 preserveAspectRatio="xMidYMid meet">

<g transform="translate(0.000000,512.000000) scale(0.100000,-0.100000)"
fill="#252E3D" stroke="none">
<path d="M2390 5092 c-185 -63 -1747 -636 -1783 -654 -124 -62 -202 -221 -177
-357 6 -31 26 -98 45 -150 19 -51 35 -97 35 -101 0 -4 -30 -13 -66 -20 -134
-25 -280 -125 -355 -241 -17 -28 -44 -80 -58 -117 l-26 -67 -3 -1445 c-2
-1414 -2 -1446 18 -1523 26 -103 69 -177 149 -257 76 -75 166 -124 268 -145
102 -22 3844 -22 3946 0 147 31 292 137 365 266 65 114 72 171 72 556 l0 343
23 0 c39 0 125 47 172 95 26 25 59 72 73 103 l27 57 0 485 0 485 -26 55 c-46
99 -122 165 -222 195 l-42 12 -5 359 c-6 355 -6 360 -31 426 -74 190 -235 327
-426 360 l-72 12 -3 226 -3 226 -33 66 c-36 74 -95 132 -170 170 l-47 23 -530
5 -530 5 -66 183 c-79 217 -91 242 -147 294 -60 55 -137 88 -219 94 -57 4 -82
0 -153 -24z m157 -280 c14 -9 31 -47 77 -176 l33 -93 -82 -6 c-68 -4 -94 -10
-144 -37 -73 -39 -124 -93 -160 -169 -25 -55 -26 -62 -29 -283 l-3 -228 -702
0 -702 0 -58 157 c-51 139 -56 159 -43 177 10 16 244 105 892 342 483 177 886
322 894 323 8 0 20 -3 27 -7z m1427 -588 c13 -13 16 -46 16 -210 l0 -194 -725
0 -725 0 0 194 c0 164 3 197 16 210 14 14 92 16 709 16 617 0 695 -2 709 -16z
m379 -718 c55 -20 103 -61 134 -114 l28 -47 3 -337 3 -337 -348 -3 -348 -3
-80 -28 c-254 -89 -433 -277 -501 -527 -23 -81 -25 -280 -5 -359 55 -217 202
-402 395 -496 155 -76 167 -78 549 -83 l337 -3 0 -328 c0 -369 -3 -391 -69
-459 -20 -21 -55 -47 -76 -57 -39 -20 -72 -20 -1965 -20 -1893 0 -1926 0
-1965 20 -21 10 -56 37 -76 58 -74 76 -70 -29 -67 1547 l3 1415 28 47 c31 53
79 94 134 114 56 20 3830 20 3886 0z m451 -1152 c14 -13 16 -67 16 -431 0
-373 -2 -418 -17 -435 -15 -17 -42 -18 -447 -18 -467 0 -492 2 -598 56 -106
54 -201 180 -227 302 -39 187 45 380 210 479 100 60 119 62 606 62 389 1 443
-1 457 -15z"/>
<path d="M3902 2053 c-108 -53 -106 -210 3 -263 23 -11 52 -20 65 -20 45 0
105 38 129 81 71 126 -66 267 -197 202z"/>
</g>
</svg>
