<svg width="1340" height="1876" viewBox="0 0 1340 1876" fill="none" xmlns="http://www.w3.org/2000/svg">
<g clip-path="url(#clip0_12_3)">
<path d="M1340 1175.18H0V1876H1340V1175.18Z" fill="white"/>
<path fill-rule="evenodd" clip-rule="evenodd" d="M1340 0H0V1876H1.10704C21.2244 1487.44 313.007 1179.2 670 1179.2C1026.99 1179.2 1318.78 1487.44 1338.89 1876H1340V0Z" fill="#D9D9D9"/>
<path d="M636.186 1267.13C635.244 1267.6 633.935 1268.7 633.307 1269.59C632.208 1271.11 632.156 1271.89 631.999 1281C631.841 1289.32 631.947 1291.1 632.732 1292.67C635.453 1298.48 643.724 1298.48 646.55 1292.67C647.492 1290.79 647.597 1289.43 647.597 1281.68C647.597 1273.78 647.492 1272.63 646.498 1270.59C644.614 1266.76 640.059 1265.19 636.186 1267.13Z" fill="#252E3D"/>
<path d="M592.374 1285.82C589.495 1287.07 587.401 1290.27 587.401 1293.25C587.401 1295.66 589.391 1298.38 595.358 1304.24C602.528 1311.31 603.209 1311.78 606.245 1311.78C611.899 1311.78 615.562 1306.34 613.522 1301C613.259 1300.16 610.224 1296.7 606.874 1293.3C599.178 1285.45 596.405 1284.04 592.374 1285.82Z" fill="#252E3D"/>
<path d="M680.835 1286.08C678.114 1287.34 666.126 1299.48 665.656 1301.47C663.876 1308.43 670.314 1313.98 676.648 1310.94C679.369 1309.69 690.728 1297.75 691.514 1295.4C692.769 1291.63 690.781 1287.39 687.011 1285.82C684.761 1284.88 683.348 1284.93 680.835 1286.08Z" fill="#252E3D"/>
<path d="M633.15 1314.87C625.978 1316.91 620.378 1322.2 617.342 1329.79C616.557 1331.67 616.4 1335.6 616.191 1362.5L615.928 1393.02L611.636 1394.48C599.284 1398.61 589.652 1408.77 586.093 1421.45C584.889 1425.57 584.366 1447.51 585.308 1455.31C587.14 1471.12 593.368 1484.3 604.099 1494.98C606.874 1497.76 610.799 1501.11 612.841 1502.52C616.452 1504.93 616.609 1505.09 617.185 1507.97C619.802 1520.06 630.847 1530.9 643.148 1533.46C648.539 1534.55 707.374 1534.61 712.713 1533.46C718.784 1532.14 724.594 1529.01 729.253 1524.4C735.482 1518.17 738.727 1511.27 739.513 1502.46C739.878 1498.5 739.931 1498.33 742.758 1494.98C750.191 1486.25 754.744 1476.56 756.681 1465.14C757.885 1457.97 757.938 1402.07 756.681 1397.37C755.111 1391.19 750.766 1385.79 745.061 1382.81C737.785 1379.05 730.457 1378.89 723.6 1382.4L721.349 1383.54L718.627 1381.14C711.299 1374.49 700.778 1372.82 692.56 1376.94L689.996 1378.2L687.431 1375.64C682.772 1371.03 675.863 1368.46 669.319 1369C667.331 1369.2 665.132 1369.47 664.503 1369.67L663.3 1369.99V1352.92C663.3 1333.61 662.934 1330.78 659.846 1325.55C654.401 1316.28 643.409 1311.94 633.15 1314.87ZM643.828 1330.99C644.561 1331.57 645.66 1332.66 646.236 1333.45C647.335 1334.86 647.335 1335.6 647.597 1368.05C647.859 1400.55 647.859 1401.24 648.958 1402.7C652.413 1407.42 659.689 1406.79 662.253 1401.55C663.039 1399.92 663.3 1398.3 663.3 1395.11C663.3 1389.98 664.085 1387.78 666.493 1386.06C668.849 1384.38 673.036 1384.33 675.13 1385.89C678.48 1388.36 678.741 1389.14 679.003 1398.05C679.265 1405.47 679.369 1406.42 680.416 1407.88C682.772 1411.18 687.011 1412.07 690.572 1410.08C693.502 1408.46 694.706 1405.69 694.706 1400.45C694.706 1395.42 695.701 1393.17 698.684 1391.5C701.249 1390.04 703.186 1389.98 706.013 1391.39C709.572 1393.06 710.409 1395.42 710.409 1403.44C710.409 1408.66 710.618 1410.34 711.403 1412.12C714.022 1417.77 722.553 1417.77 725.275 1412.07C725.799 1410.91 726.113 1408.88 726.113 1406.21C726.113 1400.86 727.368 1398.14 730.509 1396.63C733.336 1395.22 735.273 1395.26 737.838 1396.74C741.973 1399.09 741.816 1397.89 741.816 1430.4C741.816 1454.42 741.659 1460.02 740.978 1463.57C739.303 1472.53 735.586 1479.69 729.201 1486.34C726.95 1488.7 724.856 1491.27 724.542 1492.05C724.281 1492.84 724.018 1495.29 724.018 1497.54C724.018 1507.12 720.25 1513.62 712.66 1517.12C710.148 1518.27 710.148 1518.27 677.956 1518.27H645.765L642.781 1516.87C639.065 1515.14 635.349 1511.47 633.726 1507.92C633.046 1506.39 632.26 1503.41 631.999 1501.22C631.684 1499.02 631.056 1496.61 630.585 1495.82C630.061 1495.04 628.073 1493.47 626.084 1492.32C613.783 1485.15 605.826 1474.72 602.163 1460.96C601.011 1456.46 600.853 1454.73 600.644 1443.17C600.279 1425.95 601.116 1422.17 606.402 1416.21C608.601 1413.65 614.201 1409.67 615.51 1409.67C616.086 1409.67 616.191 1412.55 616.191 1425.37C616.191 1442.79 616.348 1443.64 619.384 1445.83C620.692 1446.77 621.843 1447.09 623.885 1447.09C626.816 1447.09 628.597 1446.14 630.533 1443.47C631.632 1442.07 631.632 1441.55 631.893 1388.2C632.156 1335.12 632.156 1334.34 633.202 1332.93C635.715 1329.58 640.74 1328.69 643.828 1330.99Z" fill="#252E3D"/>
<path d="M573.374 1330.47C570.651 1331.78 569.343 1334.08 569.343 1337.43C569.343 1339.57 569.657 1340.72 570.494 1341.93C572.641 1344.92 574.159 1345.28 584.784 1345.28C593.631 1345.28 594.468 1345.17 596.352 1344.13C598.499 1342.92 600.487 1339.73 600.487 1337.43C600.487 1335.07 598.393 1331.72 596.248 1330.62C594.468 1329.68 593.159 1329.58 584.68 1329.58C576.933 1329.58 574.786 1329.79 573.374 1330.47Z" fill="#252E3D"/>
<path d="M683.295 1330.47C680.574 1331.78 679.265 1334.08 679.265 1337.43C679.265 1339.57 679.578 1340.72 680.416 1341.93C682.563 1344.92 684.081 1345.28 694.707 1345.28C703.552 1345.28 704.39 1345.17 706.274 1344.13C708.42 1342.92 710.409 1339.73 710.409 1337.43C710.409 1335.07 708.316 1331.72 706.169 1330.62C704.39 1329.68 703.082 1329.58 694.601 1329.58C686.855 1329.58 684.709 1329.79 683.295 1330.47Z" fill="#252E3D"/>
<path d="M532.567 1614.1V1601.85H585.283V1614.1H566.371V1664.23H551.509V1614.1H532.567ZM599.468 1665.02C596.482 1665.02 593.833 1664.52 591.519 1663.52C589.225 1662.51 587.408 1660.98 586.068 1658.95C584.748 1656.9 584.087 1654.34 584.087 1651.24C584.087 1648.64 584.544 1646.46 585.458 1644.66C586.372 1642.88 587.63 1641.43 589.234 1640.31C590.838 1639.2 592.686 1638.35 594.778 1637.79C596.868 1637.2 599.102 1636.8 601.478 1636.6C604.136 1636.35 606.279 1636.1 607.903 1635.83C609.527 1635.55 610.705 1635.16 611.435 1634.65C612.187 1634.12 612.562 1633.38 612.562 1632.43V1632.27C612.562 1630.71 612.025 1629.51 610.949 1628.65C609.873 1627.79 608.42 1627.38 606.594 1627.38C604.624 1627.38 603.04 1627.79 601.842 1628.65C600.644 1629.51 599.883 1630.69 599.559 1632.19L585.824 1631.69C586.23 1628.85 587.275 1626.32 588.961 1624.08C590.665 1621.83 593.001 1620.06 595.965 1618.79C598.949 1617.49 602.534 1616.83 606.716 1616.83C609.7 1616.83 612.451 1617.19 614.969 1617.9C617.487 1618.59 619.679 1619.6 621.547 1620.94C623.415 1622.27 624.857 1623.89 625.871 1625.82C626.907 1627.75 627.424 1629.95 627.424 1632.43V1664.23H613.416V1657.7H613.05C612.218 1659.28 611.151 1660.62 609.853 1661.72C608.573 1662.82 607.06 1663.64 605.314 1664.19C603.588 1664.74 601.64 1665.02 599.468 1665.02ZM604.065 1655.26C605.669 1655.26 607.111 1654.94 608.391 1654.3C609.689 1653.64 610.725 1652.76 611.497 1651.62C612.269 1650.45 612.655 1649.11 612.655 1647.6V1643.15C612.227 1643.38 611.71 1643.58 611.1 1643.75C610.512 1643.94 609.862 1644.11 609.152 1644.27C608.442 1644.43 607.71 1644.58 606.96 1644.7C606.208 1644.82 605.487 1644.93 604.797 1645.04C603.395 1645.25 602.199 1645.6 601.203 1646.07C600.229 1646.54 599.477 1647.14 598.949 1647.89C598.441 1648.63 598.188 1649.5 598.188 1650.52C598.188 1652.06 598.736 1653.24 599.832 1654.04C600.95 1654.86 602.361 1655.26 604.065 1655.26ZM636.531 1681.77V1617.45H651.271V1625.45H651.728C652.336 1624.03 653.199 1622.66 654.315 1621.35C655.453 1620.02 656.895 1618.95 658.641 1618.12C660.407 1617.26 662.519 1616.83 664.975 1616.83C668.223 1616.83 671.258 1617.69 674.08 1619.39C676.924 1621.09 679.218 1623.73 680.964 1627.28C682.71 1630.83 683.582 1635.36 683.582 1640.86C683.582 1646.16 682.741 1650.6 681.055 1654.18C679.391 1657.74 677.137 1660.42 674.295 1662.22C671.471 1664 668.336 1664.9 664.884 1664.9C662.528 1664.9 660.489 1664.51 658.763 1663.73C657.037 1662.97 655.584 1661.95 654.408 1660.69C653.25 1659.43 652.356 1658.08 651.728 1656.64H651.422V1681.77H636.531ZM651.118 1640.83C651.118 1643.35 651.453 1645.55 652.123 1647.41C652.813 1649.27 653.798 1650.73 655.078 1651.76C656.376 1652.78 657.929 1653.29 659.737 1653.29C661.565 1653.29 663.118 1652.78 664.396 1651.76C665.676 1650.73 666.639 1649.27 667.289 1647.41C667.959 1645.55 668.294 1643.35 668.294 1640.83C668.294 1638.31 667.959 1636.13 667.289 1634.28C666.639 1632.44 665.676 1631.01 664.396 1629.99C663.138 1628.97 661.585 1628.46 659.737 1628.46C657.909 1628.46 656.356 1628.97 655.078 1629.96C653.798 1630.95 652.813 1632.37 652.123 1634.22C651.453 1636.07 651.118 1638.27 651.118 1640.83ZM736.216 1617.45V1628.41H706.705V1617.45H736.216ZM712.888 1606.23H727.779V1649.51C727.779 1650.42 727.921 1651.16 728.207 1651.74C728.511 1652.29 728.948 1652.68 729.516 1652.92C730.084 1653.14 730.765 1653.25 731.557 1653.25C732.125 1653.25 732.724 1653.21 733.353 1653.1C734.002 1652.98 734.49 1652.88 734.814 1652.8L737.068 1663.56C736.358 1663.76 735.353 1664.01 734.053 1664.31C732.775 1664.62 731.242 1664.82 729.454 1664.9C725.962 1665.06 722.968 1664.64 720.471 1663.68C717.993 1662.67 716.096 1661.13 714.776 1659.04C713.476 1656.95 712.846 1654.32 712.888 1651.16V1606.23ZM765.148 1665.1C760.234 1665.1 756.012 1664.09 752.478 1662.08C748.966 1660.06 746.255 1657.23 744.347 1653.63C742.459 1649.98 741.514 1645.77 741.514 1640.98C741.514 1636.17 742.459 1631.96 744.347 1628.34C746.255 1624.71 748.966 1621.88 752.478 1619.87C756.012 1617.85 760.234 1616.83 765.148 1616.83C770.06 1616.83 774.273 1617.85 777.787 1619.87C781.319 1621.88 784.03 1624.71 785.918 1628.34C787.826 1631.96 788.78 1636.17 788.78 1640.98C788.78 1645.77 787.826 1649.98 785.918 1653.63C784.03 1657.23 781.319 1660.06 777.787 1662.08C774.273 1664.09 770.06 1665.1 765.148 1665.1ZM765.239 1653.87C767.025 1653.87 768.538 1653.32 769.776 1652.22C771.015 1651.12 771.959 1649.61 772.609 1647.65C773.279 1645.71 773.614 1643.46 773.614 1640.9C773.614 1638.3 773.279 1636.02 772.609 1634.08C771.959 1632.12 771.015 1630.59 769.776 1629.51C768.538 1628.41 767.025 1627.86 765.239 1627.86C763.391 1627.86 761.828 1628.41 760.549 1629.51C759.29 1630.59 758.326 1632.12 757.656 1634.08C757.006 1636.02 756.682 1638.3 756.682 1640.9C756.682 1643.46 757.006 1645.71 757.656 1647.65C758.326 1649.61 759.29 1651.12 760.549 1652.22C761.828 1653.32 763.391 1653.87 765.239 1653.87ZM507.784 1768.28C502.85 1768.28 498.617 1767.27 495.084 1765.24C491.572 1763.21 488.872 1760.38 486.983 1756.77C485.095 1753.14 484.151 1748.94 484.151 1744.16C484.151 1739.37 485.095 1735.17 486.983 1731.56C488.892 1727.92 491.602 1725.09 495.115 1723.05C498.648 1721.03 502.86 1720.01 507.753 1720.01C512.078 1720.01 515.844 1720.8 519.052 1722.36C522.28 1723.92 524.798 1726.13 526.605 1729C528.432 1731.84 529.397 1735.18 529.498 1739.01H515.58C515.296 1736.63 514.484 1734.74 513.144 1733.38C511.824 1732.02 510.098 1731.35 507.967 1731.35C506.241 1731.35 504.728 1731.83 503.429 1732.81C502.129 1733.76 501.114 1735.18 500.383 1737.07C499.673 1738.93 499.318 1741.25 499.318 1744.01C499.318 1746.77 499.673 1749.1 500.383 1751.02C501.114 1752.91 502.129 1754.34 503.429 1755.31C504.728 1756.27 506.241 1756.74 507.967 1756.74C509.347 1756.74 510.565 1756.45 511.621 1755.86C512.697 1755.27 513.58 1754.41 514.271 1753.27C514.961 1752.12 515.397 1750.71 515.58 1749.06H529.498C529.356 1752.92 528.392 1756.3 526.605 1759.18C524.838 1762.06 522.351 1764.31 519.143 1765.91C515.956 1767.49 512.169 1768.28 507.784 1768.28ZM558.956 1768.28C554.042 1768.28 549.819 1767.27 546.286 1765.26C542.774 1763.24 540.063 1760.41 538.155 1756.81C536.267 1753.16 535.322 1748.95 535.322 1744.16C535.322 1739.35 536.267 1735.14 538.155 1731.52C540.063 1727.89 542.774 1725.06 546.286 1723.05C549.819 1721.03 554.042 1720.01 558.956 1720.01C563.868 1720.01 568.081 1721.03 571.593 1723.05C575.127 1725.06 577.838 1727.89 579.726 1731.52C581.634 1735.14 582.588 1739.35 582.588 1744.16C582.588 1748.95 581.634 1753.16 579.726 1756.81C577.838 1760.41 575.127 1763.24 571.593 1765.26C568.081 1767.27 563.868 1768.28 558.956 1768.28ZM559.047 1757.05C560.833 1757.05 562.346 1756.5 563.584 1755.4C564.822 1754.3 565.767 1752.79 566.417 1750.83C567.087 1748.89 567.422 1746.64 567.422 1744.08C567.422 1741.48 567.087 1739.2 566.417 1737.26C565.767 1735.3 564.822 1733.77 563.584 1732.69C562.346 1731.59 560.833 1731.04 559.047 1731.04C557.199 1731.04 555.635 1731.59 554.357 1732.69C553.097 1733.77 552.134 1735.3 551.464 1737.26C550.814 1739.2 550.488 1741.48 550.488 1744.08C550.488 1746.64 550.814 1748.89 551.464 1750.83C552.134 1752.79 553.097 1754.3 554.357 1755.4C555.635 1756.5 557.199 1757.05 559.047 1757.05ZM605.109 1740.73V1767.41H590.216V1720.63H604.378V1729.22H604.896C605.932 1726.35 607.698 1724.11 610.194 1722.48C612.692 1720.84 615.667 1720.01 619.118 1720.01C622.407 1720.01 625.26 1720.76 627.676 1722.24C630.112 1723.7 632 1725.75 633.34 1728.39C634.7 1731.01 635.37 1734.07 635.35 1737.59V1767.41H620.458V1740.51C620.479 1737.91 619.818 1735.88 618.478 1734.42C617.158 1732.95 615.321 1732.23 612.967 1732.23C611.403 1732.23 610.023 1732.57 608.825 1733.26C607.647 1733.93 606.733 1734.9 606.083 1736.16C605.454 1737.42 605.129 1738.93 605.109 1740.73ZM670.974 1720.63V1731.59H641.465V1720.63H670.974ZM647.646 1709.41H662.539V1752.69C662.539 1753.6 662.681 1754.34 662.965 1754.92C663.269 1755.47 663.706 1755.86 664.274 1756.1C664.844 1756.32 665.523 1756.43 666.315 1756.43C666.883 1756.43 667.482 1756.39 668.112 1756.28C668.762 1756.16 669.248 1756.06 669.574 1755.98L671.828 1766.74C671.116 1766.94 670.111 1767.19 668.813 1767.49C667.533 1767.8 666 1768 664.214 1768.08C660.722 1768.24 657.727 1767.82 655.229 1766.86C652.753 1765.85 650.854 1764.31 649.534 1762.22C648.236 1760.13 647.606 1757.5 647.646 1754.34V1709.41ZM678.573 1767.41V1720.63H693.465V1767.41H678.573ZM686.034 1715.17C683.943 1715.17 682.146 1714.48 680.644 1713.1C679.141 1711.7 678.39 1710.01 678.39 1708.04C678.39 1706.1 679.141 1704.43 680.644 1703.05C682.146 1701.65 683.943 1700.94 686.034 1700.94C688.146 1700.94 689.943 1701.65 691.425 1703.05C692.927 1704.43 693.678 1706.1 693.678 1708.04C693.678 1710.01 692.927 1711.7 691.425 1713.1C689.943 1714.48 688.146 1715.17 686.034 1715.17ZM717.837 1740.73V1767.41H702.944V1720.63H717.105V1729.22H717.624C718.659 1726.35 720.426 1724.11 722.922 1722.48C725.42 1720.84 728.395 1720.01 731.845 1720.01C735.135 1720.01 737.988 1720.76 740.404 1722.24C742.84 1723.7 744.728 1725.75 746.068 1728.39C747.428 1731.01 748.098 1734.07 748.078 1737.59V1767.41H733.185V1740.51C733.206 1737.91 732.546 1735.88 731.206 1734.42C729.886 1732.95 728.049 1732.23 725.693 1732.23C724.131 1732.23 722.75 1732.57 721.552 1733.26C720.375 1733.93 719.461 1734.9 718.811 1736.16C718.181 1737.42 717.857 1738.93 717.837 1740.73ZM787.478 1747.21V1720.63H802.34V1767.41H788.148V1758.7H787.661C786.626 1761.55 784.859 1763.83 782.362 1765.52C779.885 1767.18 776.89 1768.01 773.378 1768.01C770.19 1768.01 767.389 1767.27 764.973 1765.81C762.556 1764.35 760.678 1762.31 759.338 1759.7C757.998 1757.06 757.318 1753.97 757.298 1750.44V1720.63H772.19V1747.51C772.211 1750.05 772.881 1752.05 774.2 1753.51C775.52 1754.97 777.317 1755.71 779.591 1755.71C781.073 1755.71 782.403 1755.39 783.58 1754.73C784.778 1754.06 785.722 1753.1 786.413 1751.84C787.123 1750.56 787.478 1749.02 787.478 1747.21ZM833.685 1768.28C828.793 1768.28 824.569 1767.33 821.017 1765.4C817.484 1763.44 814.763 1760.67 812.855 1757.08C810.967 1753.46 810.022 1749.17 810.022 1744.2C810.022 1739.36 810.976 1735.14 812.886 1731.52C814.794 1727.89 817.483 1725.06 820.955 1723.05C824.427 1721.03 828.518 1720.01 833.228 1720.01C836.558 1720.01 839.604 1720.53 842.366 1721.57C845.126 1722.6 847.512 1724.14 849.522 1726.16C851.532 1728.2 853.095 1730.7 854.212 1733.69C855.329 1736.65 855.887 1740.06 855.887 1743.89V1747.6H815.231V1738.96H842.031C842.01 1737.38 841.634 1735.96 840.904 1734.72C840.172 1733.49 839.167 1732.53 837.889 1731.83C836.629 1731.12 835.178 1730.76 833.534 1730.76C831.868 1730.76 830.377 1731.15 829.057 1731.9C827.737 1732.62 826.692 1733.62 825.92 1734.91C825.148 1736.17 824.742 1737.59 824.702 1739.2V1748C824.702 1749.91 825.077 1751.58 825.829 1753.03C826.579 1754.45 827.646 1755.55 829.026 1756.35C830.406 1757.14 832.052 1757.53 833.96 1757.53C835.28 1757.53 836.478 1757.36 837.554 1756.98C838.63 1756.62 839.553 1756.08 840.325 1755.37C841.097 1754.66 841.675 1753.79 842.06 1752.75L855.735 1753.15C855.167 1756.22 853.918 1758.88 851.988 1761.16C850.08 1763.41 847.573 1765.17 844.467 1766.43C841.361 1767.66 837.767 1768.28 833.685 1768.28Z" fill="#252E3D"/>
<path d="M97.4716 760.909H122.608L142.29 799.864H143.108L162.79 760.909H187.926L153.881 822.909V854H131.517V822.909L97.4716 760.909ZM213.824 855.318C206.491 855.318 200.188 853.818 194.915 850.818C189.672 847.788 185.627 843.576 182.778 838.182C179.96 832.758 178.551 826.47 178.551 819.318C178.551 812.136 179.96 805.848 182.778 800.455C185.627 795.03 189.672 790.818 194.915 787.818C200.188 784.788 206.491 783.273 213.824 783.273C221.157 783.273 227.445 784.788 232.688 787.818C237.96 790.818 242.006 795.03 244.824 800.455C247.672 805.848 249.097 812.136 249.097 819.318C249.097 826.47 247.672 832.758 244.824 838.182C242.006 843.576 237.96 847.788 232.688 850.818C227.445 853.818 221.157 855.318 213.824 855.318ZM213.96 838.545C216.627 838.545 218.884 837.727 220.733 836.091C222.581 834.455 223.991 832.182 224.96 829.273C225.96 826.364 226.46 823 226.46 819.182C226.46 815.303 225.96 811.909 224.96 809C223.991 806.091 222.581 803.818 220.733 802.182C218.884 800.545 216.627 799.727 213.96 799.727C211.203 799.727 208.869 800.545 206.96 802.182C205.081 803.818 203.642 806.091 202.642 809C201.672 811.909 201.188 815.303 201.188 819.182C201.188 823 201.672 826.364 202.642 829.273C203.642 832.182 205.081 834.455 206.96 836.091C208.869 837.727 211.203 838.545 213.96 838.545ZM305.528 823.864V784.182H327.71V854H306.528V841H305.801C304.256 845.273 301.619 848.667 297.892 851.182C294.195 853.667 289.725 854.909 284.483 854.909C279.725 854.909 275.544 853.818 271.938 851.636C268.331 849.455 265.528 846.409 263.528 842.5C261.528 838.561 260.513 833.955 260.483 828.682V784.182H282.71V824.318C282.741 828.106 283.741 831.091 285.71 833.273C287.68 835.455 290.362 836.545 293.756 836.545C295.968 836.545 297.953 836.061 299.71 835.091C301.498 834.091 302.907 832.652 303.938 830.773C304.998 828.864 305.528 826.561 305.528 823.864ZM341.858 854V784.182H363.449V796.909H364.176C365.449 792.303 367.525 788.879 370.403 786.636C373.282 784.364 376.631 783.227 380.449 783.227C381.479 783.227 382.54 783.303 383.631 783.455C384.722 783.576 385.737 783.773 386.676 784.045V803.364C385.616 803 384.222 802.712 382.494 802.5C380.797 802.288 379.282 802.182 377.949 802.182C375.313 802.182 372.934 802.773 370.812 803.955C368.722 805.106 367.07 806.727 365.858 808.818C364.676 810.879 364.085 813.303 364.085 816.091V854H341.858ZM455.824 855.318C448.46 855.318 442.142 853.803 436.869 850.773C431.627 847.742 427.597 843.53 424.778 838.136C421.96 832.712 420.551 826.439 420.551 819.318C420.551 812.167 421.96 805.894 424.778 800.5C427.627 795.076 431.672 790.848 436.915 787.818C442.188 784.788 448.475 783.273 455.778 783.273C462.233 783.273 467.854 784.439 472.642 786.773C477.46 789.106 481.218 792.409 483.915 796.682C486.642 800.924 488.081 805.909 488.233 811.636H467.46C467.036 808.061 465.824 805.258 463.824 803.227C461.854 801.197 459.278 800.182 456.097 800.182C453.521 800.182 451.263 800.909 449.324 802.364C447.384 803.788 445.869 805.909 444.778 808.727C443.718 811.515 443.188 814.97 443.188 819.091C443.188 823.212 443.718 826.697 444.778 829.545C445.869 832.364 447.384 834.5 449.324 835.955C451.263 837.379 453.521 838.091 456.097 838.091C458.157 838.091 459.975 837.652 461.551 836.773C463.157 835.894 464.475 834.606 465.506 832.909C466.536 831.182 467.188 829.091 467.46 826.636H488.233C488.021 832.394 486.581 837.424 483.915 841.727C481.278 846.03 477.566 849.379 472.778 851.773C468.021 854.136 462.369 855.318 455.824 855.318ZM519.29 855.182C514.835 855.182 510.881 854.439 507.426 852.955C504.002 851.439 501.29 849.167 499.29 846.136C497.32 843.076 496.335 839.242 496.335 834.636C496.335 830.758 497.017 827.485 498.381 824.818C499.744 822.152 501.623 819.985 504.017 818.318C506.411 816.652 509.169 815.394 512.29 814.545C515.411 813.667 518.744 813.076 522.29 812.773C526.259 812.409 529.456 812.03 531.881 811.636C534.305 811.212 536.063 810.621 537.153 809.864C538.275 809.076 538.835 807.97 538.835 806.545V806.318C538.835 803.985 538.032 802.182 536.426 800.909C534.82 799.636 532.653 799 529.926 799C526.987 799 524.623 799.636 522.835 800.909C521.047 802.182 519.911 803.939 519.426 806.182L498.926 805.455C499.532 801.212 501.093 797.424 503.608 794.091C506.153 790.727 509.638 788.091 514.062 786.182C518.517 784.242 523.866 783.273 530.108 783.273C534.563 783.273 538.669 783.803 542.426 784.864C546.184 785.894 549.456 787.409 552.244 789.409C555.032 791.379 557.184 793.803 558.699 796.682C560.244 799.561 561.017 802.848 561.017 806.545V854H540.108V844.273H539.562C538.32 846.636 536.729 848.636 534.79 850.273C532.881 851.909 530.623 853.136 528.017 853.955C525.441 854.773 522.532 855.182 519.29 855.182ZM526.153 840.636C528.547 840.636 530.699 840.152 532.608 839.182C534.547 838.212 536.093 836.879 537.244 835.182C538.396 833.455 538.972 831.455 538.972 829.182V822.545C538.335 822.879 537.563 823.182 536.653 823.455C535.775 823.727 534.805 823.985 533.744 824.227C532.684 824.47 531.593 824.682 530.472 824.864C529.35 825.045 528.275 825.212 527.244 825.364C525.153 825.697 523.366 826.212 521.881 826.909C520.426 827.606 519.305 828.515 518.517 829.636C517.759 830.727 517.381 832.03 517.381 833.545C517.381 835.848 518.199 837.606 519.835 838.818C521.502 840.03 523.608 840.636 526.153 840.636ZM574.608 854V784.182H596.199V796.909H596.926C598.199 792.303 600.275 788.879 603.153 786.636C606.032 784.364 609.381 783.227 613.199 783.227C614.229 783.227 615.29 783.303 616.381 783.455C617.472 783.576 618.487 783.773 619.426 784.045V803.364C618.366 803 616.972 802.712 615.244 802.5C613.547 802.288 612.032 802.182 610.699 802.182C608.063 802.182 605.684 802.773 603.562 803.955C601.472 805.106 599.82 806.727 598.608 808.818C597.426 810.879 596.835 813.303 596.835 816.091V854H574.608ZM671.142 784.182V800.545H627.097V784.182H671.142ZM636.324 767.455H658.551V832.045C658.551 833.409 658.763 834.515 659.188 835.364C659.642 836.182 660.294 836.773 661.142 837.136C661.991 837.47 663.006 837.636 664.188 837.636C665.036 837.636 665.93 837.561 666.869 837.409C667.839 837.227 668.566 837.076 669.051 836.955L672.415 853C671.354 853.303 669.854 853.682 667.915 854.136C666.006 854.591 663.718 854.879 661.051 855C655.839 855.242 651.369 854.636 647.642 853.182C643.945 851.697 641.112 849.394 639.142 846.273C637.203 843.152 636.263 839.227 636.324 834.5V767.455ZM709.983 854V784.182H732.21V854H709.983ZM721.119 776.045C717.998 776.045 715.316 775.015 713.074 772.955C710.831 770.864 709.71 768.348 709.71 765.409C709.71 762.5 710.831 760.015 713.074 757.955C715.316 755.864 717.998 754.818 721.119 754.818C724.271 754.818 726.953 755.864 729.165 757.955C731.407 760.015 732.528 762.5 732.528 765.409C732.528 768.348 731.407 770.864 729.165 772.955C726.953 775.015 724.271 776.045 721.119 776.045ZM807.312 805.5L786.903 806.045C786.691 804.591 786.116 803.303 785.176 802.182C784.237 801.03 783.009 800.136 781.494 799.5C780.009 798.833 778.282 798.5 776.312 798.5C773.737 798.5 771.54 799.015 769.722 800.045C767.934 801.076 767.055 802.47 767.085 804.227C767.055 805.591 767.6 806.773 768.722 807.773C769.873 808.773 771.919 809.576 774.858 810.182L788.312 812.727C795.282 814.061 800.464 816.273 803.858 819.364C807.282 822.455 809.009 826.545 809.04 831.636C809.009 836.424 807.585 840.591 804.767 844.136C801.979 847.682 798.161 850.439 793.312 852.409C788.464 854.348 782.919 855.318 776.676 855.318C766.706 855.318 758.843 853.273 753.085 849.182C747.358 845.061 744.085 839.545 743.267 832.636L765.222 832.091C765.706 834.636 766.964 836.576 768.994 837.909C771.025 839.242 773.616 839.909 776.767 839.909C779.616 839.909 781.934 839.379 783.722 838.318C785.509 837.258 786.419 835.848 786.449 834.091C786.419 832.515 785.722 831.258 784.358 830.318C782.994 829.348 780.858 828.591 777.949 828.045L765.767 825.727C758.767 824.455 753.555 822.106 750.131 818.682C746.706 815.227 745.009 810.833 745.04 805.5C745.009 800.833 746.252 796.848 748.767 793.545C751.282 790.212 754.858 787.667 759.494 785.909C764.131 784.152 769.6 783.273 775.903 783.273C785.358 783.273 792.813 785.258 798.267 789.227C803.722 793.167 806.737 798.591 807.312 805.5ZM880.119 855.318C872.816 855.318 866.513 853.879 861.21 851C855.938 848.091 851.877 843.955 849.028 838.591C846.21 833.197 844.801 826.788 844.801 819.364C844.801 812.152 846.225 805.848 849.074 800.455C851.922 795.03 855.938 790.818 861.119 787.818C866.301 784.788 872.407 783.273 879.438 783.273C884.407 783.273 888.953 784.045 893.074 785.591C897.195 787.136 900.756 789.424 903.756 792.455C906.756 795.485 909.089 799.227 910.756 803.682C912.422 808.106 913.256 813.182 913.256 818.909V824.455H852.574V811.545H892.574C892.544 809.182 891.983 807.076 890.892 805.227C889.801 803.379 888.301 801.939 886.392 800.909C884.513 799.848 882.347 799.318 879.892 799.318C877.407 799.318 875.18 799.879 873.21 801C871.241 802.091 869.68 803.591 868.528 805.5C867.377 807.379 866.771 809.515 866.71 811.909V825.045C866.71 827.894 867.271 830.394 868.392 832.545C869.513 834.667 871.104 836.318 873.165 837.5C875.225 838.682 877.68 839.273 880.528 839.273C882.498 839.273 884.286 839 885.892 838.455C887.498 837.909 888.877 837.106 890.028 836.045C891.18 834.985 892.044 833.682 892.619 832.136L913.028 832.727C912.18 837.303 910.316 841.288 907.438 844.682C904.589 848.045 900.847 850.667 896.21 852.545C891.574 854.394 886.21 855.318 880.119 855.318ZM924.608 854V784.182H945.744V797H946.517C947.972 792.758 950.426 789.409 953.881 786.955C957.335 784.5 961.456 783.273 966.244 783.273C971.093 783.273 975.244 784.515 978.699 787C982.153 789.485 984.35 792.818 985.29 797H986.017C987.32 792.848 989.866 789.53 993.653 787.045C997.441 784.53 1001.91 783.273 1007.06 783.273C1013.67 783.273 1019.03 785.394 1023.15 789.636C1027.27 793.848 1029.34 799.636 1029.34 807V854H1007.11V812.091C1007.11 808.606 1006.21 805.955 1004.43 804.136C1002.64 802.288 1000.32 801.364 997.472 801.364C994.411 801.364 992.002 802.364 990.244 804.364C988.517 806.333 987.653 808.985 987.653 812.318V854H966.29V811.864C966.29 808.621 965.411 806.061 963.653 804.182C961.896 802.303 959.578 801.364 956.699 801.364C954.759 801.364 953.047 801.833 951.562 802.773C950.078 803.682 948.911 804.985 948.062 806.682C947.244 808.379 946.835 810.379 946.835 812.682V854H924.608ZM1043.11 880.182V784.182H1065.11V796.136H1065.79C1066.7 794.015 1067.99 791.97 1069.65 790C1071.35 788.03 1073.5 786.424 1076.11 785.182C1078.74 783.909 1081.9 783.273 1085.56 783.273C1090.41 783.273 1094.94 784.545 1099.15 787.091C1103.4 789.636 1106.82 793.561 1109.43 798.864C1112.03 804.167 1113.34 810.924 1113.34 819.136C1113.34 827.045 1112.08 833.667 1109.56 839C1107.08 844.333 1103.71 848.333 1099.47 851C1095.26 853.667 1090.58 855 1085.43 855C1081.91 855 1078.87 854.424 1076.29 853.273C1073.71 852.121 1071.55 850.606 1069.79 848.727C1068.06 846.848 1066.73 844.833 1065.79 842.682H1065.34V880.182H1043.11ZM1064.88 819.091C1064.88 822.848 1065.38 826.121 1066.38 828.909C1067.41 831.697 1068.88 833.864 1070.79 835.409C1072.73 836.924 1075.05 837.682 1077.74 837.682C1080.47 837.682 1082.79 836.924 1084.7 835.409C1086.61 833.864 1088.05 831.697 1089.02 828.909C1090.02 826.121 1090.52 822.848 1090.52 819.091C1090.52 815.333 1090.02 812.076 1089.02 809.318C1088.05 806.561 1086.61 804.424 1084.7 802.909C1082.82 801.394 1080.5 800.636 1077.74 800.636C1075.02 800.636 1072.7 801.379 1070.79 802.864C1068.88 804.348 1067.41 806.47 1066.38 809.227C1065.38 811.985 1064.88 815.273 1064.88 819.091ZM1164.39 784.182V800.545H1120.35V784.182H1164.39ZM1129.57 767.455H1151.8V832.045C1151.8 833.409 1152.01 834.515 1152.44 835.364C1152.89 836.182 1153.54 836.773 1154.39 837.136C1155.24 837.47 1156.26 837.636 1157.44 837.636C1158.29 837.636 1159.18 837.561 1160.12 837.409C1161.09 837.227 1161.82 837.076 1162.3 836.955L1165.66 853C1164.6 853.303 1163.1 853.682 1161.16 854.136C1159.26 854.591 1156.97 854.879 1154.3 855C1149.09 855.242 1144.62 854.636 1140.89 853.182C1137.2 851.697 1134.36 849.394 1132.39 846.273C1130.45 843.152 1129.51 839.227 1129.57 834.5V767.455ZM1189.32 880.182C1186.66 880.182 1184.14 879.97 1181.78 879.545C1179.41 879.152 1177.38 878.621 1175.69 877.955L1180.6 861.818C1182.78 862.545 1184.75 862.97 1186.51 863.091C1188.29 863.212 1189.82 862.924 1191.1 862.227C1192.4 861.561 1193.4 860.364 1194.1 858.636L1194.96 856.545L1170.14 784.182H1193.41L1206.28 834H1207.01L1220.05 784.182H1243.46L1217.14 860.682C1215.87 864.5 1214.07 867.864 1211.73 870.773C1209.43 873.712 1206.45 876.015 1202.78 877.682C1199.14 879.348 1194.66 880.182 1189.32 880.182ZM233.585 979V932.455H252.812C256.297 932.455 259.305 933.136 261.835 934.5C264.381 935.848 266.343 937.735 267.722 940.159C269.1 942.568 269.79 945.371 269.79 948.568C269.79 951.78 269.085 954.591 267.676 957C266.282 959.394 264.29 961.25 261.699 962.568C259.108 963.886 256.032 964.545 252.472 964.545H240.608V955.682H250.381C252.078 955.682 253.494 955.386 254.631 954.795C255.782 954.205 256.653 953.379 257.244 952.318C257.835 951.242 258.131 949.992 258.131 948.568C258.131 947.129 257.835 945.886 257.244 944.841C256.653 943.78 255.782 942.962 254.631 942.386C253.479 941.811 252.063 941.523 250.381 941.523H244.835V979H233.585ZM286.449 932.455V979H275.335V932.455H286.449ZM309.841 979.659C306.189 979.659 303.038 978.939 300.386 977.5C297.75 976.045 295.72 973.977 294.295 971.295C292.886 968.598 292.182 965.394 292.182 961.682C292.182 958.076 292.894 954.924 294.318 952.227C295.742 949.515 297.75 947.409 300.341 945.909C302.932 944.394 305.985 943.636 309.5 943.636C311.985 943.636 314.258 944.023 316.318 944.795C318.379 945.568 320.159 946.712 321.659 948.227C323.159 949.742 324.326 951.614 325.159 953.841C325.992 956.053 326.409 958.591 326.409 961.455V964.227H296.068V957.773H316.068C316.053 956.591 315.773 955.538 315.227 954.614C314.682 953.689 313.932 952.97 312.977 952.455C312.038 951.924 310.955 951.659 309.727 951.659C308.485 951.659 307.371 951.939 306.386 952.5C305.402 953.045 304.621 953.795 304.045 954.75C303.47 955.689 303.167 956.758 303.136 957.955V964.523C303.136 965.947 303.417 967.197 303.977 968.273C304.538 969.333 305.333 970.159 306.364 970.75C307.394 971.341 308.621 971.636 310.045 971.636C311.03 971.636 311.924 971.5 312.727 971.227C313.53 970.955 314.22 970.553 314.795 970.023C315.371 969.492 315.803 968.841 316.091 968.068L326.295 968.364C325.871 970.652 324.939 972.644 323.5 974.341C322.076 976.023 320.205 977.333 317.886 978.273C315.568 979.197 312.886 979.659 309.841 979.659ZM341.926 979.591C339.699 979.591 337.722 979.22 335.994 978.477C334.282 977.72 332.926 976.583 331.926 975.068C330.941 973.538 330.449 971.621 330.449 969.318C330.449 967.379 330.79 965.742 331.472 964.409C332.153 963.076 333.093 961.992 334.29 961.159C335.487 960.326 336.866 959.697 338.426 959.273C339.987 958.833 341.653 958.538 343.426 958.386C345.411 958.205 347.009 958.015 348.222 957.818C349.434 957.606 350.313 957.311 350.858 956.932C351.419 956.538 351.699 955.985 351.699 955.273V955.159C351.699 953.992 351.297 953.091 350.494 952.455C349.691 951.818 348.608 951.5 347.244 951.5C345.775 951.5 344.593 951.818 343.699 952.455C342.805 953.091 342.237 953.97 341.994 955.091L331.744 954.727C332.047 952.606 332.828 950.712 334.085 949.045C335.358 947.364 337.1 946.045 339.312 945.091C341.54 944.121 344.214 943.636 347.335 943.636C349.563 943.636 351.616 943.902 353.494 944.432C355.373 944.947 357.009 945.705 358.403 946.705C359.797 947.689 360.873 948.902 361.631 950.341C362.403 951.78 362.79 953.424 362.79 955.273V979H352.335V974.136H352.062C351.441 975.318 350.646 976.318 349.676 977.136C348.722 977.955 347.593 978.568 346.29 978.977C345.002 979.386 343.547 979.591 341.926 979.591ZM345.358 972.318C346.555 972.318 347.631 972.076 348.585 971.591C349.555 971.106 350.328 970.439 350.903 969.591C351.479 968.727 351.767 967.727 351.767 966.591V963.273C351.449 963.439 351.063 963.591 350.608 963.727C350.169 963.864 349.684 963.992 349.153 964.114C348.623 964.235 348.078 964.341 347.517 964.432C346.956 964.523 346.419 964.606 345.903 964.682C344.858 964.848 343.964 965.106 343.222 965.455C342.494 965.803 341.934 966.258 341.54 966.818C341.161 967.364 340.972 968.015 340.972 968.773C340.972 969.924 341.381 970.803 342.199 971.409C343.032 972.015 344.085 972.318 345.358 972.318ZM400.062 954.75L389.858 955.023C389.752 954.295 389.464 953.652 388.994 953.091C388.525 952.515 387.911 952.068 387.153 951.75C386.411 951.417 385.547 951.25 384.562 951.25C383.275 951.25 382.176 951.508 381.267 952.023C380.373 952.538 379.934 953.235 379.949 954.114C379.934 954.795 380.206 955.386 380.767 955.886C381.343 956.386 382.366 956.788 383.835 957.091L390.562 958.364C394.047 959.03 396.638 960.136 398.335 961.682C400.047 963.227 400.911 965.273 400.926 967.818C400.911 970.212 400.199 972.295 398.79 974.068C397.396 975.841 395.487 977.22 393.062 978.205C390.638 979.174 387.866 979.659 384.744 979.659C379.759 979.659 375.828 978.636 372.949 976.591C370.085 974.53 368.449 971.773 368.04 968.318L379.017 968.045C379.259 969.318 379.888 970.288 380.903 970.955C381.919 971.621 383.214 971.955 384.79 971.955C386.214 971.955 387.373 971.689 388.267 971.159C389.161 970.629 389.616 969.924 389.631 969.045C389.616 968.258 389.267 967.629 388.585 967.159C387.903 966.674 386.835 966.295 385.381 966.023L379.29 964.864C375.79 964.227 373.184 963.053 371.472 961.341C369.759 959.614 368.911 957.417 368.926 954.75C368.911 952.417 369.532 950.424 370.79 948.773C372.047 947.106 373.835 945.833 376.153 944.955C378.472 944.076 381.206 943.636 384.358 943.636C389.085 943.636 392.813 944.629 395.54 946.614C398.267 948.583 399.775 951.295 400.062 954.75ZM422.716 979.659C419.064 979.659 415.913 978.939 413.261 977.5C410.625 976.045 408.595 973.977 407.17 971.295C405.761 968.598 405.057 965.394 405.057 961.682C405.057 958.076 405.769 954.924 407.193 952.227C408.617 949.515 410.625 947.409 413.216 945.909C415.807 944.394 418.86 943.636 422.375 943.636C424.86 943.636 427.133 944.023 429.193 944.795C431.254 945.568 433.034 946.712 434.534 948.227C436.034 949.742 437.201 951.614 438.034 953.841C438.867 956.053 439.284 958.591 439.284 961.455V964.227H408.943V957.773H428.943C428.928 956.591 428.648 955.538 428.102 954.614C427.557 953.689 426.807 952.97 425.852 952.455C424.913 951.924 423.83 951.659 422.602 951.659C421.36 951.659 420.246 951.939 419.261 952.5C418.277 953.045 417.496 953.795 416.92 954.75C416.345 955.689 416.042 956.758 416.011 957.955V964.523C416.011 965.947 416.292 967.197 416.852 968.273C417.413 969.333 418.208 970.159 419.239 970.75C420.269 971.341 421.496 971.636 422.92 971.636C423.905 971.636 424.799 971.5 425.602 971.227C426.405 970.955 427.095 970.553 427.67 970.023C428.246 969.492 428.678 968.841 428.966 968.068L439.17 968.364C438.746 970.652 437.814 972.644 436.375 974.341C434.951 976.023 433.08 977.333 430.761 978.273C428.443 979.197 425.761 979.659 422.716 979.659ZM468.551 979.591C466.324 979.591 464.347 979.22 462.619 978.477C460.907 977.72 459.551 976.583 458.551 975.068C457.566 973.538 457.074 971.621 457.074 969.318C457.074 967.379 457.415 965.742 458.097 964.409C458.778 963.076 459.718 961.992 460.915 961.159C462.112 960.326 463.491 959.697 465.051 959.273C466.612 958.833 468.278 958.538 470.051 958.386C472.036 958.205 473.634 958.015 474.847 957.818C476.059 957.606 476.938 957.311 477.483 956.932C478.044 956.538 478.324 955.985 478.324 955.273V955.159C478.324 953.992 477.922 953.091 477.119 952.455C476.316 951.818 475.233 951.5 473.869 951.5C472.4 951.5 471.218 951.818 470.324 952.455C469.43 953.091 468.862 953.97 468.619 955.091L458.369 954.727C458.672 952.606 459.453 950.712 460.71 949.045C461.983 947.364 463.725 946.045 465.938 945.091C468.165 944.121 470.839 943.636 473.96 943.636C476.188 943.636 478.241 943.902 480.119 944.432C481.998 944.947 483.634 945.705 485.028 946.705C486.422 947.689 487.498 948.902 488.256 950.341C489.028 951.78 489.415 953.424 489.415 955.273V979H478.96V974.136H478.688C478.066 975.318 477.271 976.318 476.301 977.136C475.347 977.955 474.218 978.568 472.915 978.977C471.627 979.386 470.172 979.591 468.551 979.591ZM471.983 972.318C473.18 972.318 474.256 972.076 475.21 971.591C476.18 971.106 476.953 970.439 477.528 969.591C478.104 968.727 478.392 967.727 478.392 966.591V963.273C478.074 963.439 477.688 963.591 477.233 963.727C476.794 963.864 476.309 963.992 475.778 964.114C475.248 964.235 474.703 964.341 474.142 964.432C473.581 964.523 473.044 964.606 472.528 964.682C471.483 964.848 470.589 965.106 469.847 965.455C469.119 965.803 468.559 966.258 468.165 966.818C467.786 967.364 467.597 968.015 467.597 968.773C467.597 969.924 468.006 970.803 468.824 971.409C469.657 972.015 470.71 972.318 471.983 972.318ZM508.96 979.5C506.384 979.5 504.044 978.833 501.938 977.5C499.831 976.167 498.15 974.167 496.892 971.5C495.634 968.833 495.006 965.523 495.006 961.568C495.006 957.462 495.657 954.083 496.96 951.432C498.263 948.78 499.968 946.818 502.074 945.545C504.195 944.273 506.475 943.636 508.915 943.636C510.748 943.636 512.316 943.955 513.619 944.591C514.922 945.212 515.998 946.015 516.847 947C517.695 947.985 518.339 949.008 518.778 950.068H519.006V932.455H530.119V979H519.119V973.341H518.778C518.309 974.417 517.642 975.424 516.778 976.364C515.915 977.303 514.831 978.061 513.528 978.636C512.241 979.212 510.718 979.5 508.96 979.5ZM512.824 970.841C514.172 970.841 515.324 970.462 516.278 969.705C517.233 968.932 517.968 967.848 518.483 966.455C518.998 965.061 519.256 963.424 519.256 961.545C519.256 959.636 518.998 957.992 518.483 956.614C517.983 955.235 517.248 954.174 516.278 953.432C515.324 952.689 514.172 952.318 512.824 952.318C511.445 952.318 510.278 952.697 509.324 953.455C508.369 954.212 507.642 955.28 507.142 956.659C506.657 958.038 506.415 959.667 506.415 961.545C506.415 963.424 506.665 965.061 507.165 966.455C507.665 967.848 508.384 968.932 509.324 969.705C510.278 970.462 511.445 970.841 512.824 970.841ZM549.898 979.5C547.322 979.5 544.981 978.833 542.875 977.5C540.769 976.167 539.087 974.167 537.83 971.5C536.572 968.833 535.943 965.523 535.943 961.568C535.943 957.462 536.595 954.083 537.898 951.432C539.201 948.78 540.905 946.818 543.011 945.545C545.133 944.273 547.413 943.636 549.852 943.636C551.686 943.636 553.254 943.955 554.557 944.591C555.86 945.212 556.936 946.015 557.784 947C558.633 947.985 559.277 949.008 559.716 950.068H559.943V932.455H571.057V979H560.057V973.341H559.716C559.246 974.417 558.58 975.424 557.716 976.364C556.852 977.303 555.769 978.061 554.466 978.636C553.178 979.212 551.655 979.5 549.898 979.5ZM553.761 970.841C555.11 970.841 556.261 970.462 557.216 969.705C558.17 968.932 558.905 967.848 559.42 966.455C559.936 965.061 560.193 963.424 560.193 961.545C560.193 959.636 559.936 957.992 559.42 956.614C558.92 955.235 558.186 954.174 557.216 953.432C556.261 952.689 555.11 952.318 553.761 952.318C552.383 952.318 551.216 952.697 550.261 953.455C549.307 954.212 548.58 955.28 548.08 956.659C547.595 958.038 547.352 959.667 547.352 961.545C547.352 963.424 547.602 965.061 548.102 966.455C548.602 967.848 549.322 968.932 550.261 969.705C551.216 970.462 552.383 970.841 553.761 970.841ZM591.835 992.091V944.091H602.835V950.068H603.176C603.631 949.008 604.275 947.985 605.108 947C605.956 946.015 607.032 945.212 608.335 944.591C609.653 943.955 611.229 943.636 613.062 943.636C615.487 943.636 617.752 944.273 619.858 945.545C621.979 946.818 623.691 948.78 624.994 951.432C626.297 954.083 626.949 957.462 626.949 961.568C626.949 965.523 626.32 968.833 625.062 971.5C623.82 974.167 622.138 976.167 620.017 977.5C617.911 978.833 615.57 979.5 612.994 979.5C611.237 979.5 609.714 979.212 608.426 978.636C607.138 978.061 606.055 977.303 605.176 976.364C604.312 975.424 603.646 974.417 603.176 973.341H602.949V992.091H591.835ZM602.722 961.545C602.722 963.424 602.972 965.061 603.472 966.455C603.987 967.848 604.722 968.932 605.676 969.705C606.646 970.462 607.805 970.841 609.153 970.841C610.517 970.841 611.676 970.462 612.631 969.705C613.585 968.932 614.305 967.848 614.79 966.455C615.29 965.061 615.54 963.424 615.54 961.545C615.54 959.667 615.29 958.038 614.79 956.659C614.305 955.28 613.585 954.212 612.631 953.455C611.691 952.697 610.532 952.318 609.153 952.318C607.79 952.318 606.631 952.689 605.676 953.432C604.722 954.174 603.987 955.235 603.472 956.614C602.972 957.992 602.722 959.636 602.722 961.545ZM632.773 979V944.091H643.568V950.455H643.932C644.568 948.152 645.606 946.439 647.045 945.318C648.485 944.182 650.159 943.614 652.068 943.614C652.583 943.614 653.114 943.652 653.659 943.727C654.205 943.788 654.712 943.886 655.182 944.023V953.682C654.652 953.5 653.955 953.356 653.091 953.25C652.242 953.144 651.485 953.091 650.818 953.091C649.5 953.091 648.311 953.386 647.25 953.977C646.205 954.553 645.379 955.364 644.773 956.409C644.182 957.439 643.886 958.652 643.886 960.045V979H632.773ZM674.193 979.659C670.527 979.659 667.375 978.909 664.739 977.409C662.117 975.894 660.095 973.788 658.67 971.091C657.261 968.379 656.557 965.235 656.557 961.659C656.557 958.068 657.261 954.924 658.67 952.227C660.095 949.515 662.117 947.409 664.739 945.909C667.375 944.394 670.527 943.636 674.193 943.636C677.86 943.636 681.004 944.394 683.625 945.909C686.261 947.409 688.284 949.515 689.693 952.227C691.117 954.924 691.83 958.068 691.83 961.659C691.83 965.235 691.117 968.379 689.693 971.091C688.284 973.788 686.261 975.894 683.625 977.409C681.004 978.909 677.86 979.659 674.193 979.659ZM674.261 971.273C675.595 971.273 676.723 970.864 677.648 970.045C678.572 969.227 679.277 968.091 679.761 966.636C680.261 965.182 680.511 963.5 680.511 961.591C680.511 959.652 680.261 957.955 679.761 956.5C679.277 955.045 678.572 953.909 677.648 953.091C676.723 952.273 675.595 951.864 674.261 951.864C672.883 951.864 671.716 952.273 670.761 953.091C669.822 953.909 669.102 955.045 668.602 956.5C668.117 957.955 667.875 959.652 667.875 961.591C667.875 963.5 668.117 965.182 668.602 966.636C669.102 968.091 669.822 969.227 670.761 970.045C671.716 970.864 672.883 971.273 674.261 971.273ZM710.273 979.5C707.697 979.5 705.356 978.833 703.25 977.5C701.144 976.167 699.462 974.167 698.205 971.5C696.947 968.833 696.318 965.523 696.318 961.568C696.318 957.462 696.97 954.083 698.273 951.432C699.576 948.78 701.28 946.818 703.386 945.545C705.508 944.273 707.788 943.636 710.227 943.636C712.061 943.636 713.629 943.955 714.932 944.591C716.235 945.212 717.311 946.015 718.159 947C719.008 947.985 719.652 949.008 720.091 950.068H720.318V932.455H731.432V979H720.432V973.341H720.091C719.621 974.417 718.955 975.424 718.091 976.364C717.227 977.303 716.144 978.061 714.841 978.636C713.553 979.212 712.03 979.5 710.273 979.5ZM714.136 970.841C715.485 970.841 716.636 970.462 717.591 969.705C718.545 968.932 719.28 967.848 719.795 966.455C720.311 965.061 720.568 963.424 720.568 961.545C720.568 959.636 720.311 957.992 719.795 956.614C719.295 955.235 718.561 954.174 717.591 953.432C716.636 952.689 715.485 952.318 714.136 952.318C712.758 952.318 711.591 952.697 710.636 953.455C709.682 954.212 708.955 955.28 708.455 956.659C707.97 958.038 707.727 959.667 707.727 961.545C707.727 963.424 707.977 965.061 708.477 966.455C708.977 967.848 709.697 968.932 710.636 969.705C711.591 970.462 712.758 970.841 714.136 970.841ZM760.983 963.932V944.091H772.074V979H761.483V972.5H761.119C760.347 974.636 759.028 976.333 757.165 977.591C755.316 978.833 753.081 979.455 750.46 979.455C748.081 979.455 745.991 978.909 744.188 977.818C742.384 976.727 740.983 975.205 739.983 973.25C738.983 971.28 738.475 968.977 738.46 966.341V944.091H749.574V964.159C749.589 966.053 750.089 967.545 751.074 968.636C752.059 969.727 753.4 970.273 755.097 970.273C756.203 970.273 757.195 970.03 758.074 969.545C758.968 969.045 759.672 968.326 760.188 967.386C760.718 966.432 760.983 965.28 760.983 963.932ZM795.443 979.659C791.761 979.659 788.602 978.902 785.966 977.386C783.345 975.871 781.33 973.765 779.92 971.068C778.511 968.356 777.807 965.22 777.807 961.659C777.807 958.083 778.511 954.947 779.92 952.25C781.345 949.538 783.367 947.424 785.989 945.909C788.625 944.394 791.769 943.636 795.42 943.636C798.648 943.636 801.458 944.22 803.852 945.386C806.261 946.553 808.14 948.205 809.489 950.341C810.852 952.462 811.572 954.955 811.648 957.818H801.261C801.049 956.03 800.443 954.629 799.443 953.614C798.458 952.598 797.17 952.091 795.58 952.091C794.292 952.091 793.163 952.455 792.193 953.182C791.223 953.894 790.466 954.955 789.92 956.364C789.39 957.758 789.125 959.485 789.125 961.545C789.125 963.606 789.39 965.348 789.92 966.773C790.466 968.182 791.223 969.25 792.193 969.977C793.163 970.689 794.292 971.045 795.58 971.045C796.61 971.045 797.519 970.826 798.307 970.386C799.11 969.947 799.769 969.303 800.284 968.455C800.799 967.591 801.125 966.545 801.261 965.318H811.648C811.542 968.197 810.822 970.712 809.489 972.864C808.17 975.015 806.314 976.689 803.92 977.886C801.542 979.068 798.716 979.659 795.443 979.659ZM837.04 944.091V952.273H815.017V944.091H837.04ZM819.631 935.727H830.744V968.023C830.744 968.705 830.85 969.258 831.062 969.682C831.29 970.091 831.616 970.386 832.04 970.568C832.464 970.735 832.972 970.818 833.562 970.818C833.987 970.818 834.434 970.78 834.903 970.705C835.388 970.614 835.752 970.538 835.994 970.477L837.676 978.5C837.146 978.652 836.396 978.841 835.426 979.068C834.472 979.295 833.328 979.439 831.994 979.5C829.388 979.621 827.153 979.318 825.29 978.591C823.441 977.848 822.025 976.697 821.04 975.136C820.07 973.576 819.6 971.614 819.631 969.25V935.727ZM872.75 954.75L862.545 955.023C862.439 954.295 862.152 953.652 861.682 953.091C861.212 952.515 860.598 952.068 859.841 951.75C859.098 951.417 858.235 951.25 857.25 951.25C855.962 951.25 854.864 951.508 853.955 952.023C853.061 952.538 852.621 953.235 852.636 954.114C852.621 954.795 852.894 955.386 853.455 955.886C854.03 956.386 855.053 956.788 856.523 957.091L863.25 958.364C866.735 959.03 869.326 960.136 871.023 961.682C872.735 963.227 873.598 965.273 873.614 967.818C873.598 970.212 872.886 972.295 871.477 974.068C870.083 975.841 868.174 977.22 865.75 978.205C863.326 979.174 860.553 979.659 857.432 979.659C852.447 979.659 848.515 978.636 845.636 976.591C842.773 974.53 841.136 971.773 840.727 968.318L851.705 968.045C851.947 969.318 852.576 970.288 853.591 970.955C854.606 971.621 855.902 971.955 857.477 971.955C858.902 971.955 860.061 971.689 860.955 971.159C861.848 970.629 862.303 969.924 862.318 969.045C862.303 968.258 861.955 967.629 861.273 967.159C860.591 966.674 859.523 966.295 858.068 966.023L851.977 964.864C848.477 964.227 845.871 963.053 844.159 961.341C842.447 959.614 841.598 957.417 841.614 954.75C841.598 952.417 842.22 950.424 843.477 948.773C844.735 947.106 846.523 945.833 848.841 944.955C851.159 944.076 853.894 943.636 857.045 943.636C861.773 943.636 865.5 944.629 868.227 946.614C870.955 948.583 872.462 951.295 872.75 954.75ZM892.835 979V932.455H903.949V950.068H904.176C904.631 949.008 905.275 947.985 906.108 947C906.956 946.015 908.032 945.212 909.335 944.591C910.653 943.955 912.229 943.636 914.062 943.636C916.487 943.636 918.752 944.273 920.858 945.545C922.979 946.818 924.691 948.78 925.994 951.432C927.297 954.083 927.949 957.462 927.949 961.568C927.949 965.523 927.32 968.833 926.062 971.5C924.82 974.167 923.138 976.167 921.017 977.5C918.911 978.833 916.57 979.5 913.994 979.5C912.237 979.5 910.714 979.212 909.426 978.636C908.138 978.061 907.055 977.303 906.176 976.364C905.312 975.424 904.646 974.417 904.176 973.341H903.835V979H892.835ZM903.722 961.545C903.722 963.424 903.972 965.061 904.472 966.455C904.987 967.848 905.722 968.932 906.676 969.705C907.646 970.462 908.805 970.841 910.153 970.841C911.517 970.841 912.676 970.462 913.631 969.705C914.585 968.932 915.305 967.848 915.79 966.455C916.29 965.061 916.54 963.424 916.54 961.545C916.54 959.667 916.29 958.038 915.79 956.659C915.305 955.28 914.585 954.212 913.631 953.455C912.691 952.697 911.532 952.318 910.153 952.318C908.79 952.318 907.631 952.689 906.676 953.432C905.722 954.174 904.987 955.235 904.472 956.614C903.972 957.992 903.722 959.636 903.722 961.545ZM950.091 979.659C946.439 979.659 943.288 978.939 940.636 977.5C938 976.045 935.97 973.977 934.545 971.295C933.136 968.598 932.432 965.394 932.432 961.682C932.432 958.076 933.144 954.924 934.568 952.227C935.992 949.515 938 947.409 940.591 945.909C943.182 944.394 946.235 943.636 949.75 943.636C952.235 943.636 954.508 944.023 956.568 944.795C958.629 945.568 960.409 946.712 961.909 948.227C963.409 949.742 964.576 951.614 965.409 953.841C966.242 956.053 966.659 958.591 966.659 961.455V964.227H936.318V957.773H956.318C956.303 956.591 956.023 955.538 955.477 954.614C954.932 953.689 954.182 952.97 953.227 952.455C952.288 951.924 951.205 951.659 949.977 951.659C948.735 951.659 947.621 951.939 946.636 952.5C945.652 953.045 944.871 953.795 944.295 954.75C943.72 955.689 943.417 956.758 943.386 957.955V964.523C943.386 965.947 943.667 967.197 944.227 968.273C944.788 969.333 945.583 970.159 946.614 970.75C947.644 971.341 948.871 971.636 950.295 971.636C951.28 971.636 952.174 971.5 952.977 971.227C953.78 970.955 954.47 970.553 955.045 970.023C955.621 969.492 956.053 968.841 956.341 968.068L966.545 968.364C966.121 970.652 965.189 972.644 963.75 974.341C962.326 976.023 960.455 977.333 958.136 978.273C955.818 979.197 953.136 979.659 950.091 979.659ZM992.176 944.091V952.273H969.722V944.091H992.176ZM974.403 979V942.318C974.403 939.621 974.911 937.386 975.926 935.614C976.941 933.826 978.35 932.492 980.153 931.614C981.956 930.72 984.04 930.273 986.403 930.273C987.949 930.273 989.403 930.394 990.767 930.636C992.146 930.864 993.169 931.068 993.835 931.25L992.062 939.386C991.653 939.25 991.153 939.136 990.562 939.045C989.987 938.955 989.441 938.909 988.926 938.909C987.623 938.909 986.729 939.197 986.244 939.773C985.759 940.348 985.517 941.136 985.517 942.136V979H974.403ZM1012.69 979.659C1009.03 979.659 1005.88 978.909 1003.24 977.409C1000.62 975.894 998.595 973.788 997.17 971.091C995.761 968.379 995.057 965.235 995.057 961.659C995.057 958.068 995.761 954.924 997.17 952.227C998.595 949.515 1000.62 947.409 1003.24 945.909C1005.88 944.394 1009.03 943.636 1012.69 943.636C1016.36 943.636 1019.5 944.394 1022.12 945.909C1024.76 947.409 1026.78 949.515 1028.19 952.227C1029.62 954.924 1030.33 958.068 1030.33 961.659C1030.33 965.235 1029.62 968.379 1028.19 971.091C1026.78 973.788 1024.76 975.894 1022.12 977.409C1019.5 978.909 1016.36 979.659 1012.69 979.659ZM1012.76 971.273C1014.09 971.273 1015.22 970.864 1016.15 970.045C1017.07 969.227 1017.78 968.091 1018.26 966.636C1018.76 965.182 1019.01 963.5 1019.01 961.591C1019.01 959.652 1018.76 957.955 1018.26 956.5C1017.78 955.045 1017.07 953.909 1016.15 953.091C1015.22 952.273 1014.09 951.864 1012.76 951.864C1011.38 951.864 1010.22 952.273 1009.26 953.091C1008.32 953.909 1007.6 955.045 1007.1 956.5C1006.62 957.955 1006.38 959.652 1006.38 961.591C1006.38 963.5 1006.62 965.182 1007.1 966.636C1007.6 968.091 1008.32 969.227 1009.26 970.045C1010.22 970.864 1011.38 971.273 1012.76 971.273ZM1036.02 979V944.091H1046.82V950.455H1047.18C1047.82 948.152 1048.86 946.439 1050.3 945.318C1051.73 944.182 1053.41 943.614 1055.32 943.614C1055.83 943.614 1056.36 943.652 1056.91 943.727C1057.45 943.788 1057.96 943.886 1058.43 944.023V953.682C1057.9 953.5 1057.2 953.356 1056.34 953.25C1055.49 953.144 1054.73 953.091 1054.07 953.091C1052.75 953.091 1051.56 953.386 1050.5 953.977C1049.45 954.553 1048.63 955.364 1048.02 956.409C1047.43 957.439 1047.14 958.652 1047.14 960.045V979H1036.02ZM1077.47 979.659C1073.81 979.659 1070.66 978.939 1068.01 977.5C1065.38 976.045 1063.34 973.977 1061.92 971.295C1060.51 968.598 1059.81 965.394 1059.81 961.682C1059.81 958.076 1060.52 954.924 1061.94 952.227C1063.37 949.515 1065.38 947.409 1067.97 945.909C1070.56 944.394 1073.61 943.636 1077.12 943.636C1079.61 943.636 1081.88 944.023 1083.94 944.795C1086 945.568 1087.78 946.712 1089.28 948.227C1090.78 949.742 1091.95 951.614 1092.78 953.841C1093.62 956.053 1094.03 958.591 1094.03 961.455V964.227H1063.69V957.773H1083.69C1083.68 956.591 1083.4 955.538 1082.85 954.614C1082.31 953.689 1081.56 952.97 1080.6 952.455C1079.66 951.924 1078.58 951.659 1077.35 951.659C1076.11 951.659 1075 951.939 1074.01 952.5C1073.03 953.045 1072.25 953.795 1071.67 954.75C1071.09 955.689 1070.79 956.758 1070.76 957.955V964.523C1070.76 965.947 1071.04 967.197 1071.6 968.273C1072.16 969.333 1072.96 970.159 1073.99 970.75C1075.02 971.341 1076.25 971.636 1077.67 971.636C1078.66 971.636 1079.55 971.5 1080.35 971.227C1081.16 970.955 1081.84 970.553 1082.42 970.023C1083 969.492 1083.43 968.841 1083.72 968.068L1093.92 968.364C1093.5 970.652 1092.56 972.644 1091.12 974.341C1089.7 976.023 1087.83 977.333 1085.51 978.273C1083.19 979.197 1080.51 979.659 1077.47 979.659ZM307.054 1069.09V1021.09H318.054V1027.07H318.395C318.849 1026.01 319.493 1024.98 320.327 1024C321.175 1023.02 322.251 1022.21 323.554 1021.59C324.872 1020.95 326.448 1020.64 328.281 1020.64C330.705 1020.64 332.971 1021.27 335.077 1022.55C337.198 1023.82 338.91 1025.78 340.213 1028.43C341.516 1031.08 342.168 1034.46 342.168 1038.57C342.168 1042.52 341.539 1045.83 340.281 1048.5C339.039 1051.17 337.357 1053.17 335.236 1054.5C333.13 1055.83 330.789 1056.5 328.213 1056.5C326.455 1056.5 324.933 1056.21 323.645 1055.64C322.357 1055.06 321.274 1054.3 320.395 1053.36C319.531 1052.42 318.865 1051.42 318.395 1050.34H318.168V1069.09H307.054ZM317.94 1038.55C317.94 1040.42 318.19 1042.06 318.69 1043.45C319.205 1044.85 319.94 1045.93 320.895 1046.7C321.865 1047.46 323.024 1047.84 324.372 1047.84C325.736 1047.84 326.895 1047.46 327.849 1046.7C328.804 1045.93 329.524 1044.85 330.009 1043.45C330.509 1042.06 330.759 1040.42 330.759 1038.55C330.759 1036.67 330.509 1035.04 330.009 1033.66C329.524 1032.28 328.804 1031.21 327.849 1030.45C326.91 1029.7 325.751 1029.32 324.372 1029.32C323.009 1029.32 321.849 1029.69 320.895 1030.43C319.94 1031.17 319.205 1032.23 318.69 1033.61C318.19 1034.99 317.94 1036.64 317.94 1038.55ZM347.991 1056V1021.09H358.787V1027.45H359.151C359.787 1025.15 360.825 1023.44 362.264 1022.32C363.704 1021.18 365.378 1020.61 367.287 1020.61C367.802 1020.61 368.332 1020.65 368.878 1020.73C369.423 1020.79 369.931 1020.89 370.401 1021.02V1030.68C369.87 1030.5 369.173 1030.36 368.31 1030.25C367.461 1030.14 366.704 1030.09 366.037 1030.09C364.719 1030.09 363.529 1030.39 362.469 1030.98C361.423 1031.55 360.598 1032.36 359.991 1033.41C359.401 1034.44 359.105 1035.65 359.105 1037.05V1056H347.991ZM389.412 1056.66C385.745 1056.66 382.594 1055.91 379.957 1054.41C377.336 1052.89 375.313 1050.79 373.889 1048.09C372.48 1045.38 371.776 1042.23 371.776 1038.66C371.776 1035.07 372.48 1031.92 373.889 1029.23C375.313 1026.52 377.336 1024.41 379.957 1022.91C382.594 1021.39 385.745 1020.64 389.412 1020.64C393.079 1020.64 396.223 1021.39 398.844 1022.91C401.48 1024.41 403.503 1026.52 404.912 1029.23C406.336 1031.92 407.048 1035.07 407.048 1038.66C407.048 1042.23 406.336 1045.38 404.912 1048.09C403.503 1050.79 401.48 1052.89 398.844 1054.41C396.223 1055.91 393.079 1056.66 389.412 1056.66ZM389.48 1048.27C390.813 1048.27 391.942 1047.86 392.866 1047.05C393.791 1046.23 394.495 1045.09 394.98 1043.64C395.48 1042.18 395.73 1040.5 395.73 1038.59C395.73 1036.65 395.48 1034.95 394.98 1033.5C394.495 1032.05 393.791 1030.91 392.866 1030.09C391.942 1029.27 390.813 1028.86 389.48 1028.86C388.101 1028.86 386.935 1029.27 385.98 1030.09C385.041 1030.91 384.321 1032.05 383.821 1033.5C383.336 1034.95 383.094 1036.65 383.094 1038.59C383.094 1040.5 383.336 1042.18 383.821 1043.64C384.321 1045.09 385.041 1046.23 385.98 1047.05C386.935 1047.86 388.101 1048.27 389.48 1048.27ZM429.037 1056.66C425.355 1056.66 422.196 1055.9 419.56 1054.39C416.938 1052.87 414.923 1050.77 413.514 1048.07C412.105 1045.36 411.401 1042.22 411.401 1038.66C411.401 1035.08 412.105 1031.95 413.514 1029.25C414.938 1026.54 416.961 1024.42 419.582 1022.91C422.219 1021.39 425.363 1020.64 429.014 1020.64C432.241 1020.64 435.052 1021.22 437.446 1022.39C439.855 1023.55 441.734 1025.2 443.082 1027.34C444.446 1029.46 445.166 1031.95 445.241 1034.82H434.855C434.643 1033.03 434.037 1031.63 433.037 1030.61C432.052 1029.6 430.764 1029.09 429.173 1029.09C427.885 1029.09 426.757 1029.45 425.787 1030.18C424.817 1030.89 424.06 1031.95 423.514 1033.36C422.984 1034.76 422.719 1036.48 422.719 1038.55C422.719 1040.61 422.984 1042.35 423.514 1043.77C424.06 1045.18 424.817 1046.25 425.787 1046.98C426.757 1047.69 427.885 1048.05 429.173 1048.05C430.204 1048.05 431.113 1047.83 431.901 1047.39C432.704 1046.95 433.363 1046.3 433.878 1045.45C434.393 1044.59 434.719 1043.55 434.855 1042.32H445.241C445.135 1045.2 444.416 1047.71 443.082 1049.86C441.764 1052.02 439.908 1053.69 437.514 1054.89C435.135 1056.07 432.31 1056.66 429.037 1056.66ZM467.247 1056.66C463.596 1056.66 460.444 1055.94 457.793 1054.5C455.156 1053.05 453.126 1050.98 451.702 1048.3C450.293 1045.6 449.588 1042.39 449.588 1038.68C449.588 1035.08 450.3 1031.92 451.724 1029.23C453.149 1026.52 455.156 1024.41 457.747 1022.91C460.338 1021.39 463.391 1020.64 466.906 1020.64C469.391 1020.64 471.664 1021.02 473.724 1021.8C475.785 1022.57 477.565 1023.71 479.065 1025.23C480.565 1026.74 481.732 1028.61 482.565 1030.84C483.399 1033.05 483.815 1035.59 483.815 1038.45V1041.23H453.474V1034.77H473.474C473.459 1033.59 473.179 1032.54 472.634 1031.61C472.088 1030.69 471.338 1029.97 470.384 1029.45C469.444 1028.92 468.361 1028.66 467.134 1028.66C465.891 1028.66 464.777 1028.94 463.793 1029.5C462.808 1030.05 462.027 1030.8 461.452 1031.75C460.876 1032.69 460.573 1033.76 460.543 1034.95V1041.52C460.543 1042.95 460.823 1044.2 461.384 1045.27C461.944 1046.33 462.74 1047.16 463.77 1047.75C464.8 1048.34 466.027 1048.64 467.452 1048.64C468.437 1048.64 469.33 1048.5 470.134 1048.23C470.937 1047.95 471.626 1047.55 472.202 1047.02C472.777 1046.49 473.209 1045.84 473.497 1045.07L483.702 1045.36C483.277 1047.65 482.346 1049.64 480.906 1051.34C479.482 1053.02 477.611 1054.33 475.293 1055.27C472.974 1056.2 470.293 1056.66 467.247 1056.66ZM505.81 1056.66C502.158 1056.66 499.007 1055.94 496.355 1054.5C493.719 1053.05 491.688 1050.98 490.264 1048.3C488.855 1045.6 488.151 1042.39 488.151 1038.68C488.151 1035.08 488.863 1031.92 490.287 1029.23C491.711 1026.52 493.719 1024.41 496.31 1022.91C498.901 1021.39 501.954 1020.64 505.469 1020.64C507.954 1020.64 510.226 1021.02 512.287 1021.8C514.348 1022.57 516.128 1023.71 517.628 1025.23C519.128 1026.74 520.295 1028.61 521.128 1030.84C521.961 1033.05 522.378 1035.59 522.378 1038.45V1041.23H492.037V1034.77H512.037C512.022 1033.59 511.741 1032.54 511.196 1031.61C510.651 1030.69 509.901 1029.97 508.946 1029.45C508.007 1028.92 506.923 1028.66 505.696 1028.66C504.454 1028.66 503.34 1028.94 502.355 1029.5C501.37 1030.05 500.59 1030.8 500.014 1031.75C499.438 1032.69 499.135 1033.76 499.105 1034.95V1041.52C499.105 1042.95 499.385 1044.2 499.946 1045.27C500.507 1046.33 501.302 1047.16 502.332 1047.75C503.363 1048.34 504.59 1048.64 506.014 1048.64C506.999 1048.64 507.893 1048.5 508.696 1048.23C509.499 1047.95 510.188 1047.55 510.764 1047.02C511.34 1046.49 511.772 1045.84 512.06 1045.07L522.264 1045.36C521.84 1047.65 520.908 1049.64 519.469 1051.34C518.045 1053.02 516.173 1054.33 513.855 1055.27C511.537 1056.2 508.855 1056.66 505.81 1056.66ZM540.804 1056.5C538.228 1056.5 535.887 1055.83 533.781 1054.5C531.675 1053.17 529.993 1051.17 528.736 1048.5C527.478 1045.83 526.849 1042.52 526.849 1038.57C526.849 1034.46 527.501 1031.08 528.804 1028.43C530.107 1025.78 531.812 1023.82 533.918 1022.55C536.039 1021.27 538.319 1020.64 540.759 1020.64C542.592 1020.64 544.16 1020.95 545.463 1021.59C546.766 1022.21 547.842 1023.02 548.69 1024C549.539 1024.98 550.183 1026.01 550.622 1027.07H550.849V1009.45H561.963V1056H550.963V1050.34H550.622C550.152 1051.42 549.486 1052.42 548.622 1053.36C547.759 1054.3 546.675 1055.06 545.372 1055.64C544.084 1056.21 542.562 1056.5 540.804 1056.5ZM544.668 1047.84C546.016 1047.84 547.168 1047.46 548.122 1046.7C549.077 1045.93 549.812 1044.85 550.327 1043.45C550.842 1042.06 551.099 1040.42 551.099 1038.55C551.099 1036.64 550.842 1034.99 550.327 1033.61C549.827 1032.23 549.092 1031.17 548.122 1030.43C547.168 1029.69 546.016 1029.32 544.668 1029.32C543.289 1029.32 542.122 1029.7 541.168 1030.45C540.213 1031.21 539.486 1032.28 538.986 1033.66C538.501 1035.04 538.259 1036.67 538.259 1038.55C538.259 1040.42 538.509 1042.06 539.009 1043.45C539.509 1044.85 540.228 1045.93 541.168 1046.7C542.122 1047.46 543.289 1047.84 544.668 1047.84ZM568.991 1056V1021.09H580.105V1056H568.991ZM574.56 1017.02C572.999 1017.02 571.658 1016.51 570.537 1015.48C569.416 1014.43 568.855 1013.17 568.855 1011.7C568.855 1010.25 569.416 1009.01 570.537 1007.98C571.658 1006.93 572.999 1006.41 574.56 1006.41C576.135 1006.41 577.476 1006.93 578.582 1007.98C579.704 1009.01 580.264 1010.25 580.264 1011.7C580.264 1013.17 579.704 1014.43 578.582 1015.48C577.476 1016.51 576.135 1017.02 574.56 1017.02ZM598.293 1036.09V1056H587.179V1021.09H597.747V1027.5H598.134C598.906 1025.36 600.224 1023.69 602.088 1022.48C603.952 1021.25 606.171 1020.64 608.747 1020.64C611.202 1020.64 613.33 1021.19 615.134 1022.3C616.952 1023.39 618.361 1024.92 619.361 1026.89C620.376 1028.84 620.876 1031.13 620.861 1033.75V1056H609.747V1035.93C609.762 1033.99 609.27 1032.48 608.27 1031.39C607.285 1030.3 605.914 1029.75 604.156 1029.75C602.99 1029.75 601.959 1030.01 601.065 1030.52C600.187 1031.02 599.505 1031.74 599.02 1032.68C598.55 1033.62 598.308 1034.76 598.293 1036.09ZM644.014 1069.82C640.696 1069.82 637.855 1069.36 635.491 1068.43C633.128 1067.51 631.272 1066.24 629.923 1064.64C628.575 1063.03 627.764 1061.21 627.491 1059.18L638.014 1058.59C638.211 1059.3 638.575 1059.92 639.105 1060.45C639.651 1060.98 640.355 1061.39 641.219 1061.68C642.098 1061.97 643.128 1062.11 644.31 1062.11C646.173 1062.11 647.711 1061.66 648.923 1060.75C650.151 1059.86 650.764 1058.29 650.764 1056.05V1049.91H650.378C649.938 1050.98 649.272 1051.95 648.378 1052.8C647.484 1053.64 646.37 1054.31 645.037 1054.8C643.719 1055.28 642.204 1055.52 640.491 1055.52C637.946 1055.52 635.613 1054.93 633.491 1053.75C631.385 1052.55 629.696 1050.7 628.423 1048.2C627.166 1045.69 626.537 1042.45 626.537 1038.5C626.537 1034.42 627.188 1031.07 628.491 1028.43C629.795 1025.78 631.499 1023.82 633.605 1022.55C635.726 1021.27 638.007 1020.64 640.446 1020.64C642.279 1020.64 643.848 1020.95 645.151 1021.59C646.469 1022.21 647.552 1023.02 648.401 1024C649.249 1024.98 649.893 1026.01 650.332 1027.07H650.651V1021.09H661.719V1056.14C661.719 1059.09 660.976 1061.58 659.491 1063.61C658.007 1065.64 655.931 1067.18 653.264 1068.23C650.598 1069.29 647.514 1069.82 644.014 1069.82ZM644.355 1047.43C645.704 1047.43 646.855 1047.08 647.81 1046.36C648.764 1045.65 649.499 1044.63 650.014 1043.3C650.529 1041.96 650.787 1040.36 650.787 1038.5C650.787 1036.61 650.529 1034.98 650.014 1033.61C649.514 1032.23 648.779 1031.17 647.81 1030.43C646.855 1029.69 645.704 1029.32 644.355 1029.32C642.976 1029.32 641.81 1029.7 640.855 1030.45C639.901 1031.21 639.173 1032.28 638.673 1033.66C638.188 1035.02 637.946 1036.64 637.946 1038.5C637.946 1040.36 638.196 1041.96 638.696 1043.3C639.196 1044.63 639.916 1045.65 640.855 1046.36C641.81 1047.08 642.976 1047.43 644.355 1047.43ZM702.259 1021.09V1029.27H680.236V1021.09H702.259ZM684.849 1012.73H695.963V1045.02C695.963 1045.7 696.069 1046.26 696.281 1046.68C696.509 1047.09 696.834 1047.39 697.259 1047.57C697.683 1047.73 698.19 1047.82 698.781 1047.82C699.205 1047.82 699.652 1047.78 700.122 1047.7C700.607 1047.61 700.971 1047.54 701.213 1047.48L702.895 1055.5C702.365 1055.65 701.615 1055.84 700.645 1056.07C699.69 1056.3 698.546 1056.44 697.213 1056.5C694.607 1056.62 692.372 1056.32 690.509 1055.59C688.66 1054.85 687.243 1053.7 686.259 1052.14C685.289 1050.58 684.819 1048.61 684.849 1046.25V1012.73ZM723.849 1056.66C720.183 1056.66 717.031 1055.91 714.395 1054.41C711.774 1052.89 709.751 1050.79 708.327 1048.09C706.918 1045.38 706.213 1042.23 706.213 1038.66C706.213 1035.07 706.918 1031.92 708.327 1029.23C709.751 1026.52 711.774 1024.41 714.395 1022.91C717.031 1021.39 720.183 1020.64 723.849 1020.64C727.516 1020.64 730.66 1021.39 733.281 1022.91C735.918 1024.41 737.94 1026.52 739.349 1029.23C740.774 1031.92 741.486 1035.07 741.486 1038.66C741.486 1042.23 740.774 1045.38 739.349 1048.09C737.94 1050.79 735.918 1052.89 733.281 1054.41C730.66 1055.91 727.516 1056.66 723.849 1056.66ZM723.918 1048.27C725.251 1048.27 726.38 1047.86 727.304 1047.05C728.228 1046.23 728.933 1045.09 729.418 1043.64C729.918 1042.18 730.168 1040.5 730.168 1038.59C730.168 1036.65 729.918 1034.95 729.418 1033.5C728.933 1032.05 728.228 1030.91 727.304 1030.09C726.38 1029.27 725.251 1028.86 723.918 1028.86C722.539 1028.86 721.372 1029.27 720.418 1030.09C719.478 1030.91 718.759 1032.05 718.259 1033.5C717.774 1034.95 717.531 1036.65 717.531 1038.59C717.531 1040.5 717.774 1042.18 718.259 1043.64C718.759 1045.09 719.478 1046.23 720.418 1047.05C721.372 1047.86 722.539 1048.27 723.918 1048.27ZM760.929 1069.09V1021.09H771.929V1027.07H772.27C772.724 1026.01 773.368 1024.98 774.202 1024C775.05 1023.02 776.126 1022.21 777.429 1021.59C778.747 1020.95 780.323 1020.64 782.156 1020.64C784.58 1020.64 786.846 1021.27 788.952 1022.55C791.073 1023.82 792.785 1025.78 794.088 1028.43C795.391 1031.08 796.043 1034.46 796.043 1038.57C796.043 1042.52 795.414 1045.83 794.156 1048.5C792.914 1051.17 791.232 1053.17 789.111 1054.5C787.005 1055.83 784.664 1056.5 782.088 1056.5C780.33 1056.5 778.808 1056.21 777.52 1055.64C776.232 1055.06 775.149 1054.3 774.27 1053.36C773.406 1052.42 772.74 1051.42 772.27 1050.34H772.043V1069.09H760.929ZM771.815 1038.55C771.815 1040.42 772.065 1042.06 772.565 1043.45C773.08 1044.85 773.815 1045.93 774.77 1046.7C775.74 1047.46 776.899 1047.84 778.247 1047.84C779.611 1047.84 780.77 1047.46 781.724 1046.7C782.679 1045.93 783.399 1044.85 783.884 1043.45C784.384 1042.06 784.634 1040.42 784.634 1038.55C784.634 1036.67 784.384 1035.04 783.884 1033.66C783.399 1032.28 782.679 1031.21 781.724 1030.45C780.785 1029.7 779.626 1029.32 778.247 1029.32C776.884 1029.32 775.724 1029.69 774.77 1030.43C773.815 1031.17 773.08 1032.23 772.565 1033.61C772.065 1034.99 771.815 1036.64 771.815 1038.55ZM811.707 1056.59C809.48 1056.59 807.503 1056.22 805.776 1055.48C804.063 1054.72 802.707 1053.58 801.707 1052.07C800.723 1050.54 800.23 1048.62 800.23 1046.32C800.23 1044.38 800.571 1042.74 801.253 1041.41C801.935 1040.08 802.874 1038.99 804.071 1038.16C805.268 1037.33 806.647 1036.7 808.207 1036.27C809.768 1035.83 811.435 1035.54 813.207 1035.39C815.192 1035.2 816.791 1035.02 818.003 1034.82C819.215 1034.61 820.094 1034.31 820.639 1033.93C821.2 1033.54 821.48 1032.98 821.48 1032.27V1032.16C821.48 1030.99 821.079 1030.09 820.276 1029.45C819.473 1028.82 818.389 1028.5 817.026 1028.5C815.556 1028.5 814.374 1028.82 813.48 1029.45C812.586 1030.09 812.018 1030.97 811.776 1032.09L801.526 1031.73C801.829 1029.61 802.609 1027.71 803.866 1026.05C805.139 1024.36 806.882 1023.05 809.094 1022.09C811.321 1021.12 813.995 1020.64 817.116 1020.64C819.344 1020.64 821.397 1020.9 823.276 1021.43C825.154 1021.95 826.791 1022.7 828.185 1023.7C829.579 1024.69 830.654 1025.9 831.412 1027.34C832.185 1028.78 832.571 1030.42 832.571 1032.27V1056H822.116V1051.14H821.844C821.223 1052.32 820.427 1053.32 819.457 1054.14C818.503 1054.95 817.374 1055.57 816.071 1055.98C814.783 1056.39 813.329 1056.59 811.707 1056.59ZM815.139 1049.32C816.336 1049.32 817.412 1049.08 818.366 1048.59C819.336 1048.11 820.109 1047.44 820.685 1046.59C821.26 1045.73 821.548 1044.73 821.548 1043.59V1040.27C821.23 1040.44 820.844 1040.59 820.389 1040.73C819.95 1040.86 819.465 1040.99 818.935 1041.11C818.404 1041.23 817.859 1041.34 817.298 1041.43C816.738 1041.52 816.2 1041.61 815.685 1041.68C814.639 1041.85 813.745 1042.11 813.003 1042.45C812.276 1042.8 811.715 1043.26 811.321 1043.82C810.942 1044.36 810.753 1045.02 810.753 1045.77C810.753 1046.92 811.162 1047.8 811.98 1048.41C812.813 1049.02 813.866 1049.32 815.139 1049.32ZM844.912 1069.09C843.579 1069.09 842.321 1068.98 841.139 1068.77C839.957 1068.58 838.942 1068.31 838.094 1067.98L840.548 1059.91C841.639 1060.27 842.624 1060.48 843.503 1060.55C844.397 1060.61 845.162 1060.46 845.798 1060.11C846.45 1059.78 846.95 1059.18 847.298 1058.32L847.73 1057.27L835.321 1021.09H846.957L853.389 1046H853.753L860.276 1021.09H871.98L858.821 1059.34C858.185 1061.25 857.283 1062.93 856.116 1064.39C854.965 1065.86 853.473 1067.01 851.639 1067.84C849.821 1068.67 847.579 1069.09 844.912 1069.09ZM876.241 1056V1021.09H886.81V1027.5H887.196C887.923 1025.38 889.151 1023.7 890.878 1022.48C892.605 1021.25 894.666 1020.64 897.06 1020.64C899.484 1020.64 901.56 1021.26 903.287 1022.5C905.014 1023.74 906.113 1025.41 906.582 1027.5H906.946C907.598 1025.42 908.87 1023.77 910.764 1022.52C912.658 1021.27 914.893 1020.64 917.469 1020.64C920.772 1020.64 923.454 1021.7 925.514 1023.82C927.575 1025.92 928.605 1028.82 928.605 1032.5V1056H917.491V1035.05C917.491 1033.3 917.045 1031.98 916.151 1031.07C915.257 1030.14 914.098 1029.68 912.673 1029.68C911.143 1029.68 909.938 1030.18 909.06 1031.18C908.196 1032.17 907.764 1033.49 907.764 1035.16V1056H897.082V1034.93C897.082 1033.31 896.643 1032.03 895.764 1031.09C894.885 1030.15 893.726 1029.68 892.287 1029.68C891.317 1029.68 890.461 1029.92 889.719 1030.39C888.976 1030.84 888.393 1031.49 887.969 1032.34C887.56 1033.19 887.355 1034.19 887.355 1035.34V1056H876.241ZM951.81 1056.66C948.158 1056.66 945.007 1055.94 942.355 1054.5C939.719 1053.05 937.688 1050.98 936.264 1048.3C934.855 1045.6 934.151 1042.39 934.151 1038.68C934.151 1035.08 934.863 1031.92 936.287 1029.23C937.711 1026.52 939.719 1024.41 942.31 1022.91C944.901 1021.39 947.954 1020.64 951.469 1020.64C953.954 1020.64 956.226 1021.02 958.287 1021.8C960.348 1022.57 962.128 1023.71 963.628 1025.23C965.128 1026.74 966.295 1028.61 967.128 1030.84C967.961 1033.05 968.378 1035.59 968.378 1038.45V1041.23H938.037V1034.77H958.037C958.022 1033.59 957.741 1032.54 957.196 1031.61C956.651 1030.69 955.901 1029.97 954.946 1029.45C954.007 1028.92 952.923 1028.66 951.696 1028.66C950.454 1028.66 949.34 1028.94 948.355 1029.5C947.37 1030.05 946.59 1030.8 946.014 1031.75C945.438 1032.69 945.135 1033.76 945.105 1034.95V1041.52C945.105 1042.95 945.385 1044.2 945.946 1045.27C946.507 1046.33 947.302 1047.16 948.332 1047.75C949.363 1048.34 950.59 1048.64 952.014 1048.64C952.999 1048.64 953.893 1048.5 954.696 1048.23C955.499 1047.95 956.188 1047.55 956.764 1047.02C957.34 1046.49 957.772 1045.84 958.06 1045.07L968.264 1045.36C967.84 1047.65 966.908 1049.64 965.469 1051.34C964.045 1053.02 962.173 1054.33 959.855 1055.27C957.537 1056.2 954.855 1056.66 951.81 1056.66ZM985.168 1036.09V1056H974.054V1021.09H984.622V1027.5H985.009C985.781 1025.36 987.099 1023.69 988.963 1022.48C990.827 1021.25 993.046 1020.64 995.622 1020.64C998.077 1020.64 1000.21 1021.19 1002.01 1022.3C1003.83 1023.39 1005.24 1024.92 1006.24 1026.89C1007.25 1028.84 1007.75 1031.13 1007.74 1033.75V1056H996.622V1035.93C996.637 1033.99 996.145 1032.48 995.145 1031.39C994.16 1030.3 992.789 1029.75 991.031 1029.75C989.865 1029.75 988.834 1030.01 987.94 1030.52C987.062 1031.02 986.38 1031.74 985.895 1032.68C985.425 1033.62 985.183 1034.76 985.168 1036.09ZM1034.32 1021.09V1029.27H1012.3V1021.09H1034.32ZM1016.91 1012.73H1028.03V1045.02C1028.03 1045.7 1028.13 1046.26 1028.34 1046.68C1028.57 1047.09 1028.9 1047.39 1029.32 1047.57C1029.75 1047.73 1030.25 1047.82 1030.84 1047.82C1031.27 1047.82 1031.71 1047.78 1032.18 1047.7C1032.67 1047.61 1033.03 1047.54 1033.28 1047.48L1034.96 1055.5C1034.43 1055.65 1033.68 1055.84 1032.71 1056.07C1031.75 1056.3 1030.61 1056.44 1029.28 1056.5C1026.67 1056.62 1024.43 1056.32 1022.57 1055.59C1020.72 1054.85 1019.31 1053.7 1018.32 1052.14C1017.35 1050.58 1016.88 1048.61 1016.91 1046.25V1012.73Z" fill="#252E3D"/>
<path d="M442.113 149.807C432.074 154.827 431.271 169.584 440.808 175.808C443.218 177.414 446.631 177.716 468.114 178.117L492.811 178.619L537.183 345.268C561.578 436.924 581.556 512.619 581.656 513.422C581.656 514.325 580.05 515.831 578.143 516.835C572.521 519.947 563.787 529.786 560.373 537.014C557.964 542.334 557.161 545.447 556.759 552.474C556.157 563.015 557.964 570.343 563.184 578.877L566.698 584.599L563.184 589.719C557.261 598.352 555.153 604.978 555.153 615.82C555.053 622.647 555.555 626.863 556.86 630.678C559.771 638.709 566.196 647.644 572.822 652.563C596.715 670.132 628.94 662 641.69 635.196C645.204 627.767 645.404 626.763 645.404 617.326C645.404 611.805 645.003 605.781 644.601 604.075L643.698 600.762H719.091H794.484L793.48 603.272C791.473 608.592 791.172 618.43 792.878 625.96C794.886 634.995 798.902 642.223 805.427 648.648C834.139 676.958 882.828 656.679 882.828 616.423C882.828 597.047 871.283 580.382 852.711 572.954C848.495 571.247 839.961 571.147 722.705 570.645C606.352 570.143 597.016 570.042 594.004 568.436C583.965 562.914 584.367 547.454 594.707 542.334C598.02 540.628 606.051 540.527 718.689 540.527C831.428 540.527 839.359 540.427 842.572 538.72C844.479 537.817 846.888 535.809 847.993 534.404C850.402 530.99 905.918 321.977 905.918 316.054C905.918 310.934 902.605 305.714 897.887 303.405C894.574 301.698 884.234 301.598 725.616 301.598H556.86L542.002 246.082C517.507 154.626 517.908 156.232 515.298 153.321C510.58 148.201 508.773 148 476.045 148C449.04 148 445.225 148.201 442.113 149.807ZM871.384 333.421C870.982 334.727 842.672 441.843 825.505 506.595L824.501 510.41H718.288H612.175L597.92 456.4C590.089 426.785 579.448 386.528 574.328 367.052L564.891 331.715H718.388C864.155 331.715 871.886 331.815 871.384 333.421ZM607.356 602.368C614.986 605.982 617.998 616.122 613.781 623.651C607.758 634.393 594.105 634.493 586.977 623.952C578.645 611.604 593.603 595.843 607.356 602.368ZM845.483 602.77C859.136 611.102 852.209 632.887 836.347 631.582C825.104 630.578 818.578 619.635 823.497 609.596C827.413 601.464 837.954 598.252 845.483 602.77Z" fill="#252E3D"/>
<path d="M710.658 151.815C704.032 155.931 703.631 157.537 703.631 178.82C703.631 196.689 703.731 198.195 705.739 200.805C708.751 204.922 712.264 207.23 716.38 207.833C721.701 208.736 728.227 205.323 731.038 200.304C733.045 196.689 733.246 195.083 733.246 178.72C733.246 159.645 732.845 157.838 727.825 153.12C724.211 149.707 715.075 149.004 710.658 151.815Z" fill="#252E3D"/>
<path d="M644.4 183.036C642.794 184.04 640.586 185.847 639.481 186.952C637.373 189.361 636.269 196.589 637.373 200.906C638.377 204.922 660.362 227.007 665.884 229.517C675.722 234.035 686.062 227.208 686.062 216.266C686.062 213.957 685.46 210.945 684.657 209.439C682.95 206.227 660.362 183.839 657.25 182.233C653.937 180.527 647.814 180.928 644.4 183.036Z" fill="#252E3D"/>
<path d="M778.924 182.534C777.318 183.237 770.391 189.461 763.665 196.288C753.826 206.427 751.316 209.439 750.815 212.451C749.208 220.984 753.324 228.011 761.155 230.421C768.584 232.629 771.294 231.023 786.152 216.065C796.994 205.022 799.404 202.01 800.006 198.898C801.01 193.778 798.299 186.851 794.284 184.04C790.469 181.33 783.04 180.627 778.924 182.534Z" fill="#252E3D"/>
</g>
<defs>
<clipPath id="clip0_12_3">
<rect width="1340" height="1876" fill="white"/>
</clipPath>
</defs>
</svg>
