<svg width="1000" height="1400" viewBox="0 0 1000 1400" fill="none" xmlns="http://www.w3.org/2000/svg">
<rect y="877" width="1000" height="523" fill="white"/>
<path fill-rule="evenodd" clip-rule="evenodd" d="M1000 0H0V1400H0.826148C15.8391 1110.03 233.587 880 500 880C766.413 880 984.161 1110.03 999.174 1400H1000V0Z" fill="#D9D9D9"/>
<g clip-path="url(#clip0_9_33)">
<path d="M529.812 137.645C517.977 138.992 506.609 142.332 495.535 147.781C473.504 158.621 457.098 175.086 446.609 196.941C432.605 225.887 432.547 258.582 446.375 287.586C450.066 295.32 451.824 298.191 457.039 305.34L460.848 310.555L448.719 322.684L436.531 334.871L432.898 333.758C430.145 332.879 428.094 332.645 423.758 332.82C418.953 332.996 417.605 333.289 414.09 334.93C410.223 336.746 408.23 338.621 380.633 366.277C348.406 398.562 348.934 397.859 347.469 406.473C345.066 420.594 354.793 434.07 369.207 436.531C372.488 437.059 374.246 437.059 377.527 436.531C385.965 435.066 385.555 435.359 416.902 404.246C432.605 388.602 446.258 374.598 447.254 373.133C451.121 367.273 452.41 358.016 450.184 350.984L449.129 347.469L461.258 335.34C469.988 326.609 473.68 323.328 474.207 323.68C474.676 323.914 476.609 325.379 478.543 326.902C483.758 330.945 488.973 334.051 496.414 337.625C521.082 349.344 548.504 351.102 574.637 342.605C582.957 339.852 596.609 332.762 603.934 327.371C640.73 300.125 655.789 253.074 641.668 209.363C639.441 202.508 633.406 190.262 628.895 183.582C607.332 151.355 568.367 133.309 529.812 137.645ZM558.816 156.336C593.914 163.719 620.164 190.027 627.723 225.477C628.836 230.574 629.07 233.445 629.07 242.469C629.07 251.492 628.836 254.363 627.723 259.461C623.855 277.742 616.59 291.102 603.348 304.285C590.164 317.527 576.805 324.793 558.523 328.66C549.617 330.594 533.387 330.594 524.539 328.66C505.73 324.676 491.199 316.531 477.957 302.762C466.297 290.633 458.973 276.629 455.34 259.461C453.406 250.555 453.406 234.324 455.34 225.477C461.199 198.113 477.605 176.609 502.273 164.012C511.062 159.5 520.496 156.629 530.984 155.164C537.195 154.285 552.137 154.93 558.816 156.336ZM431.199 352.742C433.426 354.969 434.305 358.484 433.484 361.824C432.957 363.875 380.516 416.668 377.352 418.309C374.539 419.715 372.137 419.715 369.266 418.25C366.629 416.902 364.578 413.562 364.578 410.633C364.578 409.637 365.105 407.879 365.691 406.648C366.805 404.598 417.781 353.27 420.828 351.219C421.941 350.457 423.172 350.281 425.691 350.398C428.68 350.633 429.383 350.926 431.199 352.742Z" fill="#252E3D"/>
<path d="M534.5 172.449C534.031 172.566 531.629 172.977 529.227 173.328C508.25 176.727 488.562 191.434 478.719 211.121C473.504 221.492 471.57 229.871 471.512 242.176C471.512 251.727 472.156 256.18 474.793 264.266C480.477 281.844 493.484 296.902 510.359 305.398C515.34 307.918 523.016 310.496 528.934 311.668C534.969 312.898 549.383 312.723 555.594 311.375C576.805 306.805 594.734 292.977 604.461 273.641C609.383 263.797 611.551 254.363 611.551 242.469C611.551 237.605 611.199 232.215 610.73 229.871C605.164 201.805 584.305 180.125 556.766 173.855C552.195 172.801 536.961 171.805 534.5 172.449ZM554.715 191.492C573.055 196.238 587.527 210.711 592.566 229.285C594.266 235.438 594.441 248.328 592.918 254.363C588.113 273.641 573.699 288.406 554.715 293.504C548.562 295.203 535.672 295.379 529.637 293.855C510.418 289.051 495.652 274.637 490.496 255.652C488.621 248.914 488.621 236.023 490.496 229.285C495.887 209.305 511.941 194.422 532.039 190.613C538.133 189.441 548.562 189.852 554.715 191.492Z" fill="#252E3D"/>
<path d="M519.734 217.332C517.215 218.621 515.164 222.078 515.164 224.891C515.164 227.82 516.688 230.105 522.957 236.434L528.934 242.469L522.957 248.445C519.734 251.785 516.629 255.301 516.102 256.355C512.527 263.504 520.496 271.473 527.645 267.898C528.699 267.371 532.215 264.266 535.555 261.043L541.531 255.066L547.566 261.043C550.848 264.266 554.363 267.371 555.418 267.898C562.566 271.473 570.535 263.504 566.961 256.355C566.434 255.301 563.328 251.785 560.105 248.445L554.129 242.469L560.105 236.434C566.375 230.105 567.898 227.82 567.898 224.891C567.898 221.961 565.848 218.621 563.211 217.273C558.23 214.754 555.77 215.809 547.566 223.895L541.531 229.871L535.555 223.895C532.215 220.672 528.699 217.566 527.645 217.039C525.184 215.809 522.371 215.867 519.734 217.332Z" fill="#252E3D"/>
</g>
<path d="M213.722 602V532.182H242.562C247.79 532.182 252.301 533.205 256.097 535.25C259.915 537.273 262.858 540.102 264.926 543.739C266.994 547.352 268.028 551.557 268.028 556.352C268.028 561.17 266.972 565.386 264.858 569C262.767 572.591 259.778 575.375 255.892 577.352C252.006 579.33 247.392 580.318 242.051 580.318H224.256V567.023H238.915C241.46 567.023 243.585 566.58 245.29 565.693C247.017 564.807 248.324 563.568 249.21 561.977C250.097 560.364 250.54 558.489 250.54 556.352C250.54 554.193 250.097 552.33 249.21 550.761C248.324 549.17 247.017 547.943 245.29 547.08C243.563 546.216 241.438 545.784 238.915 545.784H230.597V602H213.722ZM276.347 602V549.636H292.54V559.182H293.085C294.04 555.727 295.597 553.159 297.756 551.477C299.915 549.773 302.426 548.92 305.29 548.92C306.063 548.92 306.858 548.977 307.676 549.091C308.494 549.182 309.256 549.33 309.96 549.534V564.023C309.165 563.75 308.119 563.534 306.824 563.375C305.551 563.216 304.415 563.136 303.415 563.136C301.438 563.136 299.653 563.58 298.062 564.466C296.494 565.33 295.256 566.545 294.347 568.114C293.46 569.659 293.017 571.477 293.017 573.568V602H276.347ZM338.477 602.989C332.977 602.989 328.25 601.864 324.295 599.614C320.364 597.341 317.33 594.182 315.193 590.136C313.08 586.068 312.023 581.352 312.023 575.989C312.023 570.602 313.08 565.886 315.193 561.841C317.33 557.773 320.364 554.614 324.295 552.364C328.25 550.091 332.977 548.955 338.477 548.955C343.977 548.955 348.693 550.091 352.625 552.364C356.58 554.614 359.614 557.773 361.727 561.841C363.864 565.886 364.932 570.602 364.932 575.989C364.932 581.352 363.864 586.068 361.727 590.136C359.614 594.182 356.58 597.341 352.625 599.614C348.693 601.864 343.977 602.989 338.477 602.989ZM338.58 590.409C340.58 590.409 342.273 589.795 343.659 588.568C345.045 587.341 346.102 585.636 346.83 583.455C347.58 581.273 347.955 578.75 347.955 575.886C347.955 572.977 347.58 570.432 346.83 568.25C346.102 566.068 345.045 564.364 343.659 563.136C342.273 561.909 340.58 561.295 338.58 561.295C336.511 561.295 334.761 561.909 333.33 563.136C331.92 564.364 330.841 566.068 330.091 568.25C329.364 570.432 329 572.977 329 575.886C329 578.75 329.364 581.273 330.091 583.455C330.841 585.636 331.92 587.341 333.33 588.568C334.761 589.795 336.511 590.409 338.58 590.409ZM392.597 602.75C388.733 602.75 385.222 601.75 382.062 599.75C378.903 597.75 376.381 594.75 374.494 590.75C372.608 586.75 371.665 581.784 371.665 575.852C371.665 569.693 372.642 564.625 374.597 560.648C376.551 556.67 379.108 553.727 382.267 551.818C385.449 549.909 388.869 548.955 392.528 548.955C395.278 548.955 397.631 549.432 399.585 550.386C401.54 551.318 403.153 552.523 404.426 554C405.699 555.477 406.665 557.011 407.324 558.602H407.665V532.182H424.335V602H407.835V593.511H407.324C406.619 595.125 405.619 596.636 404.324 598.045C403.028 599.455 401.403 600.591 399.449 601.455C397.517 602.318 395.233 602.75 392.597 602.75ZM398.392 589.761C400.415 589.761 402.142 589.193 403.574 588.057C405.006 586.898 406.108 585.273 406.881 583.182C407.653 581.091 408.04 578.636 408.04 575.818C408.04 572.955 407.653 570.489 406.881 568.42C406.131 566.352 405.028 564.761 403.574 563.648C402.142 562.534 400.415 561.977 398.392 561.977C396.324 561.977 394.574 562.545 393.142 563.682C391.71 564.818 390.619 566.42 389.869 568.489C389.142 570.557 388.778 573 388.778 575.818C388.778 578.636 389.153 581.091 389.903 583.182C390.653 585.273 391.733 586.898 393.142 588.057C394.574 589.193 396.324 589.761 398.392 589.761ZM468.662 579.398V549.636H485.298V602H469.412V592.25H468.866C467.707 595.455 465.73 598 462.935 599.886C460.162 601.75 456.81 602.682 452.878 602.682C449.31 602.682 446.173 601.864 443.469 600.227C440.764 598.591 438.662 596.307 437.162 593.375C435.662 590.42 434.901 586.966 434.878 583.011V549.636H451.548V579.739C451.571 582.58 452.321 584.818 453.798 586.455C455.276 588.091 457.287 588.909 459.832 588.909C461.491 588.909 462.98 588.545 464.298 587.818C465.639 587.068 466.696 585.989 467.469 584.58C468.264 583.148 468.662 581.42 468.662 579.398ZM520.352 602.989C514.83 602.989 510.091 601.852 506.136 599.58C502.205 597.307 499.182 594.148 497.068 590.102C494.955 586.034 493.898 581.33 493.898 575.989C493.898 570.625 494.955 565.92 497.068 561.875C499.205 557.807 502.239 554.636 506.17 552.364C510.125 550.091 514.841 548.955 520.318 548.955C525.159 548.955 529.375 549.83 532.966 551.58C536.58 553.33 539.398 555.807 541.42 559.011C543.466 562.193 544.545 565.932 544.659 570.227H529.08C528.761 567.545 527.852 565.443 526.352 563.92C524.875 562.398 522.943 561.636 520.557 561.636C518.625 561.636 516.932 562.182 515.477 563.273C514.023 564.341 512.886 565.932 512.068 568.045C511.273 570.136 510.875 572.727 510.875 575.818C510.875 578.909 511.273 581.523 512.068 583.659C512.886 585.773 514.023 587.375 515.477 588.466C516.932 589.534 518.625 590.068 520.557 590.068C522.102 590.068 523.466 589.739 524.648 589.08C525.852 588.42 526.841 587.455 527.614 586.182C528.386 584.886 528.875 583.318 529.08 581.477H544.659C544.5 585.795 543.42 589.568 541.42 592.795C539.443 596.023 536.659 598.534 533.068 600.33C529.5 602.102 525.261 602.989 520.352 602.989ZM582.747 549.636V561.909H549.713V549.636H582.747ZM556.634 537.091H573.304V585.534C573.304 586.557 573.463 587.386 573.781 588.023C574.122 588.636 574.611 589.08 575.247 589.352C575.884 589.602 576.645 589.727 577.531 589.727C578.168 589.727 578.838 589.67 579.543 589.557C580.27 589.42 580.815 589.307 581.179 589.216L583.702 601.25C582.906 601.477 581.781 601.761 580.327 602.102C578.895 602.443 577.179 602.659 575.179 602.75C571.27 602.932 567.918 602.477 565.122 601.386C562.349 600.273 560.224 598.545 558.747 596.205C557.293 593.864 556.588 590.92 556.634 587.375V537.091ZM628.548 572.136V602H611.878V549.636H627.73V559.25H628.31C629.469 556.045 631.446 553.534 634.241 551.716C637.037 549.875 640.366 548.955 644.23 548.955C647.912 548.955 651.105 549.784 653.81 551.443C656.537 553.08 658.651 555.375 660.151 558.33C661.673 561.261 662.423 564.693 662.401 568.625V602H645.73V571.898C645.753 568.989 645.014 566.716 643.514 565.08C642.037 563.443 639.98 562.625 637.344 562.625C635.594 562.625 634.048 563.011 632.707 563.784C631.389 564.534 630.366 565.614 629.639 567.023C628.935 568.432 628.571 570.136 628.548 572.136ZM697.165 602.989C691.665 602.989 686.938 601.864 682.983 599.614C679.051 597.341 676.017 594.182 673.881 590.136C671.767 586.068 670.71 581.352 670.71 575.989C670.71 570.602 671.767 565.886 673.881 561.841C676.017 557.773 679.051 554.614 682.983 552.364C686.938 550.091 691.665 548.955 697.165 548.955C702.665 548.955 707.381 550.091 711.312 552.364C715.267 554.614 718.301 557.773 720.415 561.841C722.551 565.886 723.619 570.602 723.619 575.989C723.619 581.352 722.551 586.068 720.415 590.136C718.301 594.182 715.267 597.341 711.312 599.614C707.381 601.864 702.665 602.989 697.165 602.989ZM697.267 590.409C699.267 590.409 700.96 589.795 702.347 588.568C703.733 587.341 704.79 585.636 705.517 583.455C706.267 581.273 706.642 578.75 706.642 575.886C706.642 572.977 706.267 570.432 705.517 568.25C704.79 566.068 703.733 564.364 702.347 563.136C700.96 561.909 699.267 561.295 697.267 561.295C695.199 561.295 693.449 561.909 692.017 563.136C690.608 564.364 689.528 566.068 688.778 568.25C688.051 570.432 687.688 572.977 687.688 575.886C687.688 578.75 688.051 581.273 688.778 583.455C689.528 585.636 690.608 587.341 692.017 588.568C693.449 589.795 695.199 590.409 697.267 590.409ZM761.716 549.636V561.909H728.682V549.636H761.716ZM735.602 537.091H752.273V585.534C752.273 586.557 752.432 587.386 752.75 588.023C753.091 588.636 753.58 589.08 754.216 589.352C754.852 589.602 755.614 589.727 756.5 589.727C757.136 589.727 757.807 589.67 758.511 589.557C759.239 589.42 759.784 589.307 760.148 589.216L762.67 601.25C761.875 601.477 760.75 601.761 759.295 602.102C757.864 602.443 756.148 602.659 754.148 602.75C750.239 602.932 746.886 602.477 744.091 601.386C741.318 600.273 739.193 598.545 737.716 596.205C736.261 593.864 735.557 590.92 735.602 587.375V537.091ZM376.327 665.636V677.909H342.645V665.636H376.327ZM349.668 718V662.977C349.668 658.932 350.429 655.58 351.952 652.92C353.474 650.239 355.588 648.239 358.293 646.92C360.997 645.58 364.122 644.909 367.668 644.909C369.986 644.909 372.168 645.091 374.213 645.455C376.281 645.795 377.815 646.102 378.815 646.375L376.156 658.58C375.543 658.375 374.793 658.205 373.906 658.068C373.043 657.932 372.224 657.864 371.452 657.864C369.497 657.864 368.156 658.295 367.429 659.159C366.702 660.023 366.338 661.205 366.338 662.705V718H349.668ZM407.102 718.989C401.602 718.989 396.875 717.864 392.92 715.614C388.989 713.341 385.955 710.182 383.818 706.136C381.705 702.068 380.648 697.352 380.648 691.989C380.648 686.602 381.705 681.886 383.818 677.841C385.955 673.773 388.989 670.614 392.92 668.364C396.875 666.091 401.602 664.955 407.102 664.955C412.602 664.955 417.318 666.091 421.25 668.364C425.205 670.614 428.239 673.773 430.352 677.841C432.489 681.886 433.557 686.602 433.557 691.989C433.557 697.352 432.489 702.068 430.352 706.136C428.239 710.182 425.205 713.341 421.25 715.614C417.318 717.864 412.602 718.989 407.102 718.989ZM407.205 706.409C409.205 706.409 410.898 705.795 412.284 704.568C413.67 703.341 414.727 701.636 415.455 699.455C416.205 697.273 416.58 694.75 416.58 691.886C416.58 688.977 416.205 686.432 415.455 684.25C414.727 682.068 413.67 680.364 412.284 679.136C410.898 677.909 409.205 677.295 407.205 677.295C405.136 677.295 403.386 677.909 401.955 679.136C400.545 680.364 399.466 682.068 398.716 684.25C397.989 686.432 397.625 688.977 397.625 691.886C397.625 694.75 397.989 697.273 398.716 699.455C399.466 701.636 400.545 703.341 401.955 704.568C403.386 705.795 405.136 706.409 407.205 706.409ZM475.881 695.398V665.636H492.517V718H476.631V708.25H476.085C474.926 711.455 472.949 714 470.153 715.886C467.381 717.75 464.028 718.682 460.097 718.682C456.528 718.682 453.392 717.864 450.688 716.227C447.983 714.591 445.881 712.307 444.381 709.375C442.881 706.42 442.119 702.966 442.097 699.011V665.636H458.767V695.739C458.79 698.58 459.54 700.818 461.017 702.455C462.494 704.091 464.506 704.909 467.051 704.909C468.71 704.909 470.199 704.545 471.517 703.818C472.858 703.068 473.915 701.989 474.688 700.58C475.483 699.148 475.881 697.42 475.881 695.398ZM519.798 688.136V718H503.128V665.636H518.98V675.25H519.56C520.719 672.045 522.696 669.534 525.491 667.716C528.287 665.875 531.616 664.955 535.48 664.955C539.162 664.955 542.355 665.784 545.06 667.443C547.787 669.08 549.901 671.375 551.401 674.33C552.923 677.261 553.673 680.693 553.651 684.625V718H536.98V687.898C537.003 684.989 536.264 682.716 534.764 681.08C533.287 679.443 531.23 678.625 528.594 678.625C526.844 678.625 525.298 679.011 523.957 679.784C522.639 680.534 521.616 681.614 520.889 683.023C520.185 684.432 519.821 686.136 519.798 688.136ZM583.097 718.75C579.233 718.75 575.722 717.75 572.562 715.75C569.403 713.75 566.881 710.75 564.994 706.75C563.108 702.75 562.165 697.784 562.165 691.852C562.165 685.693 563.142 680.625 565.097 676.648C567.051 672.67 569.608 669.727 572.767 667.818C575.949 665.909 579.369 664.955 583.028 664.955C585.778 664.955 588.131 665.432 590.085 666.386C592.04 667.318 593.653 668.523 594.926 670C596.199 671.477 597.165 673.011 597.824 674.602H598.165V648.182H614.835V718H598.335V709.511H597.824C597.119 711.125 596.119 712.636 594.824 714.045C593.528 715.455 591.903 716.591 589.949 717.455C588.017 718.318 585.733 718.75 583.097 718.75ZM588.892 705.761C590.915 705.761 592.642 705.193 594.074 704.057C595.506 702.898 596.608 701.273 597.381 699.182C598.153 697.091 598.54 694.636 598.54 691.818C598.54 688.955 598.153 686.489 597.381 684.42C596.631 682.352 595.528 680.761 594.074 679.648C592.642 678.534 590.915 677.977 588.892 677.977C586.824 677.977 585.074 678.545 583.642 679.682C582.21 680.818 581.119 682.42 580.369 684.489C579.642 686.557 579.278 689 579.278 691.818C579.278 694.636 579.653 697.091 580.403 699.182C581.153 701.273 582.233 702.898 583.642 704.057C585.074 705.193 586.824 705.761 588.892 705.761ZM644.98 648.182L643.412 696.625H629.401L627.832 648.182H644.98ZM636.389 718.989C633.957 718.989 631.866 718.125 630.116 716.398C628.389 714.67 627.526 712.58 627.526 710.125C627.526 707.716 628.389 705.659 630.116 703.955C631.866 702.227 633.957 701.364 636.389 701.364C638.73 701.364 640.787 702.227 642.56 703.955C644.355 705.659 645.253 707.716 645.253 710.125C645.253 711.761 644.832 713.25 643.991 714.591C643.173 715.932 642.094 717 640.753 717.795C639.435 718.591 637.98 718.989 636.389 718.989Z" fill="#252E3D"/>
<path d="M474.766 945.62C474.063 945.971 473.086 946.792 472.617 947.456C471.797 948.589 471.758 949.175 471.641 955.971C471.523 962.182 471.602 963.511 472.188 964.682C474.219 969.018 480.391 969.018 482.5 964.682C483.203 963.276 483.281 962.261 483.281 956.479C483.281 950.581 483.203 949.721 482.461 948.198C481.055 945.346 477.656 944.175 474.766 945.62Z" fill="#252E3D"/>
<path d="M442.07 959.565C439.922 960.503 438.359 962.886 438.359 965.112C438.359 966.909 439.844 968.94 444.297 973.315C449.648 978.589 450.156 978.94 452.422 978.94C456.641 978.94 459.375 974.878 457.852 970.893C457.656 970.268 455.391 967.69 452.891 965.151C447.148 959.292 445.078 958.237 442.07 959.565Z" fill="#252E3D"/>
<path d="M508.086 959.761C506.055 960.698 497.109 969.761 496.758 971.245C495.43 976.44 500.234 980.581 504.961 978.315C506.992 977.378 515.469 968.472 516.055 966.714C516.992 963.901 515.508 960.737 512.695 959.565C511.016 958.862 509.961 958.901 508.086 959.761Z" fill="#252E3D"/>
<path d="M472.5 981.245C467.148 982.768 462.969 986.714 460.703 992.378C460.117 993.784 460 996.714 459.844 1016.79L459.648 1039.57L456.445 1040.66C447.227 1043.74 440.039 1051.32 437.383 1060.78C436.484 1063.86 436.094 1080.23 436.797 1086.05C438.164 1097.85 442.812 1107.69 450.82 1115.66C452.891 1117.73 455.82 1120.23 457.344 1121.28C460.039 1123.08 460.156 1123.2 460.586 1125.35C462.539 1134.37 470.781 1142.46 479.961 1144.37C483.984 1145.19 527.891 1145.23 531.875 1144.37C536.406 1143.39 540.742 1141.05 544.219 1137.61C548.867 1132.96 551.289 1127.81 551.875 1121.24C552.148 1118.28 552.187 1118.16 554.297 1115.66C559.844 1109.14 563.242 1101.91 564.687 1093.39C565.586 1088.04 565.625 1046.32 564.687 1042.81C563.516 1038.2 560.273 1034.17 556.016 1031.95C550.586 1029.14 545.117 1029.02 540 1031.64L538.32 1032.49L536.289 1030.7C530.82 1025.74 522.969 1024.49 516.836 1027.57L514.922 1028.51L513.008 1026.6C509.531 1023.16 504.375 1021.24 499.492 1021.64C498.008 1021.79 496.367 1021.99 495.898 1022.14L495 1022.38V1009.64C495 995.229 494.727 993.12 492.422 989.214C488.359 982.3 480.156 979.057 472.5 981.245ZM480.469 993.276C481.016 993.706 481.836 994.526 482.266 995.112C483.086 996.167 483.086 996.714 483.281 1020.93C483.477 1045.19 483.477 1045.7 484.297 1046.79C486.875 1050.31 492.305 1049.84 494.219 1045.93C494.805 1044.72 495 1043.51 495 1041.13C495 1037.3 495.586 1035.66 497.383 1034.37C499.141 1033.12 502.266 1033.08 503.828 1034.25C506.328 1036.09 506.523 1036.67 506.719 1043.32C506.914 1048.86 506.992 1049.57 507.773 1050.66C509.531 1053.12 512.695 1053.78 515.352 1052.3C517.539 1051.09 518.437 1049.02 518.437 1045.11C518.437 1041.36 519.18 1039.68 521.406 1038.43C523.32 1037.34 524.766 1037.3 526.875 1038.35C529.531 1039.6 530.156 1041.36 530.156 1047.34C530.156 1051.24 530.312 1052.49 530.898 1053.82C532.852 1058.04 539.219 1058.04 541.25 1053.78C541.641 1052.92 541.875 1051.4 541.875 1049.41C541.875 1045.42 542.812 1043.39 545.156 1042.26C547.266 1041.21 548.711 1041.24 550.625 1042.34C553.711 1044.1 553.594 1043.2 553.594 1067.46C553.594 1085.39 553.477 1089.57 552.969 1092.22C551.719 1098.9 548.945 1104.25 544.18 1109.21C542.5 1110.97 540.937 1112.89 540.703 1113.47C540.508 1114.06 540.312 1115.89 540.312 1117.57C540.312 1124.72 537.5 1129.57 531.836 1132.18C529.961 1133.04 529.961 1133.04 505.937 1133.04H481.914L479.687 1131.99C476.914 1130.7 474.141 1127.96 472.93 1125.31C472.422 1124.17 471.836 1121.95 471.641 1120.31C471.406 1118.67 470.937 1116.87 470.586 1116.28C470.195 1115.7 468.711 1114.53 467.227 1113.67C458.047 1108.32 452.109 1100.54 449.375 1090.27C448.516 1086.91 448.398 1085.62 448.242 1076.99C447.969 1064.14 448.594 1061.32 452.539 1056.87C454.18 1054.96 458.359 1051.99 459.336 1051.99C459.766 1051.99 459.844 1054.14 459.844 1063.71C459.844 1076.71 459.961 1077.34 462.227 1078.98C463.203 1079.68 464.062 1079.92 465.586 1079.92C467.773 1079.92 469.102 1079.21 470.547 1077.22C471.367 1076.17 471.367 1075.78 471.562 1035.97C471.758 996.362 471.758 995.776 472.539 994.722C474.414 992.222 478.164 991.557 480.469 993.276Z" fill="#252E3D"/>
<path d="M427.891 992.886C425.859 993.862 424.883 995.581 424.883 998.081C424.883 999.682 425.117 1000.54 425.742 1001.44C427.344 1003.67 428.477 1003.94 436.406 1003.94C443.008 1003.94 443.633 1003.86 445.039 1003.08C446.641 1002.18 448.125 999.8 448.125 998.081C448.125 996.323 446.562 993.823 444.961 993.003C443.633 992.3 442.656 992.222 436.328 992.222C430.547 992.222 428.945 992.378 427.891 992.886Z" fill="#252E3D"/>
<path d="M509.922 992.886C507.891 993.862 506.914 995.581 506.914 998.081C506.914 999.682 507.148 1000.54 507.773 1001.44C509.375 1003.67 510.508 1003.94 518.438 1003.94C525.039 1003.94 525.664 1003.86 527.07 1003.08C528.672 1002.18 530.156 999.8 530.156 998.081C530.156 996.323 528.594 993.823 526.992 993.003C525.664 992.3 524.688 992.222 518.359 992.222C512.578 992.222 510.977 992.378 509.922 992.886Z" fill="#252E3D"/>
<path d="M397.438 1204.55V1195.41H436.778V1204.55H422.665V1241.96H411.574V1204.55H397.438ZM447.364 1242.55C445.136 1242.55 443.159 1242.18 441.432 1241.43C439.72 1240.68 438.364 1239.54 437.364 1238.02C436.379 1236.49 435.886 1234.58 435.886 1232.27C435.886 1230.33 436.227 1228.7 436.909 1227.36C437.591 1226.03 438.53 1224.95 439.727 1224.11C440.924 1223.28 442.303 1222.65 443.864 1222.23C445.424 1221.79 447.091 1221.49 448.864 1221.34C450.848 1221.16 452.447 1220.97 453.659 1220.77C454.871 1220.56 455.75 1220.27 456.295 1219.89C456.856 1219.49 457.136 1218.94 457.136 1218.23V1218.11C457.136 1216.95 456.735 1216.05 455.932 1215.41C455.129 1214.77 454.045 1214.46 452.682 1214.46C451.212 1214.46 450.03 1214.77 449.136 1215.41C448.242 1216.05 447.674 1216.93 447.432 1218.05L437.182 1217.68C437.485 1215.56 438.265 1213.67 439.523 1212C440.795 1210.32 442.538 1209 444.75 1208.05C446.977 1207.08 449.652 1206.59 452.773 1206.59C455 1206.59 457.053 1206.86 458.932 1207.39C460.811 1207.9 462.447 1208.66 463.841 1209.66C465.235 1210.65 466.311 1211.86 467.068 1213.3C467.841 1214.74 468.227 1216.38 468.227 1218.23V1241.96H457.773V1237.09H457.5C456.879 1238.27 456.083 1239.27 455.114 1240.09C454.159 1240.91 453.03 1241.52 451.727 1241.93C450.439 1242.34 448.985 1242.55 447.364 1242.55ZM450.795 1235.27C451.992 1235.27 453.068 1235.03 454.023 1234.55C454.992 1234.06 455.765 1233.4 456.341 1232.55C456.917 1231.68 457.205 1230.68 457.205 1229.55V1226.23C456.886 1226.4 456.5 1226.55 456.045 1226.68C455.606 1226.82 455.121 1226.95 454.591 1227.07C454.061 1227.19 453.515 1227.3 452.955 1227.39C452.394 1227.48 451.856 1227.56 451.341 1227.64C450.295 1227.8 449.402 1228.06 448.659 1228.41C447.932 1228.76 447.371 1229.21 446.977 1229.77C446.598 1230.32 446.409 1230.97 446.409 1231.73C446.409 1232.88 446.818 1233.76 447.636 1234.36C448.47 1234.97 449.523 1235.27 450.795 1235.27ZM475.023 1255.05V1207.05H486.023V1213.02H486.364C486.818 1211.96 487.462 1210.94 488.295 1209.96C489.144 1208.97 490.22 1208.17 491.523 1207.55C492.841 1206.91 494.417 1206.59 496.25 1206.59C498.674 1206.59 500.939 1207.23 503.045 1208.5C505.167 1209.77 506.879 1211.74 508.182 1214.39C509.485 1217.04 510.136 1220.42 510.136 1224.52C510.136 1228.48 509.508 1231.79 508.25 1234.46C507.008 1237.12 505.326 1239.12 503.205 1240.46C501.098 1241.79 498.758 1242.46 496.182 1242.46C494.424 1242.46 492.902 1242.17 491.614 1241.59C490.326 1241.02 489.242 1240.26 488.364 1239.32C487.5 1238.38 486.833 1237.37 486.364 1236.3H486.136V1255.05H475.023ZM485.909 1224.5C485.909 1226.38 486.159 1228.02 486.659 1229.41C487.174 1230.8 487.909 1231.89 488.864 1232.66C489.833 1233.42 490.992 1233.8 492.341 1233.8C493.705 1233.8 494.864 1233.42 495.818 1232.66C496.773 1231.89 497.492 1230.8 497.977 1229.41C498.477 1228.02 498.727 1226.38 498.727 1224.5C498.727 1222.62 498.477 1220.99 497.977 1219.61C497.492 1218.24 496.773 1217.17 495.818 1216.41C494.879 1215.65 493.72 1215.27 492.341 1215.27C490.977 1215.27 489.818 1215.65 488.864 1216.39C487.909 1217.13 487.174 1218.19 486.659 1219.57C486.159 1220.95 485.909 1222.59 485.909 1224.5ZM549.415 1207.05V1215.23H527.392V1207.05H549.415ZM532.006 1198.68H543.119V1230.98C543.119 1231.66 543.225 1232.21 543.438 1232.64C543.665 1233.05 543.991 1233.34 544.415 1233.52C544.839 1233.69 545.347 1233.77 545.938 1233.77C546.362 1233.77 546.809 1233.74 547.278 1233.66C547.763 1233.57 548.127 1233.49 548.369 1233.43L550.051 1241.46C549.521 1241.61 548.771 1241.8 547.801 1242.02C546.847 1242.25 545.703 1242.4 544.369 1242.46C541.763 1242.58 539.528 1242.27 537.665 1241.55C535.816 1240.8 534.4 1239.65 533.415 1238.09C532.445 1236.53 531.975 1234.57 532.006 1232.21V1198.68ZM571.006 1242.61C567.339 1242.61 564.188 1241.86 561.551 1240.36C558.93 1238.85 556.907 1236.74 555.483 1234.05C554.074 1231.33 553.369 1228.19 553.369 1224.61C553.369 1221.02 554.074 1217.88 555.483 1215.18C556.907 1212.47 558.93 1210.36 561.551 1208.86C564.188 1207.35 567.339 1206.59 571.006 1206.59C574.672 1206.59 577.816 1207.35 580.438 1208.86C583.074 1210.36 585.097 1212.47 586.506 1215.18C587.93 1217.88 588.642 1221.02 588.642 1224.61C588.642 1228.19 587.93 1231.33 586.506 1234.05C585.097 1236.74 583.074 1238.85 580.438 1240.36C577.816 1241.86 574.672 1242.61 571.006 1242.61ZM571.074 1234.23C572.407 1234.23 573.536 1233.82 574.46 1233C575.384 1232.18 576.089 1231.05 576.574 1229.59C577.074 1228.14 577.324 1226.46 577.324 1224.55C577.324 1222.61 577.074 1220.91 576.574 1219.46C576.089 1218 575.384 1216.86 574.46 1216.05C573.536 1215.23 572.407 1214.82 571.074 1214.82C569.695 1214.82 568.528 1215.23 567.574 1216.05C566.634 1216.86 565.915 1218 565.415 1219.46C564.93 1220.91 564.688 1222.61 564.688 1224.55C564.688 1226.46 564.93 1228.14 565.415 1229.59C565.915 1231.05 566.634 1232.18 567.574 1233C568.528 1233.82 569.695 1234.23 571.074 1234.23ZM378.943 1319.61C375.261 1319.61 372.102 1318.86 369.466 1317.34C366.845 1315.83 364.83 1313.72 363.42 1311.02C362.011 1308.31 361.307 1305.18 361.307 1301.61C361.307 1298.04 362.011 1294.9 363.42 1292.21C364.845 1289.49 366.867 1287.38 369.489 1285.86C372.125 1284.35 375.269 1283.59 378.92 1283.59C382.148 1283.59 384.958 1284.18 387.352 1285.34C389.761 1286.51 391.64 1288.16 392.989 1290.3C394.352 1292.42 395.072 1294.91 395.148 1297.77H384.761C384.549 1295.99 383.943 1294.58 382.943 1293.57C381.958 1292.55 380.67 1292.05 379.08 1292.05C377.792 1292.05 376.663 1292.41 375.693 1293.14C374.723 1293.85 373.966 1294.91 373.42 1296.32C372.89 1297.71 372.625 1299.44 372.625 1301.5C372.625 1303.56 372.89 1305.3 373.42 1306.73C373.966 1308.14 374.723 1309.21 375.693 1309.93C376.663 1310.65 377.792 1311 379.08 1311C380.11 1311 381.019 1310.78 381.807 1310.34C382.61 1309.9 383.269 1309.26 383.784 1308.41C384.299 1307.55 384.625 1306.5 384.761 1305.27H395.148C395.042 1308.15 394.322 1310.67 392.989 1312.82C391.67 1314.97 389.814 1316.65 387.42 1317.84C385.042 1319.02 382.216 1319.61 378.943 1319.61ZM417.131 1319.61C413.464 1319.61 410.313 1318.86 407.676 1317.36C405.055 1315.85 403.032 1313.74 401.608 1311.05C400.199 1308.33 399.494 1305.19 399.494 1301.61C399.494 1298.02 400.199 1294.88 401.608 1292.18C403.032 1289.47 405.055 1287.36 407.676 1285.86C410.313 1284.35 413.464 1283.59 417.131 1283.59C420.797 1283.59 423.941 1284.35 426.562 1285.86C429.199 1287.36 431.222 1289.47 432.631 1292.18C434.055 1294.88 434.767 1298.02 434.767 1301.61C434.767 1305.19 434.055 1308.33 432.631 1311.05C431.222 1313.74 429.199 1315.85 426.562 1317.36C423.941 1318.86 420.797 1319.61 417.131 1319.61ZM417.199 1311.23C418.532 1311.23 419.661 1310.82 420.585 1310C421.509 1309.18 422.214 1308.05 422.699 1306.59C423.199 1305.14 423.449 1303.46 423.449 1301.55C423.449 1299.61 423.199 1297.91 422.699 1296.46C422.214 1295 421.509 1293.86 420.585 1293.05C419.661 1292.23 418.532 1291.82 417.199 1291.82C415.82 1291.82 414.653 1292.23 413.699 1293.05C412.759 1293.86 412.04 1295 411.54 1296.46C411.055 1297.91 410.812 1299.61 410.812 1301.55C410.812 1303.46 411.055 1305.14 411.54 1306.59C412.04 1308.05 412.759 1309.18 413.699 1310C414.653 1310.82 415.82 1311.23 417.199 1311.23ZM451.574 1299.05V1318.96H440.46V1284.05H451.028V1290.46H451.415C452.188 1288.32 453.506 1286.65 455.369 1285.43C457.233 1284.21 459.453 1283.59 462.028 1283.59C464.483 1283.59 466.612 1284.15 468.415 1285.25C470.233 1286.34 471.642 1287.87 472.642 1289.84C473.657 1291.8 474.157 1294.08 474.142 1296.71V1318.96H463.028V1298.89C463.044 1296.95 462.551 1295.43 461.551 1294.34C460.566 1293.25 459.195 1292.71 457.438 1292.71C456.271 1292.71 455.241 1292.96 454.347 1293.48C453.468 1293.98 452.786 1294.7 452.301 1295.64C451.831 1296.58 451.589 1297.71 451.574 1299.05ZM500.727 1284.05V1292.23H478.705V1284.05H500.727ZM483.318 1275.68H494.432V1307.98C494.432 1308.66 494.538 1309.21 494.75 1309.64C494.977 1310.05 495.303 1310.34 495.727 1310.52C496.152 1310.69 496.659 1310.77 497.25 1310.77C497.674 1310.77 498.121 1310.74 498.591 1310.66C499.076 1310.57 499.439 1310.49 499.682 1310.43L501.364 1318.46C500.833 1318.61 500.083 1318.8 499.114 1319.02C498.159 1319.25 497.015 1319.4 495.682 1319.46C493.076 1319.58 490.841 1319.27 488.977 1318.55C487.129 1317.8 485.712 1316.65 484.727 1315.09C483.758 1313.53 483.288 1311.57 483.318 1309.21V1275.68ZM506.398 1318.96V1284.05H517.511V1318.96H506.398ZM511.966 1279.98C510.405 1279.98 509.064 1279.46 507.943 1278.43C506.822 1277.39 506.261 1276.13 506.261 1274.66C506.261 1273.21 506.822 1271.96 507.943 1270.93C509.064 1269.89 510.405 1269.36 511.966 1269.36C513.542 1269.36 514.883 1269.89 515.989 1270.93C517.11 1271.96 517.67 1273.21 517.67 1274.66C517.67 1276.13 517.11 1277.39 515.989 1278.43C514.883 1279.46 513.542 1279.98 511.966 1279.98ZM535.699 1299.05V1318.96H524.585V1284.05H535.153V1290.46H535.54C536.313 1288.32 537.631 1286.65 539.494 1285.43C541.358 1284.21 543.578 1283.59 546.153 1283.59C548.608 1283.59 550.737 1284.15 552.54 1285.25C554.358 1286.34 555.767 1287.87 556.767 1289.84C557.782 1291.8 558.282 1294.08 558.267 1296.71V1318.96H547.153V1298.89C547.169 1296.95 546.676 1295.43 545.676 1294.34C544.691 1293.25 543.32 1292.71 541.562 1292.71C540.396 1292.71 539.366 1292.96 538.472 1293.48C537.593 1293.98 536.911 1294.7 536.426 1295.64C535.956 1296.58 535.714 1297.71 535.699 1299.05ZM587.67 1303.89V1284.05H598.761V1318.96H588.17V1312.46H587.807C587.034 1314.59 585.716 1316.29 583.852 1317.55C582.004 1318.79 579.769 1319.41 577.148 1319.41C574.769 1319.41 572.678 1318.86 570.875 1317.77C569.072 1316.68 567.67 1315.16 566.67 1313.21C565.67 1311.24 565.163 1308.93 565.148 1306.3V1284.05H576.261V1304.11C576.277 1306.01 576.777 1307.5 577.761 1308.59C578.746 1309.68 580.087 1310.23 581.784 1310.23C582.89 1310.23 583.883 1309.99 584.761 1309.5C585.655 1309 586.36 1308.28 586.875 1307.34C587.405 1306.39 587.67 1305.24 587.67 1303.89ZM622.153 1319.61C618.502 1319.61 615.35 1318.9 612.699 1317.46C610.063 1316 608.032 1313.93 606.608 1311.25C605.199 1308.55 604.494 1305.35 604.494 1301.64C604.494 1298.03 605.206 1294.88 606.631 1292.18C608.055 1289.47 610.062 1287.36 612.653 1285.86C615.244 1284.35 618.297 1283.59 621.812 1283.59C624.297 1283.59 626.57 1283.98 628.631 1284.75C630.691 1285.52 632.472 1286.67 633.972 1288.18C635.472 1289.7 636.638 1291.57 637.472 1293.8C638.305 1296.01 638.722 1298.55 638.722 1301.41V1304.18H608.381V1297.73H628.381C628.366 1296.55 628.085 1295.49 627.54 1294.57C626.994 1293.65 626.244 1292.93 625.29 1292.41C624.35 1291.88 623.267 1291.61 622.04 1291.61C620.797 1291.61 619.684 1291.9 618.699 1292.46C617.714 1293 616.934 1293.75 616.358 1294.71C615.782 1295.65 615.479 1296.71 615.449 1297.91V1304.48C615.449 1305.9 615.729 1307.15 616.29 1308.23C616.85 1309.29 617.646 1310.11 618.676 1310.71C619.706 1311.3 620.934 1311.59 622.358 1311.59C623.343 1311.59 624.237 1311.46 625.04 1311.18C625.843 1310.91 626.532 1310.51 627.108 1309.98C627.684 1309.45 628.116 1308.8 628.403 1308.02L638.608 1308.32C638.184 1310.61 637.252 1312.6 635.812 1314.3C634.388 1315.98 632.517 1317.29 630.199 1318.23C627.881 1319.15 625.199 1319.61 622.153 1319.61Z" fill="#252E3D"/>
<defs>
<clipPath id="clip0_9_33">
<rect width="300" height="300" fill="white" transform="translate(347 137)"/>
</clipPath>
</defs>
</svg>
