<svg width="1340" height="1876" viewBox="0 0 1340 1876" fill="none" xmlns="http://www.w3.org/2000/svg">
<g clip-path="url(#clip0_12_3)">
<path d="M1340 854H0V1876H1340V854Z" fill="white"/>
<path fill-rule="evenodd" clip-rule="evenodd" d="M1339 -276H-1V1600H0.107038C20.2244 1211.44 312.007 903.2 669 903.2C1025.99 903.2 1317.78 1211.44 1337.89 1600H1339V-276Z" fill="#D9D9D9"/>
<path d="M243.425 823V753.182H272.266C277.493 753.182 282.004 754.125 285.8 756.011C289.618 757.875 292.561 760.557 294.629 764.057C296.697 767.534 297.732 771.659 297.732 776.432C297.732 781.273 296.675 785.386 294.561 788.773C292.447 792.136 289.447 794.705 285.561 796.477C281.675 798.227 277.072 799.102 271.754 799.102H253.516V785.807H268.618C271.163 785.807 273.288 785.477 274.993 784.818C276.72 784.136 278.027 783.114 278.913 781.75C279.8 780.364 280.243 778.591 280.243 776.432C280.243 774.273 279.8 772.489 278.913 771.08C278.027 769.648 276.72 768.58 274.993 767.875C273.266 767.148 271.141 766.784 268.618 766.784H260.3V823H243.425ZM282.732 791.091L300.118 823H281.709L264.663 791.091H282.732ZM330.433 823.989C324.956 823.989 320.229 822.909 316.251 820.75C312.297 818.568 309.251 815.466 307.115 811.443C305.001 807.398 303.945 802.591 303.945 797.023C303.945 791.614 305.013 786.886 307.149 782.841C309.286 778.773 312.297 775.614 316.183 773.364C320.07 771.091 324.649 769.955 329.922 769.955C333.649 769.955 337.058 770.534 340.149 771.693C343.24 772.852 345.911 774.568 348.161 776.841C350.411 779.114 352.161 781.92 353.411 785.261C354.661 788.58 355.286 792.386 355.286 796.682V800.841H309.774V791.159H339.774C339.751 789.386 339.331 787.807 338.513 786.42C337.695 785.034 336.57 783.955 335.138 783.182C333.729 782.386 332.104 781.989 330.263 781.989C328.399 781.989 326.729 782.409 325.251 783.25C323.774 784.068 322.604 785.193 321.74 786.625C320.876 788.034 320.422 789.636 320.376 791.432V801.284C320.376 803.42 320.797 805.295 321.638 806.909C322.479 808.5 323.672 809.739 325.217 810.625C326.763 811.511 328.604 811.955 330.74 811.955C332.217 811.955 333.558 811.75 334.763 811.341C335.967 810.932 337.001 810.33 337.865 809.534C338.729 808.739 339.376 807.761 339.808 806.602L355.115 807.045C354.479 810.477 353.081 813.466 350.922 816.011C348.786 818.534 345.979 820.5 342.501 821.909C339.024 823.295 335.001 823.989 330.433 823.989ZM388.243 823.989C382.72 823.989 377.982 822.852 374.027 820.58C370.095 818.307 367.072 815.148 364.959 811.102C362.845 807.034 361.788 802.33 361.788 796.989C361.788 791.625 362.845 786.92 364.959 782.875C367.095 778.807 370.129 775.636 374.061 773.364C378.016 771.091 382.732 769.955 388.209 769.955C393.05 769.955 397.266 770.83 400.857 772.58C404.47 774.33 407.288 776.807 409.311 780.011C411.357 783.193 412.436 786.932 412.55 791.227H396.97C396.652 788.545 395.743 786.443 394.243 784.92C392.766 783.398 390.834 782.636 388.447 782.636C386.516 782.636 384.822 783.182 383.368 784.273C381.913 785.341 380.777 786.932 379.959 789.045C379.163 791.136 378.766 793.727 378.766 796.818C378.766 799.909 379.163 802.523 379.959 804.659C380.777 806.773 381.913 808.375 383.368 809.466C384.822 810.534 386.516 811.068 388.447 811.068C389.993 811.068 391.357 810.739 392.538 810.08C393.743 809.42 394.732 808.455 395.504 807.182C396.277 805.886 396.766 804.318 396.97 802.477H412.55C412.391 806.795 411.311 810.568 409.311 813.795C407.334 817.023 404.55 819.534 400.959 821.33C397.391 823.102 393.152 823.989 388.243 823.989ZM445.558 823.989C440.081 823.989 435.354 822.909 431.376 820.75C427.422 818.568 424.376 815.466 422.24 811.443C420.126 807.398 419.07 802.591 419.07 797.023C419.07 791.614 420.138 786.886 422.274 782.841C424.411 778.773 427.422 775.614 431.308 773.364C435.195 771.091 439.774 769.955 445.047 769.955C448.774 769.955 452.183 770.534 455.274 771.693C458.365 772.852 461.036 774.568 463.286 776.841C465.536 779.114 467.286 781.92 468.536 785.261C469.786 788.58 470.411 792.386 470.411 796.682V800.841H424.899V791.159H454.899C454.876 789.386 454.456 787.807 453.638 786.42C452.82 785.034 451.695 783.955 450.263 783.182C448.854 782.386 447.229 781.989 445.388 781.989C443.524 781.989 441.854 782.409 440.376 783.25C438.899 784.068 437.729 785.193 436.865 786.625C436.001 788.034 435.547 789.636 435.501 791.432V801.284C435.501 803.42 435.922 805.295 436.763 806.909C437.604 808.5 438.797 809.739 440.342 810.625C441.888 811.511 443.729 811.955 445.865 811.955C447.342 811.955 448.683 811.75 449.888 811.341C451.092 810.932 452.126 810.33 452.99 809.534C453.854 808.739 454.501 807.761 454.933 806.602L470.24 807.045C469.604 810.477 468.206 813.466 466.047 816.011C463.911 818.534 461.104 820.5 457.626 821.909C454.149 823.295 450.126 823.989 445.558 823.989ZM478.925 823V770.636H495.595V823H478.925ZM487.277 764.534C484.936 764.534 482.925 763.761 481.243 762.216C479.561 760.648 478.72 758.761 478.72 756.557C478.72 754.375 479.561 752.511 481.243 750.966C482.925 749.398 484.936 748.614 487.277 748.614C489.641 748.614 491.652 749.398 493.311 750.966C494.993 752.511 495.834 754.375 495.834 756.557C495.834 758.761 494.993 760.648 493.311 762.216C491.652 763.761 489.641 764.534 487.277 764.534ZM506.206 842.636V770.636H522.706V779.602H523.217C523.899 778.011 524.865 776.477 526.115 775C527.388 773.523 529.001 772.318 530.956 771.386C532.933 770.432 535.297 769.955 538.047 769.955C541.683 769.955 545.081 770.909 548.24 772.818C551.422 774.727 553.99 777.67 555.945 781.648C557.899 785.625 558.876 790.693 558.876 796.852C558.876 802.784 557.933 807.75 556.047 811.75C554.183 815.75 551.661 818.75 548.479 820.75C545.32 822.75 541.808 823.75 537.945 823.75C535.308 823.75 533.024 823.318 531.092 822.455C529.161 821.591 527.536 820.455 526.217 819.045C524.922 817.636 523.922 816.125 523.217 814.511H522.876V842.636H506.206ZM522.536 796.818C522.536 799.636 522.911 802.091 523.661 804.182C524.433 806.273 525.536 807.898 526.967 809.057C528.422 810.193 530.161 810.761 532.183 810.761C534.229 810.761 535.967 810.193 537.399 809.057C538.831 807.898 539.911 806.273 540.638 804.182C541.388 802.091 541.763 799.636 541.763 796.818C541.763 794 541.388 791.557 540.638 789.489C539.911 787.42 538.831 785.818 537.399 784.682C535.99 783.545 534.251 782.977 532.183 782.977C530.138 782.977 528.399 783.534 526.967 784.648C525.536 785.761 524.433 787.352 523.661 789.42C522.911 791.489 522.536 793.955 522.536 796.818ZM597.169 770.636V782.909H564.135V770.636H597.169ZM571.055 758.091H587.726V806.534C587.726 807.557 587.885 808.386 588.203 809.023C588.544 809.636 589.033 810.08 589.669 810.352C590.305 810.602 591.067 810.727 591.953 810.727C592.589 810.727 593.26 810.67 593.964 810.557C594.692 810.42 595.237 810.307 595.601 810.216L598.124 822.25C597.328 822.477 596.203 822.761 594.749 823.102C593.317 823.443 591.601 823.659 589.601 823.75C585.692 823.932 582.339 823.477 579.544 822.386C576.771 821.273 574.646 819.545 573.169 817.205C571.714 814.864 571.01 811.92 571.055 808.375V758.091ZM626.3 823V770.636H642.97V823H626.3ZM634.652 764.534C632.311 764.534 630.3 763.761 628.618 762.216C626.936 760.648 626.095 758.761 626.095 756.557C626.095 754.375 626.936 752.511 628.618 750.966C630.3 749.398 632.311 748.614 634.652 748.614C637.016 748.614 639.027 749.398 640.686 750.966C642.368 752.511 643.209 754.375 643.209 756.557C643.209 758.761 642.368 760.648 640.686 762.216C639.027 763.761 637.016 764.534 634.652 764.534ZM699.297 786.625L683.99 787.034C683.831 785.943 683.399 784.977 682.695 784.136C681.99 783.273 681.07 782.602 679.933 782.125C678.82 781.625 677.524 781.375 676.047 781.375C674.115 781.375 672.467 781.761 671.104 782.534C669.763 783.307 669.104 784.352 669.126 785.67C669.104 786.693 669.513 787.58 670.354 788.33C671.217 789.08 672.751 789.682 674.956 790.136L685.047 792.045C690.274 793.045 694.161 794.705 696.706 797.023C699.274 799.341 700.57 802.409 700.592 806.227C700.57 809.818 699.501 812.943 697.388 815.602C695.297 818.261 692.433 820.33 688.797 821.807C685.161 823.261 681.001 823.989 676.32 823.989C668.842 823.989 662.945 822.455 658.626 819.386C654.331 816.295 651.876 812.159 651.263 806.977L667.729 806.568C668.092 808.477 669.036 809.932 670.558 810.932C672.081 811.932 674.024 812.432 676.388 812.432C678.524 812.432 680.263 812.034 681.604 811.239C682.945 810.443 683.626 809.386 683.649 808.068C683.626 806.886 683.104 805.943 682.081 805.239C681.058 804.511 679.456 803.943 677.274 803.534L668.138 801.795C662.888 800.841 658.979 799.08 656.411 796.511C653.842 793.92 652.57 790.625 652.592 786.625C652.57 783.125 653.501 780.136 655.388 777.659C657.274 775.159 659.956 773.25 663.433 771.932C666.911 770.614 671.013 769.955 675.74 769.955C682.831 769.955 688.422 771.443 692.513 774.42C696.604 777.375 698.865 781.443 699.297 786.625ZM729.425 842.636V770.636H745.925V779.602H746.436C747.118 778.011 748.084 776.477 749.334 775C750.607 773.523 752.22 772.318 754.175 771.386C756.152 770.432 758.516 769.955 761.266 769.955C764.902 769.955 768.3 770.909 771.459 772.818C774.641 774.727 777.209 777.67 779.163 781.648C781.118 785.625 782.095 790.693 782.095 796.852C782.095 802.784 781.152 807.75 779.266 811.75C777.402 815.75 774.879 818.75 771.697 820.75C768.538 822.75 765.027 823.75 761.163 823.75C758.527 823.75 756.243 823.318 754.311 822.455C752.379 821.591 750.754 820.455 749.436 819.045C748.141 817.636 747.141 816.125 746.436 814.511H746.095V842.636H729.425ZM745.754 796.818C745.754 799.636 746.129 802.091 746.879 804.182C747.652 806.273 748.754 807.898 750.186 809.057C751.641 810.193 753.379 810.761 755.402 810.761C757.447 810.761 759.186 810.193 760.618 809.057C762.05 807.898 763.129 806.273 763.857 804.182C764.607 802.091 764.982 799.636 764.982 796.818C764.982 794 764.607 791.557 763.857 789.489C763.129 787.42 762.05 785.818 760.618 784.682C759.209 783.545 757.47 782.977 755.402 782.977C753.357 782.977 751.618 783.534 750.186 784.648C748.754 785.761 747.652 787.352 746.879 789.42C746.129 791.489 745.754 793.955 745.754 796.818ZM790.831 823V770.636H807.024V780.182H807.57C808.524 776.727 810.081 774.159 812.24 772.477C814.399 770.773 816.911 769.92 819.774 769.92C820.547 769.92 821.342 769.977 822.161 770.091C822.979 770.182 823.74 770.33 824.445 770.534V785.023C823.649 784.75 822.604 784.534 821.308 784.375C820.036 784.216 818.899 784.136 817.899 784.136C815.922 784.136 814.138 784.58 812.547 785.466C810.979 786.33 809.74 787.545 808.831 789.114C807.945 790.659 807.501 792.477 807.501 794.568V823H790.831ZM831.237 823V770.636H847.908V823H831.237ZM839.589 764.534C837.249 764.534 835.237 763.761 833.555 762.216C831.874 760.648 831.033 758.761 831.033 756.557C831.033 754.375 831.874 752.511 833.555 750.966C835.237 749.398 837.249 748.614 839.589 748.614C841.953 748.614 843.964 749.398 845.624 750.966C847.305 752.511 848.146 754.375 848.146 756.557C848.146 758.761 847.305 760.648 845.624 762.216C843.964 763.761 841.953 764.534 839.589 764.534ZM875.189 793.136V823H858.518V770.636H874.371V780.25H874.95C876.109 777.045 878.087 774.534 880.882 772.716C883.678 770.875 887.007 769.955 890.871 769.955C894.553 769.955 897.746 770.784 900.45 772.443C903.178 774.08 905.291 776.375 906.791 779.33C908.314 782.261 909.064 785.693 909.041 789.625V823H892.371V792.898C892.393 789.989 891.655 787.716 890.155 786.08C888.678 784.443 886.621 783.625 883.984 783.625C882.234 783.625 880.689 784.011 879.348 784.784C878.03 785.534 877.007 786.614 876.28 788.023C875.575 789.432 875.212 791.136 875.189 793.136ZM948.919 770.636V782.909H915.885V770.636H948.919ZM922.805 758.091H939.476V806.534C939.476 807.557 939.635 808.386 939.953 809.023C940.294 809.636 940.783 810.08 941.419 810.352C942.055 810.602 942.817 810.727 943.703 810.727C944.339 810.727 945.01 810.67 945.714 810.557C946.442 810.42 946.987 810.307 947.351 810.216L949.874 822.25C949.078 822.477 947.953 822.761 946.499 823.102C945.067 823.443 943.351 823.659 941.351 823.75C937.442 823.932 934.089 823.477 931.294 822.386C928.521 821.273 926.396 819.545 924.919 817.205C923.464 814.864 922.76 811.92 922.805 808.375V758.091ZM957.425 823V770.636H974.095V823H957.425ZM965.777 764.534C963.436 764.534 961.425 763.761 959.743 762.216C958.061 760.648 957.22 758.761 957.22 756.557C957.22 754.375 958.061 752.511 959.743 750.966C961.425 749.398 963.436 748.614 965.777 748.614C968.141 748.614 970.152 749.398 971.811 750.966C973.493 752.511 974.334 754.375 974.334 756.557C974.334 758.761 973.493 760.648 971.811 762.216C970.152 763.761 968.141 764.534 965.777 764.534ZM1001.38 793.136V823H984.706V770.636H1000.56V780.25H1001.14C1002.3 777.045 1004.27 774.534 1007.07 772.716C1009.87 770.875 1013.19 769.955 1017.06 769.955C1020.74 769.955 1023.93 770.784 1026.64 772.443C1029.37 774.08 1031.48 776.375 1032.98 779.33C1034.5 782.261 1035.25 785.693 1035.23 789.625V823H1018.56V792.898C1018.58 789.989 1017.84 787.716 1016.34 786.08C1014.87 784.443 1012.81 783.625 1010.17 783.625C1008.42 783.625 1006.88 784.011 1005.54 784.784C1004.22 785.534 1003.19 786.614 1002.47 788.023C1001.76 789.432 1001.4 791.136 1001.38 793.136ZM1069.96 843.727C1064.98 843.727 1060.72 843.034 1057.17 841.648C1053.63 840.261 1050.85 838.364 1048.82 835.955C1046.8 833.545 1045.58 830.818 1045.17 827.773L1060.96 826.886C1061.25 827.955 1061.8 828.886 1062.6 829.682C1063.41 830.477 1064.47 831.091 1065.77 831.523C1067.08 831.955 1068.63 832.17 1070.4 832.17C1073.2 832.17 1075.5 831.489 1077.32 830.125C1079.16 828.784 1080.08 826.432 1080.08 823.068V813.864H1079.5C1078.85 815.477 1077.85 816.92 1076.5 818.193C1075.16 819.466 1073.49 820.466 1071.49 821.193C1069.52 821.92 1067.24 822.284 1064.67 822.284C1060.86 822.284 1057.36 821.398 1054.17 819.625C1051.02 817.83 1048.48 815.057 1046.57 811.307C1044.69 807.534 1043.74 802.682 1043.74 796.75C1043.74 790.636 1044.72 785.602 1046.67 781.648C1048.63 777.67 1051.19 774.727 1054.35 772.818C1057.53 770.909 1060.95 769.955 1064.61 769.955C1067.36 769.955 1069.71 770.432 1071.66 771.386C1073.64 772.318 1075.27 773.523 1076.54 775C1077.81 776.477 1078.78 778.011 1079.44 779.602H1079.91V770.636H1096.52V823.205C1096.52 827.636 1095.4 831.375 1093.17 834.42C1090.95 837.466 1087.83 839.773 1083.83 841.341C1079.83 842.932 1075.21 843.727 1069.96 843.727ZM1070.47 810.148C1072.49 810.148 1074.22 809.614 1075.65 808.545C1077.08 807.477 1078.19 805.943 1078.96 803.943C1079.73 801.943 1080.12 799.545 1080.12 796.75C1080.12 793.909 1079.73 791.466 1078.96 789.42C1078.21 787.352 1077.11 785.761 1075.65 784.648C1074.22 783.534 1072.49 782.977 1070.47 782.977C1068.4 782.977 1066.65 783.545 1065.22 784.682C1063.79 785.818 1062.7 787.42 1061.95 789.489C1061.22 791.534 1060.86 793.955 1060.86 796.75C1060.86 799.545 1061.23 801.943 1061.98 803.943C1062.73 805.943 1063.81 807.477 1065.22 808.545C1066.65 809.614 1068.4 810.148 1070.47 810.148Z" fill="#252E3D"/>
<path d="M340.312 1177.18V1158.91H418.994V1177.18H390.767V1252H368.585V1177.18H340.312ZM452.21 1212.18V1252H429.983V1158.91H451.483V1195H452.256C453.831 1190.7 456.407 1187.33 459.983 1184.91C463.589 1182.48 467.998 1181.27 473.21 1181.27C478.119 1181.27 482.392 1182.36 486.028 1184.55C489.665 1186.7 492.483 1189.74 494.483 1193.68C496.513 1197.62 497.513 1202.23 497.483 1207.5V1252H475.256V1211.86C475.286 1207.98 474.316 1204.95 472.347 1202.77C470.377 1200.59 467.604 1199.5 464.028 1199.5C461.695 1199.5 459.634 1200.02 457.847 1201.05C456.089 1202.05 454.71 1203.48 453.71 1205.36C452.741 1207.24 452.241 1209.52 452.21 1212.18ZM531.04 1253.18C526.585 1253.18 522.631 1252.44 519.176 1250.95C515.752 1249.44 513.04 1247.17 511.04 1244.14C509.07 1241.08 508.085 1237.24 508.085 1232.64C508.085 1228.76 508.767 1225.48 510.131 1222.82C511.494 1220.15 513.373 1217.98 515.767 1216.32C518.161 1214.65 520.919 1213.39 524.04 1212.55C527.161 1211.67 530.494 1211.08 534.04 1210.77C538.009 1210.41 541.206 1210.03 543.631 1209.64C546.055 1209.21 547.813 1208.62 548.903 1207.86C550.025 1207.08 550.585 1205.97 550.585 1204.55V1204.32C550.585 1201.98 549.782 1200.18 548.176 1198.91C546.57 1197.64 544.403 1197 541.676 1197C538.737 1197 536.373 1197.64 534.585 1198.91C532.797 1200.18 531.661 1201.94 531.176 1204.18L510.676 1203.45C511.282 1199.21 512.843 1195.42 515.358 1192.09C517.903 1188.73 521.388 1186.09 525.812 1184.18C530.267 1182.24 535.616 1181.27 541.858 1181.27C546.313 1181.27 550.419 1181.8 554.176 1182.86C557.934 1183.89 561.206 1185.41 563.994 1187.41C566.782 1189.38 568.934 1191.8 570.449 1194.68C571.994 1197.56 572.767 1200.85 572.767 1204.55V1252H551.858V1242.27H551.312C550.07 1244.64 548.479 1246.64 546.54 1248.27C544.631 1249.91 542.373 1251.14 539.767 1251.95C537.191 1252.77 534.282 1253.18 531.04 1253.18ZM537.903 1238.64C540.297 1238.64 542.449 1238.15 544.358 1237.18C546.297 1236.21 547.843 1234.88 548.994 1233.18C550.146 1231.45 550.722 1229.45 550.722 1227.18V1220.55C550.085 1220.88 549.313 1221.18 548.403 1221.45C547.525 1221.73 546.555 1221.98 545.494 1222.23C544.434 1222.47 543.343 1222.68 542.222 1222.86C541.1 1223.05 540.025 1223.21 538.994 1223.36C536.903 1223.7 535.116 1224.21 533.631 1224.91C532.176 1225.61 531.055 1226.52 530.267 1227.64C529.509 1228.73 529.131 1230.03 529.131 1231.55C529.131 1233.85 529.949 1235.61 531.585 1236.82C533.252 1238.03 535.358 1238.64 537.903 1238.64ZM608.585 1212.18V1252H586.358V1182.18H607.494V1195H608.267C609.813 1190.73 612.449 1187.38 616.176 1184.95C619.903 1182.5 624.343 1181.27 629.494 1181.27C634.403 1181.27 638.661 1182.38 642.267 1184.59C645.903 1186.77 648.722 1189.83 650.722 1193.77C652.752 1197.68 653.752 1202.26 653.722 1207.5V1252H631.494V1211.86C631.525 1207.98 630.54 1204.95 628.54 1202.77C626.57 1200.59 623.828 1199.5 620.312 1199.5C617.979 1199.5 615.919 1200.02 614.131 1201.05C612.373 1202.05 611.009 1203.48 610.04 1205.36C609.1 1207.24 608.616 1209.52 608.585 1212.18ZM687.528 1233.68L687.619 1207.18H690.71L710.347 1182.18H735.528L706.347 1218H700.483L687.528 1233.68ZM667.483 1252V1158.91H689.71V1252H667.483ZM710.847 1252L692.574 1223L707.21 1207.23L736.528 1252H710.847ZM766.347 1158.91H791.483L811.165 1197.86H811.983L831.665 1158.91H856.801L822.756 1220.91V1252H800.392V1220.91L766.347 1158.91ZM882.699 1253.32C875.366 1253.32 869.063 1251.82 863.79 1248.82C858.547 1245.79 854.502 1241.58 851.653 1236.18C848.835 1230.76 847.426 1224.47 847.426 1217.32C847.426 1210.14 848.835 1203.85 851.653 1198.45C854.502 1193.03 858.547 1188.82 863.79 1185.82C869.063 1182.79 875.366 1181.27 882.699 1181.27C890.032 1181.27 896.32 1182.79 901.562 1185.82C906.835 1188.82 910.881 1193.03 913.699 1198.45C916.547 1203.85 917.972 1210.14 917.972 1217.32C917.972 1224.47 916.547 1230.76 913.699 1236.18C910.881 1241.58 906.835 1245.79 901.562 1248.82C896.32 1251.82 890.032 1253.32 882.699 1253.32ZM882.835 1236.55C885.502 1236.55 887.759 1235.73 889.608 1234.09C891.456 1232.45 892.866 1230.18 893.835 1227.27C894.835 1224.36 895.335 1221 895.335 1217.18C895.335 1213.3 894.835 1209.91 893.835 1207C892.866 1204.09 891.456 1201.82 889.608 1200.18C887.759 1198.55 885.502 1197.73 882.835 1197.73C880.078 1197.73 877.744 1198.55 875.835 1200.18C873.956 1201.82 872.517 1204.09 871.517 1207C870.547 1209.91 870.062 1213.3 870.062 1217.18C870.062 1221 870.547 1224.36 871.517 1227.27C872.517 1230.18 873.956 1232.45 875.835 1234.09C877.744 1235.73 880.078 1236.55 882.835 1236.55ZM974.403 1221.86V1182.18H996.585V1252H975.403V1239H974.676C973.131 1243.27 970.494 1246.67 966.767 1249.18C963.07 1251.67 958.6 1252.91 953.358 1252.91C948.6 1252.91 944.419 1251.82 940.812 1249.64C937.206 1247.45 934.403 1244.41 932.403 1240.5C930.403 1236.56 929.388 1231.95 929.358 1226.68V1182.18H951.585V1222.32C951.616 1226.11 952.616 1229.09 954.585 1231.27C956.555 1233.45 959.237 1234.55 962.631 1234.55C964.843 1234.55 966.828 1234.06 968.585 1233.09C970.373 1232.09 971.782 1230.65 972.812 1228.77C973.873 1226.86 974.403 1224.56 974.403 1221.86ZM493.78 1315.64V1327.91H460.098V1315.64H493.78ZM467.121 1368V1312.98C467.121 1308.93 467.882 1305.58 469.405 1302.92C470.928 1300.24 473.041 1298.24 475.746 1296.92C478.45 1295.58 481.575 1294.91 485.121 1294.91C487.439 1294.91 489.621 1295.09 491.666 1295.45C493.734 1295.8 495.268 1296.1 496.268 1296.38L493.609 1308.58C492.996 1308.37 492.246 1308.2 491.359 1308.07C490.496 1307.93 489.678 1307.86 488.905 1307.86C486.95 1307.86 485.609 1308.3 484.882 1309.16C484.155 1310.02 483.791 1311.2 483.791 1312.7V1368H467.121ZM524.555 1368.99C519.055 1368.99 514.328 1367.86 510.374 1365.61C506.442 1363.34 503.408 1360.18 501.271 1356.14C499.158 1352.07 498.101 1347.35 498.101 1341.99C498.101 1336.6 499.158 1331.89 501.271 1327.84C503.408 1323.77 506.442 1320.61 510.374 1318.36C514.328 1316.09 519.055 1314.95 524.555 1314.95C530.055 1314.95 534.771 1316.09 538.703 1318.36C542.658 1320.61 545.692 1323.77 547.805 1327.84C549.942 1331.89 551.01 1336.6 551.01 1341.99C551.01 1347.35 549.942 1352.07 547.805 1356.14C545.692 1360.18 542.658 1363.34 538.703 1365.61C534.771 1367.86 530.055 1368.99 524.555 1368.99ZM524.658 1356.41C526.658 1356.41 528.351 1355.8 529.737 1354.57C531.124 1353.34 532.18 1351.64 532.908 1349.45C533.658 1347.27 534.033 1344.75 534.033 1341.89C534.033 1338.98 533.658 1336.43 532.908 1334.25C532.18 1332.07 531.124 1330.36 529.737 1329.14C528.351 1327.91 526.658 1327.3 524.658 1327.3C522.589 1327.3 520.839 1327.91 519.408 1329.14C517.999 1330.36 516.919 1332.07 516.169 1334.25C515.442 1336.43 515.078 1338.98 515.078 1341.89C515.078 1344.75 515.442 1347.27 516.169 1349.45C516.919 1351.64 517.999 1353.34 519.408 1354.57C520.839 1355.8 522.589 1356.41 524.658 1356.41ZM559.55 1368V1315.64H575.743V1325.18H576.288C577.243 1321.73 578.8 1319.16 580.959 1317.48C583.118 1315.77 585.629 1314.92 588.493 1314.92C589.266 1314.92 590.061 1314.98 590.879 1315.09C591.697 1315.18 592.459 1315.33 593.163 1315.53V1330.02C592.368 1329.75 591.322 1329.53 590.027 1329.38C588.754 1329.22 587.618 1329.14 586.618 1329.14C584.641 1329.14 582.857 1329.58 581.266 1330.47C579.697 1331.33 578.459 1332.55 577.55 1334.11C576.663 1335.66 576.22 1337.48 576.22 1339.57V1368H559.55ZM654.365 1345.4V1315.64H671.001V1368H655.115V1358.25H654.57C653.411 1361.45 651.433 1364 648.638 1365.89C645.865 1367.75 642.513 1368.68 638.581 1368.68C635.013 1368.68 631.876 1367.86 629.172 1366.23C626.467 1364.59 624.365 1362.31 622.865 1359.38C621.365 1356.42 620.604 1352.97 620.581 1349.01V1315.64H637.251V1345.74C637.274 1348.58 638.024 1350.82 639.501 1352.45C640.979 1354.09 642.99 1354.91 645.536 1354.91C647.195 1354.91 648.683 1354.55 650.001 1353.82C651.342 1353.07 652.399 1351.99 653.172 1350.58C653.967 1349.15 654.365 1347.42 654.365 1345.4ZM727.328 1331.62L712.021 1332.03C711.862 1330.94 711.43 1329.98 710.726 1329.14C710.021 1328.27 709.101 1327.6 707.964 1327.12C706.851 1326.62 705.555 1326.38 704.078 1326.38C702.146 1326.38 700.499 1326.76 699.135 1327.53C697.794 1328.31 697.135 1329.35 697.158 1330.67C697.135 1331.69 697.544 1332.58 698.385 1333.33C699.249 1334.08 700.783 1334.68 702.987 1335.14L713.078 1337.05C718.305 1338.05 722.192 1339.7 724.737 1342.02C727.305 1344.34 728.601 1347.41 728.624 1351.23C728.601 1354.82 727.533 1357.94 725.419 1360.6C723.328 1363.26 720.464 1365.33 716.828 1366.81C713.192 1368.26 709.033 1368.99 704.351 1368.99C696.874 1368.99 690.976 1367.45 686.658 1364.39C682.362 1361.3 679.908 1357.16 679.294 1351.98L695.76 1351.57C696.124 1353.48 697.067 1354.93 698.589 1355.93C700.112 1356.93 702.055 1357.43 704.419 1357.43C706.555 1357.43 708.294 1357.03 709.635 1356.24C710.976 1355.44 711.658 1354.39 711.68 1353.07C711.658 1351.89 711.135 1350.94 710.112 1350.24C709.089 1349.51 707.487 1348.94 705.305 1348.53L696.169 1346.8C690.919 1345.84 687.01 1344.08 684.442 1341.51C681.874 1338.92 680.601 1335.62 680.624 1331.62C680.601 1328.12 681.533 1325.14 683.419 1322.66C685.305 1320.16 687.987 1318.25 691.464 1316.93C694.942 1315.61 699.044 1314.95 703.771 1314.95C710.862 1314.95 716.453 1316.44 720.544 1319.42C724.635 1322.37 726.896 1326.44 727.328 1331.62ZM736.831 1368V1315.64H753.501V1368H736.831ZM745.183 1309.53C742.842 1309.53 740.831 1308.76 739.149 1307.22C737.467 1305.65 736.626 1303.76 736.626 1301.56C736.626 1299.37 737.467 1297.51 739.149 1295.97C740.831 1294.4 742.842 1293.61 745.183 1293.61C747.547 1293.61 749.558 1294.4 751.217 1295.97C752.899 1297.51 753.74 1299.37 753.74 1301.56C753.74 1303.76 752.899 1305.65 751.217 1307.22C749.558 1308.76 747.547 1309.53 745.183 1309.53ZM780.783 1338.14V1368H764.112V1315.64H779.964V1325.25H780.544C781.703 1322.05 783.68 1319.53 786.476 1317.72C789.271 1315.88 792.601 1314.95 796.464 1314.95C800.146 1314.95 803.339 1315.78 806.044 1317.44C808.771 1319.08 810.885 1321.37 812.385 1324.33C813.908 1327.26 814.658 1330.69 814.635 1334.62V1368H797.964V1337.9C797.987 1334.99 797.249 1332.72 795.749 1331.08C794.271 1329.44 792.214 1328.62 789.578 1328.62C787.828 1328.62 786.283 1329.01 784.942 1329.78C783.624 1330.53 782.601 1331.61 781.874 1333.02C781.169 1334.43 780.805 1336.14 780.783 1338.14ZM849.365 1388.73C844.388 1388.73 840.126 1388.03 836.581 1386.65C833.036 1385.26 830.251 1383.36 828.229 1380.95C826.206 1378.55 824.99 1375.82 824.581 1372.77L840.365 1371.89C840.661 1372.95 841.206 1373.89 842.001 1374.68C842.82 1375.48 843.876 1376.09 845.172 1376.52C846.49 1376.95 848.036 1377.17 849.808 1377.17C852.604 1377.17 854.911 1376.49 856.729 1375.12C858.57 1373.78 859.49 1371.43 859.49 1368.07V1358.86H858.911C858.251 1360.48 857.251 1361.92 855.911 1363.19C854.57 1364.47 852.899 1365.47 850.899 1366.19C848.922 1366.92 846.649 1367.28 844.081 1367.28C840.263 1367.28 836.763 1366.4 833.581 1364.62C830.422 1362.83 827.888 1360.06 825.979 1356.31C824.092 1352.53 823.149 1347.68 823.149 1341.75C823.149 1335.64 824.126 1330.6 826.081 1326.65C828.036 1322.67 830.592 1319.73 833.751 1317.82C836.933 1315.91 840.354 1314.95 844.013 1314.95C846.763 1314.95 849.115 1315.43 851.07 1316.39C853.047 1317.32 854.672 1318.52 855.945 1320C857.217 1321.48 858.183 1323.01 858.842 1324.6H859.32V1315.64H875.922V1368.2C875.922 1372.64 874.808 1376.38 872.581 1379.42C870.354 1382.47 867.24 1384.77 863.24 1386.34C859.24 1387.93 854.615 1388.73 849.365 1388.73ZM849.876 1355.15C851.899 1355.15 853.626 1354.61 855.058 1353.55C856.49 1352.48 857.592 1350.94 858.365 1348.94C859.138 1346.94 859.524 1344.55 859.524 1341.75C859.524 1338.91 859.138 1336.47 858.365 1334.42C857.615 1332.35 856.513 1330.76 855.058 1329.65C853.626 1328.53 851.899 1327.98 849.876 1327.98C847.808 1327.98 846.058 1328.55 844.626 1329.68C843.195 1330.82 842.104 1332.42 841.354 1334.49C840.626 1336.53 840.263 1338.95 840.263 1341.75C840.263 1344.55 840.638 1346.94 841.388 1348.94C842.138 1350.94 843.217 1352.48 844.626 1353.55C846.058 1354.61 847.808 1355.15 849.876 1355.15Z" fill="#252E3D"/>
<mask id="mask0_12_3" style="mask-type:luminance" maskUnits="userSpaceOnUse" x="459" y="1392" width="420" height="420">
<path d="M878.795 1392H459V1811.8H878.795V1392Z" fill="white"/>
</mask>
<g mask="url(#mask0_12_3)">
<path d="M479.838 1443.54L479.833 1443.54C471.556 1446.06 465.556 1451.32 461.821 1459.36L461.82 1459.37L459.717 1463.81L459.471 1493.02C459.348 1507.12 459.308 1514.45 459.502 1518.65C459.599 1520.75 459.754 1522.06 459.982 1523.03C460.208 1523.99 460.508 1524.63 460.913 1525.42L460.915 1525.43C461.828 1527.25 463.423 1528.87 465.301 1530.04C467.179 1531.2 469.317 1531.9 471.299 1531.9C473.28 1531.9 475.419 1531.2 477.297 1530.05C479.176 1528.89 480.771 1527.29 481.684 1525.51L481.684 1525.51C482.066 1524.76 482.352 1524.11 482.571 1523.16C482.792 1522.21 482.947 1520.95 483.055 1518.98C483.269 1515.04 483.29 1508.35 483.29 1495.8C483.29 1484.24 483.331 1477.53 483.516 1473.58C483.608 1471.6 483.737 1470.3 483.919 1469.42C484.099 1468.54 484.34 1468.04 484.692 1467.71C485.022 1467.36 485.527 1467.12 486.401 1466.93C487.283 1466.75 488.587 1466.62 490.563 1466.53C494.517 1466.35 501.228 1466.31 512.786 1466.31C525.335 1466.31 532.028 1466.29 535.963 1466.07C537.929 1465.96 539.192 1465.81 540.147 1465.59C541.094 1465.37 541.746 1465.08 542.491 1464.7C544.276 1463.79 545.877 1462.19 547.032 1460.31C548.188 1458.43 548.883 1456.3 548.883 1454.31C548.883 1452.33 548.188 1450.19 547.032 1448.32C545.877 1446.44 544.276 1444.84 542.491 1443.93C541.746 1443.55 541.1 1443.26 540.137 1443.04C539.166 1442.82 537.865 1442.67 535.811 1442.57C531.701 1442.36 524.639 1442.36 511.311 1442.41H511.31C500.898 1442.41 493.647 1442.49 488.682 1442.67C483.701 1442.86 481.061 1443.14 479.838 1443.54Z" fill="#252E3D" stroke="#252E3D"/>
<path fill-rule="evenodd" clip-rule="evenodd" d="M509.835 1498.59C510.818 1496.62 512.704 1494.74 514.59 1493.75C520.739 1490.47 528.119 1492.6 531.152 1498.59C532.37 1500.96 532.683 1502.34 532.764 1543.28H508.223C508.304 1502.39 508.618 1500.96 509.835 1498.59ZM508.222 1660.11C508.302 1701.45 508.613 1702.83 509.835 1705.21C511.72 1708.9 516.394 1711.77 520.493 1711.77C524.593 1711.77 529.267 1708.9 531.152 1705.21C532.373 1702.83 532.685 1701.45 532.765 1660.11H508.222Z" fill="#252E3D"/>
<mask id="mask1_12_3" style="mask-type:luminance" maskUnits="userSpaceOnUse" x="508" y="1492" width="25" height="220">
<path fill-rule="evenodd" clip-rule="evenodd" d="M509.835 1498.59C510.818 1496.62 512.704 1494.74 514.59 1493.75C520.739 1490.47 528.119 1492.6 531.152 1498.59C532.37 1500.96 532.683 1502.34 532.764 1543.28H508.223C508.304 1502.39 508.618 1500.96 509.835 1498.59ZM508.222 1660.11C508.302 1701.45 508.613 1702.83 509.835 1705.21C511.72 1708.9 516.394 1711.77 520.493 1711.77C524.593 1711.77 529.267 1708.9 531.152 1705.21C532.373 1702.83 532.685 1701.45 532.765 1660.11H508.222Z" fill="white"/>
</mask>
<g mask="url(#mask1_12_3)">
<path d="M514.59 1493.75L514.875 1494.3L514.879 1494.29L514.59 1493.75ZM509.835 1498.59L510.382 1498.87L510.385 1498.86L509.835 1498.59ZM531.152 1498.59L530.604 1498.87L530.605 1498.87L531.152 1498.59ZM532.764 1543.27V1543.89H533.38L533.379 1543.27L532.764 1543.27ZM508.223 1543.27L507.608 1543.27L507.607 1543.89H508.223V1543.27ZM508.222 1660.11V1659.5H507.606L507.607 1660.11L508.222 1660.11ZM509.835 1705.21L510.382 1704.93L510.382 1704.93L509.835 1705.21ZM531.152 1705.21L530.605 1704.93L530.605 1704.93L531.152 1705.21ZM532.765 1660.11L533.38 1660.11L533.381 1659.5H532.765V1660.11ZM514.306 1493.21C512.307 1494.25 510.327 1496.23 509.285 1498.31L510.385 1498.86C511.31 1497.01 513.102 1495.22 514.875 1494.3L514.306 1493.21ZM531.701 1498.31C528.499 1492 520.731 1489.78 514.301 1493.21L514.879 1494.29C520.749 1491.16 527.738 1493.21 530.604 1498.87L531.701 1498.31ZM533.379 1543.27C533.339 1522.81 533.24 1512.22 532.999 1506.45C532.878 1503.56 532.721 1501.85 532.511 1500.71C532.296 1499.53 532.023 1498.94 531.699 1498.31L530.605 1498.87C530.891 1499.43 531.113 1499.9 531.302 1500.93C531.495 1501.99 531.65 1503.62 531.77 1506.5C532.01 1512.24 532.109 1522.81 532.149 1543.28L533.379 1543.27ZM508.223 1543.89H532.764V1542.66H508.223V1543.89ZM509.287 1498.31C508.964 1498.94 508.691 1499.53 508.476 1500.71C508.266 1501.86 508.109 1503.58 507.988 1506.46C507.747 1512.24 507.648 1522.83 507.608 1543.27L508.838 1543.28C508.878 1522.83 508.977 1512.26 509.217 1506.51C509.337 1503.64 509.492 1502 509.686 1500.93C509.874 1499.9 510.097 1499.43 510.382 1498.87L509.287 1498.31ZM507.607 1660.11C507.647 1680.78 507.745 1691.47 507.986 1697.29C508.106 1700.2 508.263 1701.92 508.474 1703.08C508.689 1704.26 508.963 1704.86 509.287 1705.49L510.382 1704.93C510.096 1704.37 509.872 1703.89 509.684 1702.86C509.49 1701.79 509.335 1700.14 509.215 1697.24C508.975 1691.45 508.877 1680.78 508.837 1660.11L507.607 1660.11ZM509.287 1705.49C510.291 1707.45 512.019 1709.17 514.012 1710.39C516.004 1711.62 518.308 1712.38 520.493 1712.38V1711.15C518.58 1711.15 516.497 1710.48 514.656 1709.35C512.816 1708.22 511.264 1706.65 510.382 1704.93L509.287 1705.49ZM520.493 1712.38C522.68 1712.38 524.982 1711.62 526.975 1710.39C528.968 1709.17 530.696 1707.45 531.7 1705.49L530.605 1704.93C529.723 1706.65 528.172 1708.22 526.331 1709.35C524.491 1710.48 522.407 1711.15 520.493 1711.15V1712.38ZM531.699 1705.49C532.024 1704.86 532.298 1704.26 532.514 1703.08C532.724 1701.92 532.881 1700.2 533.001 1697.29C533.242 1691.47 533.34 1680.78 533.38 1660.11L532.15 1660.11C532.11 1680.78 532.012 1691.45 531.773 1697.24C531.652 1700.14 531.498 1701.79 531.303 1702.86C531.115 1703.89 530.891 1704.37 530.605 1704.93L531.699 1705.49ZM532.765 1659.5H508.222V1660.73H532.765V1659.5Z" fill="#252E3D"/>
</g>
<path fill-rule="evenodd" clip-rule="evenodd" d="M559.03 1498.59C560.013 1496.62 561.899 1494.74 563.785 1493.75C569.934 1490.47 577.313 1492.6 580.347 1498.59C581.737 1501.23 581.949 1502.75 581.981 1543.28H557.395C557.428 1502.75 557.639 1501.23 559.03 1498.59Z" fill="#252E3D"/>
<mask id="mask2_12_3" style="mask-type:luminance" maskUnits="userSpaceOnUse" x="557" y="1492" width="25" height="52">
<path fill-rule="evenodd" clip-rule="evenodd" d="M559.03 1498.59C560.013 1496.62 561.899 1494.74 563.785 1493.75C569.934 1490.47 577.313 1492.6 580.347 1498.59C581.737 1501.23 581.949 1502.75 581.981 1543.28H557.395C557.428 1502.75 557.639 1501.23 559.03 1498.59Z" fill="white"/>
</mask>
<g mask="url(#mask2_12_3)">
<path d="M563.785 1493.75L564.07 1494.3L564.074 1494.29L563.785 1493.75ZM559.03 1498.59L559.574 1498.88L559.576 1498.87L559.579 1498.86L559.03 1498.59ZM580.347 1498.59L579.798 1498.87L579.801 1498.87L579.803 1498.88L580.347 1498.59ZM581.981 1543.27V1543.89H582.596V1543.27L581.981 1543.27ZM557.395 1543.27L556.78 1543.27V1543.89H557.395V1543.27ZM563.5 1493.21C561.502 1494.25 559.522 1496.23 558.479 1498.31L559.579 1498.86C560.504 1497.01 562.296 1495.22 564.07 1494.3L563.5 1493.21ZM580.895 1498.31C577.694 1492 569.926 1489.78 563.495 1493.21L564.074 1494.29C569.943 1491.16 576.933 1493.21 579.798 1498.87L580.895 1498.31ZM582.596 1543.27C582.58 1523.02 582.519 1512.49 582.288 1506.7C582.172 1503.81 582.013 1502.07 581.789 1500.87C581.558 1499.65 581.259 1499 580.891 1498.3L579.803 1498.88C580.13 1499.5 580.378 1500.03 580.58 1501.1C580.787 1502.2 580.944 1503.87 581.059 1506.75C581.289 1512.51 581.35 1523.01 581.366 1543.28L582.596 1543.27ZM557.395 1543.89H581.981V1542.66H557.395V1543.89ZM558.485 1498.3C558.118 1499 557.818 1499.65 557.588 1500.87C557.363 1502.07 557.204 1503.81 557.089 1506.7C556.858 1512.49 556.797 1523.02 556.78 1543.27L558.01 1543.28C558.027 1523.01 558.087 1512.51 558.317 1506.75C558.432 1503.87 558.589 1502.2 558.796 1501.1C558.998 1500.03 559.246 1499.5 559.574 1498.88L558.485 1498.3Z" fill="#252E3D"/>
</g>
<path fill-rule="evenodd" clip-rule="evenodd" d="M608.224 1498.59C609.208 1496.62 611.094 1494.74 612.98 1493.75C619.129 1490.47 626.508 1492.6 629.542 1498.59C630.759 1500.96 631.073 1502.34 631.153 1543.28H606.612C606.693 1502.39 607.007 1500.96 608.224 1498.59ZM606.611 1660.11C606.691 1701.45 607.003 1702.83 608.224 1705.21C610.11 1708.9 614.783 1711.77 618.883 1711.77C622.983 1711.77 627.656 1708.9 629.542 1705.21C630.763 1702.83 631.075 1701.45 631.155 1660.11H606.611Z" fill="#252E3D"/>
<mask id="mask3_12_3" style="mask-type:luminance" maskUnits="userSpaceOnUse" x="606" y="1492" width="26" height="220">
<path fill-rule="evenodd" clip-rule="evenodd" d="M608.224 1498.59C609.208 1496.62 611.094 1494.74 612.98 1493.75C619.129 1490.47 626.508 1492.6 629.542 1498.59C630.759 1500.96 631.073 1502.34 631.153 1543.28H606.612C606.693 1502.39 607.007 1500.96 608.224 1498.59ZM606.611 1660.11C606.691 1701.45 607.003 1702.83 608.224 1705.21C610.11 1708.9 614.783 1711.77 618.883 1711.77C622.983 1711.77 627.656 1708.9 629.542 1705.21C630.763 1702.83 631.075 1701.45 631.155 1660.11H606.611Z" fill="white"/>
</mask>
<g mask="url(#mask3_12_3)">
<path d="M612.98 1493.75L613.264 1494.3L613.269 1494.29L612.98 1493.75ZM608.224 1498.59L608.772 1498.87L608.774 1498.86L608.224 1498.59ZM629.542 1498.59L628.993 1498.87L628.995 1498.87L629.542 1498.59ZM631.153 1543.27V1543.89H631.769L631.768 1543.27L631.153 1543.27ZM606.613 1543.27L605.998 1543.27L605.996 1543.89H606.613V1543.27ZM606.611 1660.11V1659.5H605.995L605.996 1660.11L606.611 1660.11ZM608.224 1705.21L608.772 1704.93L608.771 1704.93L608.224 1705.21ZM629.542 1705.21L628.995 1704.93L628.994 1704.93L629.542 1705.21ZM631.155 1660.11L631.769 1660.11L631.771 1659.5H631.155V1660.11ZM612.695 1493.21C610.696 1494.25 608.717 1496.23 607.674 1498.31L608.774 1498.86C609.699 1497.01 611.491 1495.22 613.264 1494.3L612.695 1493.21ZM630.09 1498.31C626.889 1492 619.12 1489.78 612.69 1493.21L613.269 1494.29C619.137 1491.16 626.127 1493.21 628.993 1498.87L630.09 1498.31ZM631.768 1543.27C631.728 1522.81 631.629 1512.22 631.388 1506.45C631.268 1503.56 631.111 1501.85 630.901 1500.71C630.685 1499.53 630.412 1498.94 630.089 1498.31L628.995 1498.87C629.28 1499.43 629.503 1499.9 629.691 1500.93C629.885 1501.99 630.039 1503.62 630.16 1506.5C630.399 1512.24 630.498 1522.81 630.538 1543.28L631.768 1543.27ZM606.613 1543.89H631.153V1542.66H606.613V1543.89ZM607.677 1498.31C607.353 1498.94 607.08 1499.53 606.865 1500.71C606.656 1501.86 606.498 1503.58 606.378 1506.46C606.137 1512.24 606.038 1522.83 605.998 1543.27L607.227 1543.28C607.268 1522.83 607.366 1512.26 607.607 1506.51C607.727 1503.64 607.882 1502 608.075 1500.93C608.264 1499.9 608.486 1499.43 608.771 1498.87L607.677 1498.31ZM605.996 1660.11C606.036 1680.78 606.134 1691.47 606.375 1697.29C606.496 1700.2 606.652 1701.92 606.863 1703.08C607.079 1704.26 607.352 1704.86 607.677 1705.49L608.771 1704.93C608.485 1704.37 608.262 1703.89 608.073 1702.86C607.879 1701.79 607.724 1700.14 607.604 1697.24C607.364 1691.45 607.266 1680.78 607.226 1660.11L605.996 1660.11ZM607.676 1705.49C608.681 1707.45 610.408 1709.17 612.401 1710.39C614.394 1711.62 616.697 1712.38 618.883 1712.38V1711.15C616.969 1711.15 614.886 1710.48 613.045 1709.35C611.205 1708.22 609.653 1706.65 608.772 1704.93L607.676 1705.49ZM618.883 1712.38C621.069 1712.38 623.372 1711.62 625.365 1710.39C627.357 1709.17 629.085 1707.45 630.089 1705.49L628.994 1704.93C628.112 1706.65 626.561 1708.22 624.72 1709.35C622.88 1710.48 620.797 1711.15 618.883 1711.15V1712.38ZM630.089 1705.49C630.414 1704.86 630.687 1704.26 630.903 1703.08C631.113 1701.92 631.27 1700.2 631.391 1697.29C631.632 1691.47 631.729 1680.78 631.769 1660.11L630.54 1660.11C630.5 1680.78 630.402 1691.45 630.162 1697.24C630.042 1700.14 629.887 1701.79 629.693 1702.86C629.504 1703.89 629.281 1704.37 628.995 1704.93L630.089 1705.49ZM631.155 1659.5H606.611V1660.73H631.155V1659.5Z" fill="#252E3D"/>
</g>
<path fill-rule="evenodd" clip-rule="evenodd" d="M657.419 1498.59C658.403 1496.62 660.288 1494.74 662.174 1493.75C668.324 1490.47 675.703 1492.6 678.736 1498.59C680.127 1501.23 680.338 1502.75 680.371 1543.28H655.784C655.817 1502.75 656.029 1501.23 657.419 1498.59Z" fill="#252E3D"/>
<mask id="mask4_12_3" style="mask-type:luminance" maskUnits="userSpaceOnUse" x="655" y="1492" width="26" height="52">
<path fill-rule="evenodd" clip-rule="evenodd" d="M657.419 1498.59C658.403 1496.62 660.288 1494.74 662.174 1493.75C668.324 1490.47 675.703 1492.6 678.736 1498.59C680.127 1501.23 680.338 1502.75 680.371 1543.28H655.784C655.817 1502.75 656.029 1501.23 657.419 1498.59Z" fill="white"/>
</mask>
<g mask="url(#mask4_12_3)">
<path d="M662.174 1493.75L662.459 1494.3L662.464 1494.29L662.174 1493.75ZM657.419 1498.59L657.963 1498.88L657.966 1498.87L657.969 1498.86L657.419 1498.59ZM678.736 1498.59L678.188 1498.87L678.19 1498.87L678.192 1498.88L678.736 1498.59ZM680.371 1543.27V1543.89H680.986V1543.27L680.371 1543.27ZM655.784 1543.27L655.169 1543.27V1543.89H655.784V1543.27ZM661.889 1493.21C659.891 1494.25 657.911 1496.23 656.869 1498.31L657.969 1498.86C658.894 1497.01 660.685 1495.22 662.459 1494.3L661.889 1493.21ZM679.285 1498.31C676.083 1492 668.315 1489.78 661.885 1493.21L662.464 1494.29C668.332 1491.16 675.322 1493.21 678.188 1498.87L679.285 1498.31ZM680.986 1543.27C680.969 1523.02 680.908 1512.49 680.677 1506.7C680.561 1503.81 680.403 1502.07 680.178 1500.87C679.948 1499.65 679.648 1499 679.28 1498.3L678.192 1498.88C678.52 1499.5 678.768 1500.03 678.969 1501.1C679.177 1502.2 679.333 1503.87 679.448 1506.75C679.678 1512.51 679.739 1523.01 679.756 1543.28L680.986 1543.27ZM655.784 1543.89H680.371V1542.66H655.784V1543.89ZM656.875 1498.3C656.507 1499 656.207 1499.65 655.977 1500.87C655.752 1502.07 655.594 1503.81 655.478 1506.7C655.247 1512.49 655.186 1523.02 655.169 1543.27L656.399 1543.28C656.416 1523.01 656.477 1512.51 656.707 1506.75C656.822 1503.87 656.979 1502.2 657.186 1501.1C657.388 1500.03 657.635 1499.5 657.963 1498.88L656.875 1498.3Z" fill="#252E3D"/>
</g>
<path fill-rule="evenodd" clip-rule="evenodd" d="M706.614 1498.59C707.598 1496.62 709.483 1494.74 711.369 1493.75C717.518 1490.47 724.898 1492.6 727.931 1498.59C729.321 1501.23 729.533 1502.75 729.565 1543.28H704.979C705.012 1502.75 705.223 1501.23 706.614 1498.59Z" fill="#252E3D"/>
<mask id="mask5_12_3" style="mask-type:luminance" maskUnits="userSpaceOnUse" x="704" y="1492" width="26" height="52">
<path fill-rule="evenodd" clip-rule="evenodd" d="M706.614 1498.59C707.598 1496.62 709.483 1494.74 711.369 1493.75C717.518 1490.47 724.898 1492.6 727.931 1498.59C729.321 1501.23 729.533 1502.75 729.565 1543.28H704.979C705.012 1502.75 705.223 1501.23 706.614 1498.59Z" fill="white"/>
</mask>
<g mask="url(#mask5_12_3)">
<path d="M711.369 1493.75L711.654 1494.3L711.659 1494.29L711.369 1493.75ZM706.614 1498.59L707.158 1498.88L707.16 1498.87L707.163 1498.86L706.614 1498.59ZM727.931 1498.59L727.382 1498.87L727.385 1498.87L727.387 1498.88L727.931 1498.59ZM729.565 1543.27V1543.89H730.18V1543.27L729.565 1543.27ZM704.979 1543.27L704.364 1543.27V1543.89H704.979V1543.27ZM711.084 1493.21C709.086 1494.25 707.106 1496.23 706.063 1498.31L707.163 1498.86C708.088 1497.01 709.88 1495.22 711.654 1494.3L711.084 1493.21ZM728.48 1498.31C725.278 1492 717.51 1489.78 711.079 1493.21L711.659 1494.29C717.527 1491.16 724.517 1493.21 727.382 1498.87L728.48 1498.31ZM730.18 1543.27C730.164 1523.02 730.103 1512.49 729.872 1506.7C729.756 1503.81 729.597 1502.07 729.373 1500.87C729.142 1499.65 728.843 1499 728.475 1498.3L727.387 1498.88C727.715 1499.5 727.962 1500.03 728.164 1501.1C728.371 1502.2 728.528 1503.87 728.643 1506.75C728.873 1512.51 728.934 1523.01 728.951 1543.28L730.18 1543.27ZM704.979 1543.89H729.565V1542.66H704.979V1543.89ZM706.069 1498.3C705.702 1499 705.402 1499.65 705.172 1500.87C704.947 1502.07 704.789 1503.81 704.673 1506.7C704.442 1512.49 704.381 1523.02 704.364 1543.27L705.594 1543.28C705.611 1523.01 705.672 1512.51 705.902 1506.75C706.017 1503.87 706.173 1502.2 706.381 1501.1C706.582 1500.03 706.83 1499.5 707.158 1498.88L706.069 1498.3Z" fill="#252E3D"/>
</g>
<path fill-rule="evenodd" clip-rule="evenodd" d="M755.808 1498.59C756.792 1496.62 758.678 1494.74 760.564 1493.75C766.713 1490.47 774.092 1492.6 777.126 1498.59C778.516 1501.23 778.728 1502.75 778.76 1543.28H754.174C754.207 1502.75 754.418 1501.23 755.808 1498.59Z" fill="#252E3D"/>
<mask id="mask6_12_3" style="mask-type:luminance" maskUnits="userSpaceOnUse" x="754" y="1492" width="25" height="52">
<path fill-rule="evenodd" clip-rule="evenodd" d="M755.808 1498.59C756.792 1496.62 758.678 1494.74 760.564 1493.75C766.713 1490.47 774.092 1492.6 777.126 1498.59C778.516 1501.23 778.728 1502.75 778.76 1543.28H754.174C754.207 1502.75 754.418 1501.23 755.808 1498.59Z" fill="white"/>
</mask>
<g mask="url(#mask6_12_3)">
<path d="M760.564 1493.75L760.848 1494.3L760.853 1494.29L760.564 1493.75ZM755.808 1498.59L756.353 1498.88L756.355 1498.87L756.358 1498.86L755.808 1498.59ZM777.126 1498.59L776.577 1498.87L776.58 1498.87L776.582 1498.88L777.126 1498.59ZM778.76 1543.27V1543.89H779.375V1543.27L778.76 1543.27ZM754.174 1543.27L753.559 1543.27V1543.89H754.174V1543.27ZM760.279 1493.21C758.28 1494.25 756.301 1496.23 755.258 1498.31L756.358 1498.86C757.283 1497.01 759.075 1495.22 760.848 1494.3L760.279 1493.21ZM777.674 1498.31C774.473 1492 766.704 1489.78 760.274 1493.21L760.853 1494.29C766.722 1491.16 773.712 1493.21 776.577 1498.87L777.674 1498.31ZM779.375 1543.27C779.359 1523.02 779.298 1512.49 779.066 1506.7C778.951 1503.81 778.792 1502.07 778.568 1500.87C778.337 1499.65 778.038 1499 777.67 1498.3L776.582 1498.88C776.909 1499.5 777.157 1500.03 777.359 1501.1C777.566 1502.2 777.723 1503.87 777.838 1506.75C778.068 1512.51 778.129 1523.01 778.145 1543.28L779.375 1543.27ZM754.174 1543.89H778.76V1542.66H754.174V1543.89ZM755.264 1498.3C754.897 1499 754.597 1499.65 754.366 1500.87C754.142 1502.07 753.983 1503.81 753.868 1506.7C753.636 1512.49 753.576 1523.02 753.559 1543.27L754.789 1543.28C754.805 1523.01 754.866 1512.51 755.096 1506.75C755.211 1503.87 755.368 1502.2 755.575 1501.1C755.777 1500.03 756.025 1499.5 756.353 1498.88L755.264 1498.3Z" fill="#252E3D"/>
</g>
<path fill-rule="evenodd" clip-rule="evenodd" d="M805.003 1498.59C805.987 1496.62 807.872 1494.74 809.758 1493.75C815.908 1490.47 823.287 1492.6 826.32 1498.59C827.538 1500.96 827.852 1502.34 827.932 1543.28H803.391C803.472 1502.39 803.786 1500.96 805.003 1498.59ZM803.39 1660.11C803.47 1701.45 803.782 1702.83 805.003 1705.21C806.889 1708.9 811.562 1711.77 815.662 1711.77C819.762 1711.77 824.435 1708.9 826.32 1705.21C827.542 1702.83 827.853 1701.45 827.933 1660.11H803.39Z" fill="#252E3D"/>
<mask id="mask7_12_3" style="mask-type:luminance" maskUnits="userSpaceOnUse" x="803" y="1492" width="25" height="220">
<path fill-rule="evenodd" clip-rule="evenodd" d="M805.003 1498.59C805.987 1496.62 807.872 1494.74 809.758 1493.75C815.908 1490.47 823.287 1492.6 826.32 1498.59C827.538 1500.96 827.852 1502.34 827.932 1543.28H803.391C803.472 1502.39 803.786 1500.96 805.003 1498.59ZM803.39 1660.11C803.47 1701.45 803.782 1702.83 805.003 1705.21C806.889 1708.9 811.562 1711.77 815.662 1711.77C819.762 1711.77 824.435 1708.9 826.32 1705.21C827.542 1702.83 827.853 1701.45 827.933 1660.11H803.39Z" fill="white"/>
</mask>
<g mask="url(#mask7_12_3)">
<path d="M809.758 1493.75L810.043 1494.3L810.048 1494.29L809.758 1493.75ZM805.003 1498.59L805.55 1498.87L805.553 1498.86L805.003 1498.59ZM826.32 1498.59L825.772 1498.87L825.773 1498.87L826.32 1498.59ZM827.932 1543.27V1543.89H828.548L828.547 1543.27L827.932 1543.27ZM803.391 1543.27L802.776 1543.27L802.775 1543.89H803.391V1543.27ZM803.39 1660.11V1659.5H802.774L802.775 1660.11L803.39 1660.11ZM805.003 1705.21L805.55 1704.93L805.55 1704.93L805.003 1705.21ZM826.32 1705.21L825.773 1704.93V1704.93L826.32 1705.21ZM827.933 1660.11L828.548 1660.11L828.55 1659.5H827.933V1660.11ZM809.474 1493.21C807.475 1494.25 805.496 1496.23 804.453 1498.31L805.553 1498.86C806.478 1497.01 808.27 1495.22 810.043 1494.3L809.474 1493.21ZM826.869 1498.31C823.668 1492 815.899 1489.78 809.469 1493.21L810.048 1494.29C815.916 1491.16 822.906 1493.21 825.772 1498.87L826.869 1498.31ZM828.547 1543.27C828.507 1522.81 828.408 1512.22 828.167 1506.45C828.047 1503.56 827.89 1501.85 827.679 1500.71C827.464 1499.53 827.191 1498.94 826.868 1498.31L825.773 1498.87C826.058 1499.43 826.282 1499.9 826.47 1500.93C826.664 1501.99 826.818 1503.62 826.938 1506.5C827.178 1512.24 827.277 1522.81 827.317 1543.28L828.547 1543.27ZM803.391 1543.89H827.932V1542.66H803.391V1543.89ZM804.456 1498.31C804.132 1498.94 803.859 1499.53 803.644 1500.71C803.434 1501.86 803.277 1503.58 803.156 1506.46C802.915 1512.24 802.816 1522.83 802.776 1543.27L804.006 1543.28C804.047 1522.83 804.145 1512.26 804.386 1506.51C804.506 1503.64 804.661 1502 804.854 1500.93C805.042 1499.9 805.265 1499.43 805.55 1498.87L804.456 1498.31ZM802.775 1660.11C802.815 1680.78 802.913 1691.47 803.154 1697.29C803.275 1700.2 803.431 1701.92 803.642 1703.08C803.858 1704.26 804.131 1704.86 804.456 1705.49L805.55 1704.93C805.264 1704.37 805.041 1703.89 804.852 1702.86C804.658 1701.79 804.503 1700.14 804.383 1697.24C804.143 1691.45 804.045 1680.78 804.005 1660.11L802.775 1660.11ZM804.455 1705.49C805.459 1707.45 807.187 1709.17 809.18 1710.39C811.173 1711.62 813.476 1712.38 815.662 1712.38V1711.15C813.748 1711.15 811.665 1710.48 809.824 1709.35C807.984 1708.22 806.432 1706.65 805.55 1704.93L804.455 1705.49ZM815.662 1712.38C817.848 1712.38 820.151 1711.62 822.143 1710.39C824.136 1709.17 825.864 1707.45 826.868 1705.49L825.773 1704.93C824.891 1706.65 823.34 1708.22 821.499 1709.35C819.659 1710.48 817.575 1711.15 815.662 1711.15V1712.38ZM826.868 1705.49C827.192 1704.86 827.465 1704.26 827.682 1703.08C827.892 1701.92 828.049 1700.2 828.17 1697.29C828.411 1691.47 828.508 1680.78 828.548 1660.11L827.318 1660.11C827.278 1680.78 827.181 1691.45 826.941 1697.24C826.82 1700.14 826.666 1701.79 826.472 1702.86C826.283 1703.89 826.06 1704.37 825.773 1704.93L826.868 1705.49ZM827.933 1659.5H803.39V1660.73H827.933V1659.5Z" fill="#252E3D"/>
</g>
<path d="M465.54 1673.58L465.533 1673.59C463.63 1674.54 461.873 1676.37 460.917 1678.37L460.913 1678.37C460.508 1679.16 460.208 1679.81 459.982 1680.77C459.754 1681.74 459.599 1683.04 459.502 1685.14C459.308 1689.35 459.348 1696.67 459.471 1710.78L459.717 1739.98L462.391 1745.41C465.476 1751.66 469.852 1755.96 476.266 1758.96C476.266 1758.96 476.266 1758.96 476.266 1758.96L480.797 1761.06L510.001 1761.31C524.108 1761.43 531.436 1761.47 535.637 1761.28C537.737 1761.18 539.04 1761.03 540.01 1760.8C540.973 1760.57 541.618 1760.27 542.409 1759.87L542.412 1759.87C544.237 1758.95 545.858 1757.36 547.023 1755.48C548.188 1753.6 548.883 1751.46 548.883 1749.48C548.883 1747.5 548.188 1745.36 547.032 1743.48C545.877 1741.61 544.276 1740.01 542.491 1739.1C541.746 1738.72 541.094 1738.43 540.147 1738.21C539.192 1737.99 537.929 1737.83 535.963 1737.73C532.028 1737.51 525.335 1737.49 512.786 1737.49C501.228 1737.49 494.517 1737.45 490.563 1737.27C488.587 1737.17 487.283 1737.04 486.401 1736.86C485.527 1736.68 485.023 1736.44 484.692 1736.09C484.34 1735.76 484.099 1735.25 483.919 1734.38C483.737 1733.5 483.608 1732.19 483.516 1730.22C483.331 1726.26 483.29 1719.55 483.29 1708C483.29 1695.45 483.269 1688.75 483.055 1684.82C482.947 1682.85 482.792 1681.59 482.571 1680.63C482.352 1679.69 482.066 1679.04 481.684 1678.29L481.683 1678.29C478.733 1672.47 471.549 1670.38 465.54 1673.58Z" fill="#252E3D"/>
<path d="M476.266 1758.96C469.852 1755.96 465.476 1751.66 462.391 1745.41L459.717 1739.98L459.471 1710.78C459.348 1696.67 459.308 1689.35 459.502 1685.14C459.599 1683.04 459.754 1681.74 459.982 1680.77C460.208 1679.81 460.508 1679.16 460.913 1678.37L460.917 1678.37C461.873 1676.37 463.63 1674.54 465.533 1673.59L465.54 1673.58C471.549 1670.38 478.733 1672.47 481.683 1678.29L481.684 1678.29C482.066 1679.04 482.352 1679.69 482.571 1680.63C482.792 1681.59 482.947 1682.85 483.055 1684.82C483.269 1688.75 483.29 1695.45 483.29 1708C483.29 1719.55 483.331 1726.26 483.516 1730.22C483.608 1732.19 483.737 1733.5 483.919 1734.38C484.099 1735.25 484.34 1735.76 484.692 1736.09C485.023 1736.44 485.527 1736.68 486.401 1736.86C487.283 1737.04 488.587 1737.17 490.563 1737.27C494.517 1737.45 501.228 1737.49 512.786 1737.49C525.335 1737.49 532.028 1737.51 535.963 1737.73C537.929 1737.83 539.192 1737.99 540.147 1738.21C541.094 1738.43 541.746 1738.72 542.491 1739.1C544.276 1740.01 545.877 1741.61 547.032 1743.48C548.188 1745.36 548.883 1747.5 548.883 1749.48C548.883 1751.46 548.188 1753.6 547.023 1755.48C545.858 1757.36 544.237 1758.95 542.412 1759.87L542.409 1759.87C541.618 1760.27 540.973 1760.57 540.01 1760.8C539.04 1761.03 537.737 1761.18 535.637 1761.28C531.436 1761.47 524.108 1761.43 510.001 1761.31L480.797 1761.06L476.266 1758.96ZM476.266 1758.96C476.266 1758.96 476.266 1758.96 476.266 1758.96Z" stroke="#252E3D"/>
<path d="M857.957 1759.99L857.962 1759.99C866.239 1757.48 872.239 1752.21 875.975 1744.17L875.975 1744.17L878.078 1739.72L878.324 1710.51V1710.51C878.447 1696.41 878.487 1689.08 878.293 1684.88C878.196 1682.78 878.041 1681.48 877.813 1680.5C877.587 1679.54 877.287 1678.9 876.882 1678.11L876.88 1678.1C875.967 1676.28 874.371 1674.66 872.494 1673.49C870.616 1672.33 868.478 1671.63 866.497 1671.63C864.515 1671.63 862.377 1672.33 860.498 1673.48C858.619 1674.64 857.024 1676.24 856.112 1678.02L856.111 1678.02C855.728 1678.77 855.443 1679.42 855.224 1680.37C855.003 1681.32 854.848 1682.59 854.74 1684.55C854.526 1688.49 854.505 1695.18 854.505 1707.73C854.505 1719.29 854.464 1726 854.279 1729.95C854.187 1731.93 854.058 1733.23 853.876 1734.11C853.696 1734.99 853.455 1735.49 853.103 1735.82C852.772 1736.17 852.268 1736.42 851.394 1736.6C850.512 1736.78 849.208 1736.91 847.233 1737C843.278 1737.18 836.567 1737.23 825.009 1737.23C812.459 1737.23 805.768 1737.25 801.833 1737.46C799.866 1737.57 798.603 1737.72 797.648 1737.94C796.701 1738.16 796.049 1738.45 795.304 1738.83H795.304C793.519 1739.74 791.918 1741.34 790.762 1743.22C789.608 1745.1 788.912 1747.23 788.912 1749.22C788.912 1751.2 789.608 1753.34 790.762 1755.22C791.918 1757.09 793.519 1758.69 795.304 1759.6L795.304 1759.6C796.05 1759.98 796.695 1760.27 797.658 1760.49C798.629 1760.71 799.931 1760.86 801.984 1760.96C806.094 1761.17 813.155 1761.17 826.483 1761.13H826.485C836.897 1761.13 844.149 1761.04 849.113 1760.86C854.095 1760.67 856.735 1760.39 857.957 1759.99Z" fill="#252E3D" stroke="#252E3D"/>
<path d="M872.255 1529.95V1529.95L872.262 1529.94C874.165 1528.99 875.922 1527.16 876.878 1525.17L876.882 1525.16C877.287 1524.37 877.587 1523.72 877.813 1522.76C878.041 1521.79 878.196 1520.49 878.293 1518.39C878.487 1514.18 878.447 1506.86 878.324 1492.75L878.078 1463.55L875.404 1458.12C872.319 1451.87 867.944 1447.57 861.529 1444.57L861.529 1444.57L856.998 1442.47L827.794 1442.22C813.687 1442.1 806.359 1442.06 802.158 1442.25C800.058 1442.35 798.755 1442.5 797.785 1442.73C796.823 1442.96 796.177 1443.26 795.386 1443.66L795.384 1443.66C793.558 1444.58 791.937 1446.17 790.772 1448.05C789.607 1449.93 788.912 1452.07 788.912 1454.05C788.912 1456.03 789.608 1458.17 790.762 1460.05C791.918 1461.93 793.519 1463.52 795.304 1464.43L795.304 1464.43C796.049 1464.82 796.701 1465.1 797.648 1465.32C798.603 1465.54 799.866 1465.7 801.833 1465.8C805.768 1466.02 812.459 1466.04 825.009 1466.04C836.567 1466.04 843.278 1466.08 847.233 1466.26C849.208 1466.36 850.512 1466.49 851.394 1466.67C852.268 1466.85 852.772 1467.09 853.103 1467.44C853.455 1467.77 853.696 1468.28 853.876 1469.15C854.058 1470.03 854.187 1471.34 854.279 1473.31C854.464 1477.27 854.505 1483.98 854.505 1495.54C854.505 1508.08 854.526 1514.78 854.74 1518.71C854.848 1520.68 855.003 1521.94 855.224 1522.9C855.443 1523.84 855.728 1524.49 856.111 1525.24L856.112 1525.24C859.061 1531.06 866.246 1533.15 872.255 1529.95Z" fill="#252E3D" stroke="#252E3D"/>
<path d="M563.931 1675.22L563.926 1675.23C561.439 1676.51 559.902 1678.03 558.97 1680.6C558.027 1683.2 557.697 1686.88 557.697 1692.5C557.697 1698.2 558.027 1701.88 558.989 1704.47C559.94 1707.02 561.515 1708.53 564.088 1709.85C566.107 1710.86 567.904 1711.36 569.688 1711.36C571.472 1711.36 573.269 1710.86 575.288 1709.85C577.861 1708.53 579.436 1707.02 580.387 1704.47C581.349 1701.88 581.679 1698.2 581.679 1692.5C581.679 1686.8 581.349 1683.12 580.387 1680.53C579.436 1677.98 577.861 1676.47 575.287 1675.14C573.313 1674.14 571.435 1673.64 569.577 1673.65C567.719 1673.66 565.863 1674.18 563.931 1675.22Z" fill="#252E3D" stroke="#252E3D"/>
<path d="M662.321 1675.22L662.315 1675.23C659.828 1676.51 658.292 1678.03 657.359 1680.6C656.416 1683.2 656.086 1686.88 656.086 1692.5C656.086 1698.2 656.417 1701.88 657.379 1704.47C658.33 1707.02 659.904 1708.53 662.477 1709.85C664.497 1710.86 666.294 1711.36 668.078 1711.36C669.862 1711.36 671.658 1710.86 673.678 1709.85C676.251 1708.53 677.826 1707.02 678.776 1704.47C679.739 1701.88 680.069 1698.2 680.069 1692.5C680.069 1686.8 679.739 1683.12 678.776 1680.53C677.826 1677.98 676.25 1676.47 673.677 1675.14C671.703 1674.14 669.825 1673.64 667.966 1673.65C666.109 1673.66 664.252 1674.18 662.321 1675.22Z" fill="#252E3D" stroke="#252E3D"/>
<path d="M711.515 1675.22L711.51 1675.23C709.023 1676.51 707.486 1678.03 706.554 1680.6C705.611 1683.2 705.281 1686.88 705.281 1692.5C705.281 1698.2 705.611 1701.88 706.574 1704.47C707.524 1707.02 709.099 1708.53 711.672 1709.85C713.692 1710.86 715.488 1711.36 717.272 1711.36C719.056 1711.36 720.853 1710.86 722.873 1709.85C725.445 1708.53 727.02 1707.02 727.971 1704.47C728.933 1701.88 729.264 1698.2 729.264 1692.5C729.264 1686.8 728.933 1683.12 727.971 1680.53C727.02 1677.98 725.445 1676.47 722.871 1675.14C720.897 1674.14 719.019 1673.64 717.161 1673.65C715.303 1673.66 713.447 1674.18 711.515 1675.22Z" fill="#252E3D" stroke="#252E3D"/>
<path d="M760.71 1675.22L760.704 1675.23C758.218 1676.51 756.681 1678.03 755.749 1680.6C754.805 1683.2 754.476 1686.88 754.476 1692.5C754.476 1698.2 754.806 1701.88 755.768 1704.47C756.719 1707.02 758.294 1708.53 760.867 1709.85C762.886 1710.86 764.683 1711.36 766.467 1711.36C768.251 1711.36 770.048 1710.86 772.067 1709.85C774.64 1708.53 776.215 1707.02 777.166 1704.47C778.128 1701.88 778.458 1698.2 778.458 1692.5C778.458 1686.8 778.128 1683.12 777.166 1680.53C776.215 1677.98 774.64 1676.47 772.066 1675.14C770.092 1674.14 768.214 1673.64 766.356 1673.65C764.498 1673.66 762.642 1674.18 760.71 1675.22Z" fill="#252E3D" stroke="#252E3D"/>
<path d="M485.836 1648.49C478.948 1648.49 473.74 1646.55 470.21 1642.68C466.681 1638.72 464.916 1633.08 464.916 1625.76V1620.6H478.346V1626.79C478.346 1632.65 480.799 1635.58 485.707 1635.58C488.117 1635.58 489.925 1634.89 491.13 1633.51C492.422 1632.05 493.067 1629.72 493.067 1626.54C493.067 1622.75 492.206 1619.43 490.485 1616.59C488.763 1613.67 485.577 1610.18 480.929 1606.13C475.074 1600.97 470.985 1596.32 468.661 1592.19C466.336 1587.97 465.174 1583.23 465.174 1577.98C465.174 1570.84 466.982 1565.33 470.598 1561.45C474.213 1557.49 479.465 1555.51 486.352 1555.51C493.153 1555.51 498.276 1557.49 501.719 1561.45C505.249 1565.33 507.014 1570.92 507.014 1578.24V1581.98H493.584V1577.34C493.584 1574.24 492.981 1572 491.776 1570.62C490.571 1569.16 488.806 1568.42 486.481 1568.42C481.746 1568.42 479.379 1571.31 479.379 1577.08C479.379 1580.35 480.24 1583.4 481.962 1586.25C483.77 1589.09 486.998 1592.53 491.647 1596.58C497.587 1601.74 501.676 1606.43 503.915 1610.65C506.153 1614.87 507.272 1619.82 507.272 1625.5C507.272 1632.91 505.421 1638.59 501.719 1642.55C498.104 1646.51 492.809 1648.49 485.836 1648.49ZM535.433 1648.49C528.632 1648.49 523.424 1646.55 519.808 1642.68C516.278 1638.8 514.513 1633.34 514.513 1626.28V1577.72C514.513 1570.66 516.278 1565.2 519.808 1561.32C523.424 1557.45 528.632 1555.51 535.433 1555.51C542.234 1555.51 547.4 1557.45 550.93 1561.32C554.545 1565.2 556.353 1570.66 556.353 1577.72V1587.28H542.923V1576.82C542.923 1571.22 540.556 1568.42 535.821 1568.42C531.086 1568.42 528.718 1571.22 528.718 1576.82V1627.31C528.718 1632.82 531.086 1635.58 535.821 1635.58C540.556 1635.58 542.923 1632.82 542.923 1627.31V1613.49H556.353V1626.28C556.353 1633.34 554.545 1638.8 550.93 1642.68C547.4 1646.55 542.234 1648.49 535.433 1648.49ZM575.828 1556.8H595.07L609.791 1647.2H595.586L593.003 1629.25V1629.51H576.861L574.279 1647.2H561.107L575.828 1556.8ZM591.325 1617.24L584.997 1572.56H584.739L578.54 1617.24H591.325ZM616.683 1556.8H634.504L648.322 1610.91H648.58V1556.8H661.235V1647.2H646.643L629.597 1581.21H629.339V1647.2H616.683V1556.8ZM671.793 1556.8H692.067L701.107 1621.5H701.365L710.405 1556.8H730.679V1647.2H717.249V1578.76H716.991L706.66 1647.2H694.779L684.448 1578.76H684.19V1647.2H671.793V1556.8ZM752.256 1556.8H771.497L786.219 1647.2H772.014L769.431 1629.25V1629.51H753.289L750.706 1647.2H737.534L752.256 1556.8ZM767.752 1617.24L761.425 1572.56H761.166L754.968 1617.24H767.752ZM798.289 1569.72H783.438V1556.8H827.344V1569.72H812.494V1647.2H798.289V1569.72ZM834.222 1556.8H872.963V1569.72H848.427V1593.61H867.926V1606.52H848.427V1634.28H872.963V1647.2H834.222V1556.8Z" fill="#252E3D"/>
</g>
<g clip-path="url(#clip1_12_3)">
<path d="M490.777 163.367C487.164 164.93 483.941 168.445 482.574 172.059C481.109 175.77 481.109 603.309 482.477 608.289C483.16 610.926 489.313 617.566 508.063 636.316C541.461 669.52 538.336 669.129 564.996 642.469L582.477 624.891L600.641 642.859C626.52 668.543 625.543 668.543 651.715 642.664L669 625.477L686.383 642.664C712.457 668.543 711.48 668.543 737.359 642.859L755.523 624.891L773.004 642.469C799.664 669.129 796.539 669.52 829.938 636.316C849.371 616.981 854.84 610.926 855.523 608.191C856.207 605.848 856.402 527.137 856.305 388.27L856.012 171.863L853.961 169.227C852.887 167.762 850.738 165.613 849.273 164.539L846.637 162.488L670.172 162.293C524.566 162.098 493.219 162.293 490.777 163.367ZM827.203 394.715V598.035L812.75 612.488L798.395 626.844L781.305 609.656C771.93 600.281 763.043 591.883 761.578 591.102C758.063 589.246 752.691 589.344 748.785 591.297C747.027 592.176 738.043 600.379 728.766 609.559L711.969 626.258L694.098 608.582C679.156 593.641 675.738 590.809 672.711 590.223C664.41 588.66 663.043 589.539 643.902 608.582L626.031 626.258L609.234 609.559C599.957 600.379 590.973 592.176 589.215 591.297C585.309 589.344 579.938 589.246 576.422 591.102C574.957 591.883 566.07 600.281 556.695 609.656L539.605 626.844L525.25 612.488L510.797 598.035V394.715V191.297H669H827.203V394.715Z" fill="#252E3D"/>
<path d="M664.703 241.102C657.184 243.445 654.352 249.305 654.352 262.391V271.961L648.688 273.133C625.738 277.82 609.527 301.16 613.043 324.207C616.07 343.25 630.621 358.777 649.176 362.684C653.18 363.563 661.481 364.148 669.879 364.148C682.184 364.148 684.332 364.344 687.457 366.199C696.832 371.473 698.785 383.191 691.656 391.688C687.164 396.961 685.113 397.352 658.648 397.352C631.988 397.352 629.938 397.742 625.738 403.602C622.711 407.801 622.711 416.199 625.738 420.398C629.254 425.281 633.258 426.648 644.488 426.648H654.352V436.512C654.352 447.742 655.719 451.746 660.602 455.262C664.801 458.289 673.199 458.289 677.398 455.262C682.281 451.746 683.648 447.742 683.648 436.512V426.648L686.383 426.16C704.449 422.352 716.559 412.293 722.516 396.18C731.891 371.18 717.145 343.152 690.973 336.219C687.945 335.34 680.426 334.852 671.441 334.852C656.207 334.754 651.324 333.875 647.32 330.262C644.586 327.918 641.656 321.375 641.656 317.762C641.656 312.781 645.074 306.922 649.566 303.895L653.766 301.16L679.742 300.672C702.594 300.281 706.012 299.988 708.356 298.426C714.801 294.227 716.852 285.242 712.75 279.188C708.453 272.938 706.305 272.059 694.488 271.57L683.844 271.18L683.453 260.535C683.258 251.746 682.867 249.598 681.109 247.352C676.91 241.688 670.66 239.246 664.703 241.102Z" fill="#252E3D"/>
<path d="M587.457 507.605C580.035 509.461 576.715 513.855 576.715 522.059C576.715 527.82 576.91 528.406 580.426 531.824L584.039 535.535H668.902H753.766L756.402 533.094C760.504 529.188 762.066 525.477 761.578 520.398C761.09 515.32 758.844 511.707 754.449 508.973C751.715 507.313 747.223 507.215 670.953 507.02C626.617 506.922 589.117 507.215 587.457 507.605Z" fill="#252E3D"/>
</g>
</g>
<defs>
<clipPath id="clip0_12_3">
<rect width="1340" height="1876" fill="white"/>
</clipPath>
<clipPath id="clip1_12_3">
<rect width="500" height="500" fill="white" transform="translate(419 162)"/>
</clipPath>
</defs>
</svg>
