<?xml version="1.0" standalone="no"?>
<!DOCTYPE svg PUBLIC "-//W3C//DTD SVG 20010904//EN"
 "http://www.w3.org/TR/2001/REC-SVG-20010904/DTD/svg10.dtd">
<svg version="1.0" xmlns="http://www.w3.org/2000/svg"
 width="512.000000pt" height="512.000000pt" viewBox="0 0 512.000000 512.000000"
 preserveAspectRatio="xMidYMid meet">

<g transform="translate(0.000000,512.000000) scale(0.100000,-0.100000)"
fill="#252E3D" stroke="none">
<path d="M3464 4906 c-87 -38 -116 -165 -52 -233 12 -13 86 -57 163 -96 365
-188 645 -436 869 -772 273 -409 405 -914 368 -1405 -24 -313 -89 -555 -227
-835 -220 -449 -556 -789 -1010 -1022 -77 -39 -151 -83 -163 -96 -65 -69 -35
-196 54 -233 58 -24 88 -17 245 62 256 130 466 283 666 486 216 219 359 422
488 690 336 700 338 1503 5 2205 -131 275 -274 478 -493 701 -200 203 -410
356 -666 486 -158 79 -189 87 -247 62z"/>
<path d="M2512 4547 c-18 -6 -298 -207 -622 -444 l-590 -433 -598 0 -599 0
-34 -23 c-74 -49 -69 23 -69 -1087 0 -1110 -5 -1038 69 -1087 l34 -23 599 0
598 0 593 -435 c369 -271 606 -439 630 -445 77 -22 168 34 182 112 3 18 4 875
3 1905 l-3 1872 -21 27 c-46 63 -109 85 -172 61z m-104 -2761 l-3 -774 -489
358 c-269 198 -496 362 -505 367 -9 4 -262 9 -563 11 l-548 3 0 809 0 809 548
3 c301 2 554 7 563 11 9 5 236 169 505 367 l489 358 3 -774 c1 -426 1 -1122 0
-1548z"/>
<path d="M3485 3783 c-52 -13 -100 -70 -105 -123 -6 -69 -1 -80 85 -171 115
-124 175 -205 239 -330 199 -382 199 -816 0 -1198 -64 -124 -127 -211 -236
-327 -88 -92 -104 -128 -86 -192 13 -45 66 -97 109 -106 79 -15 150 34 289
199 333 397 450 924 320 1433 -54 212 -173 442 -320 617 -148 175 -212 218
-295 198z"/>
</g>
</svg>
