<?xml version="1.0" standalone="no"?>
<!DOCTYPE svg PUBLIC "-//W3C//DTD SVG 20010904//EN"
 "http://www.w3.org/TR/2001/REC-SVG-20010904/DTD/svg10.dtd">
<svg version="1.0" xmlns="http://www.w3.org/2000/svg"
 width="512.000000pt" height="512.000000pt" viewBox="0 0 512.000000 512.000000"
 preserveAspectRatio="xMidYMid meet">

<g transform="translate(0.000000,512.000000) scale(0.100000,-0.100000)"
fill="#252E3D" stroke="none">
<path d="M3030 5105 c-1162 -141 -1909 -1318 -1544 -2433 62 -191 177 -405
302 -565 l46 -58 -147 -147 -147 -147 -62 62 c-35 33 -73 66 -85 72 -30 15
-99 14 -131 -3 -15 -8 -302 -291 -639 -628 -547 -548 -612 -617 -619 -651 -14
-78 -1 -96 258 -354 206 -205 249 -242 280 -248 83 -16 61 -35 716 618 337
337 620 624 628 639 17 32 18 101 3 131 -6 12 -39 50 -72 85 l-62 62 147 147
147 147 58 -46 c554 -435 1316 -518 1951 -213 249 120 468 291 635 498 369
456 506 1024 381 1586 -209 935 -1094 1562 -2044 1446z m523 -315 c627 -123
1113 -610 1239 -1243 18 -91 22 -145 22 -292 0 -207 -15 -303 -74 -485 -267
-820 -1158 -1270 -1975 -999 -329 109 -616 329 -810 619 -415 619 -331 1447
200 1972 260 257 578 408 955 452 87 10 339 -3 443 -24z m-2113 -3355 l105
-105 -485 -485 -485 -485 -107 107 -108 108 482 482 c266 266 485 483 488 483
3 0 52 -47 110 -105z"/>
<path d="M3125 4514 c-240 -33 -426 -105 -608 -235 -48 -34 -126 -102 -172
-150 -213 -225 -332 -498 -351 -806 -5 -85 -3 -103 14 -133 28 -51 76 -80 131
-80 87 0 151 64 151 152 0 143 51 334 124 460 170 298 439 466 795 496 112 10
141 23 175 81 37 63 16 148 -47 195 -22 17 -44 21 -105 22 -42 1 -90 0 -107
-2z"/>
</g>
</svg>
