<svg width="1920" height="1080" viewBox="0 0 1920 1080" fill="none" xmlns="http://www.w3.org/2000/svg">
<rect width="1920" height="1080" fill="white"/>
<path fill-rule="evenodd" clip-rule="evenodd" d="M1232.36 0H0V1080H1232.36C1065.88 950.859 960 756.883 960 540C960 323.117 1065.88 129.141 1232.36 0Z" fill="#D9D9D9"/>
<path d="M1228.65 313.242C1216.7 316.875 1208.02 324.492 1202.63 336.094L1199.59 342.539L1199.23 384.375C1198.88 424.687 1199 426.328 1201.34 430.898C1204.04 436.289 1210.72 440.391 1216.58 440.391C1222.44 440.391 1229.12 436.289 1231.81 431.016C1234.04 426.68 1234.16 424.219 1234.16 388.359C1234.16 355.312 1234.39 350.039 1236.03 348.516C1237.55 346.875 1242.83 346.641 1275.87 346.641C1311.73 346.641 1314.2 346.523 1318.53 344.297C1323.8 341.602 1327.91 334.922 1327.91 329.062C1327.91 323.203 1323.8 316.523 1318.53 313.828C1314.2 311.602 1311.85 311.484 1273.77 311.602C1244 311.602 1232.28 312.07 1228.65 313.242Z" fill="black"/>
<path d="M1679.23 313.828C1674.2 316.523 1670.09 323.438 1670.09 329.062C1670.09 334.922 1674.2 341.602 1679.47 344.297C1683.8 346.523 1686.27 346.641 1722.12 346.641C1755.17 346.641 1760.45 346.875 1761.97 348.516C1763.61 350.039 1763.84 355.312 1763.84 388.359C1763.84 424.219 1763.96 426.68 1766.19 431.016C1768.88 436.289 1775.56 440.391 1781.42 440.391C1787.28 440.391 1793.96 436.289 1796.66 430.898C1799 426.328 1799.12 424.688 1798.77 384.375L1798.41 342.539L1795.37 335.977C1791.03 326.719 1784.82 320.391 1775.8 315.938L1767.95 312.07L1725.76 311.836C1685.56 311.484 1683.34 311.602 1679.23 313.828Z" fill="black"/>
<path d="M1278.45 385.43C1275.76 386.836 1273.06 389.531 1271.66 392.344C1269.31 396.914 1269.31 399.023 1269.31 540C1269.31 681.094 1269.31 683.086 1271.66 687.656C1274.35 692.93 1281.03 697.031 1286.89 697.031C1292.75 697.031 1299.43 692.93 1302.12 687.656C1304.47 683.086 1304.47 681.094 1304.47 540C1304.47 398.906 1304.47 396.914 1302.12 392.344C1297.79 383.789 1287.24 380.742 1278.45 385.43Z" fill="black"/>
<path d="M1348.77 385.43C1346.07 386.836 1343.38 389.531 1341.97 392.344C1339.62 396.797 1339.62 399.023 1339.62 493.125C1339.62 587.227 1339.62 589.453 1341.97 593.906C1344.66 599.18 1351.34 603.281 1357.2 603.281C1363.06 603.281 1369.74 599.18 1372.44 593.906C1374.78 589.453 1374.78 587.227 1374.78 493.125C1374.78 399.023 1374.78 396.797 1372.44 392.344C1368.1 383.789 1357.55 380.742 1348.77 385.43Z" fill="black"/>
<path d="M1419.08 385.43C1416.38 386.836 1413.69 389.531 1412.28 392.344C1409.94 396.914 1409.94 399.023 1409.94 540C1409.94 681.094 1409.94 683.086 1412.28 687.656C1414.98 692.93 1421.66 697.031 1427.52 697.031C1433.38 697.031 1440.05 692.93 1442.75 687.656C1445.09 683.086 1445.09 681.094 1445.09 540C1445.09 398.906 1445.09 396.914 1442.75 392.344C1438.41 383.789 1427.87 380.742 1419.08 385.43Z" fill="black"/>
<path d="M1489.39 385.43C1486.7 386.836 1484 389.531 1482.59 392.344C1480.25 396.797 1480.25 399.023 1480.25 493.125C1480.25 587.227 1480.25 589.453 1482.59 593.906C1485.29 599.18 1491.97 603.281 1497.83 603.281C1503.69 603.281 1510.37 599.18 1513.06 593.906C1515.41 589.453 1515.41 587.227 1515.41 493.125C1515.41 399.023 1515.41 396.797 1513.06 392.344C1508.73 383.789 1498.18 380.742 1489.39 385.43Z" fill="black"/>
<path d="M1559.7 385.43C1557.01 386.836 1554.31 389.531 1552.91 392.344C1550.56 396.797 1550.56 399.023 1550.56 493.125C1550.56 587.227 1550.56 589.453 1552.91 593.906C1555.6 599.18 1562.28 603.281 1568.14 603.281C1574 603.281 1580.68 599.18 1583.38 593.906C1585.72 589.453 1585.72 587.227 1585.72 493.125C1585.72 399.023 1585.72 396.797 1583.38 392.344C1579.04 383.789 1568.49 380.742 1559.7 385.43Z" fill="black"/>
<path d="M1630.02 385.43C1627.32 386.836 1624.62 389.531 1623.22 392.344C1620.88 396.797 1620.88 399.023 1620.88 493.125C1620.88 587.227 1620.88 589.453 1623.22 593.906C1625.91 599.18 1632.59 603.281 1638.45 603.281C1644.31 603.281 1650.99 599.18 1653.69 593.906C1656.03 589.453 1656.03 587.227 1656.03 493.125C1656.03 399.023 1656.03 396.797 1653.69 392.344C1649.35 383.789 1638.8 380.742 1630.02 385.43Z" fill="black"/>
<path d="M1700.33 385.43C1697.63 386.836 1694.94 389.531 1693.53 392.344C1691.19 396.914 1691.19 399.023 1691.19 540C1691.19 681.094 1691.19 683.086 1693.53 687.656C1696.23 692.93 1702.91 697.031 1708.77 697.031C1714.62 697.031 1721.3 692.93 1724 687.656C1726.34 683.086 1726.34 681.094 1726.34 540C1726.34 398.906 1726.34 396.914 1724 392.344C1719.66 383.789 1709.12 380.742 1700.33 385.43Z" fill="black"/>
<path d="M1208.14 642.07C1205.33 643.477 1202.75 646.172 1201.34 649.102C1199 653.672 1198.88 655.313 1199.23 695.625L1199.59 737.461L1203.45 745.313C1207.91 754.336 1214.23 760.547 1223.49 764.883L1230.05 767.93L1271.89 768.281C1312.2 768.633 1313.84 768.516 1318.41 766.172C1323.8 763.477 1327.91 756.797 1327.91 750.938C1327.91 745.078 1323.8 738.398 1318.53 735.703C1314.2 733.477 1311.73 733.359 1275.87 733.359C1242.83 733.359 1237.55 733.125 1236.03 731.484C1234.39 729.961 1234.16 724.688 1234.16 691.641C1234.16 655.781 1234.04 653.32 1231.81 648.984C1227.48 640.43 1216.93 637.383 1208.14 642.07Z" fill="black"/>
<path d="M1772.98 642.07C1770.29 643.477 1767.59 646.172 1766.19 648.984C1763.96 653.32 1763.84 655.781 1763.84 691.641C1763.84 724.688 1763.61 729.961 1761.97 731.484C1760.45 733.125 1755.17 733.359 1722.12 733.359C1686.27 733.359 1683.8 733.477 1679.47 735.703C1674.2 738.398 1670.09 745.078 1670.09 750.938C1670.09 756.797 1674.2 763.477 1679.59 766.172C1684.16 768.516 1685.8 768.633 1726.11 768.281L1767.95 767.93L1774.51 764.883C1783.77 760.547 1790.09 754.336 1794.55 745.313L1798.41 737.461L1798.77 695.625C1799.12 655.313 1799 653.672 1796.66 649.102C1792.32 640.43 1781.77 637.383 1772.98 642.07Z" fill="black"/>
<path d="M1348.77 644.414C1341.5 648.164 1339.62 653.438 1339.62 669.492C1339.62 685.781 1341.5 690.82 1349 694.688C1354.86 697.617 1359.55 697.617 1365.41 694.688C1372.91 690.82 1374.78 685.781 1374.78 669.492C1374.78 653.203 1372.91 648.164 1365.41 644.297C1359.66 641.367 1354.39 641.367 1348.77 644.414Z" fill="black"/>
<path d="M1489.39 644.414C1482.12 648.164 1480.25 653.438 1480.25 669.492C1480.25 685.781 1482.12 690.82 1489.62 694.688C1495.48 697.617 1500.17 697.617 1506.03 694.688C1513.53 690.82 1515.41 685.781 1515.41 669.492C1515.41 653.203 1513.53 648.164 1506.03 644.297C1500.29 641.367 1495.02 641.367 1489.39 644.414Z" fill="black"/>
<path d="M1559.7 644.414C1552.44 648.164 1550.56 653.438 1550.56 669.492C1550.56 685.781 1552.44 690.82 1559.94 694.688C1565.8 697.617 1570.48 697.617 1576.34 694.688C1583.84 690.82 1585.72 685.781 1585.72 669.492C1585.72 653.203 1583.84 648.164 1576.34 644.297C1570.6 641.367 1565.33 641.367 1559.7 644.414Z" fill="black"/>
<path d="M1630.02 644.414C1622.75 648.164 1620.88 653.438 1620.88 669.492C1620.88 685.781 1622.75 690.82 1630.25 694.688C1636.11 697.617 1640.8 697.617 1646.66 694.688C1654.16 690.82 1656.03 685.781 1656.03 669.492C1656.03 653.203 1654.16 648.164 1646.66 644.297C1640.91 641.367 1635.64 641.367 1630.02 644.414Z" fill="black"/>
<path d="M746.225 552.979C744.35 553.682 743.236 554.531 740.043 557.813C736.352 561.533 735.619 562.852 735.619 565.781C735.619 569.414 735.209 568.887 753.227 586.934L769.545 603.281H718.656C668.207 603.281 667.738 603.281 666.156 603.867C663.988 604.688 662.084 606.738 661.439 608.965C661.059 610.283 660.971 611.631 661.059 615.527C661.146 619.775 661.234 620.596 661.791 621.768C662.523 623.408 664.252 625.225 665.834 625.986C666.977 626.572 668.031 626.572 718.363 626.719L769.691 626.865L753.285 643.271C735.209 661.348 735.59 660.879 735.619 664.424C735.648 667.236 736.527 668.76 740.453 672.598C744.555 676.641 745.609 677.256 748.598 677.256C750.414 677.227 751.059 677.109 752.26 676.465C754.223 675.41 809.477 620.127 810.297 618.369C811.117 616.611 811.059 613.213 810.15 611.455C809.213 609.58 753.666 554.092 751.996 553.33C750.473 552.656 747.572 552.48 746.225 552.979Z" fill="black"/>
<path d="M146.023 468.114C145.795 465.614 144.784 463.67 142.989 462.284C141.216 460.875 138.682 460.17 135.386 460.17C133.205 460.17 131.386 460.455 129.932 461.023C128.477 461.591 127.386 462.375 126.659 463.375C125.932 464.352 125.557 465.477 125.534 466.75C125.489 467.795 125.693 468.716 126.148 469.511C126.625 470.307 127.307 471.011 128.193 471.625C129.102 472.216 130.193 472.739 131.466 473.193C132.739 473.648 134.17 474.045 135.761 474.386L141.761 475.75C145.216 476.5 148.261 477.5 150.898 478.75C153.557 480 155.784 481.489 157.58 483.216C159.398 484.943 160.773 486.932 161.705 489.182C162.636 491.432 163.114 493.955 163.136 496.75C163.114 501.159 162 504.943 159.795 508.102C157.591 511.261 154.42 513.682 150.284 515.364C146.17 517.045 141.205 517.886 135.386 517.886C129.545 517.886 124.455 517.011 120.114 515.261C115.773 513.511 112.398 510.852 109.989 507.284C107.58 503.716 106.341 499.205 106.273 493.75H122.432C122.568 496 123.17 497.875 124.239 499.375C125.307 500.875 126.773 502.011 128.636 502.784C130.523 503.557 132.705 503.943 135.182 503.943C137.455 503.943 139.386 503.636 140.977 503.023C142.591 502.409 143.83 501.557 144.693 500.466C145.557 499.375 146 498.125 146.023 496.716C146 495.398 145.591 494.273 144.795 493.341C144 492.386 142.773 491.568 141.114 490.886C139.477 490.182 137.386 489.534 134.841 488.943L127.545 487.239C121.5 485.852 116.739 483.614 113.261 480.523C109.784 477.409 108.057 473.205 108.08 467.909C108.057 463.591 109.216 459.807 111.557 456.557C113.898 453.307 117.136 450.773 121.273 448.955C125.409 447.136 130.125 446.227 135.42 446.227C140.83 446.227 145.523 447.148 149.5 448.989C153.5 450.807 156.602 453.364 158.807 456.659C161.011 459.955 162.136 463.773 162.182 468.114H146.023ZM201.216 464.636V476.909H168.182V464.636H201.216ZM175.102 452.091H191.773V500.534C191.773 501.557 191.932 502.386 192.25 503.023C192.591 503.636 193.08 504.08 193.716 504.352C194.352 504.602 195.114 504.727 196 504.727C196.636 504.727 197.307 504.67 198.011 504.557C198.739 504.42 199.284 504.307 199.648 504.216L202.17 516.25C201.375 516.477 200.25 516.761 198.795 517.102C197.364 517.443 195.648 517.659 193.648 517.75C189.739 517.932 186.386 517.477 183.591 516.386C180.818 515.273 178.693 513.545 177.216 511.205C175.761 508.864 175.057 505.92 175.102 502.375V452.091ZM224.483 517.886C221.142 517.886 218.176 517.33 215.585 516.216C213.017 515.08 210.983 513.375 209.483 511.102C208.006 508.807 207.267 505.932 207.267 502.477C207.267 499.568 207.778 497.114 208.801 495.114C209.824 493.114 211.233 491.489 213.028 490.239C214.824 488.989 216.892 488.045 219.233 487.409C221.574 486.75 224.074 486.307 226.733 486.08C229.71 485.807 232.108 485.523 233.926 485.227C235.744 484.909 237.063 484.466 237.881 483.898C238.722 483.307 239.142 482.477 239.142 481.409V481.239C239.142 479.489 238.54 478.136 237.335 477.182C236.131 476.227 234.506 475.75 232.46 475.75C230.256 475.75 228.483 476.227 227.142 477.182C225.801 478.136 224.949 479.455 224.585 481.136L209.21 480.591C209.665 477.409 210.835 474.568 212.722 472.068C214.631 469.545 217.244 467.568 220.562 466.136C223.903 464.682 227.915 463.955 232.597 463.955C235.938 463.955 239.017 464.352 241.835 465.148C244.653 465.92 247.108 467.057 249.199 468.557C251.29 470.034 252.903 471.852 254.04 474.011C255.199 476.17 255.778 478.636 255.778 481.409V517H240.097V509.705H239.688C238.756 511.477 237.563 512.977 236.108 514.205C234.676 515.432 232.983 516.352 231.028 516.966C229.097 517.58 226.915 517.886 224.483 517.886ZM229.631 506.977C231.426 506.977 233.04 506.614 234.472 505.886C235.926 505.159 237.085 504.159 237.949 502.886C238.813 501.591 239.244 500.091 239.244 498.386V493.409C238.767 493.659 238.188 493.886 237.506 494.091C236.847 494.295 236.119 494.489 235.324 494.67C234.528 494.852 233.71 495.011 232.869 495.148C232.028 495.284 231.222 495.409 230.449 495.523C228.881 495.773 227.54 496.159 226.426 496.682C225.335 497.205 224.494 497.886 223.903 498.727C223.335 499.545 223.051 500.523 223.051 501.659C223.051 503.386 223.665 504.705 224.892 505.614C226.142 506.523 227.722 506.977 229.631 506.977ZM265.972 517V464.636H282.165V474.182H282.71C283.665 470.727 285.222 468.159 287.381 466.477C289.54 464.773 292.051 463.92 294.915 463.92C295.688 463.92 296.483 463.977 297.301 464.091C298.119 464.182 298.881 464.33 299.585 464.534V479.023C298.79 478.75 297.744 478.534 296.449 478.375C295.176 478.216 294.04 478.136 293.04 478.136C291.063 478.136 289.278 478.58 287.688 479.466C286.119 480.33 284.881 481.545 283.972 483.114C283.085 484.659 282.642 486.477 282.642 488.568V517H265.972ZM338.372 464.636V476.909H305.338V464.636H338.372ZM312.259 452.091H328.929V500.534C328.929 501.557 329.088 502.386 329.406 503.023C329.747 503.636 330.236 504.08 330.872 504.352C331.509 504.602 332.27 504.727 333.156 504.727C333.793 504.727 334.463 504.67 335.168 504.557C335.895 504.42 336.44 504.307 336.804 504.216L339.327 516.25C338.531 516.477 337.406 516.761 335.952 517.102C334.52 517.443 332.804 517.659 330.804 517.75C326.895 517.932 323.543 517.477 320.747 516.386C317.974 515.273 315.849 513.545 314.372 511.205C312.918 508.864 312.213 505.92 312.259 502.375V452.091ZM405.241 468.114C405.014 465.614 404.003 463.67 402.207 462.284C400.435 460.875 397.901 460.17 394.605 460.17C392.423 460.17 390.605 460.455 389.151 461.023C387.696 461.591 386.605 462.375 385.878 463.375C385.151 464.352 384.776 465.477 384.753 466.75C384.707 467.795 384.912 468.716 385.366 469.511C385.844 470.307 386.526 471.011 387.412 471.625C388.321 472.216 389.412 472.739 390.685 473.193C391.957 473.648 393.389 474.045 394.98 474.386L400.98 475.75C404.435 476.5 407.48 477.5 410.116 478.75C412.776 480 415.003 481.489 416.798 483.216C418.616 484.943 419.991 486.932 420.923 489.182C421.855 491.432 422.332 493.955 422.355 496.75C422.332 501.159 421.219 504.943 419.014 508.102C416.81 511.261 413.639 513.682 409.503 515.364C405.389 517.045 400.423 517.886 394.605 517.886C388.764 517.886 383.673 517.011 379.332 515.261C374.991 513.511 371.616 510.852 369.207 507.284C366.798 503.716 365.56 499.205 365.491 493.75H381.651C381.787 496 382.389 497.875 383.457 499.375C384.526 500.875 385.991 502.011 387.855 502.784C389.741 503.557 391.923 503.943 394.401 503.943C396.673 503.943 398.605 503.636 400.196 503.023C401.81 502.409 403.048 501.557 403.912 500.466C404.776 499.375 405.219 498.125 405.241 496.716C405.219 495.398 404.81 494.273 404.014 493.341C403.219 492.386 401.991 491.568 400.332 490.886C398.696 490.182 396.605 489.534 394.06 488.943L386.764 487.239C380.719 485.852 375.957 483.614 372.48 480.523C369.003 477.409 367.276 473.205 367.298 467.909C367.276 463.591 368.435 459.807 370.776 456.557C373.116 453.307 376.355 450.773 380.491 448.955C384.628 447.136 389.344 446.227 394.639 446.227C400.048 446.227 404.741 447.148 408.719 448.989C412.719 450.807 415.821 453.364 418.026 456.659C420.23 459.955 421.355 463.773 421.401 468.114H405.241ZM455.321 517.989C449.798 517.989 445.06 516.852 441.105 514.58C437.173 512.307 434.151 509.148 432.037 505.102C429.923 501.034 428.866 496.33 428.866 490.989C428.866 485.625 429.923 480.92 432.037 476.875C434.173 472.807 437.207 469.636 441.139 467.364C445.094 465.091 449.81 463.955 455.287 463.955C460.128 463.955 464.344 464.83 467.935 466.58C471.548 468.33 474.366 470.807 476.389 474.011C478.435 477.193 479.514 480.932 479.628 485.227H464.048C463.73 482.545 462.821 480.443 461.321 478.92C459.844 477.398 457.912 476.636 455.526 476.636C453.594 476.636 451.901 477.182 450.446 478.273C448.991 479.341 447.855 480.932 447.037 483.045C446.241 485.136 445.844 487.727 445.844 490.818C445.844 493.909 446.241 496.523 447.037 498.659C447.855 500.773 448.991 502.375 450.446 503.466C451.901 504.534 453.594 505.068 455.526 505.068C457.071 505.068 458.435 504.739 459.616 504.08C460.821 503.42 461.81 502.455 462.582 501.182C463.355 499.886 463.844 498.318 464.048 496.477H479.628C479.469 500.795 478.389 504.568 476.389 507.795C474.412 511.023 471.628 513.534 468.037 515.33C464.469 517.102 460.23 517.989 455.321 517.989ZM502.92 517.886C499.58 517.886 496.614 517.33 494.023 516.216C491.455 515.08 489.42 513.375 487.92 511.102C486.443 508.807 485.705 505.932 485.705 502.477C485.705 499.568 486.216 497.114 487.239 495.114C488.261 493.114 489.67 491.489 491.466 490.239C493.261 488.989 495.33 488.045 497.67 487.409C500.011 486.75 502.511 486.307 505.17 486.08C508.148 485.807 510.545 485.523 512.364 485.227C514.182 484.909 515.5 484.466 516.318 483.898C517.159 483.307 517.58 482.477 517.58 481.409V481.239C517.58 479.489 516.977 478.136 515.773 477.182C514.568 476.227 512.943 475.75 510.898 475.75C508.693 475.75 506.92 476.227 505.58 477.182C504.239 478.136 503.386 479.455 503.023 481.136L487.648 480.591C488.102 477.409 489.273 474.568 491.159 472.068C493.068 469.545 495.682 467.568 499 466.136C502.341 464.682 506.352 463.955 511.034 463.955C514.375 463.955 517.455 464.352 520.273 465.148C523.091 465.92 525.545 467.057 527.636 468.557C529.727 470.034 531.341 471.852 532.477 474.011C533.636 476.17 534.216 478.636 534.216 481.409V517H518.534V509.705H518.125C517.193 511.477 516 512.977 514.545 514.205C513.114 515.432 511.42 516.352 509.466 516.966C507.534 517.58 505.352 517.886 502.92 517.886ZM508.068 506.977C509.864 506.977 511.477 506.614 512.909 505.886C514.364 505.159 515.523 504.159 516.386 502.886C517.25 501.591 517.682 500.091 517.682 498.386V493.409C517.205 493.659 516.625 493.886 515.943 494.091C515.284 494.295 514.557 494.489 513.761 494.67C512.966 494.852 512.148 495.011 511.307 495.148C510.466 495.284 509.659 495.409 508.886 495.523C507.318 495.773 505.977 496.159 504.864 496.682C503.773 497.205 502.932 497.886 502.341 498.727C501.773 499.545 501.489 500.523 501.489 501.659C501.489 503.386 502.102 504.705 503.33 505.614C504.58 506.523 506.159 506.977 508.068 506.977ZM561.08 487.136V517H544.409V464.636H560.261V474.25H560.841C562 471.045 563.977 468.534 566.773 466.716C569.568 464.875 572.898 463.955 576.761 463.955C580.443 463.955 583.636 464.784 586.341 466.443C589.068 468.08 591.182 470.375 592.682 473.33C594.205 476.261 594.955 479.693 594.932 483.625V517H578.261V486.898C578.284 483.989 577.545 481.716 576.045 480.08C574.568 478.443 572.511 477.625 569.875 477.625C568.125 477.625 566.58 478.011 565.239 478.784C563.92 479.534 562.898 480.614 562.17 482.023C561.466 483.432 561.102 485.136 561.08 487.136ZM621.923 487.136V517H605.253V464.636H621.105V474.25H621.685C622.844 471.045 624.821 468.534 627.616 466.716C630.412 464.875 633.741 463.955 637.605 463.955C641.287 463.955 644.48 464.784 647.185 466.443C649.912 468.08 652.026 470.375 653.526 473.33C655.048 476.261 655.798 479.693 655.776 483.625V517H639.105V486.898C639.128 483.989 638.389 481.716 636.889 480.08C635.412 478.443 633.355 477.625 630.719 477.625C628.969 477.625 627.423 478.011 626.082 478.784C624.764 479.534 623.741 480.614 623.014 482.023C622.31 483.432 621.946 485.136 621.923 487.136ZM666.097 517V464.636H682.767V517H666.097ZM674.449 458.534C672.108 458.534 670.097 457.761 668.415 456.216C666.733 454.648 665.892 452.761 665.892 450.557C665.892 448.375 666.733 446.511 668.415 444.966C670.097 443.398 672.108 442.614 674.449 442.614C676.813 442.614 678.824 443.398 680.483 444.966C682.165 446.511 683.006 448.375 683.006 450.557C683.006 452.761 682.165 454.648 680.483 456.216C678.824 457.761 676.813 458.534 674.449 458.534ZM710.048 487.136V517H693.378V464.636H709.23V474.25H709.81C710.969 471.045 712.946 468.534 715.741 466.716C718.537 464.875 721.866 463.955 725.73 463.955C729.412 463.955 732.605 464.784 735.31 466.443C738.037 468.08 740.151 470.375 741.651 473.33C743.173 476.261 743.923 479.693 743.901 483.625V517H727.23V486.898C727.253 483.989 726.514 481.716 725.014 480.08C723.537 478.443 721.48 477.625 718.844 477.625C717.094 477.625 715.548 478.011 714.207 478.784C712.889 479.534 711.866 480.614 711.139 482.023C710.435 483.432 710.071 485.136 710.048 487.136ZM778.631 537.727C773.653 537.727 769.392 537.034 765.847 535.648C762.301 534.261 759.517 532.364 757.494 529.955C755.472 527.545 754.256 524.818 753.847 521.773L769.631 520.886C769.926 521.955 770.472 522.886 771.267 523.682C772.085 524.477 773.142 525.091 774.438 525.523C775.756 525.955 777.301 526.17 779.074 526.17C781.869 526.17 784.176 525.489 785.994 524.125C787.835 522.784 788.756 520.432 788.756 517.068V507.864H788.176C787.517 509.477 786.517 510.92 785.176 512.193C783.835 513.466 782.165 514.466 780.165 515.193C778.188 515.92 775.915 516.284 773.347 516.284C769.528 516.284 766.028 515.398 762.847 513.625C759.688 511.83 757.153 509.057 755.244 505.307C753.358 501.534 752.415 496.682 752.415 490.75C752.415 484.636 753.392 479.602 755.347 475.648C757.301 471.67 759.858 468.727 763.017 466.818C766.199 464.909 769.619 463.955 773.278 463.955C776.028 463.955 778.381 464.432 780.335 465.386C782.313 466.318 783.938 467.523 785.21 469C786.483 470.477 787.449 472.011 788.108 473.602H788.585V464.636H805.188V517.205C805.188 521.636 804.074 525.375 801.847 528.42C799.619 531.466 796.506 533.773 792.506 535.341C788.506 536.932 783.881 537.727 778.631 537.727ZM779.142 504.148C781.165 504.148 782.892 503.614 784.324 502.545C785.756 501.477 786.858 499.943 787.631 497.943C788.403 495.943 788.79 493.545 788.79 490.75C788.79 487.909 788.403 485.466 787.631 483.42C786.881 481.352 785.778 479.761 784.324 478.648C782.892 477.534 781.165 476.977 779.142 476.977C777.074 476.977 775.324 477.545 773.892 478.682C772.46 479.818 771.369 481.42 770.619 483.489C769.892 485.534 769.528 487.955 769.528 490.75C769.528 493.545 769.903 495.943 770.653 497.943C771.403 499.943 772.483 501.477 773.892 502.545C775.324 503.614 777.074 504.148 779.142 504.148Z" fill="#1E1E1E"/>
</svg>
