<svg width="1920" height="1080" viewBox="0 0 1920 1080" fill="none" xmlns="http://www.w3.org/2000/svg">
<rect width="1920" height="1080" fill="white"/>
<path fill-rule="evenodd" clip-rule="evenodd" d="M1377.36 0L0 0V1080H1377.36C1210.88 950.859 1105 756.883 1105 540C1105 323.117 1210.88 129.141 1377.36 0Z" fill="#D9D9D9"/>
<g clip-path="url(#clip0_2_66)">
<mask id="mask0_2_66" style="mask-type:luminance" maskUnits="userSpaceOnUse" x="1258" y="240" width="600" height="600">
<path d="M1858 240H1258V840H1858V240Z" fill="white"/>
</mask>
<g mask="url(#mask0_2_66)">
<path d="M1287.78 313.662L1287.78 313.664C1275.95 317.26 1267.37 324.789 1262.03 336.281L1262.03 336.283L1259.02 342.641L1258.67 384.381C1258.5 404.543 1258.44 415.017 1258.72 421.021C1258.86 424.023 1259.08 425.884 1259.4 427.271C1259.73 428.647 1260.16 429.569 1260.73 430.7L1260.74 430.703C1262.04 433.313 1264.32 435.63 1267.01 437.294C1269.69 438.96 1272.75 439.953 1275.58 439.953C1278.41 439.953 1281.47 438.96 1284.15 437.308C1286.84 435.657 1289.12 433.369 1290.42 430.818L1290.42 430.817C1290.97 429.752 1291.38 428.821 1291.69 427.467C1292.01 426.103 1292.23 424.298 1292.38 421.487C1292.69 415.862 1292.72 406.298 1292.72 388.361C1292.72 371.842 1292.78 362.25 1293.04 356.597C1293.17 353.774 1293.36 351.91 1293.62 350.65C1293.87 349.4 1294.22 348.679 1294.72 348.207C1295.19 347.704 1295.91 347.36 1297.16 347.102C1298.42 346.842 1300.29 346.658 1303.11 346.526C1308.76 346.261 1318.36 346.203 1334.88 346.203C1352.81 346.203 1362.38 346.174 1368 345.867C1370.81 345.713 1372.62 345.492 1373.98 345.176C1375.33 344.863 1376.27 344.454 1377.33 343.908C1379.88 342.603 1382.17 340.323 1383.82 337.638C1385.47 334.953 1386.47 331.897 1386.47 329.064C1386.47 326.232 1385.47 323.176 1383.82 320.491C1382.17 317.806 1379.88 315.525 1377.33 314.221C1376.27 313.674 1375.34 313.266 1373.97 312.955C1372.58 312.641 1370.72 312.423 1367.78 312.277C1361.91 311.984 1351.82 311.984 1332.77 312.043H1332.77C1317.88 312.043 1307.52 312.16 1300.42 312.423C1293.3 312.688 1289.53 313.099 1287.78 313.662Z" fill="#252E3D" stroke="#252E3D"/>
<path fill-rule="evenodd" clip-rule="evenodd" d="M1330.66 392.345C1332.06 389.533 1334.76 386.838 1337.45 385.432C1346.24 380.744 1356.79 383.791 1361.12 392.345C1362.86 395.738 1363.31 397.71 1363.43 456.213H1328.35C1328.47 397.773 1328.92 395.737 1330.66 392.345ZM1328.35 623.205C1328.47 682.28 1328.91 684.253 1330.66 687.657C1333.35 692.931 1340.03 697.033 1345.89 697.033C1351.75 697.033 1358.43 692.931 1361.12 687.657C1362.87 684.253 1363.32 682.28 1363.43 623.205H1328.35Z" fill="#252E3D"/>
<mask id="mask1_2_66" style="mask-type:luminance" maskUnits="userSpaceOnUse" x="1328" y="383" width="36" height="315">
<path fill-rule="evenodd" clip-rule="evenodd" d="M1330.66 392.345C1332.06 389.533 1334.76 386.838 1337.45 385.432C1346.24 380.744 1356.79 383.791 1361.12 392.345C1362.86 395.738 1363.31 397.71 1363.43 456.213H1328.35C1328.47 397.773 1328.92 395.737 1330.66 392.345ZM1328.35 623.205C1328.47 682.28 1328.91 684.253 1330.66 687.657C1333.35 692.931 1340.03 697.033 1345.89 697.033C1351.75 697.033 1358.43 692.931 1361.12 687.657C1362.87 684.253 1363.32 682.28 1363.43 623.205H1328.35Z" fill="white"/>
</mask>
<g mask="url(#mask1_2_66)">
<path d="M1337.45 385.432L1337.86 386.21L1337.87 386.207L1337.45 385.432ZM1330.66 392.345L1331.44 392.747L1331.44 392.738L1330.66 392.345ZM1361.12 392.345L1360.34 392.742L1360.34 392.747L1361.12 392.345ZM1363.43 456.213V457.092H1364.31L1364.31 456.211L1363.43 456.213ZM1328.35 456.213L1327.47 456.211L1327.47 457.092H1328.35V456.213ZM1328.35 623.205V622.326H1327.47L1327.47 623.206L1328.35 623.205ZM1330.66 687.657L1331.44 687.258L1331.44 687.257L1330.66 687.657ZM1361.12 687.657L1360.34 687.257L1360.34 687.258L1361.12 687.657ZM1363.43 623.205L1364.31 623.206L1364.31 622.326H1363.43V623.205ZM1337.05 384.652C1334.19 386.143 1331.36 388.972 1329.87 391.952L1331.44 392.738C1332.76 390.094 1335.33 387.532 1337.86 386.21L1337.05 384.652ZM1361.91 391.948C1357.33 382.921 1346.23 379.755 1337.04 384.656L1337.87 386.207C1346.26 381.733 1356.24 384.661 1360.34 392.742L1361.91 391.948ZM1364.31 456.211C1364.25 426.966 1364.11 411.827 1363.76 403.576C1363.59 399.456 1363.37 397.01 1363.07 395.37C1362.76 393.687 1362.37 392.845 1361.91 391.944L1360.34 392.747C1360.75 393.541 1361.07 394.218 1361.34 395.687C1361.62 397.199 1361.84 399.541 1362.01 403.65C1362.35 411.858 1362.49 426.956 1362.55 456.214L1364.31 456.211ZM1328.35 457.092H1363.43V455.334H1328.35V457.092ZM1329.87 391.944C1329.41 392.846 1329.02 393.693 1328.71 395.38C1328.41 397.024 1328.19 399.475 1328.02 403.6C1327.67 411.859 1327.53 426.998 1327.47 456.211L1329.23 456.214C1329.29 426.988 1329.43 411.889 1329.77 403.673C1329.95 399.56 1330.17 397.213 1330.44 395.696C1330.71 394.221 1331.03 393.54 1331.44 392.747L1329.87 391.944ZM1327.47 623.206C1327.53 652.738 1327.67 668.02 1328.01 676.344C1328.19 680.501 1328.41 682.965 1328.71 684.616C1329.02 686.31 1329.41 687.155 1329.87 688.059L1331.44 687.257C1331.03 686.459 1330.71 685.78 1330.44 684.301C1330.16 682.778 1329.94 680.418 1329.77 676.271C1329.43 667.989 1329.29 652.746 1329.23 623.203L1327.47 623.206ZM1329.87 688.057C1331.31 690.866 1333.78 693.32 1336.63 695.071C1339.47 696.823 1342.77 697.912 1345.89 697.912V696.154C1343.16 696.154 1340.18 695.192 1337.55 693.574C1334.92 691.956 1332.7 689.724 1331.44 687.258L1329.87 688.057ZM1345.89 697.912C1349.02 697.912 1352.31 696.823 1355.16 695.071C1358 693.32 1360.47 690.866 1361.91 688.057L1360.34 687.258C1359.08 689.724 1356.86 691.956 1354.23 693.574C1351.6 695.192 1348.63 696.154 1345.89 696.154V697.912ZM1361.91 688.059C1362.37 687.155 1362.76 686.31 1363.07 684.616C1363.37 682.965 1363.6 680.501 1363.77 676.344C1364.11 668.02 1364.25 652.738 1364.31 623.206L1362.55 623.203C1362.49 652.746 1362.35 667.989 1362.01 676.271C1361.84 680.418 1361.62 682.778 1361.34 684.301C1361.07 685.78 1360.75 686.459 1360.34 687.257L1361.91 688.059ZM1363.43 622.326H1328.35V624.084H1363.43V622.326Z" fill="#252E3D"/>
</g>
<path fill-rule="evenodd" clip-rule="evenodd" d="M1400.97 392.345C1402.38 389.533 1405.07 386.838 1407.77 385.432C1416.55 380.744 1427.1 383.791 1431.44 392.345C1433.42 396.121 1433.73 398.295 1433.77 456.213H1398.63C1398.68 398.295 1398.98 396.121 1400.97 392.345Z" fill="#252E3D"/>
<mask id="mask2_2_66" style="mask-type:luminance" maskUnits="userSpaceOnUse" x="1398" y="383" width="36" height="74">
<path fill-rule="evenodd" clip-rule="evenodd" d="M1400.97 392.345C1402.38 389.533 1405.07 386.838 1407.77 385.432C1416.55 380.744 1427.1 383.791 1431.44 392.345C1433.42 396.121 1433.73 398.295 1433.77 456.213H1398.63C1398.68 398.295 1398.98 396.121 1400.97 392.345Z" fill="white"/>
</mask>
<g mask="url(#mask2_2_66)">
<path d="M1407.77 385.432L1408.17 386.21L1408.18 386.207L1407.77 385.432ZM1400.97 392.345L1401.75 392.755L1401.75 392.747L1401.75 392.738L1400.97 392.345ZM1431.44 392.345L1430.65 392.742L1430.66 392.749L1430.66 392.755L1431.44 392.345ZM1433.77 456.213V457.092H1434.65V456.212L1433.77 456.213ZM1398.63 456.213L1397.75 456.212V457.092H1398.63V456.213ZM1407.36 384.652C1404.5 386.143 1401.67 388.972 1400.18 391.952L1401.75 392.738C1403.08 390.094 1405.64 387.532 1408.17 386.21L1407.36 384.652ZM1432.22 391.948C1427.65 382.921 1416.54 379.755 1407.35 384.656L1408.18 386.207C1416.57 381.733 1426.56 384.661 1430.65 392.742L1432.22 391.948ZM1434.65 456.212C1434.63 427.261 1434.54 412.217 1434.21 403.941C1434.05 399.807 1433.82 397.317 1433.5 395.61C1433.17 393.862 1432.74 392.934 1432.21 391.936L1430.66 392.755C1431.13 393.644 1431.48 394.404 1431.77 395.935C1432.07 397.508 1432.29 399.89 1432.45 404.011C1432.78 412.244 1432.87 427.247 1432.89 456.214L1434.65 456.212ZM1398.63 457.092H1433.77V455.334H1398.63V457.092ZM1400.19 391.936C1399.67 392.934 1399.24 393.862 1398.91 395.61C1398.59 397.317 1398.36 399.807 1398.2 403.941C1397.86 412.217 1397.78 427.261 1397.75 456.212L1399.51 456.214C1399.54 427.247 1399.62 412.244 1399.95 404.011C1400.12 399.89 1400.34 397.508 1400.64 395.935C1400.92 394.404 1401.28 393.644 1401.75 392.755L1400.19 391.936Z" fill="#252E3D"/>
</g>
<path fill-rule="evenodd" clip-rule="evenodd" d="M1471.28 392.345C1472.69 389.533 1475.38 386.838 1478.08 385.432C1486.87 380.744 1497.41 383.791 1501.75 392.345C1503.49 395.738 1503.94 397.71 1504.05 456.213H1468.98C1469.09 397.773 1469.54 395.737 1471.28 392.345ZM1468.98 623.205C1469.09 682.28 1469.54 684.253 1471.28 687.657C1473.98 692.931 1480.66 697.033 1486.52 697.033C1492.38 697.033 1499.05 692.931 1501.75 687.657C1503.5 684.253 1503.94 682.28 1504.05 623.205H1468.98Z" fill="#252E3D"/>
<mask id="mask3_2_66" style="mask-type:luminance" maskUnits="userSpaceOnUse" x="1468" y="383" width="37" height="315">
<path fill-rule="evenodd" clip-rule="evenodd" d="M1471.28 392.345C1472.69 389.533 1475.38 386.838 1478.08 385.432C1486.87 380.744 1497.41 383.791 1501.75 392.345C1503.49 395.738 1503.94 397.71 1504.05 456.213H1468.98C1469.09 397.773 1469.54 395.737 1471.28 392.345ZM1468.98 623.205C1469.09 682.28 1469.54 684.253 1471.28 687.657C1473.98 692.931 1480.66 697.033 1486.52 697.033C1492.38 697.033 1499.05 692.931 1501.75 687.657C1503.5 684.253 1503.94 682.28 1504.05 623.205H1468.98Z" fill="white"/>
</mask>
<g mask="url(#mask3_2_66)">
<path d="M1478.08 385.432L1478.49 386.21L1478.49 386.207L1478.08 385.432ZM1471.28 392.345L1472.06 392.747L1472.07 392.738L1471.28 392.345ZM1501.75 392.345L1500.97 392.742L1500.97 392.747L1501.75 392.345ZM1504.05 456.213V457.092H1504.93L1504.93 456.211L1504.05 456.213ZM1468.98 456.213L1468.1 456.211L1468.1 457.092H1468.98V456.213ZM1468.98 623.205V622.326H1468.1L1468.1 623.206L1468.98 623.205ZM1471.28 687.657L1472.06 687.258L1472.06 687.257L1471.28 687.657ZM1501.75 687.657L1500.97 687.257L1500.97 687.258L1501.75 687.657ZM1504.06 623.205L1504.93 623.206L1504.94 622.326H1504.06V623.205ZM1477.67 384.652C1474.81 386.143 1471.99 388.972 1470.49 391.952L1472.07 392.738C1473.39 390.094 1475.95 387.532 1478.49 386.21L1477.67 384.652ZM1502.53 391.948C1497.96 382.921 1486.85 379.755 1477.66 384.656L1478.49 386.207C1486.88 381.733 1496.87 384.661 1500.97 392.742L1502.53 391.948ZM1504.93 456.211C1504.88 426.966 1504.73 411.827 1504.39 403.576C1504.22 399.456 1503.99 397.01 1503.69 395.37C1503.38 393.687 1502.99 392.845 1502.53 391.944L1500.97 392.747C1501.38 393.541 1501.69 394.218 1501.96 395.687C1502.24 397.199 1502.46 399.541 1502.63 403.65C1502.98 411.858 1503.12 426.956 1503.17 456.214L1504.93 456.211ZM1468.98 457.092H1504.05V455.334H1468.98V457.092ZM1470.5 391.944C1470.04 392.846 1469.65 393.693 1469.34 395.38C1469.04 397.024 1468.81 399.475 1468.64 403.6C1468.3 411.859 1468.16 426.998 1468.1 456.211L1469.86 456.214C1469.91 426.988 1470.06 411.889 1470.4 403.673C1470.57 399.56 1470.79 397.213 1471.07 395.696C1471.34 394.221 1471.66 393.54 1472.06 392.747L1470.5 391.944ZM1468.1 623.206C1468.15 652.738 1468.29 668.02 1468.64 676.344C1468.81 680.501 1469.04 682.965 1469.34 684.616C1469.64 686.31 1470.04 687.155 1470.5 688.059L1472.06 687.257C1471.65 686.459 1471.34 685.78 1471.07 684.301C1470.79 682.778 1470.57 680.418 1470.39 676.271C1470.05 667.989 1469.91 652.746 1469.86 623.203L1468.1 623.206ZM1470.5 688.057C1471.93 690.866 1474.4 693.32 1477.25 695.071C1480.1 696.823 1483.39 697.912 1486.52 697.912V696.154C1483.78 696.154 1480.8 695.192 1478.17 693.574C1475.54 691.956 1473.32 689.724 1472.06 687.258L1470.5 688.057ZM1486.52 697.912C1489.64 697.912 1492.93 696.823 1495.78 695.071C1498.63 693.32 1501.1 690.866 1502.53 688.057L1500.97 687.258C1499.71 689.724 1497.49 691.956 1494.86 693.574C1492.23 695.192 1489.25 696.154 1486.52 696.154V697.912ZM1502.53 688.059C1503 687.155 1503.39 686.31 1503.7 684.616C1504 682.965 1504.22 680.501 1504.39 676.344C1504.74 668.02 1504.88 652.738 1504.93 623.206L1503.18 623.203C1503.12 652.746 1502.98 667.989 1502.64 676.271C1502.46 680.418 1502.24 682.778 1501.97 684.301C1501.7 685.78 1501.38 686.459 1500.97 687.257L1502.53 688.059ZM1504.06 622.326H1468.98V624.084H1504.06V622.326Z" fill="#252E3D"/>
</g>
<path fill-rule="evenodd" clip-rule="evenodd" d="M1541.59 392.345C1543 389.533 1545.69 386.838 1548.39 385.432C1557.18 380.744 1567.73 383.791 1572.06 392.345C1574.05 396.121 1574.35 398.295 1574.4 456.213H1539.26C1539.3 398.295 1539.61 396.121 1541.59 392.345Z" fill="#252E3D"/>
<mask id="mask4_2_66" style="mask-type:luminance" maskUnits="userSpaceOnUse" x="1539" y="383" width="36" height="74">
<path fill-rule="evenodd" clip-rule="evenodd" d="M1541.59 392.345C1543 389.533 1545.69 386.838 1548.39 385.432C1557.18 380.744 1567.73 383.791 1572.06 392.345C1574.05 396.121 1574.35 398.295 1574.4 456.213H1539.26C1539.3 398.295 1539.61 396.121 1541.59 392.345Z" fill="white"/>
</mask>
<g mask="url(#mask4_2_66)">
<path d="M1548.39 385.432L1548.8 386.21L1548.8 386.207L1548.39 385.432ZM1541.59 392.345L1542.37 392.755L1542.38 392.747L1542.38 392.738L1541.59 392.345ZM1572.06 392.345L1571.28 392.742L1571.28 392.749L1571.28 392.755L1572.06 392.345ZM1574.4 456.213V457.092H1575.28V456.212L1574.4 456.213ZM1539.26 456.213L1538.38 456.212V457.092H1539.26V456.213ZM1547.98 384.652C1545.13 386.143 1542.3 388.972 1540.81 391.952L1542.38 392.738C1543.7 390.094 1546.26 387.532 1548.8 386.21L1547.98 384.652ZM1572.85 391.948C1568.27 382.921 1557.17 379.755 1547.98 384.656L1548.8 386.207C1557.19 381.733 1567.18 384.661 1571.28 392.742L1572.85 391.948ZM1575.28 456.212C1575.25 427.261 1575.17 412.217 1574.84 403.941C1574.67 399.807 1574.44 397.317 1574.12 395.61C1573.79 393.862 1573.37 392.934 1572.84 391.936L1571.28 392.755C1571.75 393.644 1572.11 394.404 1572.4 395.935C1572.69 397.508 1572.92 399.89 1573.08 404.011C1573.41 412.244 1573.5 427.247 1573.52 456.214L1575.28 456.212ZM1539.26 457.092H1574.4V455.334H1539.26V457.092ZM1540.82 391.936C1540.29 392.934 1539.86 393.862 1539.53 395.61C1539.21 397.317 1538.99 399.807 1538.82 403.941C1538.49 412.217 1538.4 427.261 1538.38 456.212L1540.14 456.214C1540.16 427.247 1540.25 412.244 1540.58 404.011C1540.74 399.89 1540.96 397.508 1541.26 395.935C1541.55 394.404 1541.9 393.644 1542.37 392.755L1540.82 391.936Z" fill="#252E3D"/>
</g>
<path fill-rule="evenodd" clip-rule="evenodd" d="M1611.91 392.345C1613.31 389.533 1616.01 386.838 1618.7 385.432C1627.49 380.744 1638.04 383.791 1642.37 392.345C1644.36 396.121 1644.66 398.295 1644.71 456.213H1609.57C1609.62 398.295 1609.92 396.121 1611.91 392.345Z" fill="#252E3D"/>
<mask id="mask5_2_66" style="mask-type:luminance" maskUnits="userSpaceOnUse" x="1609" y="383" width="36" height="74">
<path fill-rule="evenodd" clip-rule="evenodd" d="M1611.91 392.345C1613.31 389.533 1616.01 386.838 1618.7 385.432C1627.49 380.744 1638.04 383.791 1642.37 392.345C1644.36 396.121 1644.66 398.295 1644.71 456.213H1609.57C1609.62 398.295 1609.92 396.121 1611.91 392.345Z" fill="white"/>
</mask>
<g mask="url(#mask5_2_66)">
<path d="M1618.7 385.432L1619.11 386.21L1619.12 386.207L1618.7 385.432ZM1611.91 392.345L1612.68 392.755L1612.69 392.747L1612.69 392.738L1611.91 392.345ZM1642.37 392.345L1641.59 392.742L1641.59 392.749L1641.6 392.755L1642.37 392.345ZM1644.71 456.213V457.092H1645.59V456.212L1644.71 456.213ZM1609.57 456.213L1608.69 456.212V457.092H1609.57V456.213ZM1618.3 384.652C1615.44 386.143 1612.61 388.972 1611.12 391.952L1612.69 392.738C1614.01 390.094 1616.58 387.532 1619.11 386.21L1618.3 384.652ZM1643.16 391.948C1638.58 382.921 1627.48 379.755 1618.29 384.656L1619.12 386.207C1627.5 381.733 1637.49 384.661 1641.59 392.742L1643.16 391.948ZM1645.59 456.212C1645.57 427.261 1645.48 412.217 1645.15 403.941C1644.98 399.807 1644.76 397.317 1644.44 395.61C1644.11 393.862 1643.68 392.934 1643.15 391.936L1641.6 392.755C1642.07 393.644 1642.42 394.404 1642.71 395.935C1643 397.508 1643.23 399.89 1643.39 404.011C1643.72 412.244 1643.81 427.247 1643.83 456.214L1645.59 456.212ZM1609.57 457.092H1644.71V455.334H1609.57V457.092ZM1611.13 391.936C1610.6 392.934 1610.17 393.862 1609.85 395.61C1609.52 397.317 1609.3 399.807 1609.13 403.941C1608.8 412.217 1608.72 427.261 1608.69 456.212L1610.45 456.214C1610.47 427.247 1610.56 412.244 1610.89 404.011C1611.05 399.89 1611.28 397.508 1611.57 395.935C1611.86 394.404 1612.22 393.644 1612.68 392.755L1611.13 391.936Z" fill="#252E3D"/>
</g>
<path fill-rule="evenodd" clip-rule="evenodd" d="M1682.22 392.345C1683.63 389.533 1686.32 386.838 1689.02 385.432C1697.8 380.744 1708.35 383.791 1712.69 392.345C1714.67 396.121 1714.98 398.295 1715.02 456.213H1679.88C1679.93 398.295 1680.23 396.121 1682.22 392.345Z" fill="#252E3D"/>
<mask id="mask6_2_66" style="mask-type:luminance" maskUnits="userSpaceOnUse" x="1679" y="383" width="37" height="74">
<path fill-rule="evenodd" clip-rule="evenodd" d="M1682.22 392.345C1683.63 389.533 1686.32 386.838 1689.02 385.432C1697.8 380.744 1708.35 383.791 1712.69 392.345C1714.67 396.121 1714.98 398.295 1715.02 456.213H1679.88C1679.93 398.295 1680.23 396.121 1682.22 392.345Z" fill="white"/>
</mask>
<g mask="url(#mask6_2_66)">
<path d="M1689.02 385.432L1689.42 386.21L1689.43 386.207L1689.02 385.432ZM1682.22 392.345L1683 392.755L1683 392.747L1683 392.738L1682.22 392.345ZM1712.69 392.345L1711.9 392.742L1711.91 392.749L1711.91 392.755L1712.69 392.345ZM1715.02 456.213V457.092H1715.9V456.212L1715.02 456.213ZM1679.88 456.213L1679 456.212V457.092H1679.88V456.213ZM1688.61 384.652C1685.75 386.143 1682.92 388.972 1681.43 391.952L1683 392.738C1684.33 390.094 1686.89 387.532 1689.42 386.21L1688.61 384.652ZM1713.47 391.948C1708.9 382.921 1697.79 379.755 1688.6 384.656L1689.43 386.207C1697.82 381.733 1707.81 384.661 1711.9 392.742L1713.47 391.948ZM1715.9 456.212C1715.88 427.261 1715.79 412.217 1715.46 403.941C1715.3 399.807 1715.07 397.317 1714.75 395.61C1714.42 393.862 1713.99 392.934 1713.46 391.936L1711.91 392.755C1712.38 393.644 1712.73 394.404 1713.02 395.935C1713.32 397.508 1713.54 399.89 1713.7 404.011C1714.03 412.244 1714.12 427.247 1714.14 456.214L1715.9 456.212ZM1679.88 457.092H1715.02V455.334H1679.88V457.092ZM1681.44 391.936C1680.92 392.934 1680.49 393.862 1680.16 395.61C1679.84 397.317 1679.61 399.807 1679.44 403.941C1679.11 412.217 1679.03 427.261 1679 456.212L1680.76 456.214C1680.79 427.247 1680.87 412.244 1681.2 404.011C1681.37 399.89 1681.59 397.508 1681.89 395.935C1682.17 394.404 1682.53 393.644 1683 392.755L1681.44 391.936Z" fill="#252E3D"/>
</g>
<path fill-rule="evenodd" clip-rule="evenodd" d="M1752.53 392.345C1753.94 389.533 1756.63 386.838 1759.33 385.432C1768.12 380.744 1778.66 383.791 1783 392.345C1784.74 395.738 1785.19 397.71 1785.3 456.213H1750.23C1750.34 397.773 1750.79 395.737 1752.53 392.345ZM1750.23 623.205C1750.34 682.28 1750.79 684.253 1752.53 687.657C1755.23 692.931 1761.91 697.033 1767.77 697.033C1773.63 697.033 1780.3 692.931 1783 687.657C1784.75 684.253 1785.19 682.28 1785.3 623.205H1750.23Z" fill="#252E3D"/>
<mask id="mask7_2_66" style="mask-type:luminance" maskUnits="userSpaceOnUse" x="1750" y="383" width="36" height="315">
<path fill-rule="evenodd" clip-rule="evenodd" d="M1752.53 392.345C1753.94 389.533 1756.63 386.838 1759.33 385.432C1768.12 380.744 1778.66 383.791 1783 392.345C1784.74 395.738 1785.19 397.71 1785.3 456.213H1750.23C1750.34 397.773 1750.79 395.737 1752.53 392.345ZM1750.23 623.205C1750.34 682.28 1750.79 684.253 1752.53 687.657C1755.23 692.931 1761.91 697.033 1767.77 697.033C1773.63 697.033 1780.3 692.931 1783 687.657C1784.75 684.253 1785.19 682.28 1785.3 623.205H1750.23Z" fill="white"/>
</mask>
<g mask="url(#mask7_2_66)">
<path d="M1759.33 385.432L1759.73 386.21L1759.74 386.207L1759.33 385.432ZM1752.53 392.345L1753.31 392.747L1753.32 392.738L1752.53 392.345ZM1783 392.345L1782.22 392.742L1782.22 392.747L1783 392.345ZM1785.3 456.213V457.092H1786.18L1786.18 456.211L1785.3 456.213ZM1750.23 456.213L1749.35 456.211L1749.35 457.092H1750.23V456.213ZM1750.23 623.205V622.326H1749.35L1749.35 623.206L1750.23 623.205ZM1752.53 687.657L1753.31 687.258L1753.31 687.257L1752.53 687.657ZM1783 687.657L1782.22 687.257V687.258L1783 687.657ZM1785.3 623.205L1786.18 623.206L1786.19 622.326H1785.3V623.205ZM1758.92 384.652C1756.06 386.143 1753.24 388.972 1751.74 391.952L1753.32 392.738C1754.64 390.094 1757.2 387.532 1759.73 386.21L1758.92 384.652ZM1783.78 391.948C1779.21 382.921 1768.1 379.755 1758.91 384.656L1759.74 386.207C1768.13 381.733 1778.12 384.661 1782.22 392.742L1783.78 391.948ZM1786.18 456.211C1786.12 426.966 1785.98 411.827 1785.64 403.576C1785.47 399.456 1785.24 397.01 1784.94 395.37C1784.63 393.687 1784.24 392.845 1783.78 391.944L1782.22 392.747C1782.63 393.541 1782.94 394.218 1783.21 395.687C1783.49 397.199 1783.71 399.541 1783.88 403.65C1784.23 411.858 1784.37 426.956 1784.42 456.214L1786.18 456.211ZM1750.23 457.092H1785.3V455.334H1750.23V457.092ZM1751.75 391.944C1751.29 392.846 1750.9 393.693 1750.59 395.38C1750.29 397.024 1750.06 399.475 1749.89 403.6C1749.55 411.859 1749.41 426.998 1749.35 456.211L1751.11 456.214C1751.16 426.988 1751.31 411.889 1751.65 403.673C1751.82 399.56 1752.04 397.213 1752.32 395.696C1752.59 394.221 1752.91 393.54 1753.31 392.747L1751.75 391.944ZM1749.35 623.206C1749.4 652.738 1749.54 668.02 1749.89 676.344C1750.06 680.501 1750.28 682.965 1750.59 684.616C1750.89 686.31 1751.29 687.155 1751.75 688.059L1753.31 687.257C1752.9 686.459 1752.59 685.78 1752.32 684.301C1752.04 682.778 1751.82 680.418 1751.64 676.271C1751.3 667.989 1751.16 652.746 1751.1 623.203L1749.35 623.206ZM1751.75 688.057C1753.18 690.866 1755.65 693.32 1758.5 695.071C1761.35 696.823 1764.64 697.912 1767.77 697.912V696.154C1765.03 696.154 1762.05 695.192 1759.42 693.574C1756.79 691.956 1754.57 689.724 1753.31 687.258L1751.75 688.057ZM1767.77 697.912C1770.89 697.912 1774.18 696.823 1777.03 695.071C1779.88 693.32 1782.35 690.866 1783.78 688.057L1782.22 687.258C1780.96 689.724 1778.74 691.956 1776.11 693.574C1773.48 695.192 1770.5 696.154 1767.77 696.154V697.912ZM1783.78 688.059C1784.25 687.155 1784.64 686.31 1784.95 684.616C1785.25 682.965 1785.47 680.501 1785.64 676.344C1785.99 668.02 1786.13 652.738 1786.18 623.206L1784.43 623.203C1784.37 652.746 1784.23 667.989 1783.89 676.271C1783.71 680.418 1783.49 682.778 1783.22 684.301C1782.95 685.78 1782.63 686.459 1782.22 687.257L1783.78 688.059ZM1785.3 622.326H1750.23V624.084H1785.3V622.326Z" fill="#252E3D"/>
</g>
<path d="M1267.35 642.46L1267.34 642.465C1264.62 643.825 1262.11 646.446 1260.74 649.293L1260.73 649.304C1260.16 650.433 1259.73 651.356 1259.4 652.732C1259.08 654.119 1258.86 655.981 1258.72 658.981C1258.44 664.987 1258.5 675.459 1258.67 695.623L1259.02 737.359L1262.85 745.119C1267.26 754.053 1273.51 760.192 1282.68 764.486C1282.68 764.486 1282.68 764.486 1282.68 764.486L1289.15 767.493L1330.89 767.844C1351.06 768.019 1361.53 768.077 1367.54 767.8C1370.54 767.661 1372.4 767.439 1373.79 767.113C1375.16 766.791 1376.08 766.362 1377.21 765.783L1377.22 765.781C1379.83 764.476 1382.14 762.195 1383.81 759.512C1385.47 756.827 1386.47 753.771 1386.47 750.939C1386.47 748.107 1385.47 745.051 1383.82 742.366C1382.17 739.681 1379.88 737.4 1377.33 736.096C1376.27 735.549 1375.33 735.14 1373.98 734.828C1372.62 734.512 1370.81 734.29 1368 734.137C1362.38 733.83 1352.81 733.8 1334.88 733.8C1318.36 733.8 1308.76 733.742 1303.11 733.478C1300.29 733.346 1298.42 733.161 1297.16 732.902C1295.91 732.643 1295.19 732.3 1294.72 731.797C1294.22 731.324 1293.87 730.603 1293.62 729.354C1293.36 728.093 1293.17 726.229 1293.04 723.406C1292.78 717.754 1292.72 708.162 1292.72 691.642C1292.72 673.706 1292.69 664.141 1292.38 658.516C1292.23 655.706 1292.01 653.9 1291.69 652.536C1291.38 651.183 1290.97 650.251 1290.42 649.187L1290.42 649.184C1286.2 640.866 1275.94 637.879 1267.35 642.46Z" fill="#252E3D"/>
<path d="M1282.68 764.486C1273.51 760.192 1267.26 754.053 1262.85 745.119L1259.02 737.359L1258.67 695.623C1258.5 675.459 1258.44 664.987 1258.72 658.981C1258.86 655.981 1259.08 654.119 1259.4 652.732C1259.73 651.356 1260.16 650.433 1260.73 649.304L1260.74 649.293C1262.11 646.446 1264.62 643.825 1267.34 642.465L1267.35 642.46C1275.94 637.879 1286.2 640.866 1290.42 649.184L1290.42 649.187C1290.97 650.251 1291.38 651.183 1291.69 652.536C1292.01 653.9 1292.23 655.706 1292.38 658.516C1292.69 664.141 1292.72 673.706 1292.72 691.642C1292.72 708.162 1292.78 717.754 1293.04 723.406C1293.17 726.229 1293.36 728.093 1293.62 729.354C1293.87 730.603 1294.22 731.324 1294.72 731.797C1295.19 732.3 1295.91 732.643 1297.16 732.902C1298.42 733.161 1300.29 733.346 1303.11 733.478C1308.76 733.742 1318.36 733.8 1334.88 733.8C1352.81 733.8 1362.38 733.83 1368 734.137C1370.81 734.29 1372.62 734.512 1373.98 734.828C1375.33 735.14 1376.27 735.549 1377.33 736.096C1379.88 737.4 1382.17 739.681 1383.82 742.366C1385.47 745.051 1386.47 748.107 1386.47 750.939C1386.47 753.771 1385.47 756.827 1383.81 759.512C1382.14 762.195 1379.83 764.476 1377.22 765.781L1377.21 765.783C1376.08 766.362 1375.16 766.791 1373.79 767.113C1372.4 767.439 1370.54 767.661 1367.54 767.8C1361.53 768.077 1351.06 768.019 1330.89 767.844L1289.15 767.493L1282.68 764.486ZM1282.68 764.486C1282.68 764.486 1282.68 764.486 1282.68 764.486Z" stroke="#252E3D"/>
<path d="M1828.22 765.96L1828.22 765.958C1840.05 762.363 1848.63 754.833 1853.97 743.341L1853.97 743.339L1856.98 736.982L1857.33 695.243V695.242C1857.5 675.079 1857.56 664.606 1857.28 658.601C1857.14 655.599 1856.92 653.738 1856.6 652.351C1856.27 650.976 1855.84 650.053 1855.26 648.923L1855.26 648.919C1853.96 646.309 1851.68 643.993 1848.99 642.328C1846.31 640.663 1843.25 639.67 1840.42 639.67C1837.59 639.67 1834.53 640.663 1831.85 642.315C1829.16 643.965 1826.88 646.254 1825.58 648.805L1825.58 648.806C1825.03 649.871 1824.62 650.802 1824.31 652.156C1823.99 653.52 1823.77 655.325 1823.62 658.136C1823.31 663.76 1823.28 673.325 1823.28 691.262C1823.28 707.781 1823.22 717.373 1822.96 723.026C1822.83 725.849 1822.64 727.712 1822.38 728.973C1822.13 730.223 1821.78 730.944 1821.28 731.416C1820.81 731.918 1820.09 732.263 1818.84 732.52C1817.58 732.781 1815.71 732.965 1812.89 733.097C1807.24 733.361 1797.64 733.419 1781.12 733.419C1763.19 733.419 1753.62 733.449 1748 733.756C1745.19 733.909 1743.38 734.131 1742.02 734.447C1740.67 734.76 1739.73 735.169 1738.67 735.715H1738.67C1736.12 737.019 1733.83 739.3 1732.18 741.984C1730.53 744.669 1729.53 747.725 1729.53 750.558C1729.53 753.391 1730.53 756.447 1732.18 759.132C1733.83 761.817 1736.12 764.098 1738.67 765.401L1738.67 765.402C1739.73 765.949 1740.66 766.357 1742.03 766.668C1743.42 766.981 1745.28 767.2 1748.22 767.346C1754.09 767.638 1764.18 767.639 1783.23 767.58H1783.23C1798.12 767.58 1808.48 767.462 1815.58 767.199C1822.7 766.935 1826.47 766.524 1828.22 765.96Z" fill="#252E3D" stroke="#252E3D"/>
<path d="M1848.65 437.163V437.162L1848.66 437.158C1851.38 435.797 1853.89 433.176 1855.26 430.329L1855.26 430.319C1855.84 429.189 1856.27 428.266 1856.6 426.891C1856.92 425.504 1857.14 423.642 1857.28 420.641C1857.56 414.635 1857.5 404.163 1857.33 384L1856.98 342.264L1853.15 334.503C1848.74 325.57 1842.49 319.43 1833.32 315.136L1833.32 315.136L1826.85 312.13L1785.11 311.779C1764.94 311.603 1754.47 311.545 1748.46 311.823C1745.46 311.961 1743.6 312.183 1742.21 312.509C1740.84 312.832 1739.92 313.261 1738.79 313.84L1738.78 313.842C1736.17 315.147 1733.86 317.428 1732.19 320.111C1730.53 322.796 1729.53 325.851 1729.53 328.683C1729.53 331.516 1730.53 334.572 1732.18 337.257C1733.83 339.942 1736.12 342.223 1738.67 343.526L1738.67 343.527C1739.73 344.074 1740.67 344.482 1742.02 344.795C1743.38 345.111 1745.19 345.332 1748 345.486C1753.62 345.793 1763.19 345.822 1781.12 345.822C1797.64 345.822 1807.24 345.881 1812.89 346.145C1815.71 346.277 1817.58 346.461 1818.84 346.721C1820.09 346.979 1820.81 347.323 1821.28 347.826C1821.78 348.299 1822.13 349.019 1822.38 350.269C1822.64 351.53 1822.83 353.393 1822.96 356.217C1823.22 361.869 1823.28 371.461 1823.28 387.981C1823.28 405.916 1823.31 415.481 1823.62 421.106C1823.77 423.916 1823.99 425.722 1824.31 427.086C1824.62 428.44 1825.03 429.371 1825.58 430.436L1825.58 430.438C1829.8 438.756 1840.06 441.743 1848.65 437.163Z" fill="#252E3D" stroke="#252E3D"/>
<path d="M1407.97 644.802L1407.97 644.806C1404.41 646.641 1402.22 648.82 1400.88 652.491C1399.54 656.204 1399.06 661.466 1399.06 669.494C1399.06 677.64 1399.54 682.899 1400.91 686.597C1402.27 690.248 1404.52 692.401 1408.2 694.298C1411.09 695.74 1413.65 696.447 1416.2 696.447C1418.75 696.447 1421.32 695.74 1424.21 694.298C1427.88 692.401 1430.14 690.248 1431.49 686.597C1432.87 682.899 1433.34 677.64 1433.34 669.494C1433.34 661.348 1432.87 656.088 1431.49 652.391C1430.14 648.74 1427.88 646.586 1424.21 644.69C1421.38 643.25 1418.7 642.542 1416.04 642.556C1413.39 642.57 1410.74 643.307 1407.97 644.802Z" fill="#252E3D" stroke="#252E3D"/>
<path d="M1548.6 644.802L1548.59 644.806C1545.04 646.641 1542.84 648.82 1541.51 652.491C1540.16 656.204 1539.69 661.466 1539.69 669.494C1539.69 677.64 1540.16 682.899 1541.54 686.597C1542.9 690.248 1545.15 692.401 1548.82 694.298C1551.71 695.74 1554.28 696.447 1556.83 696.447C1559.38 696.447 1561.95 695.74 1564.83 694.298C1568.51 692.401 1570.76 690.248 1572.12 686.597C1573.49 682.899 1573.97 677.64 1573.97 669.494C1573.97 661.348 1573.49 656.088 1572.12 652.391C1570.76 648.74 1568.51 646.586 1564.83 644.69C1562.01 643.25 1559.32 642.542 1556.67 642.556C1554.01 642.57 1551.36 643.307 1548.6 644.802Z" fill="#252E3D" stroke="#252E3D"/>
<path d="M1618.91 644.802L1618.9 644.806C1615.35 646.641 1613.15 648.82 1611.82 652.491C1610.47 656.204 1610 661.466 1610 669.494C1610 677.64 1610.47 682.899 1611.85 686.597C1613.21 690.248 1615.46 692.401 1619.14 694.298C1622.02 695.74 1624.59 696.447 1627.14 696.447C1629.69 696.447 1632.26 695.74 1635.14 694.298C1638.82 692.401 1641.07 690.248 1642.43 686.597C1643.81 682.899 1644.28 677.64 1644.28 669.494C1644.28 661.348 1643.81 656.088 1642.43 652.391C1641.07 648.74 1638.82 646.586 1635.14 644.69C1632.32 643.25 1629.64 642.542 1626.98 642.556C1624.33 642.57 1621.67 643.307 1618.91 644.802Z" fill="#252E3D" stroke="#252E3D"/>
<path d="M1689.22 644.802L1689.22 644.806C1685.66 646.641 1683.47 648.82 1682.13 652.491C1680.79 656.204 1680.31 661.466 1680.31 669.494C1680.31 677.64 1680.79 682.899 1682.16 686.597C1683.52 690.248 1685.77 692.401 1689.45 694.298C1692.34 695.74 1694.9 696.447 1697.45 696.447C1700 696.447 1702.57 695.74 1705.46 694.298C1709.13 692.401 1711.39 690.248 1712.74 686.597C1714.12 682.899 1714.59 677.64 1714.59 669.494C1714.59 661.348 1714.12 656.088 1712.74 652.391C1711.39 648.74 1709.13 646.586 1705.46 644.69C1702.63 643.25 1699.95 642.542 1697.29 642.556C1694.64 642.57 1691.99 643.307 1689.22 644.802Z" fill="#252E3D" stroke="#252E3D"/>
<path d="M1296.36 606.592C1286.51 606.592 1279.07 603.823 1274.02 598.286C1268.98 592.626 1266.46 584.566 1266.46 574.107V566.724H1285.65V575.584C1285.65 583.951 1289.16 588.135 1296.17 588.135C1299.62 588.135 1302.2 587.15 1303.92 585.181C1305.77 583.09 1306.69 579.767 1306.69 575.215C1306.69 569.801 1305.46 565.063 1303 561.003C1300.54 556.819 1295.99 551.836 1289.34 546.053C1280.97 538.67 1275.13 532.025 1271.81 526.119C1268.49 520.09 1266.82 513.322 1266.82 505.816C1266.82 495.603 1269.41 487.728 1274.58 482.191C1279.74 476.531 1287.25 473.701 1297.09 473.701C1306.81 473.701 1314.14 476.531 1319.06 482.191C1324.1 487.728 1326.63 495.726 1326.63 506.185V511.538H1307.43V504.893C1307.43 500.464 1306.57 497.265 1304.85 495.296C1303.12 493.204 1300.6 492.158 1297.28 492.158C1290.51 492.158 1287.13 496.28 1287.13 504.524C1287.13 509.2 1288.36 513.568 1290.82 517.629C1293.4 521.689 1298.02 526.611 1304.66 532.394C1313.15 539.777 1319 546.483 1322.2 552.513C1325.39 558.542 1326.99 565.617 1326.99 573.738C1326.99 584.32 1324.35 592.441 1319.06 598.101C1313.89 603.762 1306.32 606.592 1296.36 606.592ZM1367.24 606.592C1357.52 606.592 1350.08 603.823 1344.91 598.286C1339.87 592.749 1337.34 584.935 1337.34 574.846V505.447C1337.34 495.357 1339.87 487.544 1344.91 482.007C1350.08 476.47 1357.52 473.701 1367.24 473.701C1376.96 473.701 1384.35 476.47 1389.39 482.007C1394.56 487.544 1397.14 495.357 1397.14 505.447V519.105H1377.95V504.155C1377.95 496.157 1374.56 492.158 1367.8 492.158C1361.03 492.158 1357.65 496.157 1357.65 504.155V576.322C1357.65 584.197 1361.03 588.135 1367.8 588.135C1374.56 588.135 1377.95 584.197 1377.95 576.322V556.573H1397.14V574.846C1397.14 584.935 1394.56 592.749 1389.39 598.286C1384.35 603.823 1376.96 606.592 1367.24 606.592ZM1424.98 475.547H1452.48L1473.52 604.746H1453.22L1449.53 579.091V579.46H1426.46L1422.76 604.746H1403.94L1424.98 475.547ZM1447.13 561.926L1438.08 498.064H1437.71L1428.85 561.926H1447.13ZM1483.37 475.547H1508.84L1528.59 552.882H1528.96V475.547H1547.05V604.746H1526.19L1501.83 510.431H1501.46V604.746H1483.37V475.547ZM1562.14 475.547H1591.12L1604.04 568.016H1604.4L1617.32 475.547H1646.3V604.746H1627.11V506.924H1626.74L1611.97 604.746H1594.99L1580.23 506.924H1579.86V604.746H1562.14V475.547ZM1677.14 475.547H1704.64L1725.68 604.746H1705.38L1701.69 579.091V579.46H1678.62L1674.93 604.746H1656.1L1677.14 475.547ZM1699.29 561.926L1690.25 498.064H1689.88L1681.02 561.926H1699.29ZM1742.93 494.004H1721.71V475.547H1784.46V494.004H1763.24V604.746H1742.93V494.004ZM1794.29 475.547H1849.66V494.004H1814.6V528.149H1842.47V546.606H1814.6V586.289H1849.66V604.746H1794.29V475.547Z" fill="#252E3D"/>
</g>
</g>
<path d="M966.816 559.652C965.566 560.121 964.824 560.688 962.695 562.875C960.234 565.355 959.746 566.234 959.746 568.188C959.746 570.609 959.473 570.258 971.484 582.289L982.363 593.188H948.438C914.805 593.188 914.492 593.188 913.438 593.578C911.992 594.125 910.723 595.492 910.293 596.977C910.039 597.855 909.98 598.754 910.039 601.352C910.098 604.184 910.156 604.73 910.527 605.512C911.016 606.605 912.168 607.816 913.223 608.324C913.984 608.715 914.688 608.715 948.242 608.812L982.461 608.91L971.523 619.848C959.473 631.898 959.727 631.586 959.746 633.949C959.766 635.824 960.352 636.84 962.969 639.398C965.703 642.094 966.406 642.504 968.398 642.504C969.609 642.484 970.039 642.406 970.84 641.977C972.148 641.273 1008.98 604.418 1009.53 603.246C1010.08 602.074 1010.04 599.809 1009.43 598.637C1008.81 597.387 971.777 560.395 970.664 559.887C969.648 559.438 967.715 559.32 966.816 559.652Z" fill="#252E3D"/>
<path d="M145.023 468.114C144.795 465.614 143.784 463.67 141.989 462.284C140.216 460.875 137.682 460.17 134.386 460.17C132.205 460.17 130.386 460.455 128.932 461.023C127.477 461.591 126.386 462.375 125.659 463.375C124.932 464.352 124.557 465.477 124.534 466.75C124.489 467.795 124.693 468.716 125.148 469.511C125.625 470.307 126.307 471.011 127.193 471.625C128.102 472.216 129.193 472.739 130.466 473.193C131.739 473.648 133.17 474.045 134.761 474.386L140.761 475.75C144.216 476.5 147.261 477.5 149.898 478.75C152.557 480 154.784 481.489 156.58 483.216C158.398 484.943 159.773 486.932 160.705 489.182C161.636 491.432 162.114 493.955 162.136 496.75C162.114 501.159 161 504.943 158.795 508.102C156.591 511.261 153.42 513.682 149.284 515.364C145.17 517.045 140.205 517.886 134.386 517.886C128.545 517.886 123.455 517.011 119.114 515.261C114.773 513.511 111.398 510.852 108.989 507.284C106.58 503.716 105.341 499.205 105.273 493.75H121.432C121.568 496 122.17 497.875 123.239 499.375C124.307 500.875 125.773 502.011 127.636 502.784C129.523 503.557 131.705 503.943 134.182 503.943C136.455 503.943 138.386 503.636 139.977 503.023C141.591 502.409 142.83 501.557 143.693 500.466C144.557 499.375 145 498.125 145.023 496.716C145 495.398 144.591 494.273 143.795 493.341C143 492.386 141.773 491.568 140.114 490.886C138.477 490.182 136.386 489.534 133.841 488.943L126.545 487.239C120.5 485.852 115.739 483.614 112.261 480.523C108.784 477.409 107.057 473.205 107.08 467.909C107.057 463.591 108.216 459.807 110.557 456.557C112.898 453.307 116.136 450.773 120.273 448.955C124.409 447.136 129.125 446.227 134.42 446.227C139.83 446.227 144.523 447.148 148.5 448.989C152.5 450.807 155.602 453.364 157.807 456.659C160.011 459.955 161.136 463.773 161.182 468.114H145.023ZM195.102 517.989C189.58 517.989 184.841 516.852 180.886 514.58C176.955 512.307 173.932 509.148 171.818 505.102C169.705 501.034 168.648 496.33 168.648 490.989C168.648 485.625 169.705 480.92 171.818 476.875C173.955 472.807 176.989 469.636 180.92 467.364C184.875 465.091 189.591 463.955 195.068 463.955C199.909 463.955 204.125 464.83 207.716 466.58C211.33 468.33 214.148 470.807 216.17 474.011C218.216 477.193 219.295 480.932 219.409 485.227H203.83C203.511 482.545 202.602 480.443 201.102 478.92C199.625 477.398 197.693 476.636 195.307 476.636C193.375 476.636 191.682 477.182 190.227 478.273C188.773 479.341 187.636 480.932 186.818 483.045C186.023 485.136 185.625 487.727 185.625 490.818C185.625 493.909 186.023 496.523 186.818 498.659C187.636 500.773 188.773 502.375 190.227 503.466C191.682 504.534 193.375 505.068 195.307 505.068C196.852 505.068 198.216 504.739 199.398 504.08C200.602 503.42 201.591 502.455 202.364 501.182C203.136 499.886 203.625 498.318 203.83 496.477H219.409C219.25 500.795 218.17 504.568 216.17 507.795C214.193 511.023 211.409 513.534 207.818 515.33C204.25 517.102 200.011 517.989 195.102 517.989ZM242.702 517.886C239.361 517.886 236.395 517.33 233.804 516.216C231.236 515.08 229.202 513.375 227.702 511.102C226.224 508.807 225.486 505.932 225.486 502.477C225.486 499.568 225.997 497.114 227.02 495.114C228.043 493.114 229.452 491.489 231.247 490.239C233.043 488.989 235.111 488.045 237.452 487.409C239.793 486.75 242.293 486.307 244.952 486.08C247.929 485.807 250.327 485.523 252.145 485.227C253.963 484.909 255.281 484.466 256.099 483.898C256.94 483.307 257.361 482.477 257.361 481.409V481.239C257.361 479.489 256.759 478.136 255.554 477.182C254.349 476.227 252.724 475.75 250.679 475.75C248.474 475.75 246.702 476.227 245.361 477.182C244.02 478.136 243.168 479.455 242.804 481.136L227.429 480.591C227.884 477.409 229.054 474.568 230.94 472.068C232.849 469.545 235.463 467.568 238.781 466.136C242.122 464.682 246.134 463.955 250.815 463.955C254.156 463.955 257.236 464.352 260.054 465.148C262.872 465.92 265.327 467.057 267.418 468.557C269.509 470.034 271.122 471.852 272.259 474.011C273.418 476.17 273.997 478.636 273.997 481.409V517H258.315V509.705H257.906C256.974 511.477 255.781 512.977 254.327 514.205C252.895 515.432 251.202 516.352 249.247 516.966C247.315 517.58 245.134 517.886 242.702 517.886ZM247.849 506.977C249.645 506.977 251.259 506.614 252.69 505.886C254.145 505.159 255.304 504.159 256.168 502.886C257.031 501.591 257.463 500.091 257.463 498.386V493.409C256.986 493.659 256.406 493.886 255.724 494.091C255.065 494.295 254.338 494.489 253.543 494.67C252.747 494.852 251.929 495.011 251.088 495.148C250.247 495.284 249.44 495.409 248.668 495.523C247.099 495.773 245.759 496.159 244.645 496.682C243.554 497.205 242.713 497.886 242.122 498.727C241.554 499.545 241.27 500.523 241.27 501.659C241.27 503.386 241.884 504.705 243.111 505.614C244.361 506.523 245.94 506.977 247.849 506.977ZM300.861 487.136V517H284.19V464.636H300.043V474.25H300.622C301.781 471.045 303.759 468.534 306.554 466.716C309.349 464.875 312.679 463.955 316.543 463.955C320.224 463.955 323.418 464.784 326.122 466.443C328.849 468.08 330.963 470.375 332.463 473.33C333.986 476.261 334.736 479.693 334.713 483.625V517H318.043V486.898C318.065 483.989 317.327 481.716 315.827 480.08C314.349 478.443 312.293 477.625 309.656 477.625C307.906 477.625 306.361 478.011 305.02 478.784C303.702 479.534 302.679 480.614 301.952 482.023C301.247 483.432 300.884 485.136 300.861 487.136ZM375.852 536.636C373.852 536.636 371.966 536.477 370.193 536.159C368.42 535.864 366.898 535.466 365.625 534.966L369.307 522.864C370.943 523.409 372.42 523.727 373.739 523.818C375.08 523.909 376.227 523.693 377.182 523.17C378.159 522.67 378.909 521.773 379.432 520.477L380.08 518.909L361.466 464.636H378.92L388.568 502H389.114L398.898 464.636H416.455L396.716 522.011C395.761 524.875 394.409 527.398 392.659 529.58C390.932 531.784 388.693 533.511 385.943 534.761C383.216 536.011 379.852 536.636 375.852 536.636ZM445.602 517.989C440.102 517.989 435.375 516.864 431.42 514.614C427.489 512.341 424.455 509.182 422.318 505.136C420.205 501.068 419.148 496.352 419.148 490.989C419.148 485.602 420.205 480.886 422.318 476.841C424.455 472.773 427.489 469.614 431.42 467.364C435.375 465.091 440.102 463.955 445.602 463.955C451.102 463.955 455.818 465.091 459.75 467.364C463.705 469.614 466.739 472.773 468.852 476.841C470.989 480.886 472.057 485.602 472.057 490.989C472.057 496.352 470.989 501.068 468.852 505.136C466.739 509.182 463.705 512.341 459.75 514.614C455.818 516.864 451.102 517.989 445.602 517.989ZM445.705 505.409C447.705 505.409 449.398 504.795 450.784 503.568C452.17 502.341 453.227 500.636 453.955 498.455C454.705 496.273 455.08 493.75 455.08 490.886C455.08 487.977 454.705 485.432 453.955 483.25C453.227 481.068 452.17 479.364 450.784 478.136C449.398 476.909 447.705 476.295 445.705 476.295C443.636 476.295 441.886 476.909 440.455 478.136C439.045 479.364 437.966 481.068 437.216 483.25C436.489 485.432 436.125 487.977 436.125 490.886C436.125 493.75 436.489 496.273 437.216 498.455C437.966 500.636 439.045 502.341 440.455 503.568C441.886 504.795 443.636 505.409 445.705 505.409ZM514.381 494.398V464.636H531.017V517H515.131V507.25H514.585C513.426 510.455 511.449 513 508.653 514.886C505.881 516.75 502.528 517.682 498.597 517.682C495.028 517.682 491.892 516.864 489.188 515.227C486.483 513.591 484.381 511.307 482.881 508.375C481.381 505.42 480.619 501.966 480.597 498.011V464.636H497.267V494.739C497.29 497.58 498.04 499.818 499.517 501.455C500.994 503.091 503.006 503.909 505.551 503.909C507.21 503.909 508.699 503.545 510.017 502.818C511.358 502.068 512.415 500.989 513.188 499.58C513.983 498.148 514.381 496.42 514.381 494.398ZM541.628 517V464.636H557.821V474.182H558.366C559.321 470.727 560.878 468.159 563.037 466.477C565.196 464.773 567.707 463.92 570.571 463.92C571.344 463.92 572.139 463.977 572.957 464.091C573.776 464.182 574.537 464.33 575.241 464.534V479.023C574.446 478.75 573.401 478.534 572.105 478.375C570.832 478.216 569.696 478.136 568.696 478.136C566.719 478.136 564.935 478.58 563.344 479.466C561.776 480.33 560.537 481.545 559.628 483.114C558.741 484.659 558.298 486.477 558.298 488.568V517H541.628ZM632.42 464.636V476.909H598.739V464.636H632.42ZM605.761 517V461.977C605.761 457.932 606.523 454.58 608.045 451.92C609.568 449.239 611.682 447.239 614.386 445.92C617.091 444.58 620.216 443.909 623.761 443.909C626.08 443.909 628.261 444.091 630.307 444.455C632.375 444.795 633.909 445.102 634.909 445.375L632.25 457.58C631.636 457.375 630.886 457.205 630 457.068C629.136 456.932 628.318 456.864 627.545 456.864C625.591 456.864 624.25 457.295 623.523 458.159C622.795 459.023 622.432 460.205 622.432 461.705V517H605.761ZM640.44 517V464.636H657.111V517H640.44ZM648.793 458.534C646.452 458.534 644.44 457.761 642.759 456.216C641.077 454.648 640.236 452.761 640.236 450.557C640.236 448.375 641.077 446.511 642.759 444.966C644.44 443.398 646.452 442.614 648.793 442.614C651.156 442.614 653.168 443.398 654.827 444.966C656.509 446.511 657.349 448.375 657.349 450.557C657.349 452.761 656.509 454.648 654.827 456.216C653.168 457.761 651.156 458.534 648.793 458.534ZM667.722 517V464.636H683.915V474.182H684.46C685.415 470.727 686.972 468.159 689.131 466.477C691.29 464.773 693.801 463.92 696.665 463.92C697.438 463.92 698.233 463.977 699.051 464.091C699.869 464.182 700.631 464.33 701.335 464.534V479.023C700.54 478.75 699.494 478.534 698.199 478.375C696.926 478.216 695.79 478.136 694.79 478.136C692.813 478.136 691.028 478.58 689.438 479.466C687.869 480.33 686.631 481.545 685.722 483.114C684.835 484.659 684.392 486.477 684.392 488.568V517H667.722ZM753.844 480.625L738.537 481.034C738.378 479.943 737.946 478.977 737.241 478.136C736.537 477.273 735.616 476.602 734.48 476.125C733.366 475.625 732.071 475.375 730.594 475.375C728.662 475.375 727.014 475.761 725.651 476.534C724.31 477.307 723.651 478.352 723.673 479.67C723.651 480.693 724.06 481.58 724.901 482.33C725.764 483.08 727.298 483.682 729.503 484.136L739.594 486.045C744.821 487.045 748.707 488.705 751.253 491.023C753.821 493.341 755.116 496.409 755.139 500.227C755.116 503.818 754.048 506.943 751.935 509.602C749.844 512.261 746.98 514.33 743.344 515.807C739.707 517.261 735.548 517.989 730.866 517.989C723.389 517.989 717.491 516.455 713.173 513.386C708.878 510.295 706.423 506.159 705.81 500.977L722.276 500.568C722.639 502.477 723.582 503.932 725.105 504.932C726.628 505.932 728.571 506.432 730.935 506.432C733.071 506.432 734.81 506.034 736.151 505.239C737.491 504.443 738.173 503.386 738.196 502.068C738.173 500.886 737.651 499.943 736.628 499.239C735.605 498.511 734.003 497.943 731.821 497.534L722.685 495.795C717.435 494.841 713.526 493.08 710.957 490.511C708.389 487.92 707.116 484.625 707.139 480.625C707.116 477.125 708.048 474.136 709.935 471.659C711.821 469.159 714.503 467.25 717.98 465.932C721.457 464.614 725.56 463.955 730.287 463.955C737.378 463.955 742.969 465.443 747.06 468.42C751.151 471.375 753.412 475.443 753.844 480.625ZM792.903 464.636V476.909H759.869V464.636H792.903ZM766.79 452.091H783.46V500.534C783.46 501.557 783.619 502.386 783.938 503.023C784.278 503.636 784.767 504.08 785.403 504.352C786.04 504.602 786.801 504.727 787.688 504.727C788.324 504.727 788.994 504.67 789.699 504.557C790.426 504.42 790.972 504.307 791.335 504.216L793.858 516.25C793.063 516.477 791.938 516.761 790.483 517.102C789.051 517.443 787.335 517.659 785.335 517.75C781.426 517.932 778.074 517.477 775.278 516.386C772.506 515.273 770.381 513.545 768.903 511.205C767.449 508.864 766.744 505.92 766.79 502.375V452.091ZM822.034 517V464.636H838.705V517H822.034ZM830.386 458.534C828.045 458.534 826.034 457.761 824.352 456.216C822.67 454.648 821.83 452.761 821.83 450.557C821.83 448.375 822.67 446.511 824.352 444.966C826.034 443.398 828.045 442.614 830.386 442.614C832.75 442.614 834.761 443.398 836.42 444.966C838.102 446.511 838.943 448.375 838.943 450.557C838.943 452.761 838.102 454.648 836.42 456.216C834.761 457.761 832.75 458.534 830.386 458.534ZM878.872 464.636V476.909H845.838V464.636H878.872ZM852.759 452.091H869.429V500.534C869.429 501.557 869.588 502.386 869.906 503.023C870.247 503.636 870.736 504.08 871.372 504.352C872.009 504.602 872.77 504.727 873.656 504.727C874.293 504.727 874.963 504.67 875.668 504.557C876.395 504.42 876.94 504.307 877.304 504.216L879.827 516.25C879.031 516.477 877.906 516.761 876.452 517.102C875.02 517.443 873.304 517.659 871.304 517.75C867.395 517.932 864.043 517.477 861.247 516.386C858.474 515.273 856.349 513.545 854.872 511.205C853.418 508.864 852.713 505.92 852.759 502.375V452.091ZM911.293 517.989C905.815 517.989 901.088 516.909 897.111 514.75C893.156 512.568 890.111 509.466 887.974 505.443C885.861 501.398 884.804 496.591 884.804 491.023C884.804 485.614 885.872 480.886 888.009 476.841C890.145 472.773 893.156 469.614 897.043 467.364C900.929 465.091 905.509 463.955 910.781 463.955C914.509 463.955 917.918 464.534 921.009 465.693C924.099 466.852 926.77 468.568 929.02 470.841C931.27 473.114 933.02 475.92 934.27 479.261C935.52 482.58 936.145 486.386 936.145 490.682V494.841H890.634V485.159H920.634C920.611 483.386 920.19 481.807 919.372 480.42C918.554 479.034 917.429 477.955 915.997 477.182C914.588 476.386 912.963 475.989 911.122 475.989C909.259 475.989 907.588 476.409 906.111 477.25C904.634 478.068 903.463 479.193 902.599 480.625C901.736 482.034 901.281 483.636 901.236 485.432V495.284C901.236 497.42 901.656 499.295 902.497 500.909C903.338 502.5 904.531 503.739 906.077 504.625C907.622 505.511 909.463 505.955 911.599 505.955C913.077 505.955 914.418 505.75 915.622 505.341C916.827 504.932 917.861 504.33 918.724 503.534C919.588 502.739 920.236 501.761 920.668 500.602L935.974 501.045C935.338 504.477 933.94 507.466 931.781 510.011C929.645 512.534 926.838 514.5 923.361 515.909C919.884 517.295 915.861 517.989 911.293 517.989ZM944.659 517V464.636H960.511V474.25H961.091C962.182 471.068 964.023 468.557 966.614 466.716C969.205 464.875 972.295 463.955 975.886 463.955C979.523 463.955 982.636 464.886 985.227 466.75C987.818 468.614 989.466 471.114 990.17 474.25H990.716C991.693 471.136 993.602 468.648 996.443 466.784C999.284 464.898 1002.64 463.955 1006.5 463.955C1011.45 463.955 1015.48 465.545 1018.57 468.727C1021.66 471.886 1023.2 476.227 1023.2 481.75V517H1006.53V485.568C1006.53 482.955 1005.86 480.966 1004.52 479.602C1003.18 478.216 1001.44 477.523 999.307 477.523C997.011 477.523 995.205 478.273 993.886 479.773C992.591 481.25 991.943 483.239 991.943 485.739V517H975.92V485.398C975.92 482.966 975.261 481.045 973.943 479.636C972.625 478.227 970.886 477.523 968.727 477.523C967.273 477.523 965.989 477.875 964.875 478.58C963.761 479.261 962.886 480.239 962.25 481.511C961.636 482.784 961.33 484.284 961.33 486.011V517H944.659ZM131.727 633.989C126.227 633.989 121.5 632.864 117.545 630.614C113.614 628.341 110.58 625.182 108.443 621.136C106.33 617.068 105.273 612.352 105.273 606.989C105.273 601.602 106.33 596.886 108.443 592.841C110.58 588.773 113.614 585.614 117.545 583.364C121.5 581.091 126.227 579.955 131.727 579.955C137.227 579.955 141.943 581.091 145.875 583.364C149.83 585.614 152.864 588.773 154.977 592.841C157.114 596.886 158.182 601.602 158.182 606.989C158.182 612.352 157.114 617.068 154.977 621.136C152.864 625.182 149.83 628.341 145.875 630.614C141.943 632.864 137.227 633.989 131.727 633.989ZM131.83 621.409C133.83 621.409 135.523 620.795 136.909 619.568C138.295 618.341 139.352 616.636 140.08 614.455C140.83 612.273 141.205 609.75 141.205 606.886C141.205 603.977 140.83 601.432 140.08 599.25C139.352 597.068 138.295 595.364 136.909 594.136C135.523 592.909 133.83 592.295 131.83 592.295C129.761 592.295 128.011 592.909 126.58 594.136C125.17 595.364 124.091 597.068 123.341 599.25C122.614 601.432 122.25 603.977 122.25 606.886C122.25 609.75 122.614 612.273 123.341 614.455C124.091 616.636 125.17 618.341 126.58 619.568C128.011 620.795 129.761 621.409 131.83 621.409ZM166.722 633V580.636H182.915V590.182H183.46C184.415 586.727 185.972 584.159 188.131 582.477C190.29 580.773 192.801 579.92 195.665 579.92C196.438 579.92 197.233 579.977 198.051 580.091C198.869 580.182 199.631 580.33 200.335 580.534V595.023C199.54 594.75 198.494 594.534 197.199 594.375C195.926 594.216 194.79 594.136 193.79 594.136C191.813 594.136 190.028 594.58 188.438 595.466C186.869 596.33 185.631 597.545 184.722 599.114C183.835 600.659 183.392 602.477 183.392 604.568V633H166.722ZM257.31 580.636V592.909H224.276V580.636H257.31ZM231.196 568.091H247.866V616.534C247.866 617.557 248.026 618.386 248.344 619.023C248.685 619.636 249.173 620.08 249.81 620.352C250.446 620.602 251.207 620.727 252.094 620.727C252.73 620.727 253.401 620.67 254.105 620.557C254.832 620.42 255.378 620.307 255.741 620.216L258.264 632.25C257.469 632.477 256.344 632.761 254.889 633.102C253.457 633.443 251.741 633.659 249.741 633.75C245.832 633.932 242.48 633.477 239.685 632.386C236.912 631.273 234.787 629.545 233.31 627.205C231.855 624.864 231.151 621.92 231.196 618.375V568.091ZM280.577 633.886C277.236 633.886 274.27 633.33 271.679 632.216C269.111 631.08 267.077 629.375 265.577 627.102C264.099 624.807 263.361 621.932 263.361 618.477C263.361 615.568 263.872 613.114 264.895 611.114C265.918 609.114 267.327 607.489 269.122 606.239C270.918 604.989 272.986 604.045 275.327 603.409C277.668 602.75 280.168 602.307 282.827 602.08C285.804 601.807 288.202 601.523 290.02 601.227C291.838 600.909 293.156 600.466 293.974 599.898C294.815 599.307 295.236 598.477 295.236 597.409V597.239C295.236 595.489 294.634 594.136 293.429 593.182C292.224 592.227 290.599 591.75 288.554 591.75C286.349 591.75 284.577 592.227 283.236 593.182C281.895 594.136 281.043 595.455 280.679 597.136L265.304 596.591C265.759 593.409 266.929 590.568 268.815 588.068C270.724 585.545 273.338 583.568 276.656 582.136C279.997 580.682 284.009 579.955 288.69 579.955C292.031 579.955 295.111 580.352 297.929 581.148C300.747 581.92 303.202 583.057 305.293 584.557C307.384 586.034 308.997 587.852 310.134 590.011C311.293 592.17 311.872 594.636 311.872 597.409V633H296.19V625.705H295.781C294.849 627.477 293.656 628.977 292.202 630.205C290.77 631.432 289.077 632.352 287.122 632.966C285.19 633.58 283.009 633.886 280.577 633.886ZM285.724 622.977C287.52 622.977 289.134 622.614 290.565 621.886C292.02 621.159 293.179 620.159 294.043 618.886C294.906 617.591 295.338 616.091 295.338 614.386V609.409C294.861 609.659 294.281 609.886 293.599 610.091C292.94 610.295 292.213 610.489 291.418 610.67C290.622 610.852 289.804 611.011 288.963 611.148C288.122 611.284 287.315 611.409 286.543 611.523C284.974 611.773 283.634 612.159 282.52 612.682C281.429 613.205 280.588 613.886 279.997 614.727C279.429 615.545 279.145 616.523 279.145 617.659C279.145 619.386 279.759 620.705 280.986 621.614C282.236 622.523 283.815 622.977 285.724 622.977ZM322.065 652.636V580.636H338.565V589.602H339.077C339.759 588.011 340.724 586.477 341.974 585C343.247 583.523 344.861 582.318 346.815 581.386C348.793 580.432 351.156 579.955 353.906 579.955C357.543 579.955 360.94 580.909 364.099 582.818C367.281 584.727 369.849 587.67 371.804 591.648C373.759 595.625 374.736 600.693 374.736 606.852C374.736 612.784 373.793 617.75 371.906 621.75C370.043 625.75 367.52 628.75 364.338 630.75C361.179 632.75 357.668 633.75 353.804 633.75C351.168 633.75 348.884 633.318 346.952 632.455C345.02 631.591 343.395 630.455 342.077 629.045C340.781 627.636 339.781 626.125 339.077 624.511H338.736V652.636H322.065ZM338.395 606.818C338.395 609.636 338.77 612.091 339.52 614.182C340.293 616.273 341.395 617.898 342.827 619.057C344.281 620.193 346.02 620.761 348.043 620.761C350.088 620.761 351.827 620.193 353.259 619.057C354.69 617.898 355.77 616.273 356.497 614.182C357.247 612.091 357.622 609.636 357.622 606.818C357.622 604 357.247 601.557 356.497 599.489C355.77 597.42 354.69 595.818 353.259 594.682C351.849 593.545 350.111 592.977 348.043 592.977C345.997 592.977 344.259 593.534 342.827 594.648C341.395 595.761 340.293 597.352 339.52 599.42C338.77 601.489 338.395 603.955 338.395 606.818ZM433.653 580.636V592.909H400.619V580.636H433.653ZM407.54 568.091H424.21V616.534C424.21 617.557 424.369 618.386 424.688 619.023C425.028 619.636 425.517 620.08 426.153 620.352C426.79 620.602 427.551 620.727 428.438 620.727C429.074 620.727 429.744 620.67 430.449 620.557C431.176 620.42 431.722 620.307 432.085 620.216L434.608 632.25C433.813 632.477 432.688 632.761 431.233 633.102C429.801 633.443 428.085 633.659 426.085 633.75C422.176 633.932 418.824 633.477 416.028 632.386C413.256 631.273 411.131 629.545 409.653 627.205C408.199 624.864 407.494 621.92 407.54 618.375V568.091ZM466.04 633.989C460.54 633.989 455.813 632.864 451.858 630.614C447.926 628.341 444.892 625.182 442.756 621.136C440.642 617.068 439.585 612.352 439.585 606.989C439.585 601.602 440.642 596.886 442.756 592.841C444.892 588.773 447.926 585.614 451.858 583.364C455.813 581.091 460.54 579.955 466.04 579.955C471.54 579.955 476.256 581.091 480.188 583.364C484.142 585.614 487.176 588.773 489.29 592.841C491.426 596.886 492.494 601.602 492.494 606.989C492.494 612.352 491.426 617.068 489.29 621.136C487.176 625.182 484.142 628.341 480.188 630.614C476.256 632.864 471.54 633.989 466.04 633.989ZM466.142 621.409C468.142 621.409 469.835 620.795 471.222 619.568C472.608 618.341 473.665 616.636 474.392 614.455C475.142 612.273 475.517 609.75 475.517 606.886C475.517 603.977 475.142 601.432 474.392 599.25C473.665 597.068 472.608 595.364 471.222 594.136C469.835 592.909 468.142 592.295 466.142 592.295C464.074 592.295 462.324 592.909 460.892 594.136C459.483 595.364 458.403 597.068 457.653 599.25C456.926 601.432 456.562 603.977 456.562 606.886C456.562 609.75 456.926 612.273 457.653 614.455C458.403 616.636 459.483 618.341 460.892 619.568C462.324 620.795 464.074 621.409 466.142 621.409ZM567.375 596.625L552.068 597.034C551.909 595.943 551.477 594.977 550.773 594.136C550.068 593.273 549.148 592.602 548.011 592.125C546.898 591.625 545.602 591.375 544.125 591.375C542.193 591.375 540.545 591.761 539.182 592.534C537.841 593.307 537.182 594.352 537.205 595.67C537.182 596.693 537.591 597.58 538.432 598.33C539.295 599.08 540.83 599.682 543.034 600.136L553.125 602.045C558.352 603.045 562.239 604.705 564.784 607.023C567.352 609.341 568.648 612.409 568.67 616.227C568.648 619.818 567.58 622.943 565.466 625.602C563.375 628.261 560.511 630.33 556.875 631.807C553.239 633.261 549.08 633.989 544.398 633.989C536.92 633.989 531.023 632.455 526.705 629.386C522.409 626.295 519.955 622.159 519.341 616.977L535.807 616.568C536.17 618.477 537.114 619.932 538.636 620.932C540.159 621.932 542.102 622.432 544.466 622.432C546.602 622.432 548.341 622.034 549.682 621.239C551.023 620.443 551.705 619.386 551.727 618.068C551.705 616.886 551.182 615.943 550.159 615.239C549.136 614.511 547.534 613.943 545.352 613.534L536.216 611.795C530.966 610.841 527.057 609.08 524.489 606.511C521.92 603.92 520.648 600.625 520.67 596.625C520.648 593.125 521.58 590.136 523.466 587.659C525.352 585.159 528.034 583.25 531.511 581.932C534.989 580.614 539.091 579.955 543.818 579.955C550.909 579.955 556.5 581.443 560.591 584.42C564.682 587.375 566.943 591.443 567.375 596.625ZM606.435 580.636V592.909H573.401V580.636H606.435ZM580.321 568.091H596.991V616.534C596.991 617.557 597.151 618.386 597.469 619.023C597.81 619.636 598.298 620.08 598.935 620.352C599.571 620.602 600.332 620.727 601.219 620.727C601.855 620.727 602.526 620.67 603.23 620.557C603.957 620.42 604.503 620.307 604.866 620.216L607.389 632.25C606.594 632.477 605.469 632.761 604.014 633.102C602.582 633.443 600.866 633.659 598.866 633.75C594.957 633.932 591.605 633.477 588.81 632.386C586.037 631.273 583.912 629.545 582.435 627.205C580.98 624.864 580.276 621.92 580.321 618.375V568.091ZM629.702 633.886C626.361 633.886 623.395 633.33 620.804 632.216C618.236 631.08 616.202 629.375 614.702 627.102C613.224 624.807 612.486 621.932 612.486 618.477C612.486 615.568 612.997 613.114 614.02 611.114C615.043 609.114 616.452 607.489 618.247 606.239C620.043 604.989 622.111 604.045 624.452 603.409C626.793 602.75 629.293 602.307 631.952 602.08C634.929 601.807 637.327 601.523 639.145 601.227C640.963 600.909 642.281 600.466 643.099 599.898C643.94 599.307 644.361 598.477 644.361 597.409V597.239C644.361 595.489 643.759 594.136 642.554 593.182C641.349 592.227 639.724 591.75 637.679 591.75C635.474 591.75 633.702 592.227 632.361 593.182C631.02 594.136 630.168 595.455 629.804 597.136L614.429 596.591C614.884 593.409 616.054 590.568 617.94 588.068C619.849 585.545 622.463 583.568 625.781 582.136C629.122 580.682 633.134 579.955 637.815 579.955C641.156 579.955 644.236 580.352 647.054 581.148C649.872 581.92 652.327 583.057 654.418 584.557C656.509 586.034 658.122 587.852 659.259 590.011C660.418 592.17 660.997 594.636 660.997 597.409V633H645.315V625.705H644.906C643.974 627.477 642.781 628.977 641.327 630.205C639.895 631.432 638.202 632.352 636.247 632.966C634.315 633.58 632.134 633.886 629.702 633.886ZM634.849 622.977C636.645 622.977 638.259 622.614 639.69 621.886C641.145 621.159 642.304 620.159 643.168 618.886C644.031 617.591 644.463 616.091 644.463 614.386V609.409C643.986 609.659 643.406 609.886 642.724 610.091C642.065 610.295 641.338 610.489 640.543 610.67C639.747 610.852 638.929 611.011 638.088 611.148C637.247 611.284 636.44 611.409 635.668 611.523C634.099 611.773 632.759 612.159 631.645 612.682C630.554 613.205 629.713 613.886 629.122 614.727C628.554 615.545 628.27 616.523 628.27 617.659C628.27 619.386 628.884 620.705 630.111 621.614C631.361 622.523 632.94 622.977 634.849 622.977ZM671.19 633V580.636H687.384V590.182H687.929C688.884 586.727 690.44 584.159 692.599 582.477C694.759 580.773 697.27 579.92 700.134 579.92C700.906 579.92 701.702 579.977 702.52 580.091C703.338 580.182 704.099 580.33 704.804 580.534V595.023C704.009 594.75 702.963 594.534 701.668 594.375C700.395 594.216 699.259 594.136 698.259 594.136C696.281 594.136 694.497 594.58 692.906 595.466C691.338 596.33 690.099 597.545 689.19 599.114C688.304 600.659 687.861 602.477 687.861 604.568V633H671.19ZM743.591 580.636V592.909H710.557V580.636H743.591ZM717.477 568.091H734.148V616.534C734.148 617.557 734.307 618.386 734.625 619.023C734.966 619.636 735.455 620.08 736.091 620.352C736.727 620.602 737.489 620.727 738.375 620.727C739.011 620.727 739.682 620.67 740.386 620.557C741.114 620.42 741.659 620.307 742.023 620.216L744.545 632.25C743.75 632.477 742.625 632.761 741.17 633.102C739.739 633.443 738.023 633.659 736.023 633.75C732.114 633.932 728.761 633.477 725.966 632.386C723.193 631.273 721.068 629.545 719.591 627.205C718.136 624.864 717.432 621.92 717.477 618.375V568.091Z" fill="#252E3D"/>
<defs>
<clipPath id="clip0_2_66">
<rect width="600" height="600" fill="white" transform="translate(1258 240)"/>
</clipPath>
</defs>
</svg>
