<svg width="1920" height="1080" viewBox="0 0 1920 1080" fill="none" xmlns="http://www.w3.org/2000/svg">
<rect width="1920" height="1080" fill="white"/>
<path fill-rule="evenodd" clip-rule="evenodd" d="M1377.36 0L0 0V1080H1377.36C1210.88 950.859 1105 756.883 1105 540C1105 323.117 1210.88 129.141 1377.36 0Z" fill="#D9D9D9"/>
<path d="M1287.65 313.242C1275.7 316.875 1267.02 324.492 1261.63 336.094L1258.59 342.539L1258.23 384.375C1257.88 424.687 1258 426.328 1260.34 430.898C1263.04 436.289 1269.72 440.391 1275.58 440.391C1281.44 440.391 1288.12 436.289 1290.81 431.016C1293.04 426.68 1293.16 424.219 1293.16 388.359C1293.16 355.312 1293.39 350.039 1295.03 348.516C1296.55 346.875 1301.83 346.641 1334.87 346.641C1370.73 346.641 1373.2 346.523 1377.53 344.297C1382.8 341.602 1386.91 334.922 1386.91 329.062C1386.91 323.203 1382.8 316.523 1377.53 313.828C1373.2 311.602 1370.85 311.484 1332.77 311.602C1303 311.602 1291.28 312.07 1287.65 313.242Z" fill="black"/>
<path d="M1738.23 313.828C1733.2 316.523 1729.09 323.438 1729.09 329.062C1729.09 334.922 1733.2 341.602 1738.47 344.297C1742.8 346.523 1745.27 346.641 1781.12 346.641C1814.17 346.641 1819.45 346.875 1820.97 348.516C1822.61 350.039 1822.84 355.312 1822.84 388.359C1822.84 424.219 1822.96 426.68 1825.19 431.016C1827.88 436.289 1834.56 440.391 1840.42 440.391C1846.28 440.391 1852.96 436.289 1855.66 430.898C1858 426.328 1858.12 424.688 1857.77 384.375L1857.41 342.539L1854.37 335.977C1850.03 326.719 1843.82 320.391 1834.8 315.938L1826.95 312.07L1784.76 311.836C1744.56 311.484 1742.34 311.602 1738.23 313.828Z" fill="black"/>
<path d="M1337.45 385.43C1334.76 386.836 1332.06 389.531 1330.66 392.344C1328.31 396.914 1328.31 399.023 1328.31 540C1328.31 681.094 1328.31 683.086 1330.66 687.656C1333.35 692.93 1340.03 697.031 1345.89 697.031C1351.75 697.031 1358.43 692.93 1361.12 687.656C1363.47 683.086 1363.47 681.094 1363.47 540C1363.47 398.906 1363.47 396.914 1361.12 392.344C1356.79 383.789 1346.24 380.742 1337.45 385.43Z" fill="black"/>
<path d="M1407.77 385.43C1405.07 386.836 1402.38 389.531 1400.97 392.344C1398.62 396.797 1398.62 399.023 1398.62 493.125C1398.62 587.227 1398.62 589.453 1400.97 593.906C1403.66 599.18 1410.34 603.281 1416.2 603.281C1422.06 603.281 1428.74 599.18 1431.44 593.906C1433.78 589.453 1433.78 587.227 1433.78 493.125C1433.78 399.023 1433.78 396.797 1431.44 392.344C1427.1 383.789 1416.55 380.742 1407.77 385.43Z" fill="black"/>
<path d="M1478.08 385.43C1475.38 386.836 1472.69 389.531 1471.28 392.344C1468.94 396.914 1468.94 399.023 1468.94 540C1468.94 681.094 1468.94 683.086 1471.28 687.656C1473.98 692.93 1480.66 697.031 1486.52 697.031C1492.38 697.031 1499.05 692.93 1501.75 687.656C1504.09 683.086 1504.09 681.094 1504.09 540C1504.09 398.906 1504.09 396.914 1501.75 392.344C1497.41 383.789 1486.87 380.742 1478.08 385.43Z" fill="black"/>
<path d="M1548.39 385.43C1545.7 386.836 1543 389.531 1541.59 392.344C1539.25 396.797 1539.25 399.023 1539.25 493.125C1539.25 587.227 1539.25 589.453 1541.59 593.906C1544.29 599.18 1550.97 603.281 1556.83 603.281C1562.69 603.281 1569.37 599.18 1572.06 593.906C1574.41 589.453 1574.41 587.227 1574.41 493.125C1574.41 399.023 1574.41 396.797 1572.06 392.344C1567.73 383.789 1557.18 380.742 1548.39 385.43Z" fill="black"/>
<path d="M1618.7 385.43C1616.01 386.836 1613.31 389.531 1611.91 392.344C1609.56 396.797 1609.56 399.023 1609.56 493.125C1609.56 587.227 1609.56 589.453 1611.91 593.906C1614.6 599.18 1621.28 603.281 1627.14 603.281C1633 603.281 1639.68 599.18 1642.38 593.906C1644.72 589.453 1644.72 587.227 1644.72 493.125C1644.72 399.023 1644.72 396.797 1642.38 392.344C1638.04 383.789 1627.49 380.742 1618.7 385.43Z" fill="black"/>
<path d="M1689.02 385.43C1686.32 386.836 1683.62 389.531 1682.22 392.344C1679.88 396.797 1679.88 399.023 1679.88 493.125C1679.88 587.227 1679.88 589.453 1682.22 593.906C1684.91 599.18 1691.59 603.281 1697.45 603.281C1703.31 603.281 1709.99 599.18 1712.69 593.906C1715.03 589.453 1715.03 587.227 1715.03 493.125C1715.03 399.023 1715.03 396.797 1712.69 392.344C1708.35 383.789 1697.8 380.742 1689.02 385.43Z" fill="black"/>
<path d="M1759.33 385.43C1756.63 386.836 1753.94 389.531 1752.53 392.344C1750.19 396.914 1750.19 399.023 1750.19 540C1750.19 681.094 1750.19 683.086 1752.53 687.656C1755.23 692.93 1761.91 697.031 1767.77 697.031C1773.62 697.031 1780.3 692.93 1783 687.656C1785.34 683.086 1785.34 681.094 1785.34 540C1785.34 398.906 1785.34 396.914 1783 392.344C1778.66 383.789 1768.12 380.742 1759.33 385.43Z" fill="black"/>
<path d="M1267.14 642.07C1264.33 643.477 1261.75 646.172 1260.34 649.102C1258 653.672 1257.88 655.313 1258.23 695.625L1258.59 737.461L1262.45 745.313C1266.91 754.336 1273.23 760.547 1282.49 764.883L1289.05 767.93L1330.89 768.281C1371.2 768.633 1372.84 768.516 1377.41 766.172C1382.8 763.477 1386.91 756.797 1386.91 750.938C1386.91 745.078 1382.8 738.398 1377.53 735.703C1373.2 733.477 1370.73 733.359 1334.87 733.359C1301.83 733.359 1296.55 733.125 1295.03 731.484C1293.39 729.961 1293.16 724.688 1293.16 691.641C1293.16 655.781 1293.04 653.32 1290.81 648.984C1286.48 640.43 1275.93 637.383 1267.14 642.07Z" fill="black"/>
<path d="M1831.98 642.07C1829.29 643.477 1826.59 646.172 1825.19 648.984C1822.96 653.32 1822.84 655.781 1822.84 691.641C1822.84 724.688 1822.61 729.961 1820.97 731.484C1819.45 733.125 1814.17 733.359 1781.12 733.359C1745.27 733.359 1742.8 733.477 1738.47 735.703C1733.2 738.398 1729.09 745.078 1729.09 750.938C1729.09 756.797 1733.2 763.477 1738.59 766.172C1743.16 768.516 1744.8 768.633 1785.11 768.281L1826.95 767.93L1833.51 764.883C1842.77 760.547 1849.09 754.336 1853.55 745.313L1857.41 737.461L1857.77 695.625C1858.12 655.313 1858 653.672 1855.66 649.102C1851.32 640.43 1840.77 637.383 1831.98 642.07Z" fill="black"/>
<path d="M1407.77 644.414C1400.5 648.164 1398.62 653.438 1398.62 669.492C1398.62 685.781 1400.5 690.82 1408 694.688C1413.86 697.617 1418.55 697.617 1424.41 694.688C1431.91 690.82 1433.78 685.781 1433.78 669.492C1433.78 653.203 1431.91 648.164 1424.41 644.297C1418.66 641.367 1413.39 641.367 1407.77 644.414Z" fill="black"/>
<path d="M1548.39 644.414C1541.12 648.164 1539.25 653.438 1539.25 669.492C1539.25 685.781 1541.12 690.82 1548.62 694.688C1554.48 697.617 1559.17 697.617 1565.03 694.688C1572.53 690.82 1574.41 685.781 1574.41 669.492C1574.41 653.203 1572.53 648.164 1565.03 644.297C1559.29 641.367 1554.02 641.367 1548.39 644.414Z" fill="black"/>
<path d="M1618.7 644.414C1611.44 648.164 1609.56 653.438 1609.56 669.492C1609.56 685.781 1611.44 690.82 1618.94 694.688C1624.8 697.617 1629.48 697.617 1635.34 694.688C1642.84 690.82 1644.72 685.781 1644.72 669.492C1644.72 653.203 1642.84 648.164 1635.34 644.297C1629.6 641.367 1624.33 641.367 1618.7 644.414Z" fill="black"/>
<path d="M1689.02 644.414C1681.75 648.164 1679.88 653.438 1679.88 669.492C1679.88 685.781 1681.75 690.82 1689.25 694.688C1695.11 697.617 1699.8 697.617 1705.66 694.688C1713.16 690.82 1715.03 685.781 1715.03 669.492C1715.03 653.203 1713.16 648.164 1705.66 644.297C1699.91 641.367 1694.64 641.367 1689.02 644.414Z" fill="black"/>
<path d="M944.225 529.979C942.35 530.682 941.236 531.531 938.043 534.813C934.352 538.533 933.619 539.852 933.619 542.781C933.619 546.414 933.209 545.887 951.227 563.934L967.545 580.281H916.656C866.207 580.281 865.738 580.281 864.156 580.867C861.988 581.688 860.084 583.738 859.439 585.965C859.059 587.283 858.971 588.631 859.059 592.527C859.146 596.775 859.234 597.596 859.791 598.768C860.523 600.408 862.252 602.225 863.834 602.986C864.977 603.572 866.031 603.572 916.363 603.719L967.691 603.865L951.285 620.271C933.209 638.348 933.59 637.879 933.619 641.424C933.648 644.236 934.527 645.76 938.453 649.598C942.555 653.641 943.609 654.256 946.598 654.256C948.414 654.227 949.059 654.109 950.26 653.465C952.223 652.41 1007.48 597.127 1008.3 595.369C1009.12 593.611 1009.06 590.213 1008.15 588.455C1007.21 586.58 951.666 531.092 949.996 530.33C948.473 529.656 945.572 529.48 944.225 529.979Z" fill="black"/>
<path d="M145.023 468.114C144.795 465.614 143.784 463.67 141.989 462.284C140.216 460.875 137.682 460.17 134.386 460.17C132.205 460.17 130.386 460.455 128.932 461.023C127.477 461.591 126.386 462.375 125.659 463.375C124.932 464.352 124.557 465.477 124.534 466.75C124.489 467.795 124.693 468.716 125.148 469.511C125.625 470.307 126.307 471.011 127.193 471.625C128.102 472.216 129.193 472.739 130.466 473.193C131.739 473.648 133.17 474.045 134.761 474.386L140.761 475.75C144.216 476.5 147.261 477.5 149.898 478.75C152.557 480 154.784 481.489 156.58 483.216C158.398 484.943 159.773 486.932 160.705 489.182C161.636 491.432 162.114 493.955 162.136 496.75C162.114 501.159 161 504.943 158.795 508.102C156.591 511.261 153.42 513.682 149.284 515.364C145.17 517.045 140.205 517.886 134.386 517.886C128.545 517.886 123.455 517.011 119.114 515.261C114.773 513.511 111.398 510.852 108.989 507.284C106.58 503.716 105.341 499.205 105.273 493.75H121.432C121.568 496 122.17 497.875 123.239 499.375C124.307 500.875 125.773 502.011 127.636 502.784C129.523 503.557 131.705 503.943 134.182 503.943C136.455 503.943 138.386 503.636 139.977 503.023C141.591 502.409 142.83 501.557 143.693 500.466C144.557 499.375 145 498.125 145.023 496.716C145 495.398 144.591 494.273 143.795 493.341C143 492.386 141.773 491.568 140.114 490.886C138.477 490.182 136.386 489.534 133.841 488.943L126.545 487.239C120.5 485.852 115.739 483.614 112.261 480.523C108.784 477.409 107.057 473.205 107.08 467.909C107.057 463.591 108.216 459.807 110.557 456.557C112.898 453.307 116.136 450.773 120.273 448.955C124.409 447.136 129.125 446.227 134.42 446.227C139.83 446.227 144.523 447.148 148.5 448.989C152.5 450.807 155.602 453.364 157.807 456.659C160.011 459.955 161.136 463.773 161.182 468.114H145.023ZM195.102 517.989C189.58 517.989 184.841 516.852 180.886 514.58C176.955 512.307 173.932 509.148 171.818 505.102C169.705 501.034 168.648 496.33 168.648 490.989C168.648 485.625 169.705 480.92 171.818 476.875C173.955 472.807 176.989 469.636 180.92 467.364C184.875 465.091 189.591 463.955 195.068 463.955C199.909 463.955 204.125 464.83 207.716 466.58C211.33 468.33 214.148 470.807 216.17 474.011C218.216 477.193 219.295 480.932 219.409 485.227H203.83C203.511 482.545 202.602 480.443 201.102 478.92C199.625 477.398 197.693 476.636 195.307 476.636C193.375 476.636 191.682 477.182 190.227 478.273C188.773 479.341 187.636 480.932 186.818 483.045C186.023 485.136 185.625 487.727 185.625 490.818C185.625 493.909 186.023 496.523 186.818 498.659C187.636 500.773 188.773 502.375 190.227 503.466C191.682 504.534 193.375 505.068 195.307 505.068C196.852 505.068 198.216 504.739 199.398 504.08C200.602 503.42 201.591 502.455 202.364 501.182C203.136 499.886 203.625 498.318 203.83 496.477H219.409C219.25 500.795 218.17 504.568 216.17 507.795C214.193 511.023 211.409 513.534 207.818 515.33C204.25 517.102 200.011 517.989 195.102 517.989ZM242.702 517.886C239.361 517.886 236.395 517.33 233.804 516.216C231.236 515.08 229.202 513.375 227.702 511.102C226.224 508.807 225.486 505.932 225.486 502.477C225.486 499.568 225.997 497.114 227.02 495.114C228.043 493.114 229.452 491.489 231.247 490.239C233.043 488.989 235.111 488.045 237.452 487.409C239.793 486.75 242.293 486.307 244.952 486.08C247.929 485.807 250.327 485.523 252.145 485.227C253.963 484.909 255.281 484.466 256.099 483.898C256.94 483.307 257.361 482.477 257.361 481.409V481.239C257.361 479.489 256.759 478.136 255.554 477.182C254.349 476.227 252.724 475.75 250.679 475.75C248.474 475.75 246.702 476.227 245.361 477.182C244.02 478.136 243.168 479.455 242.804 481.136L227.429 480.591C227.884 477.409 229.054 474.568 230.94 472.068C232.849 469.545 235.463 467.568 238.781 466.136C242.122 464.682 246.134 463.955 250.815 463.955C254.156 463.955 257.236 464.352 260.054 465.148C262.872 465.92 265.327 467.057 267.418 468.557C269.509 470.034 271.122 471.852 272.259 474.011C273.418 476.17 273.997 478.636 273.997 481.409V517H258.315V509.705H257.906C256.974 511.477 255.781 512.977 254.327 514.205C252.895 515.432 251.202 516.352 249.247 516.966C247.315 517.58 245.134 517.886 242.702 517.886ZM247.849 506.977C249.645 506.977 251.259 506.614 252.69 505.886C254.145 505.159 255.304 504.159 256.168 502.886C257.031 501.591 257.463 500.091 257.463 498.386V493.409C256.986 493.659 256.406 493.886 255.724 494.091C255.065 494.295 254.338 494.489 253.543 494.67C252.747 494.852 251.929 495.011 251.088 495.148C250.247 495.284 249.44 495.409 248.668 495.523C247.099 495.773 245.759 496.159 244.645 496.682C243.554 497.205 242.713 497.886 242.122 498.727C241.554 499.545 241.27 500.523 241.27 501.659C241.27 503.386 241.884 504.705 243.111 505.614C244.361 506.523 245.94 506.977 247.849 506.977ZM300.861 487.136V517H284.19V464.636H300.043V474.25H300.622C301.781 471.045 303.759 468.534 306.554 466.716C309.349 464.875 312.679 463.955 316.543 463.955C320.224 463.955 323.418 464.784 326.122 466.443C328.849 468.08 330.963 470.375 332.463 473.33C333.986 476.261 334.736 479.693 334.713 483.625V517H318.043V486.898C318.065 483.989 317.327 481.716 315.827 480.08C314.349 478.443 312.293 477.625 309.656 477.625C307.906 477.625 306.361 478.011 305.02 478.784C303.702 479.534 302.679 480.614 301.952 482.023C301.247 483.432 300.884 485.136 300.861 487.136ZM375.852 536.636C373.852 536.636 371.966 536.477 370.193 536.159C368.42 535.864 366.898 535.466 365.625 534.966L369.307 522.864C370.943 523.409 372.42 523.727 373.739 523.818C375.08 523.909 376.227 523.693 377.182 523.17C378.159 522.67 378.909 521.773 379.432 520.477L380.08 518.909L361.466 464.636H378.92L388.568 502H389.114L398.898 464.636H416.455L396.716 522.011C395.761 524.875 394.409 527.398 392.659 529.58C390.932 531.784 388.693 533.511 385.943 534.761C383.216 536.011 379.852 536.636 375.852 536.636ZM445.602 517.989C440.102 517.989 435.375 516.864 431.42 514.614C427.489 512.341 424.455 509.182 422.318 505.136C420.205 501.068 419.148 496.352 419.148 490.989C419.148 485.602 420.205 480.886 422.318 476.841C424.455 472.773 427.489 469.614 431.42 467.364C435.375 465.091 440.102 463.955 445.602 463.955C451.102 463.955 455.818 465.091 459.75 467.364C463.705 469.614 466.739 472.773 468.852 476.841C470.989 480.886 472.057 485.602 472.057 490.989C472.057 496.352 470.989 501.068 468.852 505.136C466.739 509.182 463.705 512.341 459.75 514.614C455.818 516.864 451.102 517.989 445.602 517.989ZM445.705 505.409C447.705 505.409 449.398 504.795 450.784 503.568C452.17 502.341 453.227 500.636 453.955 498.455C454.705 496.273 455.08 493.75 455.08 490.886C455.08 487.977 454.705 485.432 453.955 483.25C453.227 481.068 452.17 479.364 450.784 478.136C449.398 476.909 447.705 476.295 445.705 476.295C443.636 476.295 441.886 476.909 440.455 478.136C439.045 479.364 437.966 481.068 437.216 483.25C436.489 485.432 436.125 487.977 436.125 490.886C436.125 493.75 436.489 496.273 437.216 498.455C437.966 500.636 439.045 502.341 440.455 503.568C441.886 504.795 443.636 505.409 445.705 505.409ZM514.381 494.398V464.636H531.017V517H515.131V507.25H514.585C513.426 510.455 511.449 513 508.653 514.886C505.881 516.75 502.528 517.682 498.597 517.682C495.028 517.682 491.892 516.864 489.188 515.227C486.483 513.591 484.381 511.307 482.881 508.375C481.381 505.42 480.619 501.966 480.597 498.011V464.636H497.267V494.739C497.29 497.58 498.04 499.818 499.517 501.455C500.994 503.091 503.006 503.909 505.551 503.909C507.21 503.909 508.699 503.545 510.017 502.818C511.358 502.068 512.415 500.989 513.188 499.58C513.983 498.148 514.381 496.42 514.381 494.398ZM541.628 517V464.636H557.821V474.182H558.366C559.321 470.727 560.878 468.159 563.037 466.477C565.196 464.773 567.707 463.92 570.571 463.92C571.344 463.92 572.139 463.977 572.957 464.091C573.776 464.182 574.537 464.33 575.241 464.534V479.023C574.446 478.75 573.401 478.534 572.105 478.375C570.832 478.216 569.696 478.136 568.696 478.136C566.719 478.136 564.935 478.58 563.344 479.466C561.776 480.33 560.537 481.545 559.628 483.114C558.741 484.659 558.298 486.477 558.298 488.568V517H541.628ZM632.42 464.636V476.909H598.739V464.636H632.42ZM605.761 517V461.977C605.761 457.932 606.523 454.58 608.045 451.92C609.568 449.239 611.682 447.239 614.386 445.92C617.091 444.58 620.216 443.909 623.761 443.909C626.08 443.909 628.261 444.091 630.307 444.455C632.375 444.795 633.909 445.102 634.909 445.375L632.25 457.58C631.636 457.375 630.886 457.205 630 457.068C629.136 456.932 628.318 456.864 627.545 456.864C625.591 456.864 624.25 457.295 623.523 458.159C622.795 459.023 622.432 460.205 622.432 461.705V517H605.761ZM640.44 517V464.636H657.111V517H640.44ZM648.793 458.534C646.452 458.534 644.44 457.761 642.759 456.216C641.077 454.648 640.236 452.761 640.236 450.557C640.236 448.375 641.077 446.511 642.759 444.966C644.44 443.398 646.452 442.614 648.793 442.614C651.156 442.614 653.168 443.398 654.827 444.966C656.509 446.511 657.349 448.375 657.349 450.557C657.349 452.761 656.509 454.648 654.827 456.216C653.168 457.761 651.156 458.534 648.793 458.534ZM713.438 480.625L698.131 481.034C697.972 479.943 697.54 478.977 696.835 478.136C696.131 477.273 695.21 476.602 694.074 476.125C692.96 475.625 691.665 475.375 690.188 475.375C688.256 475.375 686.608 475.761 685.244 476.534C683.903 477.307 683.244 478.352 683.267 479.67C683.244 480.693 683.653 481.58 684.494 482.33C685.358 483.08 686.892 483.682 689.097 484.136L699.188 486.045C704.415 487.045 708.301 488.705 710.847 491.023C713.415 493.341 714.71 496.409 714.733 500.227C714.71 503.818 713.642 506.943 711.528 509.602C709.438 512.261 706.574 514.33 702.938 515.807C699.301 517.261 695.142 517.989 690.46 517.989C682.983 517.989 677.085 516.455 672.767 513.386C668.472 510.295 666.017 506.159 665.403 500.977L681.869 500.568C682.233 502.477 683.176 503.932 684.699 504.932C686.222 505.932 688.165 506.432 690.528 506.432C692.665 506.432 694.403 506.034 695.744 505.239C697.085 504.443 697.767 503.386 697.79 502.068C697.767 500.886 697.244 499.943 696.222 499.239C695.199 498.511 693.597 497.943 691.415 497.534L682.278 495.795C677.028 494.841 673.119 493.08 670.551 490.511C667.983 487.92 666.71 484.625 666.733 480.625C666.71 477.125 667.642 474.136 669.528 471.659C671.415 469.159 674.097 467.25 677.574 465.932C681.051 464.614 685.153 463.955 689.881 463.955C696.972 463.955 702.563 465.443 706.653 468.42C710.744 471.375 713.006 475.443 713.438 480.625ZM752.497 464.636V476.909H719.463V464.636H752.497ZM726.384 452.091H743.054V500.534C743.054 501.557 743.213 502.386 743.531 503.023C743.872 503.636 744.361 504.08 744.997 504.352C745.634 504.602 746.395 504.727 747.281 504.727C747.918 504.727 748.588 504.67 749.293 504.557C750.02 504.42 750.565 504.307 750.929 504.216L753.452 516.25C752.656 516.477 751.531 516.761 750.077 517.102C748.645 517.443 746.929 517.659 744.929 517.75C741.02 517.932 737.668 517.477 734.872 516.386C732.099 515.273 729.974 513.545 728.497 511.205C727.043 508.864 726.338 505.92 726.384 502.375V452.091ZM781.628 517V464.636H798.298V517H781.628ZM789.98 458.534C787.639 458.534 785.628 457.761 783.946 456.216C782.264 454.648 781.423 452.761 781.423 450.557C781.423 448.375 782.264 446.511 783.946 444.966C785.628 443.398 787.639 442.614 789.98 442.614C792.344 442.614 794.355 443.398 796.014 444.966C797.696 446.511 798.537 448.375 798.537 450.557C798.537 452.761 797.696 454.648 796.014 456.216C794.355 457.761 792.344 458.534 789.98 458.534ZM838.466 464.636V476.909H805.432V464.636H838.466ZM812.352 452.091H829.023V500.534C829.023 501.557 829.182 502.386 829.5 503.023C829.841 503.636 830.33 504.08 830.966 504.352C831.602 504.602 832.364 504.727 833.25 504.727C833.886 504.727 834.557 504.67 835.261 504.557C835.989 504.42 836.534 504.307 836.898 504.216L839.42 516.25C838.625 516.477 837.5 516.761 836.045 517.102C834.614 517.443 832.898 517.659 830.898 517.75C826.989 517.932 823.636 517.477 820.841 516.386C818.068 515.273 815.943 513.545 814.466 511.205C813.011 508.864 812.307 505.92 812.352 502.375V452.091ZM870.886 517.989C865.409 517.989 860.682 516.909 856.705 514.75C852.75 512.568 849.705 509.466 847.568 505.443C845.455 501.398 844.398 496.591 844.398 491.023C844.398 485.614 845.466 480.886 847.602 476.841C849.739 472.773 852.75 469.614 856.636 467.364C860.523 465.091 865.102 463.955 870.375 463.955C874.102 463.955 877.511 464.534 880.602 465.693C883.693 466.852 886.364 468.568 888.614 470.841C890.864 473.114 892.614 475.92 893.864 479.261C895.114 482.58 895.739 486.386 895.739 490.682V494.841H850.227V485.159H880.227C880.205 483.386 879.784 481.807 878.966 480.42C878.148 479.034 877.023 477.955 875.591 477.182C874.182 476.386 872.557 475.989 870.716 475.989C868.852 475.989 867.182 476.409 865.705 477.25C864.227 478.068 863.057 479.193 862.193 480.625C861.33 482.034 860.875 483.636 860.83 485.432V495.284C860.83 497.42 861.25 499.295 862.091 500.909C862.932 502.5 864.125 503.739 865.67 504.625C867.216 505.511 869.057 505.955 871.193 505.955C872.67 505.955 874.011 505.75 875.216 505.341C876.42 504.932 877.455 504.33 878.318 503.534C879.182 502.739 879.83 501.761 880.261 500.602L895.568 501.045C894.932 504.477 893.534 507.466 891.375 510.011C889.239 512.534 886.432 514.5 882.955 515.909C879.477 517.295 875.455 517.989 870.886 517.989ZM904.253 517V464.636H920.105V474.25H920.685C921.776 471.068 923.616 468.557 926.207 466.716C928.798 464.875 931.889 463.955 935.48 463.955C939.116 463.955 942.23 464.886 944.821 466.75C947.412 468.614 949.06 471.114 949.764 474.25H950.31C951.287 471.136 953.196 468.648 956.037 466.784C958.878 464.898 962.23 463.955 966.094 463.955C971.048 463.955 975.071 465.545 978.162 468.727C981.253 471.886 982.798 476.227 982.798 481.75V517H966.128V485.568C966.128 482.955 965.457 480.966 964.116 479.602C962.776 478.216 961.037 477.523 958.901 477.523C956.605 477.523 954.798 478.273 953.48 479.773C952.185 481.25 951.537 483.239 951.537 485.739V517H935.514V485.398C935.514 482.966 934.855 481.045 933.537 479.636C932.219 478.227 930.48 477.523 928.321 477.523C926.866 477.523 925.582 477.875 924.469 478.58C923.355 479.261 922.48 480.239 921.844 481.511C921.23 482.784 920.923 484.284 920.923 486.011V517H904.253ZM131.727 633.989C126.227 633.989 121.5 632.864 117.545 630.614C113.614 628.341 110.58 625.182 108.443 621.136C106.33 617.068 105.273 612.352 105.273 606.989C105.273 601.602 106.33 596.886 108.443 592.841C110.58 588.773 113.614 585.614 117.545 583.364C121.5 581.091 126.227 579.955 131.727 579.955C137.227 579.955 141.943 581.091 145.875 583.364C149.83 585.614 152.864 588.773 154.977 592.841C157.114 596.886 158.182 601.602 158.182 606.989C158.182 612.352 157.114 617.068 154.977 621.136C152.864 625.182 149.83 628.341 145.875 630.614C141.943 632.864 137.227 633.989 131.727 633.989ZM131.83 621.409C133.83 621.409 135.523 620.795 136.909 619.568C138.295 618.341 139.352 616.636 140.08 614.455C140.83 612.273 141.205 609.75 141.205 606.886C141.205 603.977 140.83 601.432 140.08 599.25C139.352 597.068 138.295 595.364 136.909 594.136C135.523 592.909 133.83 592.295 131.83 592.295C129.761 592.295 128.011 592.909 126.58 594.136C125.17 595.364 124.091 597.068 123.341 599.25C122.614 601.432 122.25 603.977 122.25 606.886C122.25 609.75 122.614 612.273 123.341 614.455C124.091 616.636 125.17 618.341 126.58 619.568C128.011 620.795 129.761 621.409 131.83 621.409ZM166.722 633V580.636H182.915V590.182H183.46C184.415 586.727 185.972 584.159 188.131 582.477C190.29 580.773 192.801 579.92 195.665 579.92C196.438 579.92 197.233 579.977 198.051 580.091C198.869 580.182 199.631 580.33 200.335 580.534V595.023C199.54 594.75 198.494 594.534 197.199 594.375C195.926 594.216 194.79 594.136 193.79 594.136C191.813 594.136 190.028 594.58 188.438 595.466C186.869 596.33 185.631 597.545 184.722 599.114C183.835 600.659 183.392 602.477 183.392 604.568V633H166.722ZM257.31 580.636V592.909H224.276V580.636H257.31ZM231.196 568.091H247.866V616.534C247.866 617.557 248.026 618.386 248.344 619.023C248.685 619.636 249.173 620.08 249.81 620.352C250.446 620.602 251.207 620.727 252.094 620.727C252.73 620.727 253.401 620.67 254.105 620.557C254.832 620.42 255.378 620.307 255.741 620.216L258.264 632.25C257.469 632.477 256.344 632.761 254.889 633.102C253.457 633.443 251.741 633.659 249.741 633.75C245.832 633.932 242.48 633.477 239.685 632.386C236.912 631.273 234.787 629.545 233.31 627.205C231.855 624.864 231.151 621.92 231.196 618.375V568.091ZM280.577 633.886C277.236 633.886 274.27 633.33 271.679 632.216C269.111 631.08 267.077 629.375 265.577 627.102C264.099 624.807 263.361 621.932 263.361 618.477C263.361 615.568 263.872 613.114 264.895 611.114C265.918 609.114 267.327 607.489 269.122 606.239C270.918 604.989 272.986 604.045 275.327 603.409C277.668 602.75 280.168 602.307 282.827 602.08C285.804 601.807 288.202 601.523 290.02 601.227C291.838 600.909 293.156 600.466 293.974 599.898C294.815 599.307 295.236 598.477 295.236 597.409V597.239C295.236 595.489 294.634 594.136 293.429 593.182C292.224 592.227 290.599 591.75 288.554 591.75C286.349 591.75 284.577 592.227 283.236 593.182C281.895 594.136 281.043 595.455 280.679 597.136L265.304 596.591C265.759 593.409 266.929 590.568 268.815 588.068C270.724 585.545 273.338 583.568 276.656 582.136C279.997 580.682 284.009 579.955 288.69 579.955C292.031 579.955 295.111 580.352 297.929 581.148C300.747 581.92 303.202 583.057 305.293 584.557C307.384 586.034 308.997 587.852 310.134 590.011C311.293 592.17 311.872 594.636 311.872 597.409V633H296.19V625.705H295.781C294.849 627.477 293.656 628.977 292.202 630.205C290.77 631.432 289.077 632.352 287.122 632.966C285.19 633.58 283.009 633.886 280.577 633.886ZM285.724 622.977C287.52 622.977 289.134 622.614 290.565 621.886C292.02 621.159 293.179 620.159 294.043 618.886C294.906 617.591 295.338 616.091 295.338 614.386V609.409C294.861 609.659 294.281 609.886 293.599 610.091C292.94 610.295 292.213 610.489 291.418 610.67C290.622 610.852 289.804 611.011 288.963 611.148C288.122 611.284 287.315 611.409 286.543 611.523C284.974 611.773 283.634 612.159 282.52 612.682C281.429 613.205 280.588 613.886 279.997 614.727C279.429 615.545 279.145 616.523 279.145 617.659C279.145 619.386 279.759 620.705 280.986 621.614C282.236 622.523 283.815 622.977 285.724 622.977ZM322.065 652.636V580.636H338.565V589.602H339.077C339.759 588.011 340.724 586.477 341.974 585C343.247 583.523 344.861 582.318 346.815 581.386C348.793 580.432 351.156 579.955 353.906 579.955C357.543 579.955 360.94 580.909 364.099 582.818C367.281 584.727 369.849 587.67 371.804 591.648C373.759 595.625 374.736 600.693 374.736 606.852C374.736 612.784 373.793 617.75 371.906 621.75C370.043 625.75 367.52 628.75 364.338 630.75C361.179 632.75 357.668 633.75 353.804 633.75C351.168 633.75 348.884 633.318 346.952 632.455C345.02 631.591 343.395 630.455 342.077 629.045C340.781 627.636 339.781 626.125 339.077 624.511H338.736V652.636H322.065ZM338.395 606.818C338.395 609.636 338.77 612.091 339.52 614.182C340.293 616.273 341.395 617.898 342.827 619.057C344.281 620.193 346.02 620.761 348.043 620.761C350.088 620.761 351.827 620.193 353.259 619.057C354.69 617.898 355.77 616.273 356.497 614.182C357.247 612.091 357.622 609.636 357.622 606.818C357.622 604 357.247 601.557 356.497 599.489C355.77 597.42 354.69 595.818 353.259 594.682C351.849 593.545 350.111 592.977 348.043 592.977C345.997 592.977 344.259 593.534 342.827 594.648C341.395 595.761 340.293 597.352 339.52 599.42C338.77 601.489 338.395 603.955 338.395 606.818ZM433.653 580.636V592.909H400.619V580.636H433.653ZM407.54 568.091H424.21V616.534C424.21 617.557 424.369 618.386 424.688 619.023C425.028 619.636 425.517 620.08 426.153 620.352C426.79 620.602 427.551 620.727 428.438 620.727C429.074 620.727 429.744 620.67 430.449 620.557C431.176 620.42 431.722 620.307 432.085 620.216L434.608 632.25C433.813 632.477 432.688 632.761 431.233 633.102C429.801 633.443 428.085 633.659 426.085 633.75C422.176 633.932 418.824 633.477 416.028 632.386C413.256 631.273 411.131 629.545 409.653 627.205C408.199 624.864 407.494 621.92 407.54 618.375V568.091ZM466.04 633.989C460.54 633.989 455.813 632.864 451.858 630.614C447.926 628.341 444.892 625.182 442.756 621.136C440.642 617.068 439.585 612.352 439.585 606.989C439.585 601.602 440.642 596.886 442.756 592.841C444.892 588.773 447.926 585.614 451.858 583.364C455.813 581.091 460.54 579.955 466.04 579.955C471.54 579.955 476.256 581.091 480.188 583.364C484.142 585.614 487.176 588.773 489.29 592.841C491.426 596.886 492.494 601.602 492.494 606.989C492.494 612.352 491.426 617.068 489.29 621.136C487.176 625.182 484.142 628.341 480.188 630.614C476.256 632.864 471.54 633.989 466.04 633.989ZM466.142 621.409C468.142 621.409 469.835 620.795 471.222 619.568C472.608 618.341 473.665 616.636 474.392 614.455C475.142 612.273 475.517 609.75 475.517 606.886C475.517 603.977 475.142 601.432 474.392 599.25C473.665 597.068 472.608 595.364 471.222 594.136C469.835 592.909 468.142 592.295 466.142 592.295C464.074 592.295 462.324 592.909 460.892 594.136C459.483 595.364 458.403 597.068 457.653 599.25C456.926 601.432 456.562 603.977 456.562 606.886C456.562 609.75 456.926 612.273 457.653 614.455C458.403 616.636 459.483 618.341 460.892 619.568C462.324 620.795 464.074 621.409 466.142 621.409ZM567.375 596.625L552.068 597.034C551.909 595.943 551.477 594.977 550.773 594.136C550.068 593.273 549.148 592.602 548.011 592.125C546.898 591.625 545.602 591.375 544.125 591.375C542.193 591.375 540.545 591.761 539.182 592.534C537.841 593.307 537.182 594.352 537.205 595.67C537.182 596.693 537.591 597.58 538.432 598.33C539.295 599.08 540.83 599.682 543.034 600.136L553.125 602.045C558.352 603.045 562.239 604.705 564.784 607.023C567.352 609.341 568.648 612.409 568.67 616.227C568.648 619.818 567.58 622.943 565.466 625.602C563.375 628.261 560.511 630.33 556.875 631.807C553.239 633.261 549.08 633.989 544.398 633.989C536.92 633.989 531.023 632.455 526.705 629.386C522.409 626.295 519.955 622.159 519.341 616.977L535.807 616.568C536.17 618.477 537.114 619.932 538.636 620.932C540.159 621.932 542.102 622.432 544.466 622.432C546.602 622.432 548.341 622.034 549.682 621.239C551.023 620.443 551.705 619.386 551.727 618.068C551.705 616.886 551.182 615.943 550.159 615.239C549.136 614.511 547.534 613.943 545.352 613.534L536.216 611.795C530.966 610.841 527.057 609.08 524.489 606.511C521.92 603.92 520.648 600.625 520.67 596.625C520.648 593.125 521.58 590.136 523.466 587.659C525.352 585.159 528.034 583.25 531.511 581.932C534.989 580.614 539.091 579.955 543.818 579.955C550.909 579.955 556.5 581.443 560.591 584.42C564.682 587.375 566.943 591.443 567.375 596.625ZM606.435 580.636V592.909H573.401V580.636H606.435ZM580.321 568.091H596.991V616.534C596.991 617.557 597.151 618.386 597.469 619.023C597.81 619.636 598.298 620.08 598.935 620.352C599.571 620.602 600.332 620.727 601.219 620.727C601.855 620.727 602.526 620.67 603.23 620.557C603.957 620.42 604.503 620.307 604.866 620.216L607.389 632.25C606.594 632.477 605.469 632.761 604.014 633.102C602.582 633.443 600.866 633.659 598.866 633.75C594.957 633.932 591.605 633.477 588.81 632.386C586.037 631.273 583.912 629.545 582.435 627.205C580.98 624.864 580.276 621.92 580.321 618.375V568.091ZM629.702 633.886C626.361 633.886 623.395 633.33 620.804 632.216C618.236 631.08 616.202 629.375 614.702 627.102C613.224 624.807 612.486 621.932 612.486 618.477C612.486 615.568 612.997 613.114 614.02 611.114C615.043 609.114 616.452 607.489 618.247 606.239C620.043 604.989 622.111 604.045 624.452 603.409C626.793 602.75 629.293 602.307 631.952 602.08C634.929 601.807 637.327 601.523 639.145 601.227C640.963 600.909 642.281 600.466 643.099 599.898C643.94 599.307 644.361 598.477 644.361 597.409V597.239C644.361 595.489 643.759 594.136 642.554 593.182C641.349 592.227 639.724 591.75 637.679 591.75C635.474 591.75 633.702 592.227 632.361 593.182C631.02 594.136 630.168 595.455 629.804 597.136L614.429 596.591C614.884 593.409 616.054 590.568 617.94 588.068C619.849 585.545 622.463 583.568 625.781 582.136C629.122 580.682 633.134 579.955 637.815 579.955C641.156 579.955 644.236 580.352 647.054 581.148C649.872 581.92 652.327 583.057 654.418 584.557C656.509 586.034 658.122 587.852 659.259 590.011C660.418 592.17 660.997 594.636 660.997 597.409V633H645.315V625.705H644.906C643.974 627.477 642.781 628.977 641.327 630.205C639.895 631.432 638.202 632.352 636.247 632.966C634.315 633.58 632.134 633.886 629.702 633.886ZM634.849 622.977C636.645 622.977 638.259 622.614 639.69 621.886C641.145 621.159 642.304 620.159 643.168 618.886C644.031 617.591 644.463 616.091 644.463 614.386V609.409C643.986 609.659 643.406 609.886 642.724 610.091C642.065 610.295 641.338 610.489 640.543 610.67C639.747 610.852 638.929 611.011 638.088 611.148C637.247 611.284 636.44 611.409 635.668 611.523C634.099 611.773 632.759 612.159 631.645 612.682C630.554 613.205 629.713 613.886 629.122 614.727C628.554 615.545 628.27 616.523 628.27 617.659C628.27 619.386 628.884 620.705 630.111 621.614C631.361 622.523 632.94 622.977 634.849 622.977ZM671.19 633V580.636H687.384V590.182H687.929C688.884 586.727 690.44 584.159 692.599 582.477C694.759 580.773 697.27 579.92 700.134 579.92C700.906 579.92 701.702 579.977 702.52 580.091C703.338 580.182 704.099 580.33 704.804 580.534V595.023C704.009 594.75 702.963 594.534 701.668 594.375C700.395 594.216 699.259 594.136 698.259 594.136C696.281 594.136 694.497 594.58 692.906 595.466C691.338 596.33 690.099 597.545 689.19 599.114C688.304 600.659 687.861 602.477 687.861 604.568V633H671.19ZM743.591 580.636V592.909H710.557V580.636H743.591ZM717.477 568.091H734.148V616.534C734.148 617.557 734.307 618.386 734.625 619.023C734.966 619.636 735.455 620.08 736.091 620.352C736.727 620.602 737.489 620.727 738.375 620.727C739.011 620.727 739.682 620.67 740.386 620.557C741.114 620.42 741.659 620.307 742.023 620.216L744.545 632.25C743.75 632.477 742.625 632.761 741.17 633.102C739.739 633.443 738.023 633.659 736.023 633.75C732.114 633.932 728.761 633.477 725.966 632.386C723.193 631.273 721.068 629.545 719.591 627.205C718.136 624.864 717.432 621.92 717.477 618.375V568.091Z" fill="#1E1E1E"/>
</svg>
